<?xml version="1.0" encoding="utf-8"?>
<!-- Generator: Adobe Illustrator 24.3.0, SVG Export Plug-In . SVG Version: 6.00 Build 0)  -->
<svg version="1.1" id="Capa_1" xmlns="http://www.w3.org/2000/svg" xmlns:xlink="http://www.w3.org/1999/xlink" x="0px" y="0px"
	 viewBox="0 0 2052 2194" style="enable-background:new 0 0 2052 2194;" xml:space="preserve">
<style type="text/css">
	.st0{fill:url(#SVGID_1_);}
	.st1{fill:#C2E5F6;}
	.st2{opacity:0.61;fill:url(#SVGID_2_);}
	.st3{opacity:0.22;fill:#F9D4D8;}
	.st4{opacity:0.61;fill:url(#SVGID_3_);}
	.st5{fill:#F8C9CF;}
	.st6{fill:url(#SVGID_4_);}
	.st7{fill:url(#SVGID_5_);}
	.st8{fill:url(#SVGID_6_);}
	.st9{fill:url(#SVGID_7_);}
	.st10{opacity:0.44;}
	.st11{fill:#CCE6F9;}
	.st12{opacity:0.44;fill:#CCE6F9;}
	.st13{opacity:0.36;fill:#5DC4F1;}
	.st14{fill:#FFFFFF;}
	.st15{fill:url(#SVGID_8_);}
	.st16{opacity:0.61;fill:url(#SVGID_9_);}
	.st17{opacity:0.61;fill:url(#SVGID_10_);}
	.st18{fill:#067E36;}
	.st19{fill:#0BA338;}
	.st20{fill:#194655;}
	.st21{fill:#F39C8E;}
	.st22{fill:#E5B760;}
	.st23{fill:#133759;}
	.st24{fill:#D24D2F;}
	.st25{fill:#EE745A;}
	.st26{fill:#F4A492;}
	.st27{fill:#EE755A;}
	.st28{fill:#184655;}
	.st29{fill:#3C8F7C;}
	.st30{fill:#F7CC7F;}
	.st31{fill:#F18B7F;}
	.st32{fill:#13375A;}
</style>
<g>
	<g>
		<g>
			
				<linearGradient id="SVGID_1_" gradientUnits="userSpaceOnUse" x1="2669.1912" y1="-522.3571" x2="2711.8333" y2="1592.6837" gradientTransform="matrix(-1 0 0 1 3727.8691 0)">
				<stop  offset="0" style="stop-color:#BDE3F0"/>
				<stop  offset="1" style="stop-color:#D3ECF6"/>
			</linearGradient>
			<polygon class="st0" points="0,2196.92 2052,2196.92 2052,0 0,0 			"/>
			<path class="st1" d="M672.47,984.88c791.05,105.66,517.68-318.5,961-600.25c317.35-201.69,415.09,54.16,418.52,78.73v1733.56
				H0.11V1181.71C30.76,714.96,464.35,957.08,672.47,984.88z"/>
			
				<linearGradient id="SVGID_2_" gradientUnits="userSpaceOnUse" x1="1688.7655" y1="988.6666" x2="2270.4451" y2="1817.2037" gradientTransform="matrix(-1 0 0 1 3727.8691 0)">
				<stop  offset="0" style="stop-color:#A3BDD1"/>
				<stop  offset="1" style="stop-color:#6C99D1"/>
			</linearGradient>
			<path class="st2" d="M955.65,1313.51c223.56,0,439.66-168.74,573.8-358.58c110.9-156.96,377.02-397.04,522.55-247.09v1489.08
				H949.89v-883.41H955.65z"/>
			<path class="st3" d="M544.48,1263.07c-0.06,21.07-0.13,42.14-0.19,63.2c137.12-4.26,274.24-8.51,411.36-12.77
				c223.55,0,439.66-168.74,573.8-358.57c0.84-1.2,1.69-2.38,2.54-3.6c-58.11,3.76-119.92,6.63-176.31,38.82
				c-54.89,31.33-99.43,112.53-153.23,151.6c-134.19,97.45-284.35-46.55-423.79,12.03c-79.05,33.21-154.27,131.07-234.18,108.15
				C544.48,1262.31,544.48,1262.69,544.48,1263.07z"/>
			
				<linearGradient id="SVGID_3_" gradientUnits="userSpaceOnUse" x1="3325.5344" y1="1416.256" x2="3638.9727" y2="1862.7137" gradientTransform="matrix(-1 0 0 1 3727.8691 0)">
				<stop  offset="0" style="stop-color:#A3BDD1"/>
				<stop  offset="1" style="stop-color:#6C99D1"/>
			</linearGradient>
			<path class="st4" d="M92.7,1184.92c-2.01-6.09-3.35-17.13-3.35-29.74c0-9.48,1.69-18.07,3.41-24.34
				c1.76-6.41,3.2-9.49,3.53-10.41c0.28,1.19,7.34,15.27,6.91,38.02c-0.11,5.84-0.7,15.08-2.12,22.06c4.06-2.1,8.12-4.14,12.19-6.11
				v-11.61c-3.22-3.03-5.65-17.17-5.65-34.15c0-9.48,1.69-18.07,3.41-24.34c1.76-6.41,3.2-9.49,3.53-10.41
				c0.28,1.18,7.34,15.27,6.91,38.02c-0.18,9.87-1.76,29.5-6.34,31.37v10.23c23.13-11.12,46.28-20.17,69.09-26.55
				c101.55-28.4,192.77,120.43,192.77,315.01v734.96H0v-952.15C30,1222.3,61.21,1201.85,92.7,1184.92z"/>
			<rect x="0.01" y="1641.76" class="st5" width="2051.99" height="555.16"/>
			
				<linearGradient id="SVGID_4_" gradientUnits="userSpaceOnUse" x1="1818.9198" y1="923.3964" x2="1816.0593" y2="1143.6395" gradientTransform="matrix(-1 0 0 1 3727.8691 0)">
				<stop  offset="0" style="stop-color:#A3BDD1"/>
				<stop  offset="1" style="stop-color:#6C99D1"/>
			</linearGradient>
			<path class="st6" d="M1898.5,987.19c0-15.45,2.76-29.45,5.55-39.66l0,0c2.87-10.44,5.21-15.47,5.76-16.96l0,0l0,0
				c0.46,1.93,11.96,24.88,11.26,61.94c-0.3,16.08-2.87,48.06-10.33,51.11v23.86h-3.03v-24.64
				C1902.46,1037.9,1898.5,1014.86,1898.5,987.19z"/>
			
				<linearGradient id="SVGID_5_" gradientUnits="userSpaceOnUse" x1="1778.9241" y1="889.0004" x2="1775.3055" y2="1167.6125" gradientTransform="matrix(-1 0 0 1 3727.8691 0)">
				<stop  offset="0" style="stop-color:#A3BDD1"/>
				<stop  offset="1" style="stop-color:#6C99D1"/>
			</linearGradient>
			<path class="st7" d="M1935.72,969.7c0-19.54,3.49-37.25,7.02-50.17l0,0c3.63-13.21,6.59-19.57,7.28-21.45l0,0l0,0
				c0.58,2.44,15.12,31.48,14.24,78.36c-0.37,20.34-3.63,60.8-13.06,64.65v30.18h-3.84v-31.17
				C1940.74,1033.84,1935.72,1004.7,1935.72,969.7z"/>
			
				<linearGradient id="SVGID_6_" gradientUnits="userSpaceOnUse" x1="1877.4266" y1="1214.5427" x2="2364.9321" y2="1499.4934" gradientTransform="matrix(-1 0 0 1 3727.8691 0)">
				<stop  offset="0" style="stop-color:#83AED1"/>
				<stop  offset="1" style="stop-color:#6C99D1"/>
			</linearGradient>
			<path class="st8" d="M949.89,1313.51h5.76c73.88,0,146.95-18.43,216.52-49.96c54.59-24.74,109.95-41.65,165.67-50.8
				c46.54-7.64,92.5-16.69,134.78-27.38v-17.77c-5.24-6.83-9.21-38.75-9.21-77.09c0-21.4,2.76-40.8,5.55-54.95
				c2.87-14.47,5.21-21.43,5.76-23.49c0.46,2.67,11.96,34.47,11.26,85.81c-0.3,22.27-2.87,66.59-10.33,70.8v15.91
				c71.85-18.37,132.78-41.53,167.41-70.62c47.4-39.81,116.19-54.1,186.08-55.69v-5.15c-2.62-3.42-4.6-19.37-4.6-38.54
				c0-10.7,1.38-20.4,2.78-27.48c1.44-7.23,2.61-10.72,2.88-11.74c0.23,1.34,5.98,17.24,5.63,42.91c-0.15,11.14-1.43,33.3-5.16,35.4
				v4.57c4.34-0.09,8.68-0.13,13.01-0.12v-27.7c-4.46-5.82-7.83-32.98-7.83-65.6c0-18.21,2.35-34.72,4.73-46.76
				c2.44-12.31,4.44-18.24,4.9-19.99c0.39,2.28,10.17,29.34,9.58,73.03c-0.25,18.96-2.44,56.67-8.79,60.26v26.78
				c7.5,0.04,15,0.22,22.47,0.51v-17.5c-4.46-5.82-7.83-32.98-7.83-65.6c0-18.21,2.35-34.72,4.72-46.76
				c2.45-12.31,4.44-18.24,4.9-19.99c0.39,2.28,10.17,29.34,9.58,73.03c-0.25,18.96-2.44,56.67-8.79,60.26v16.68
				c70.3,3.02,137.53,16.38,180.7,26.77v438.61l-1102.11-49.37V1313.51z"/>
			
				<linearGradient id="SVGID_7_" gradientUnits="userSpaceOnUse" x1="2562.9954" y1="2004.7981" x2="2749.8542" y2="1293.9198" gradientTransform="matrix(-1 0 0 1 3727.8691 0)">
				<stop  offset="0" style="stop-color:#2089B6"/>
				<stop  offset="1" style="stop-color:#66C6E6"/>
			</linearGradient>
			<path class="st9" d="M2052,1672.07c-10.09,30.29-144.19,14.92-338.88,22.4c-100.8,3.87-217.53,69.64-342.41,69.23
				c-110.27-0.36-226.2-66.5-342.52-69.26c-116.21-2.76-233.26,57.85-343.61,53.57c-124.63-4.83-240.52-74.69-341.53-80.27
				C152.16,1657.19,18.07,1708.05,0,1701.33v-449.71H2052V1672.07z"/>
			<g class="st10">
				<path class="st11" d="M187.47,1321.31c3.99-0.79,6.37,5.87,3.46,9.65c-9.32,12.13-24.03,12.15-33.36,0
					c-2.91-3.79-0.53-10.44,3.46-9.65C169.63,1323,178.87,1323,187.47,1321.31z"/>
				<path class="st11" d="M107.78,1317.81c6.38-1.26,10.19,9.39,5.54,15.45c-14.92,19.41-38.45,19.44-53.39,0
					c-4.66-6.06-0.84-16.71,5.54-15.45C79.23,1320.53,94.02,1320.53,107.78,1317.81z"/>
				<path class="st11" d="M1138.03,1321.52c6.05-1.19,9.66,8.9,5.25,14.65c-14.14,18.4-36.45,18.43-50.61,0
					c-4.42-5.75-0.8-15.84,5.25-14.65C1110.96,1324.09,1124.98,1324.09,1138.03,1321.52z"/>
				<path class="st11" d="M1268.29,1283.7c4.54-0.89,7.26,6.69,3.94,11c-10.62,13.82-27.38,13.84-38.02,0
					c-3.32-4.32-0.6-11.9,3.94-11C1247.96,1285.63,1258.49,1285.63,1268.29,1283.7z"/>
				<path class="st11" d="M1218.32,1345.22c3.43-0.68,5.48,5.04,2.97,8.3c-8.01,10.43-20.66,10.44-28.68,0
					c-2.5-3.26-0.45-8.97,2.97-8.3C1202.98,1346.68,1210.92,1346.68,1218.32,1345.22z"/>
				<path class="st11" d="M1328.88,1369.69c2.52-0.5,4.03,3.71,2.19,6.11c-5.9,7.67-15.2,7.68-21.1,0c-1.84-2.39-0.33-6.6,2.19-6.11
					C1317.59,1370.76,1323.44,1370.76,1328.88,1369.69z"/>
				<path class="st11" d="M1215.41,1277.69c2.44-0.33,3.89,2.47,2.11,4.06c-5.7,5.11-14.69,5.11-20.39,0
					c-1.78-1.59-0.32-4.39,2.11-4.06C1204.51,1278.4,1210.16,1278.4,1215.41,1277.69z"/>
				<path class="st11" d="M1186.7,1290.42c2.44-0.33,3.89,2.47,2.11,4.06c-5.7,5.11-14.69,5.11-20.39,0
					c-1.78-1.6-0.32-4.39,2.11-4.06C1175.8,1291.13,1181.44,1291.13,1186.7,1290.42z"/>
				<path class="st11" d="M1186.7,1277.69c2.44-0.33,3.89,2.47,2.11,4.06c-5.7,5.11-14.69,5.11-20.39,0
					c-1.78-1.59-0.32-4.39,2.11-4.06C1175.8,1278.4,1181.44,1278.4,1186.7,1277.69z"/>
				<path class="st11" d="M1159.74,1281.65c2.44-0.33,3.89,2.47,2.11,4.06c-5.7,5.11-14.69,5.11-20.39,0
					c-1.78-1.6-0.32-4.39,2.11-4.06C1148.83,1282.36,1154.48,1282.36,1159.74,1281.65z"/>
				<path class="st11" d="M1130.64,1273.73c2.44-0.33,3.89,2.47,2.11,4.06c-5.7,5.11-14.69,5.11-20.39,0
					c-1.78-1.59-0.32-4.39,2.11-4.06C1119.73,1274.44,1125.38,1274.44,1130.64,1273.73z"/>
			</g>
			<g>
				<path class="st12" d="M169.5,1284.36c3.99-0.79,6.37,5.87,3.46,9.65c-9.32,12.13-24.03,12.15-33.36,0
					c-2.91-3.79-0.53-10.44,3.46-9.65C151.66,1286.06,160.9,1286.06,169.5,1284.36z"/>
				<path class="st12" d="M240.55,1317.91c4.71-0.93,7.52,6.93,4.09,11.4c-11.01,14.33-28.38,14.35-39.4,0
					c-3.44-4.47-0.62-12.33,4.09-11.4C219.48,1319.91,230.39,1319.91,240.55,1317.91z"/>
				<path class="st12" d="M836.65,1375.23c2.54-0.5,4.05,3.73,2.2,6.14c-5.93,7.72-15.29,7.73-21.22,0
					c-1.85-2.41-0.34-6.64,2.2-6.14C825.3,1376.31,831.18,1376.31,836.65,1375.23z"/>
				<path class="st12" d="M794.73,1350.3c3.24-0.64,5.17,4.76,2.81,7.84c-7.57,9.85-19.51,9.86-27.09,0
					c-2.36-3.08-0.43-8.48,2.81-7.84C780.24,1351.68,787.74,1351.68,794.73,1350.3z"/>
				<path class="st12" d="M752.63,1303.4c3.24-0.64,5.17,4.76,2.81,7.84c-7.57,9.85-19.51,9.86-27.09,0
					c-2.36-3.08-0.43-8.48,2.81-7.84C738.14,1304.77,745.65,1304.77,752.63,1303.4z"/>
				<path class="st12" d="M821.48,1311.04c3.5-0.69,5.59,5.15,3.04,8.47c-8.18,10.65-21.09,10.66-29.28,0
					c-2.55-3.32-0.46-9.16,3.04-8.47C805.82,1312.53,813.93,1312.53,821.48,1311.04z"/>
				<path class="st12" d="M1599.28,1317.91c4.28-0.84,6.83,6.29,3.71,10.36c-10,13.01-25.77,13.03-35.78,0
					c-3.12-4.06-0.57-11.2,3.71-10.36C1580.15,1319.73,1590.06,1319.73,1599.28,1317.91z"/>
				<path class="st12" d="M1852.68,1310.73c3.91-0.77,6.25,5.75,3.39,9.46c-9.14,11.9-23.56,11.91-32.71,0
					c-2.85-3.71-0.52-10.24,3.39-9.46C1835.18,1312.39,1844.25,1312.39,1852.68,1310.73z"/>
				<path class="st12" d="M1811.03,1293.52c4.04-0.8,6.45,5.94,3.5,9.78c-9.44,12.29-24.34,12.3-33.79,0
					c-2.95-3.84-0.54-10.57,3.5-9.78C1792.95,1295.24,1802.31,1295.24,1811.03,1293.52z"/>
				<path class="st12" d="M1613.51,1398.99c3.25-0.64,5.2,4.79,2.82,7.88c-7.6,9.9-19.6,9.91-27.22,0
					c-2.37-3.09-0.43-8.52,2.82-7.88C1598.96,1400.37,1606.5,1400.37,1613.51,1398.99z"/>
				<path class="st12" d="M1876.27,1285.83c3.25-0.64,5.2,4.78,2.82,7.88c-7.6,9.9-19.6,9.91-27.22,0
					c-2.37-3.09-0.43-8.52,2.82-7.88C1861.72,1287.21,1869.26,1287.21,1876.27,1285.83z"/>
				<path class="st12" d="M1915.3,1315.8c3.91-0.77,6.25,5.75,3.39,9.47c-9.14,11.89-23.56,11.91-32.71,0
					c-2.85-3.71-0.52-10.24,3.39-9.46C1897.81,1317.46,1906.87,1317.46,1915.3,1315.8z"/>
				<path class="st12" d="M1938.9,1290.9c3.25-0.64,5.2,4.79,2.82,7.88c-7.6,9.9-19.6,9.91-27.22,0c-2.37-3.09-0.43-8.52,2.82-7.88
					C1924.34,1292.28,1931.88,1292.28,1938.9,1290.9z"/>
				<path class="st12" d="M1986.37,1299.9c3.2-0.63,5.12,4.71,2.78,7.76c-7.49,9.74-19.3,9.76-26.8,0
					c-2.34-3.04-0.42-8.39,2.78-7.76C1972.04,1301.26,1979.46,1301.26,1986.37,1299.9z"/>
				<path class="st12" d="M2005.7,1279.5c2.67-0.52,4.26,3.92,2.31,6.45c-6.23,8.11-16.06,8.12-22.3,0
					c-1.95-2.53-0.35-6.98,2.31-6.45C1993.77,1280.64,1999.95,1280.64,2005.7,1279.5z"/>
				<path class="st12" d="M1571.17,1287.57c3.25-0.64,5.2,4.79,2.82,7.88c-7.6,9.9-19.6,9.91-27.22,0
					c-2.37-3.09-0.43-8.52,2.82-7.88C1556.61,1288.95,1564.15,1288.95,1571.17,1287.57z"/>
				<path class="st12" d="M1648.68,1305.25c4.15-0.82,6.63,6.1,3.6,10.04c-9.7,12.62-25,12.64-34.71,0
					c-3.03-3.94-0.55-10.86,3.6-10.04C1630.11,1307.01,1639.73,1307.01,1648.68,1305.25z"/>
			</g>
			<path class="st13" d="M880.22,1557.61c348.13,114.47,864.07,68.01,1171.77,23.16v94.41c-23.65,23.73-155.92,12.26-338.88,19.29
				c-100.8,3.87-217.53,69.64-342.41,69.23c-110.27-0.36-226.2-66.5-342.52-69.26c-116.21-2.76-233.26,57.85-343.61,53.57
				c-124.63-4.83-240.52-74.69-341.53-80.27C152.16,1657.19,18.07,1708.05,0,1701.33v-198.37
				C237.37,1472.63,578.81,1458.5,880.22,1557.61z"/>
			<path class="st14" d="M0,1698.9c18.57-4.09,89.56-54.82,204.67-39.99c13.13,1.6,23.77,2.97,38.68,2.38
				c25.37-0.32,43.25-8.93,64.37-11.83c31.79-3.96,73.12,5.48,102.57,27.49l-0.24,4.04c-20.4,4.36-81.09,5.48-96.08,3.44
				c-31.68-3.47-52.77-20.99-108.84-3.22c-53.27,16.12-138.73,36.6-192.09,26.79c-4.32-0.97-8.66-1.66-13.03-4.55V1698.9z"/>
			<g>
				<path class="st14" d="M684.59,1745.98c-13.4-10.35-37.04-18.62-51.1-21.61c-14.89-2.87-15.85-2.69-34.51-0.04
					c-33.32,5.38-47.9-15.63-84.76-32.65c-23.78-11.04-38.59-17.56-68.65-18.97c-11.67-0.38-23.42,0.33-35.29,4.23l-0.24,4.04
					c17.08,15.79,46.64,32.24,66.89,40.03c14.71,5.69,44.46,10.95,51.68,11.39c11.82,0.96,21.77-0.87,34.97,0.93
					c32.29,4.49,40.85,24.92,68.46,27.25c17.28,1.39,36.05-0.1,52.5-10.53L684.59,1745.98z"/>
			</g>
			<path class="st14" d="M684.59,1745.98c7.19-1.81,14.34-3.18,21.47-4.66c123.83-30.5,147.31-47.49,235.05-58.41
				c81.59-8.57,91.81,3.91,173.16,16.65c60.17,11.05,61.15,2.68,150.14,30.62c29.68,9.54,55.59,17.09,74.55,22.47
				c19.96,5.66,40.21,5.2,60.11-1.26c44.37-14.4,121.85-35.01,165.02-38.68c72.3-7.02,62.38-10.93,110.19-30
				c1.02-0.32,7.09-2.42,13.08-3.74c23.98-5.75,72.1,0.1,98.17,11.56l0.02,4.08c-26.18,12.92-72.36,19.29-97.13,19.9
				c-31.73,1.75-52.41-11.05-109.71,19.26c-64.28,32.99-137.86,57.11-203.81,33.54c-2.79-1-5.63-1.2-8.44-0.59
				c-40.92,8.94-85.17,3.53-125.65-7.12c-59.27-15.2-84.74-35.58-127.24-46.97c-56.87-14.22-87.12-6.1-107.01-4.05
				c-130.67,24.15-223.45,66.46-322.01,41.47L684.59,1745.98z"/>
			<path class="st14" d="M1902.82,1675.68c14.58,3.5,30.48,12.47,50.23,9.56c22.83-2.88,22.07-16.02,66.4-13.42
				c16.96,0.88,28.43,3.44,32.54-0.38v5.6c-7.09,19.93-37.1,29.13-48.29,30.75c-28.02,4.56-34.87-13.59-67.37-8.94
				c-12.61,1.76-54.85,21.05-100.52,13.07c-15.19-2.45-35.65-8.23-50.27-17.32l-0.02-4.08c18.94-12.38,47.31-19.16,67.02-20.24
				C1866.89,1669.4,1895.81,1673.88,1902.82,1675.68z"/>
			<path class="st14" d="M1067.51,607.01c-6.32-5.42-13.83-8.57-21.83-8.75c-7.41-22.88-24.7-38.15-44.35-38.15
				c-11.79,0-22.97,5.67-31.59,15.39c-9.59-28.43-31.63-48.29-56.6-48.29c-16.4,0-31.96,8.39-43.49,23.26
				c-1.65-0.34-3.32-0.51-4.99-0.51c-17.87,0-32.4,18.84-32.4,42.01c0,5.2,0.74,10.29,2.16,15.05H1067.51z"/>
			<path class="st14" d="M890.56,311.69c-11.06-9.48-24.22-15.01-38.22-15.32c-12.98-40.06-43.26-66.8-77.66-66.8
				c-20.65,0-40.22,9.93-55.32,26.95c-16.8-49.78-55.39-84.57-99.11-84.57c-28.72,0-55.96,14.7-76.15,40.72
				c-2.89-0.59-5.81-0.89-8.73-0.89c-31.29,0-56.74,33-56.74,73.56c0,9.11,1.3,18.02,3.78,26.35H890.56z"/>
			
				<linearGradient id="SVGID_8_" gradientUnits="userSpaceOnUse" x1="2220.5129" y1="1045.9764" x2="2217.6526" y2="1266.2222" gradientTransform="matrix(-1 0 0 1 3727.8691 0)">
				<stop  offset="0" style="stop-color:#A3BDD1"/>
				<stop  offset="1" style="stop-color:#6C99D1"/>
			</linearGradient>
			<path class="st15" d="M1496.91,1109.77c0-15.45,2.76-29.45,5.55-39.66l0,0c2.87-10.44,5.21-15.47,5.76-16.96l0,0l0,0
				c0.46,1.93,11.96,24.88,11.26,61.94c-0.3,16.08-2.87,48.07-10.33,51.11v23.86h-3.03v-24.64
				C1500.87,1160.48,1496.91,1137.44,1496.91,1109.77z"/>
			<path class="st14" d="M1976.24,239.73c-6.33-5.43-13.86-8.59-21.87-8.76c-7.43-22.92-24.75-38.22-44.44-38.22
				c-11.81,0-23.02,5.68-31.66,15.42c-9.61-28.49-31.69-48.39-56.71-48.39c-16.43,0-32.02,8.41-43.57,23.3
				c-1.65-0.34-3.32-0.51-5-0.51c-17.9,0-32.46,18.88-32.46,42.09c0,5.21,0.74,10.31,2.16,15.08H1976.24z"/>
			
				<linearGradient id="SVGID_9_" gradientUnits="userSpaceOnUse" x1="1716.8591" y1="524.0185" x2="1713.9987" y2="744.2635" gradientTransform="matrix(-1 0 0 1 3727.8691 0)">
				<stop  offset="0" style="stop-color:#A3BDD1"/>
				<stop  offset="1" style="stop-color:#6C99D1"/>
			</linearGradient>
			<path class="st16" d="M2003.07,616.58c0-12.51,2.24-23.86,4.5-32.14l0,0c2.33-8.46,4.22-12.53,4.66-13.74l0,0l0,0
				c0.37,1.56,9.69,20.16,9.12,50.18c-0.24,13.03-2.32,38.94-8.37,41.41v19.33h-2.46v-19.97
				C2006.29,657.67,2003.07,639,2003.07,616.58z"/>
			
				<linearGradient id="SVGID_10_" gradientUnits="userSpaceOnUse" x1="1741.538" y1="524.6799" x2="1738.6775" y2="744.923" gradientTransform="matrix(-1 0 0 1 3727.8691 0)">
				<stop  offset="0" style="stop-color:#A3BDD1"/>
				<stop  offset="1" style="stop-color:#6C99D1"/>
			</linearGradient>
			<path class="st17" d="M1975.88,588.47c0-15.45,2.76-29.45,5.55-39.66l0,0c2.87-10.44,5.21-15.47,5.76-16.95l0,0l0,0
				c0.46,1.93,11.96,24.88,11.26,61.94c-0.3,16.08-2.87,48.07-10.33,51.11v23.86h-3.03v-24.64
				C1979.84,639.18,1975.88,616.14,1975.88,588.47z"/>
		</g>
		<path class="st18" d="M0,1968.36c0,0,27.14-54.87,87.64-26.24c60.5,28.63,35.59,90.65,35.59,90.65s36.18-28.03,64.06,0
			c27.88,28.03,26.1,75.15,26.1,75.15s37.96-26.24,61.69-13.12c23.73,13.12,17.79,99.6,17.79,99.6H0V1968.36z"/>
		<path class="st19" d="M537.24,2196.99c0,0,34.4-49.82,24.91-60.74c-9.49-10.92-148.28,23.2-148.28,23.2s48.64-65.52,13.05-83.26
			c-35.59-17.75-123.37,51.87-123.37,51.87s23.73-71.58-26.1-80.15c-49.82-8.57-72.36,74.54-72.36,74.54s12.72-57.64-31.17-72.66
			c-43.89-15.02-98.13,93.28-98.13,93.28s48.64-120.12,26.1-159.71c-22.54-39.58-84.23,106.81-84.23,106.81s19.12-89.03-17.65-113.6
			v220.41h292.87H537.24z"/>
	</g>
	<g>
		<rect x="0" y="1613.67" class="st20" width="4230.21" height="48.3"/>
		<rect x="1653.34" y="1637.81" class="st20" width="20.96" height="557.54"/>
		<rect x="3123.14" y="1637.81" class="st20" width="20.97" height="557.54"/>
		<g>
			<path class="st21" d="M1294.82,1554.79l-16.51,41.44c0,0,10.03,13.7,15.4,19.07c5.37,5.37,363.21,0,363.21,0
				s9.75-2.93,24.39,11.71c14.65,14.64,14.15,40.5,26.35,61c12.21,20.49,16.6,67.83,22.45,67.83s16.59-4.88,12.69-28.31
				c-3.9-23.42-6.14-43.92,0.84-43.92c6.97,0,15.27,34.65,15.27,34.65s-4.88,80.52,5.36,84.91c10.25,4.39,12.69-2.44,12.69-2.44
				l4.38-42.46c0,0-2.43,40.5,6.84,40.5c9.28,0-1.95-154.22-1.95-159.34c0-5.12-105.89-79.29-105.89-79.29l-315.46-25.54
				L1294.82,1554.79z"/>
			<path class="st22" d="M1212.84,1122.43c0,0,38.06,34.16,61.49,102.48c23.42,68.32,90.55,309.71,90.55,309.71l-83.51,69.44
				L1122.7,1323.4L1212.84,1122.43z"/>
			<polygon class="st23" points="600.76,1901.3 576.17,1964.06 546.98,1992.68 531.27,2101.99 531.27,2196.99 755.1,2196.99 
				862.46,1921.76 			"/>
			<path class="st24" d="M1018.87,1363.25c5.47-36.84,4.31-280.77-6.75-320.52c-11.07-39.75-63.15-96.64-63.15-96.64l-86.5,187.11
				l28.92,190.53L1018.87,1363.25z"/>
			<path class="st25" d="M694.6,860.55c0,0-247.25,91.09-269.37,167.87c-22.12,76.78,150.95,838.04,150.95,838.04l-36.39,126.22
				l377.34,13.02c0,0,7.08-522.18,19.52-645.45c12.32-122.18,12.32-414.15,12.32-414.15L694.6,860.55z"/>
			<path class="st26" d="M623.77,769.64l23.74,127.92c0,0,94.4,155.88,141.21,132.87c39.28-19.3,6.74-138.99,6.74-138.99
				s-12.36-27.75-22.49-59.33c-7.08-22.07-13.07-46.01-13-63.66C760.13,725.54,623.77,769.64,623.77,769.64z"/>
			<path class="st27" d="M759.96,768.45c0.17-42.91-111.49,2.64-111.49,2.64l0.05,12.55c4.68,7.67,9.93,14.03,15.82,18.62
				c30.26,23.62,73.36,33.88,108.56,29.63C765.85,809.89,759.9,786.05,759.96,768.45z"/>
			<g>
				<path class="st28" d="M776.68,499.46c0,0,38.02,77.04,33.9,137.26c-4.13,60.22-22.01,99.38-22.01,99.38L660.51,536.06
					L776.68,499.46z"/>
				<path class="st26" d="M607.9,558.75c-3.37-1.18-25.29,172.83,19.89,220.22c45.19,47.39,132.49,62.21,163.4,24.25
					c34.18-41.98,30.67-228.74-39.34-277.27C681.83,477.42,607.9,558.75,607.9,558.75z"/>
				<path class="st28" d="M608.91,449.24c-42.81,28.83-64.6,51.1-98.33,107.77c-41.46,69.68,12.3,154.26,61.7,191.45
					c49.39,37.19,48.96,79.26,48.96,79.26l7.7-21.14c5.56-17.1-19.31-91.61-23.87-101.11c-12.03-25.04-14.34-30.42-4.14-51.45
					c7.86-16.19,6.04-54.32,18.42-81.08l73.69-6.29c0,0,46.26-5.05,72.27-28.29C840,471.62,722.05,371.44,608.91,449.24z"/>
				<path class="st26" d="M615.56,675.25c6.39,20.22,2.04,39.63-9.71,43.34c-11.75,3.71-26.46-9.66-32.85-29.88
					c-6.39-20.22-2.05-39.62,9.71-43.34C594.46,641.65,609.17,655.03,615.56,675.25z"/>
			</g>
			<path class="st21" d="M672.64,1491.68l-21.83,47.5c0,0-74.47,233.1-82.94,251.31c-8.46,18.22-30.84,81.56-30.84,81.56
				l-33.73,91.36c0,0,4,120.39,4.55,126.23c3.82,40.47,25.38,30.98,23.42,32.93l6.45-66.14l13.72-61.14l24.73-31.23
				c0,0,14.96,68.31,27.32,68.31c12.37,0,3.26-88.49,3.26-102.15s-17.56-61.16-11.71-73.52c5.85-12.36,187.02-322.07,187.02-322.07
				l-16.72-42.94H672.64z"/>
			<path class="st29" d="M862.46,1697.28c0,0-77.1,122.98-97.11,199.1c-20.01,76.13-10.25,300.6-10.25,300.6h1221.93
				c0,0-23.42-70.27-193.25-122.97c-169.82-52.71-290.84-31.23-370.87-126.88c-80.03-95.65-229.49-135.06-266.2-171.77
				c-36.72-36.71-36.36-78.08-36.36-78.08H862.46z"/>
			<path class="st30" d="M833.17,1194.66c0,0,23.43,340.61,23.43,380.63c0,40.02-11.71,132.73-11.71,132.73l281.07,19.52
				c0,0,42.95-195.19,57.59-230.33c14.64-35.13,53.68-78.08,53.68-125.9c0-47.82-24.4-248.88-24.4-248.88
				s-152.35-87.34-189.32-93.03c-77.54-11.93-161.05-7.83-161.05-7.83L833.17,1194.66z"/>
			<path class="st31" d="M417.42,1384.97c0,0,76.95,298.57,93.54,304.43c16.59,5.86,341.75-6.75,367.12,1.06
				c25.38,7.81,113.22,28.31,132.74,22.45c19.52-5.86,86.86-23.43,99.54-45.87c12.69-22.45-38.06,4.88-49.78,9.76
				c-11.71,4.88,59.53-29.77,65.88-36.11s26.11-27.57,18.55-35.13c-7.57-7.56-31.23,22.44-51.25,31.23
				c-20,8.78-50.25,20.49-50.25,17.08c0-3.42,54.65-26.35,60.02-31.72c5.37-5.36,37.58-29.28,37.58-37.57c0-8.3,0-18.06-17.56-8.79
				c-17.58,9.27-62.96,38.56-73.69,41c-10.73,2.44,28.55-37.82,33.68-42.94c5.12-5.12,9.76-17.57-12.69-13.66
				c-22.45,3.9-104.67,50.75-121.88,50.75s-308.43-76.29-308.43-76.29l-18.02-213.75L417.42,1384.97z"/>
			<path class="st30" d="M897.78,1023.54c0,0-48.24-14.96-70.64,21.47c-22.41,36.44-173.11,464.74-173.11,464.74l132.56,32.54
				l75.87-306.96L897.78,1023.54z"/>
			<path class="st24" d="M633.58,1349.98c0,0,16.77-216.16-20.98-292.94c-37.73-76.78-120.69-110.29-189.33-41.64
				c-68.64,68.64-14.97,378.68-14.97,378.68L633.58,1349.98z"/>
			<path class="st23" d="M1308.09,661.12c0,0-134.64-143.71-292.12-64.2c-64.02,32.33-102.02,90.52-106.93,161.79
				c-4.16,60.4,3.73,124.99,32.84,179.55c33,61.84,91.9,99.23,156.65,122c109.17,38.4,209.56,0,321.97,0
				c112.41,0,74.02,156.69,172.72,190.75c98.7,34.06,326.19-97.07,367.37-259.71c49.58-195.82-24.04-407.9-235.78-394.37
				C1549.71,608.12,1349.99,696.23,1308.09,661.12z"/>
			<path class="st26" d="M1036.39,920.83c0,0-11.36,130.9-25.95,167.18c-14.61,36.28-12.4,166.75,66.53,190.29
				c78.95,23.55,77.53-143.88,80.79-182.66c3.27-38.78,6.87-165.65,6.87-165.65L1036.39,920.83z"/>
			<path class="st25" d="M1032.42,960.55c8.06,8.72,17.48,16.69,28.39,23.64c38.24,24.35,73.3,24.01,101.78,9.44
				c1.22-34.56,2.04-63.64,2.04-63.64l-128.24-9.16C1036.39,920.83,1034.94,937.48,1032.42,960.55z"/>
			<path class="st26" d="M1080.21,654.29c0,0-47.49,10.7-76.81,55.45c-29.32,44.75-50.62,185.48,45.96,246.97
				c96.57,61.49,172.85-34.5,174.1-119.33C1224.7,752.54,1206.53,639.33,1080.21,654.29z"/>
			<path class="st26" d="M1251.72,800.54c-2.1,21.96-14.18,38.77-26.97,37.55c-12.8-1.23-21.47-20.03-19.37-41.99
				c2.11-21.97,14.19-38.78,26.98-37.56C1245.16,759.78,1253.82,778.57,1251.72,800.54z"/>
			<path class="st32" d="M1099.05,643.11c0,0-60.55,135.79-113.73,147.92c-53.19,12.12-52.43,80.45-52.43,80.45
				s1.2-157.79,51.04-193.98C1033.78,641.31,1099.05,643.11,1099.05,643.11z"/>
			<path class="st26" d="M1007.97,823.07c7,22.05,0.59,43.77-14.31,48.5c-14.91,4.73-32.66-9.31-39.67-31.36
				c-7-22.05-0.59-43.77,14.32-48.5C983.22,786.98,1000.97,801.02,1007.97,823.07z"/>
		</g>
	</g>
	<path class="st18" d="M3648.15,1935.59c50.92-34.43,306.81,95.69,306.81,95.69s-157.7-270.69-97.87-344.24
		c59.83-73.55,145.87,56.89,145.87,56.89s-117.97-217.22,11.88-292.34c101.77-58.87,195.14,100.23,215.37,135.72v609.61h-620.25
		C3609.96,2196.92,3597.23,1970.02,3648.15,1935.59z"/>
	<path class="st19" d="M3191.88,2084.44c17.84-20.22,278.69,42.97,278.69,42.97s-91.41-121.33-24.53-154.19
		c66.89-32.86,231.87,96.05,231.87,96.05s-44.59-132.55,49.05-148.43s136,138.04,136,138.04s-23.91-106.74,58.58-134.55
		c82.49-27.8,184.43,172.75,184.43,172.75s-91.41-222.44-49.05-295.74c42.36-73.31,158.29,197.79,158.29,197.79
		s-28.91-132.62,14.99-192.8v390.59H3238.7C3238.7,2196.92,3174.05,2104.66,3191.88,2084.44z"/>
</g>
</svg>
