<?xml version="1.0" encoding="utf-8"?>
<!-- Generator: Adobe Illustrator 24.3.0, SVG Export Plug-In . SVG Version: 6.00 Build 0)  -->
<svg version="1.1" id="Capa_1" xmlns="http://www.w3.org/2000/svg" xmlns:xlink="http://www.w3.org/1999/xlink" x="0px" y="0px"
	 viewBox="0 0 2052 2194" style="enable-background:new 0 0 2052 2194;" xml:space="preserve">
<style type="text/css">
	.st0{fill:#ACCD64;}
	.st1{fill:#C7E1F7;}
	.st2{fill:#98C0E7;}
	.st3{opacity:0.49;}
	.st4{opacity:0.34;}
	.st5{fill:#C85D94;}
	.st6{fill:#77A95D;}
	.st7{fill:#A3CC84;}
	.st8{opacity:0.39;fill:none;stroke:#3C307B;stroke-width:0.5117;stroke-miterlimit:10;}
	.st9{clip-path:url(#SVGID_2_);fill:#FFFFFF;}
	.st10{clip-path:url(#SVGID_2_);fill:none;stroke:#C85D94;stroke-width:2.0584;stroke-miterlimit:10;}
	.st11{fill:#FFFFFF;}
	.st12{opacity:0.61;fill:#C85D94;}
	.st13{opacity:0.41;fill:none;stroke:#C85D94;stroke-width:1.0099;stroke-miterlimit:10;}
	.st14{clip-path:url(#SVGID_4_);fill:#FFFFFF;}
	.st15{clip-path:url(#SVGID_4_);fill:none;stroke:#C85D94;stroke-width:2.0584;stroke-miterlimit:10;}
	.st16{fill:#948CC3;}
	.st17{opacity:0.23;}
	.st18{opacity:0.39;fill:none;stroke:#3C307B;stroke-width:0.3788;stroke-miterlimit:10;}
	.st19{opacity:0.33;fill:#59539F;}
	.st20{fill:none;stroke:#2D2963;stroke-width:0.8673;stroke-miterlimit:10;}
	.st21{fill:#2D2963;}
	.st22{opacity:0.34;fill:#C85D94;}
	.st23{opacity:0.51;}
	.st24{fill:#3C307B;}
	.st25{fill:#D18177;}
	.st26{opacity:0.49;fill:#D18177;}
	.st27{fill:#D9D3EA;}
	.st28{fill:#2C2862;}
	.st29{opacity:0.44;fill:#C85D94;}
	.st30{opacity:0.11;fill:#3C307B;}
	.st31{fill:none;stroke:#948CC3;stroke-width:1.3399;stroke-miterlimit:10;}
	.st32{opacity:0.16;fill:#948CC3;}
	.st33{opacity:0.46;fill:#FFFFFF;}
	.st34{fill:#B14B42;}
	.st35{opacity:0.69;fill:#948CC3;}
	.st36{fill:#59539F;}
	.st37{opacity:0.36;fill:#948CC3;}
	.st38{opacity:0.45;fill:none;stroke:#2D2963;stroke-width:1.0292;stroke-miterlimit:10;}
</style>
<rect x="-85.36" y="1747.73" class="st0" width="2137.36" height="446.27"/>
<rect x="-85.36" y="0" class="st1" width="2137.36" height="827.47"/>
<path class="st2" d="M-85.36,1747.73c63.07,6.29,73.25-38.36,754.09,273.59S2052,1852.23,2052,1852.23V283.74l-78.84,46.65
	c-377.74,195.33-977.01,169.09-1364.16-43.73s-694.37,254.1-694.37,254.1V1747.73z"/>
<g class="st3">
	<g class="st4">
		<path class="st5" d="M220.41,1516.48c-47.27-61.04-68.71-152.64-55.35-236.58s61.11-157.78,123.33-190.68
			c26.91-14.24,56.04-21.17,82.45-36.84c92.19-54.7,126.52-194.56,178.64-305.59c75.75-161.37,210.24-280.07,357.42-298.2
			c147.18-18.14,302.45,71.61,378.49,232.76c41.03,86.97,59.29,190.57,108.66,270.24c34.6,55.85,83.65,97,137.66,115.5
			c47.48,16.27,97.65,15.29,145.66,28.8c74.24,20.89,144.32,81.39,173.68,170.52c29.36,89.13,8.75,205.68-55.75,256.84
			L220.41,1516.48z"/>
	</g>
	<g class="st4">
		<path class="st5" d="M360.4,1517c-35.91-46.36-52.18-115.94-42.04-179.69c10.14-63.76,46.41-119.83,93.67-144.83
			c20.44-10.81,42.56-16.08,62.62-27.98c70.02-41.54,96.09-147.78,135.68-232.11C667.87,809.82,770.02,719.67,881.8,705.9
			c111.79-13.78,229.72,54.39,287.47,176.79c31.17,66.05,45.04,144.75,82.53,205.26c26.28,42.42,63.53,73.67,104.55,87.72
			c36.07,12.36,74.17,11.61,110.64,21.87c56.39,15.87,109.62,61.82,131.92,129.52c22.3,67.7,6.65,156.22-42.35,195.08L360.4,1517z"
			/>
	</g>
</g>
<g>
	<path class="st6" d="M1652.12,830.31c-33.71-10.92-69.36,7.04-82.66,40.45l17.34,1.65l-20.3,7.72c-0.59,2.37-1.07,4.74-1.42,7.11
		l24.63,6.44l-25.31,8.83c1.71,28.57,19.89,54.41,47.58,63.38c35.79,11.6,73.79-9.35,84.87-46.8
		C1707.94,881.66,1687.91,841.91,1652.12,830.31z"/>
	<g>
		<g>
			<ellipse class="st7" cx="1426.73" cy="829.22" rx="53.49" ry="55.96"/>
			<ellipse class="st7" cx="1464.57" cy="917.93" rx="67.84" ry="70.97"/>
			<ellipse class="st7" cx="1503.7" cy="1035.31" rx="97.79" ry="102.3"/>
			<path class="st8" d="M1404.55,778.72c0,0,172.21,322.1,182.65,543.21"/>
		</g>
		<g>
			<ellipse class="st7" cx="1823.34" cy="859.24" rx="53.49" ry="55.96"/>
			<ellipse class="st7" cx="1785.5" cy="947.96" rx="67.84" ry="70.97"/>
			<ellipse class="st7" cx="1746.36" cy="1065.34" rx="97.79" ry="102.3"/>
			<path class="st8" d="M1845.51,808.75c0,0-172.21,322.1-182.65,543.21"/>
		</g>
		<g>
			<ellipse class="st6" cx="1621" cy="801.65" rx="53.49" ry="55.96"/>
			<ellipse class="st6" cx="1636.24" cy="1022.34" rx="97.79" ry="102.3"/>
			<path class="st8" d="M1614.1,746.55c0,0,73.4,360.98,20.84,575.42"/>
		</g>
		<g>
			<defs>
				<polygon id="SVGID_1_" points="1711.03,1528.8 1555.1,1528.8 1510.8,1245.18 1748.24,1245.18 				"/>
			</defs>
			<clipPath id="SVGID_2_">
				<use xlink:href="#SVGID_1_"  style="overflow:visible;"/>
			</clipPath>
			<polygon class="st9" points="1711.03,1528.8 1555.1,1528.8 1510.8,1245.18 1748.24,1245.18 			"/>
			<polyline class="st10" points="1480.22,1265.42 1537.6,1311.01 1595.01,1265.42 1652.39,1311.01 1709.81,1265.42 
				1767.24,1311.01 			"/>
			<polyline class="st10" points="1480.22,1317.28 1537.6,1362.87 1595.01,1317.28 1652.39,1362.87 1709.81,1317.28 
				1767.24,1362.87 			"/>
			<polyline class="st10" points="1480.22,1369.14 1537.6,1414.74 1595.01,1369.14 1652.39,1414.74 1709.81,1369.14 
				1767.24,1414.74 			"/>
			<polyline class="st10" points="1480.22,1421.01 1537.6,1466.6 1595.01,1421.01 1652.39,1466.6 1709.81,1421.01 1767.24,1466.6 
							"/>
			<polyline class="st10" points="1480.22,1472.87 1537.6,1518.46 1595.01,1472.87 1652.39,1518.46 1709.81,1472.87 
				1767.24,1518.46 			"/>
		</g>
	</g>
	<path class="st11" d="M1822.13,1060.86c0,10.07-7.8,18.24-17.43,18.24c-9.63,0-17.43-8.16-17.43-18.24
		c0-10.07,7.8-18.24,17.43-18.24C1814.33,1042.62,1822.13,1050.79,1822.13,1060.86z"/>
	<path class="st11" d="M1810.51,1016.79c0,5.88-4.55,10.64-10.17,10.64c-5.62,0-10.17-4.76-10.17-10.64
		c0-5.88,4.55-10.64,10.17-10.64C1805.96,1006.15,1810.51,1010.91,1810.51,1016.79z"/>
	<path class="st11" d="M1411.04,837.46c0,5.88-4.55,10.64-10.17,10.64c-5.62,0-10.17-4.76-10.17-10.64
		c0-5.88,4.55-10.64,10.17-10.64C1406.48,826.82,1411.04,831.59,1411.04,837.46z"/>
</g>
<g>
	<path class="st12" d="M1795.29,1526.31l-295.9-1.48c-138.87-12.66-305.23-20.04-484.1-20.04c-156.1,0-302.67,5.62-429.76,15.47
		l-365.11-1.83c-124.62,32.82-84.83,107.83-84.83,107.83c0,67.09,393.86,121.47,879.7,121.47c484.15,0,876.9-54.01,879.64-120.77
		C1947.16,1535.94,1795.29,1526.31,1795.29,1526.31z"/>
	<path class="st12" d="M1550.57,1540.06l-202.08-0.94c-94.84-7.99-208.45-12.65-330.61-12.65c-106.6,0-206.7,3.55-293.49,9.77
		l-249.34-1.15c-85.11,20.72-57.93,68.08-57.93,68.08c0,42.36,268.98,76.69,600.77,76.69c330.64,0,598.86-34.1,600.73-76.25
		C1654.29,1546.14,1550.57,1540.06,1550.57,1540.06z"/>
	<ellipse class="st13" cx="1014.24" cy="1605.39" rx="788.23" ry="102.68"/>
</g>
<g>
	<g>
		<ellipse class="st7" cx="114.27" cy="816.38" rx="53.49" ry="55.96"/>
		<ellipse class="st7" cx="152.1" cy="905.1" rx="67.84" ry="70.97"/>
		<ellipse class="st7" cx="191.24" cy="1022.47" rx="97.79" ry="102.3"/>
		<path class="st8" d="M92.09,765.88c0,0,172.21,322.1,182.65,543.21"/>
	</g>
	<g>
		<ellipse class="st7" cx="510.87" cy="846.41" rx="53.49" ry="55.96"/>
		<ellipse class="st7" cx="473.04" cy="935.12" rx="67.84" ry="70.97"/>
		<ellipse class="st7" cx="433.9" cy="1052.5" rx="97.79" ry="102.3"/>
		<path class="st8" d="M533.05,795.91c0,0-172.21,322.1-182.65,543.21"/>
	</g>
	<g>
		<path class="st6" d="M359.63,805.37c-8.74,29.52-38.7,46.04-66.92,36.9c-28.22-9.14-44.01-40.49-35.27-70.01
			c8.74-29.52,38.7-46.04,66.92-36.9C352.58,744.51,368.37,775.85,359.63,805.37z"/>
		<ellipse class="st6" cx="319.59" cy="885.27" rx="67.84" ry="70.97"/>
		<ellipse class="st6" cx="323.78" cy="1009.51" rx="97.79" ry="102.3"/>
		<path class="st8" d="M301.63,733.71c0,0,73.4,360.98,20.84,575.42"/>
	</g>
	<g>
		<defs>
			<polygon id="SVGID_3_" points="398.57,1515.97 242.63,1515.97 198.34,1232.35 435.78,1232.35 			"/>
		</defs>
		<clipPath id="SVGID_4_">
			<use xlink:href="#SVGID_3_"  style="overflow:visible;"/>
		</clipPath>
		<polygon class="st14" points="398.57,1515.97 242.63,1515.97 198.34,1232.35 435.78,1232.35 		"/>
		<polyline class="st15" points="167.76,1252.58 225.14,1298.17 282.54,1252.58 339.93,1298.17 397.35,1252.58 454.77,1298.17 		"/>
		<polyline class="st15" points="167.76,1304.44 225.14,1350.04 282.54,1304.44 339.93,1350.04 397.35,1304.44 454.77,1350.04 		"/>
		<polyline class="st15" points="167.76,1356.31 225.14,1401.9 282.54,1356.31 339.93,1401.9 397.35,1356.31 454.77,1401.9 		"/>
		<polyline class="st15" points="167.76,1408.17 225.14,1453.76 282.54,1408.17 339.93,1453.76 397.35,1408.17 454.77,1453.76 		"/>
		<polyline class="st15" points="167.76,1460.04 225.14,1505.63 282.54,1460.04 339.93,1505.63 397.35,1460.04 454.77,1505.63 		"/>
	</g>
</g>
<g>
	<g>
		<path class="st16" d="M789.62,626.97C789.61,626.97,789.61,626.97,789.62,626.97c-59.72,0-110.66,24.35-110.66,24.35
			c-501.67,112.11-320.2,745.76-132.93,879.98c95.5,68.44,290.56,102.91,482.08,102.91c184.04,0,364.79-31.83,450.73-95.92
			c172.27-128.47,93.5-519.69-131.73-519.69c-4.05,0-8.16,0.13-12.3,0.38c-10.98,0.68-21.6,1.01-31.92,1.01
			c-210.09,0-285.72-138.29-359.51-294.34C906.36,647.4,844.31,626.97,789.62,626.97"/>
	</g>
	<g class="st17">
		<path class="st16" d="M1543.44,1349.71c-53.49,140.64-200.78,200.36-335.29,215.27c-138.19,15.32-278.77-9.45-407.89-61.54
			c-126.28-50.94-249.51-132.56-318.69-257.87c-38.76-70.2-60.56-153.3-68.21-233.66c-4.28-44.97-2.99-90.68,3.94-135.3
			c4.28-27.54,11.51-54.38,18.48-81.28c-176.23,228.85-34.74,632.06,110.24,735.97c95.5,68.44,290.56,102.91,482.08,102.91
			c184.04,0,364.79-31.83,450.73-95.92c77.22-57.59,103.97-167.98,89.72-272.26C1562.22,1294.11,1553.97,1322.03,1543.44,1349.71z"
			/>
	</g>
</g>
<g>
	<g>
		<g>
			<path class="st7" d="M532.98,1240.87c-9.36,13.88-23.99,19.94-32.68,13.53c-8.69-6.41-8.14-22.86,1.22-36.75
				c9.36-13.88,38.21-39.57,46.89-33.16C557.11,1190.91,542.34,1226.99,532.98,1240.87z"/>
			<line class="st18" x1="535.44" y1="1202.3" x2="500.3" y2="1254.4"/>
		</g>
		<g>
			<path class="st7" d="M419.43,1251.27c13.04,10.13,28.75,11.1,35.08,2.18c6.34-8.93,0.91-24.38-12.13-34.51
				c-13.04-10.13-48.11-25.1-54.45-16.18C381.6,1211.69,406.4,1241.14,419.43,1251.27z"/>
			<line class="st18" x1="405.59" y1="1215.43" x2="454.52" y2="1253.45"/>
		</g>
		<g>
			<path class="st6" d="M516.78,1224.95c-6.44,21.94-22.79,36.15-36.52,31.74c-13.73-4.41-19.63-25.77-13.19-47.71
				c6.44-21.94,33.16-67.6,46.89-63.18C527.68,1150.21,523.22,1203.01,516.78,1224.95z"/>
			<line class="st8" x1="504.44" y1="1174.35" x2="480.26" y2="1256.69"/>
		</g>
		<g>
			<path class="st6" d="M475.02,1207.24c10.47,20.17,8.72,42.33-3.9,49.5c-12.62,7.17-31.34-3.38-41.8-23.55
				c-10.47-20.17-22.93-72.09-10.31-79.26C431.63,1146.77,464.55,1187.07,475.02,1207.24z"/>
			<line class="st8" x1="431.84" y1="1181.04" x2="471.12" y2="1256.74"/>
		</g>
		<g>
			<path class="st7" d="M498.03,1216.19c0,22.95-11.64,41.56-26,41.56c-14.36,0-26-18.61-26-41.56c0-22.95,12.72-74.8,27.08-74.8
				C487.48,1141.38,498.03,1193.24,498.03,1216.19z"/>
			<line class="st8" x1="472.03" y1="1171.61" x2="472.03" y2="1257.74"/>
		</g>
	</g>
	<g>
		<path class="st11" d="M425.04,1260.63c-5.47,8.76-8.68,19.21-8.68,30.46c0,30.82,23.88,55.8,53.34,55.8
			c29.46,0,53.34-24.98,53.34-55.8c0-11.25-3.21-21.7-8.68-30.46H425.04z"/>
		<path class="st19" d="M522.98,1289.3c-0.32-10.56-3.44-20.38-8.62-28.68h-89.32c-5.18,8.3-8.3,18.11-8.62,28.68H522.98z"/>
		<path class="st11" d="M521.86,1270.01H415.18c-4.56,0-8.3-3.91-8.3-8.68l0,0c0-4.77,3.73-8.68,8.3-8.68h106.68
			c4.56,0,8.3,3.91,8.3,8.68l0,0C530.16,1266.1,526.42,1270.01,521.86,1270.01z"/>
	</g>
</g>
<g>
	<g>
		<polygon class="st20" points="556.51,1351.41 396.91,1351.41 317.1,1486.49 396.91,1621.57 556.51,1621.57 636.31,1486.49 		"/>
		<line class="st20" x1="317.1" y1="1486.49" x2="636.31" y2="1486.49"/>
		<polyline class="st20" points="442.47,1352.64 394.53,1488.72 437.9,1622.57 		"/>
		<polyline class="st20" points="506.38,1354.87 542.9,1486.49 504.1,1622.57 		"/>
	</g>
	<path class="st21" d="M582.86,1378.8H367.73c-2.04,0-3.71-1.67-3.71-3.71v-25.45c0-2.04,1.67-3.71,3.71-3.71h215.12
		c2.04,0,3.71,1.67,3.71,3.71v25.45C586.57,1377.13,584.9,1378.8,582.86,1378.8z"/>
</g>
<g>
	<g>
		<path class="st21" d="M1120.13,1633.92H924.85v65.51h195.28c17.22,0,31.31-14.74,31.31-32.76
			C1151.44,1648.66,1137.35,1633.92,1120.13,1633.92z"/>
		<path class="st11" d="M1102.88,1648.01H926.2v39.96h176.68c15.58,0,28.33-8.99,28.33-19.98S1118.46,1648.01,1102.88,1648.01z"/>
	</g>
	<polygon class="st6" points="951.67,1667.99 950.4,1721.27 959.31,1707.95 966.95,1719.94 969.5,1667.99 	"/>
</g>
<g>
	<ellipse class="st22" cx="424.69" cy="670.29" rx="39.22" ry="41.03"/>
	<ellipse class="st22" cx="1518.53" cy="683.97" rx="39.22" ry="41.03"/>
	<ellipse class="st22" cx="498.77" cy="579.11" rx="21.79" ry="22.8"/>
	<path class="st22" d="M1413.94,688.53c0,12.59-9.76,22.8-21.79,22.8s-21.79-10.21-21.79-22.8c0-12.59,9.76-22.8,21.79-22.8
		S1413.94,675.94,1413.94,688.53z"/>
	<path class="st22" d="M1753.86,756.92c0,12.59-9.76,22.8-21.79,22.8s-21.79-10.21-21.79-22.8c0-12.59,9.76-22.8,21.79-22.8
		S1753.86,744.33,1753.86,756.92z"/>
	<ellipse class="st22" cx="1786.97" cy="715.24" rx="13.65" ry="14.28"/>
	<path class="st22" d="M414.78,561.66c0,7.89-6.11,14.28-13.65,14.28c-7.54,0-13.65-6.39-13.65-14.28s6.11-14.28,13.65-14.28
		C408.67,547.39,414.78,553.78,414.78,561.66z"/>
</g>
<g>
	<g class="st23">
		<path class="st16" d="M1481.31,1391.88c-49.99-26.84-88.44-71.48-122.76-117.04c-31.13-41.32-57.79-88.32-95.16-123.96
			c-45.7-43.6-100.19-50.56-159.74-50.94c-51.29-0.32-101.86-1.81-148.83-26.06c-44.77-23.12-75.13-63.58-107.5-101.94
			c-34.77-41.21-74.34-74.9-95.43-126.37c-18.57-45.31-26.92-95.72-52.8-137.56c-8.54-13.8-26.32-43.19-44.83-44.04
			c-12.03-0.55-19.57,13.99-24.77,23.3c-15.94,28.52-25.73,60.88-47.67,85.38c-30.39,55.83-87.23,112.08-46.31,172.57
			c17.36,25.66,44.99,42.68,70.89,57.38c26.55,15.07,53.41,28.7,81.55,40.21c25.96,10.62,52.56,21.07,74.76,39.19
			c23.8,19.43,35.83,45.13,46.13,74.08c19.35,54.37,37.26,121.74,98.43,137.41c76.7,19.65,151.85-35.45,226.82-44.15
			c4.39-0.51,10.17,2.75,11.21,7.51c10.5,47.94,6.44,96.32-2.34,144.18c-3.01,16.38-10.96,41.58-5.33,57.96
			c6.34,18.46,32.64,9.46,46.2,18.41c12.42,8.2,14.43,129.73,15.77,144.3c12.42-0.99,27.76-110.45,40.14-111.95
			c1.08-20.46,4.15-40.99,6.79-61.06c7.77-59.18,16.87-117.95,12.76-177.88c-0.66-9.61,10.63-16.4,17.86-9.72
			c31.84,29.43,38.96,83.15,55.29,122.14c8.34,19.9,20.13,46.17,45.15,39.07c17.61-4.99,28.53-20.2,48.38-17.54
			c18.95,2.54,80.45,70.92,92.58,86.18c15.17-9.09,16.56-25.57,30.51-36.47C1537.38,1450.84,1492.9,1398.1,1481.31,1391.88z"/>
	</g>
	<polygon class="st24" points="858.3,1119.36 1002.11,1089.73 973.79,1000.83 	"/>
	<g>
		<path class="st25" d="M1204.29,1449.68c0,0,9.28,129.4,0,164.99c-9.28,35.59,132.97,71.17,132.97,48.53
			c0,0,49.48,19.41-71.12-87.35l27.83-116.46C1293.97,1459.39,1232.13,1401.16,1204.29,1449.68z"/>
		<path class="st26" d="M1287.88,1484.88l6.09-25.5c0,0-61.84-58.23-89.68-9.71c0,0,1,14.03,2.02,34.08
			C1233.51,1485.68,1260.7,1485.79,1287.88,1484.88z"/>
		<path class="st21" d="M966.19,1003.25c0,0,253.57,22.64,275.21,45.29c21.65,22.65,86.58,417.32,86.58,417.32l-176.26-6.47
			c0,0,15.46-281.45,3.09-307.33c-12.37-25.88-165.32-63.63-165.32-63.63L966.19,1003.25z"/>
		<g>
			<path class="st24" d="M1333.13,1616.59c0,0-55.37-6.82-66.77,47.71c0,0,65.14,28.96,84.69,10.22
				C1351.04,1674.52,1378.73,1643.85,1333.13,1616.59z"/>
			<path class="st24" d="M1199.58,1621.71c0,0,57,28.96,89.57,39.19l11.4,15.33C1300.55,1676.23,1180.04,1657.48,1199.58,1621.71z"
				/>
			<path class="st24" d="M1287.53,1638.74c0,0-26.06-66.45-8.14-66.45c17.91,0,27.69,57.93,27.69,57.93L1287.53,1638.74z"/>
			<path class="st24" d="M1318.26,1631.97c0,0-0.6-71.82,16.03-64.86c16.63,6.96,5.14,64.54,5.14,64.54L1318.26,1631.97z"/>
			<path class="st25" d="M1338.75,1646.65c0.55,2.66-2.44,5.59-6.67,6.55c-4.24,0.96-8.12-0.42-8.67-3.08
				c-0.55-2.66,2.44-5.59,6.67-6.55C1334.32,1642.61,1338.2,1643.99,1338.75,1646.65z"/>
			<path class="st27" d="M1314.44,1641.49c0,1.45-1.12,2.63-2.51,2.63c-1.39,0-2.51-1.18-2.51-2.63c0-1.45,1.12-2.63,2.51-2.63
				C1313.32,1638.86,1314.44,1640.04,1314.44,1641.49z"/>
			<path class="st27" d="M1342.07,1634.27c0,1.45-1.12,2.63-2.51,2.63c-1.39,0-2.51-1.18-2.51-2.63c0-1.45,1.12-2.63,2.51-2.63
				C1340.95,1631.64,1342.07,1632.82,1342.07,1634.27z"/>
			<path class="st27" d="M1292.47,1625.73c0,0-15.7-36.79-8.79-35.47c6.91,1.31,13.81,34.16,13.81,34.16L1292.47,1625.73z"/>
			<path class="st27" d="M1328.88,1616.53c0,0-0.63-35.47,3.77-32.84c4.4,2.63,0.47,32.91,0.47,32.91L1328.88,1616.53z"/>
			<path class="st28" d="M1197.65,1632.3c0,0,33.28,35.47,145.05,45.98c0,0-13.81,9.85-86.65-11.82
				C1256.05,1666.45,1203.3,1654.63,1197.65,1632.3z"/>
		</g>
		<ellipse class="st29" cx="1026.51" cy="1055.15" rx="6.54" ry="6.84"/>
		<ellipse class="st29" cx="1066.78" cy="1041.84" rx="6.54" ry="6.84"/>
		<ellipse class="st29" cx="1115.52" cy="1042.95" rx="6.54" ry="6.84"/>
		<ellipse class="st29" cx="1180.17" cy="1226.99" rx="6.54" ry="6.84"/>
		<ellipse class="st29" cx="1226.8" cy="1218.12" rx="6.54" ry="6.84"/>
		<ellipse class="st29" cx="1201.36" cy="1283.34" rx="6.54" ry="6.84"/>
		<ellipse class="st29" cx="1263.89" cy="1298.86" rx="6.54" ry="6.84"/>
		<ellipse class="st29" cx="1196.24" cy="1351.16" rx="6.54" ry="6.84"/>
		<ellipse class="st29" cx="1269.19" cy="1367.79" rx="6.54" ry="6.84"/>
		<ellipse class="st29" cx="1222.56" cy="1405.48" rx="6.54" ry="6.84"/>
		<ellipse class="st29" cx="1175.93" cy="1433.2" rx="6.54" ry="6.84"/>
		<ellipse class="st29" cx="1296.74" cy="1440.04" rx="6.54" ry="6.84"/>
	</g>
	<g>
		<path class="st25" d="M1409.43,1363.39c0,0,103.53,71.46,124.77,100.9c21.24,29.44,135.15-66.53,118.02-80.38
			c0,0,44.94-29.08-109.55,5.45l-71.05-94.26C1471.61,1295.1,1389.75,1310.68,1409.43,1363.39z"/>
		<path class="st26" d="M1436.45,1382.57c20.21-18.06,40.05-36.49,59.14-55.67l-23.97-31.8c0,0-81.86,15.58-62.18,68.29
			C1409.43,1363.39,1420.66,1371.15,1436.45,1382.57z"/>
		<g>
			<path class="st24" d="M1611.33,1360.06c0,0-32.29,47.55,7.96,84.18c0,0,55.55-45.89,49.22-72.82
				C1668.51,1371.42,1656.08,1331.29,1611.33,1360.06z"/>
			<path class="st24" d="M1551.53,1485.08c0,0,51.65-38.41,75.85-63.4l18.33-3.1C1645.71,1418.58,1572.15,1520.19,1551.53,1485.08z"
				/>
			<path class="st24" d="M1608.02,1412.55c0,0-68.23-7.97-59.63-24.42c8.6-16.44,61.87,2.39,61.87,2.39L1608.02,1412.55z"/>
			<path class="st24" d="M1617.08,1381.09c0,0-60.52-33.92-46.69-45.84c13.82-11.92,56.59,26.26,56.59,26.26L1617.08,1381.09z"/>
			<path class="st25" d="M1639.24,1369.32c2.49,0.77,3.52,4.92,2.29,9.27c-1.23,4.35-4.25,7.25-6.74,6.48
				c-2.49-0.77-3.52-4.92-2.29-9.27C1633.73,1371.45,1636.74,1368.55,1639.24,1369.32z"/>
			<path class="st27" d="M1623.24,1389.16c1.22,0.7,1.66,2.29,1,3.57c-0.67,1.27-2.19,1.74-3.41,1.04c-1.22-0.7-1.66-2.29-1-3.57
				C1620.5,1388.93,1622.03,1388.46,1623.24,1389.16z"/>
			<path class="st27" d="M1630.44,1360.33c1.22,0.7,1.66,2.29,1,3.57c-0.67,1.27-2.19,1.74-3.41,1.04c-1.22-0.7-1.66-2.29-1-3.57
				C1627.7,1360.11,1629.23,1359.64,1630.44,1360.33z"/>
			<path class="st27" d="M1599.48,1401.76c0,0-38.38-3.25-33.97-8.96s35.27,3.72,35.27,3.72L1599.48,1401.76z"/>
			<path class="st27" d="M1609.24,1363.92c0,0-30.05-16.45-25.74-19.22c4.31-2.77,27.82,15.36,27.82,15.36L1609.24,1363.92z"/>
			<path class="st28" d="M1559.48,1491.94c0,0,45.72-13.52,108.17-111.06c0,0,1.63,17.41-51.5,73.85
				C1616.15,1454.74,1580.92,1497.47,1559.48,1491.94z"/>
		</g>
		<g>
			<path class="st24" d="M1507.37,1278.1c0,0-151.62-135.75-204.23-193.94c-8.93-9.88-18.4-17.1-27.96-22.36
				c-3.6-2.27-7.63-4.54-12.13-6.79c-71.12-35.59-389.63,61.47-439.1,58.23c0,0-6.18,181.16,142.24,158.52
				c93.86-14.32,197.59-67.44,261.19-104.56c56.12,102.77,140.94,240.42,140.94,240.42L1507.37,1278.1z"/>
			<path class="st30" d="M1356.47,1319.03c-30.82-30.87-51.64-71.22-73.43-109.11c-17.83-31.01-33.55-62.56-42.46-97.13
				c-9.87,11.56-20.08,22.77-31.53,32.67c-17.75,15.35-38.64,26-59.26,36.46c-43.73,22.19-90.18,38.96-138.95,42.5
				c-38.92,2.83-83.63,1.18-117.38-21.78c-30.34-20.64-44.05-56.11-57.42-89.88c-4.97,0.51-9.05,0.69-12.1,0.49
				c0,0-6.18,181.16,142.24,158.52c93.86-14.32,197.59-67.44,261.19-104.56c56.12,102.77,140.94,240.42,140.94,240.42l57.35-53.41
				C1401.68,1351.44,1378.21,1340.8,1356.47,1319.03z"/>
			<ellipse class="st5" cx="886.63" cy="1133.04" rx="6.54" ry="6.84"/>
			<ellipse class="st5" cx="862.66" cy="1183.19" rx="6.54" ry="6.84"/>
			<ellipse class="st5" cx="928.03" cy="1169.51" rx="6.54" ry="6.84"/>
			<ellipse class="st5" cx="969.43" cy="1130.76" rx="6.54" ry="6.84"/>
			<ellipse class="st5" cx="1002.11" cy="1180.91" rx="6.54" ry="6.84"/>
			<ellipse class="st5" cx="1056.59" cy="1215.1" rx="6.54" ry="6.84"/>
			<ellipse class="st5" cx="1041.33" cy="1123.92" rx="6.54" ry="6.84"/>
			<path class="st5" d="M1097.99,1153.56c0,3.78-2.93,6.84-6.54,6.84c-3.61,0-6.54-3.06-6.54-6.84c0-3.78,2.93-6.84,6.54-6.84
				C1095.06,1146.72,1097.99,1149.78,1097.99,1153.56z"/>
			<ellipse class="st5" cx="1128.49" cy="1096.57" rx="6.54" ry="6.84"/>
			<ellipse class="st5" cx="1180.79" cy="1135.32" rx="6.54" ry="6.84"/>
			<ellipse class="st5" cx="1198.22" cy="1082.89" rx="6.54" ry="6.84"/>
			<ellipse class="st5" cx="1254.87" cy="1087.45" rx="6.54" ry="6.84"/>
			<ellipse class="st5" cx="1250.51" cy="1133.04" rx="6.54" ry="6.84"/>
			<ellipse class="st5" cx="1311.53" cy="1137.6" rx="6.54" ry="6.84"/>
			<ellipse class="st5" cx="1283.2" cy="1199.15" rx="6.54" ry="6.84"/>
			<ellipse class="st5" cx="1331.14" cy="1185.47" rx="6.54" ry="6.84"/>
			<ellipse class="st5" cx="1328.96" cy="1253.86" rx="6.54" ry="6.84"/>
			<ellipse class="st5" cx="1389.97" cy="1221.94" rx="6.54" ry="6.84"/>
			<ellipse class="st5" cx="1372.54" cy="1285.77" rx="6.54" ry="6.84"/>
			<ellipse class="st5" cx="1368.18" cy="1338.2" rx="6.54" ry="6.84"/>
			<ellipse class="st5" cx="1433.55" cy="1276.65" rx="6.54" ry="6.84"/>
			<ellipse class="st5" cx="1416.12" cy="1317.68" rx="6.54" ry="6.84"/>
			<ellipse class="st5" cx="1137.21" cy="1178.63" rx="6.54" ry="6.84"/>
			<ellipse class="st5" cx="908.42" cy="1221.94" rx="6.54" ry="6.84"/>
			<ellipse class="st5" cx="969.43" cy="1237.9" rx="6.54" ry="6.84"/>
		</g>
	</g>
	<g>
		<line class="st31" x1="1050.58" y1="737.47" x2="1027.29" y2="654.15"/>
		<path class="st31" d="M953.9,568.16c0.81,6.56,2.08,13.27,3.98,20.04c12.18,43.57,42.77,72.55,68.34,64.73
			c25.56-7.82,36.42-49.48,24.24-93.05c-1.89-6.77-4.27-13.14-6.97-19.13L953.9,568.16z"/>
		<path class="st5" d="M968.36,584.05c0.49,4.67,1.35,9.44,2.69,14.24c8.63,30.88,32.08,50.88,52.38,44.67
			c20.3-6.21,29.76-36.27,21.13-67.15c-1.34-4.8-3.08-9.3-5.07-13.52L968.36,584.05z"/>
		<path class="st16" d="M1073.76,735.79l-43.57,13.33c-2.62,0.8-5.39-0.79-6.16-3.53l0,0c-0.77-2.74,0.75-5.64,3.37-6.44
			l43.57-13.33c2.62-0.8,5.39,0.79,6.16,3.53l0,0C1077.9,732.09,1076.38,734.99,1073.76,735.79z"/>
	</g>
	<path class="st25" d="M495.92,868.93c0,0-24.48-12.81,110.17-155.27l26.01,20.81l-53.55,137.67
		C578.55,872.14,508.16,947.37,495.92,868.93z"/>
	<path class="st26" d="M606.09,713.66c-8.96,9.48-17.16,18.34-24.77,26.71c-0.61,45.29-3.23,90.46-6.6,135.6
		c2.41-2.32,3.83-3.83,3.83-3.83l53.55-137.67L606.09,713.66z"/>
	<path class="st21" d="M616.8,540.78c0,0-65.8,38.42-53.55,132.86c12.24,94.44,93.34,128.06,145.36,100.85l52.02-16.01
		C760.63,758.48,684.12,487.95,616.8,540.78z"/>
	<path class="st11" d="M697.16,825.32c0,0-49.48,48.53-61.85,58.23c-12.37,9.7,64.94,135.87,160.8,152.05l24.28,129.31
		c0,0,136.69-81.26,164.52-162.14L823.95,796.21l-43.29,6.47C780.65,802.68,786.84,851.2,697.16,825.32z"/>
	<path class="st32" d="M842.4,1107.37c-8.05-37.1-0.76-67.94,13.89-99.2c-14.84,3.68-29.73,6.64-45.23,5.73
		c-23.92-1.41-46.96-9.47-69.24-18.21c-23.28-9.13-43.8-21.33-63.54-34.96c29.63,33.6,71.55,67.05,117.83,74.86l24.28,129.31
		c0,0,14.33-8.53,34.61-22.77C849.3,1131.56,845.1,1119.79,842.4,1107.37z"/>
	<path class="st11" d="M706.83,987.39c0,0-229.52-40.02-214.22-118.46c0,0,12.24-35.22,163.72,22.41
		C656.34,891.35,709.89,908.95,706.83,987.39z"/>
	<path class="st25" d="M1003.61,882.81c0,0,26.83,5.68,4.6-193.31l-32.74-0.36L936.63,832.1
		C936.63,832.1,947.79,936.73,1003.61,882.81z"/>
	<path class="st11" d="M765.1,838.13c0,0,204.39,116.34,238.51,44.68c0,0,11.09-35.63-142.19-87.82
		C861.43,794.99,808.87,774.36,765.1,838.13z"/>
	<path class="st25" d="M662.7,732.87c0,0,13.77,54.43,39.78,92.84c0,0,78.3,29.16,78.17-23.04c0,0-20.02-23.39-23.08-61.8
		C757.57,740.87,678,702.46,662.7,732.87z"/>
	<path class="st26" d="M773.54,824.12c4.42-4.79,7.14-11.7,7.11-21.44c0,0-20.02-23.39-23.08-61.8c0,0-35.5-17.12-63.64-19.44
		C715.67,760.05,743.48,793.03,773.54,824.12z"/>
	<path class="st11" d="M583.73,869.84c0,0,21.07-20.56,18.55-31.01c-2.52-10.45-62.82-57.88-74.43-55.37
		c-11.61,2.51-41.94,15.51-35.14,103.18C492.71,886.63,571.72,923.57,583.73,869.84z"/>
	<path class="st11" d="M936.63,832.1c0,0,0.75-31.61,0.75-40.13s-3.26-35.78,16.29-25.56c19.54,10.22,57,20.45,66.77,11.93
		s11.4,95.41-22.8,112.45C997.64,890.79,926.1,853.49,936.63,832.1z"/>
	<path class="st24" d="M797.32,1040.72"/>
	<path class="st25" d="M796.77,622.22c-6.24-2.85-7.62-12.02-9.08-21.17c-9.72-48.31-50.67-84.57-99.74-84.57
		c-56.3,0-101.94,47.75-101.94,106.64c0,43.14,24.5,80.27,59.72,97.06l1.85,8.08c61.52,59.23,141.76,31.83,141.76,31.83
		C810.35,704.06,807.27,627.02,796.77,622.22z"/>
	<path class="st25" d="M619.86,688.05c0,0-26.01-9.6-26.01,6.4c0,16.01,38.25,75.24,68.86,38.42L619.86,688.05z"/>
	<path class="st21" d="M639.75,604.81c0,0,12.24,59.23,32.13,81.64c0,0-26.01-17.61-41.31-32.01c0,0,9.18,43.22,39.78,67.23
		c0,0-58.14-16.01-74.98-51.22c-16.83-35.22-30.6-124.86,68.86-158.47c0,0,64.27-19.21,93.34,3.2c0,0,30.6,1.6,38.25-11.21
		C803.47,491.16,797.35,620.82,639.75,604.81z"/>
	<path class="st21" d="M761.49,899.31c0,0-20.3-51.78-59-73.59c0,0-10.96-66.57-33.76-80.2c-2.05-1.23-4.1-2.17-6.15-2.99
		c-6.44,9.46-19.32,12-32.81,5.75c-0.42-0.19-0.83-0.42-1.24-0.63c-5.49,4.65-9.73,11.1-11.99,18.76c0,0,6.51,76.67,45.6,81.78
		c0,0,11.4,74.97,60.26,71.56c0,0,17.91,74.97,68.4,59.63C790.81,979.38,813.61,943.61,761.49,899.31z"/>
	<path class="st21" d="M790.81,979.38c0,0,0,39.19,21.17,68.15l-1.63-22.15l26.06,34.08l-19.54-42.59l24.43,20.45l-19.54-30.67
		l32.57,23.85C854.32,1030.5,797.32,938.49,790.81,979.38z"/>
	<path class="st5" d="M884.63,946.72c-1.07,11-29.69,2.79-29.69,2.79s-7.66,22.49-14.64,27.16c-6.98,4.68-11.71-28.68-11.71-28.68
		s-24.92,0.4-29.22-6.17c-4.29-6.56,22.45-20.51,22.45-20.51s-14.71-23.77-3.42-30.98c11.29-7.2,25.58,16,25.58,16
		s22.07-20.71,27.1-12.98c5.03,7.73-6.64,30.4-6.64,30.4S885.7,935.72,884.63,946.72z"/>
	<g>
		<polygon class="st21" points="975.96,1052.08 959.44,995.83 1052.89,965.8 1069.41,1022.05 		"/>
		<polygon class="st5" points="982.76,1044.45 969.16,998.15 1046.09,973.43 1059.69,1019.73 		"/>
		<path class="st33" d="M1017.63,1007.91L1017.63,1007.91c-2.16-7.37,1.83-15.24,8.87-17.51l0,0c7.04-2.26,14.57,1.91,16.73,9.28
			l0,0c2.16,7.37-1.83,15.24-8.87,17.51h0C1027.32,1019.45,1019.79,1015.28,1017.63,1007.91z"/>
		<polygon class="st11" points="1010.92,1023.26 1003.84,999.15 1006.41,998.33 1013.48,1022.43 		"/>
		<polygon class="st11" points="1000.68,1026.55 993.6,1002.44 996.16,1001.62 1003.24,1025.73 		"/>
	</g>
	<path class="st25" d="M975.47,689.14c0,0-0.09-50.56,16.6-48.06c0,0,4.77-2.49,2.38,12.47c-2.38,14.97,50.07-4.99,57.22-22.45
		c7.15-17.46,19.08-17.46,16.69,0c-2.38,17.46-15.41,39.47-60.16,58.4C1008.21,689.5,994.63,714.75,975.47,689.14z"/>
	<path class="st21" d="M671.35,645.29c0,0,13.64-27.82,48.92-25.61c0,0,1.89-6.86-2.72-7.31
		C712.93,611.92,678.72,614.88,671.35,645.29z"/>
	<path class="st21" d="M783.62,583.31c-1.4-1.26-2.49-2.78-3.27-4.41c-15.17,1.75-26.84,12.37-28.67,14.75
		c-2.72,3.54,3.16,7.06,3.16,7.06c9.37-11.36,19.89-15.89,28.81-17.38C783.63,583.32,783.63,583.32,783.62,583.31z"/>
	<path class="st34" d="M794.63,687.93c0,0-24.98,15.68-30.69,16.43c-5.71,0.75,20.7,28.38,29.27,16.43c0,0,2.86-4.48,2.86-11.2
		l-2.86-0.75l-2.86-8.96C790.34,699.88,797.48,696.15,794.63,687.93z"/>
	<path class="st11" d="M790.34,699.88c0,0-9.99,5.97-14.28,5.97c-4.28,0,6.42,8.21,17.13,2.99L790.34,699.88z"/>
	<path class="st26" d="M621.88,705.85c0,0-13.56-5.97-12.85,0.75c0.71,6.72,19.99,30.62,30.69,21.66
		C639.73,728.26,639.73,717.05,621.88,705.85z"/>
	<g>
		<ellipse class="st21" cx="636.29" cy="723.43" rx="7.35" ry="7.69"/>
	</g>
	<g>
		<path class="st21" d="M1057.62,983.68l-3.26-3.02c14.75-17.45,9.41-33.15,2.34-43.25c-19.21-27.41-76.06-47.87-110.14-32.02
			c-4.93,2.29-8.92,4.81-11.94,7.5c12.01,5.82,16.98,12.84,18.72,24.7c0.83,5.64-1.2,9.66-5.42,10.75
			c-7.23,1.84-19.93-5.94-23.47-16.78c-1.33-4.07-1.97-10.36,2.69-17.04c-12.16-4.72-30.73-9.08-58.99-15.71
			c-6.32-1.48-13.11-3.08-20.41-4.81c-33.91-8.07-79.4-38.49-135.19-90.45c-41.44-38.59-73.39-75.3-73.71-75.67l3.23-3.06
			c1.26,1.46,127.33,145.88,206.64,164.73c7.29,1.74,14.08,3.33,20.4,4.81c28.96,6.8,48.28,11.34,61.06,16.56
			c3.25-3.29,7.95-6.58,14.62-9.69c33.06-15.36,93.47,2.16,115.43,33.5C1071.54,950.91,1070.63,968.3,1057.62,983.68z M931.38,916.3
			c-3.38,4.34-4.38,9.01-2.82,13.78c2.97,9.1,13.51,15.07,18.31,13.82c0.71-0.18,2.87-0.74,2.16-5.62
			C947.49,927.79,943.06,921.63,931.38,916.3z"/>
	</g>
	<g>
		<path class="st21" d="M804.18,712.24c-0.38-0.99-1.38-1.47-2.33-1.27c-0.12,1.85-0.3,3.7-0.51,5.55
			c7.35,19.3,53.11,141.69,44.87,174.7c-0.29,1.16,0.38,2.35,1.49,2.66c0.18,0.05,0.35,0.07,0.53,0.07c0.92,0,1.77-0.65,2.01-1.63
			C859.49,855.25,806.44,718.06,804.18,712.24z"/>
	</g>
	<path class="st21" d="M753.22,619.98c2.6,3.09,5.22,6.09,7.88,9.03c2.66,2.93,5.39,5.75,8.18,8.44c2.82,2.66,5.77,5.11,8.9,7.03
		c3.09,1.96,6.49,3.31,9.73,3.06l1.52-0.12l0.48,1.21c1.06,2.67,1.18,4.96,0.99,7.39c-0.23,2.38-0.86,4.65-1.81,6.72
		c-0.88,2.11-2.17,3.94-3.51,5.66c-1.38,1.69-2.89,3.23-4.53,4.58c1.15-1.83,2.3-3.61,3.26-5.48c0.87-1.92,1.75-3.8,2.27-5.77
		c0.52-1.96,0.89-3.93,0.85-5.88c-0.04-1.86-0.39-3.99-1.03-5.27l2,1.09c-4.63,0.72-8.88-1.15-12.41-3.28
		c-3.53-2.28-6.68-4.98-9.41-8.04c-2.77-3.01-5.25-6.27-7.48-9.67C756.88,627.28,754.88,623.71,753.22,619.98z"/>
	<path class="st21" d="M735.88,646.04c0,0-3.67,21.1-36.36,14.08l-7.73,6.61l9.69-1.91C701.48,664.81,740.96,675.86,735.88,646.04z"
		/>
	<path class="st21" d="M773.02,633.6c0,0,18.62,4.3,20.69-13.6l4.42-6.29l-5.86,2.65C792.28,616.36,782.26,633.29,773.02,633.6z"/>
</g>
<g>
	<path class="st35" d="M863.39,1355.68c0,0,66.82-12.16,75.54,24.32c8.72,36.47,0.9,231.27-14.07,253.93
		c0,0,14.07,77.37-87.61,71.29L863.39,1355.68z"/>
	<g>
		<path class="st36" d="M673.09,1331.37c0,0-65.37-22.8-65.37,22.8c0,45.59,3.09,234.09-34.86,250.75c0,0-34.86,59.27,91.52,77.5
			c126.38,18.24,226.61,36.47,239.69-13.68c13.07-50.15,34.86-273.55,17.43-300.9C904.06,1340.48,673.09,1331.37,673.09,1331.37z"/>
		<path class="st37" d="M668.7,1349.62c0,0-57.84-20.17-57.84,20.17s2.74,207.11-30.85,221.86c0,0-30.85,52.44,80.97,68.57
			s200.5,32.27,212.07-12.1c11.57-44.37,30.85-242.03,15.42-266.23C873.06,1357.69,668.7,1349.62,668.7,1349.62z"/>
		<g>
			<path class="st38" d="M673.09,1331.37c0,0-1.75,313.48-56.55,338.04"/>
			<path class="st38" d="M741.79,1341.85c0,0-2.61,311.18-41.75,341.21"/>
			<path class="st38" d="M825.28,1347.31c0,0,5.22,330.29-39.14,346.67"/>
			<polyline class="st38" points="608.72,1461.95 895.73,1494.71 927.04,1494.71 			"/>
			<polyline class="st38" points="598.28,1562.95 885.3,1598.44 919.22,1592.98 			"/>
		</g>
		<path class="st21" d="M681.78,1466.05c0,5.28-4.67,9.55-10.44,9.55c-5.76,0-10.44-4.28-10.44-9.55s4.67-9.55,10.44-9.55
			C677.1,1456.49,681.78,1460.77,681.78,1466.05z"/>
		<path class="st21" d="M835.72,1489.25c0,5.28-4.67,9.55-10.44,9.55c-5.76,0-10.44-4.28-10.44-9.55c0-5.28,4.67-9.55,10.44-9.55
			C831.05,1479.7,835.72,1483.97,835.72,1489.25z"/>
		<path class="st21" d="M830.5,1590.25c0,5.28-4.67,9.55-10.44,9.55s-10.44-4.28-10.44-9.55c0-5.28,4.67-9.55,10.44-9.55
			S830.5,1584.97,830.5,1590.25z"/>
		<path class="st21" d="M668.73,1573.87c0,5.28-4.67,9.55-10.44,9.55c-5.76,0-10.44-4.28-10.44-9.55c0-5.28,4.67-9.55,10.44-9.55
			C664.06,1564.32,668.73,1568.59,668.73,1573.87z"/>
	</g>
</g>
<path class="st11" d="M1476.14,170.04c6.54-174.53-205.71,0-205.71,0c-134.71-177.84-289.37,0-289.37,0s9.4,169.8,143.73,145.77
	c91.24-16.32,110.7-49.56,144.4-64.14C1269.19,251.67,1470.46,321.64,1476.14,170.04z"/>
<path class="st11" d="M2039.92,208.44c3.54-94.55-111.44,0-111.44,0c-72.97-96.34-156.76,0-156.76,0s5.09,91.99,77.86,78.97
	c49.42-8.84,59.97-26.85,78.23-34.75C1927.81,252.66,2036.84,290.56,2039.92,208.44z"/>
<path class="st11" d="M502.5,79.04c6.54-174.53-205.71,0-205.71,0c-134.71-177.84-289.37,0-289.37,0s9.4,169.8,143.73,145.77
	c91.24-16.32,110.7-49.56,144.4-64.14C295.55,160.67,496.82,230.64,502.5,79.04z"/>
</svg>
