<?xml version="1.0" encoding="utf-8"?>
<!-- Generator: Adobe Illustrator 24.3.0, SVG Export Plug-In . SVG Version: 6.00 Build 0)  -->
<svg version="1.1" id="Capa_1" xmlns="http://www.w3.org/2000/svg" xmlns:xlink="http://www.w3.org/1999/xlink" x="0px" y="0px"
	 viewBox="0 0 2052 2194" style="enable-background:new 0 0 2052 2194;" xml:space="preserve">
<style type="text/css">
	.st0{fill:#5C3B66;}
	.st1{opacity:0.3;fill:#EDEDED;}
	.st2{fill:#C6C6C6;}
	.st3{fill:#D0D0D0;}
	.st4{fill:#579932;}
	.st5{fill:#D2D795;}
	.st6{fill:#9EC530;}
	.st7{fill:#FFE4B1;}
	.st8{fill:none;stroke:#F6D296;stroke-width:0.7044;stroke-linecap:round;stroke-linejoin:round;stroke-miterlimit:10;}
	.st9{fill:#C7B29F;}
	.st10{fill:#FFFFFF;}
	.st11{fill:#402745;}
	.st12{fill:#D3B3C3;}
	.st13{fill:#F1843D;}
	.st14{fill:#FCCE9A;}
	.st15{fill:#EA580C;}
	.st16{fill:#683C13;}
	.st17{fill:#F3D8B0;}
	.st18{fill:#DADDAD;}
	.st19{fill:#ED6E2C;}
	.st20{fill:#F59F63;}
	.st21{fill:#FEE6C6;}
	.st22{fill:#F3F2EC;}
	.st23{fill:#FBC374;}
	.st24{fill:#E4313C;}
	.st25{fill:#E2C5D4;}
	.st26{fill:#FFCF33;}
	.st27{fill:#E6DCDD;}
	.st28{opacity:0.5;fill:#FFFFFF;}
	.st29{fill:none;stroke:#9EC530;stroke-width:0.7762;stroke-miterlimit:10;}
	.st30{fill:#E3E3E3;}
	.st31{fill:#F6F6F6;}
	.st32{fill:#E4E1AA;}
	.st33{fill:#F39886;}
</style>
<rect class="st0" width="2052" height="2191.74"/>
<g>
	
		<ellipse transform="matrix(0.7071 -0.7071 0.7071 0.7071 -570.2142 1020.8077)" class="st1" cx="947.12" cy="1198.71" rx="676.97" ry="676.97"/>
	<path class="st1" d="M1846.88,811.97c0,216.28-175.33,391.61-391.59,391.61c-216.28,0-391.61-175.33-391.61-391.61
		c0-216.27,175.33-391.6,391.61-391.6C1671.55,420.37,1846.88,595.69,1846.88,811.97z"/>
	
		<ellipse transform="matrix(0.7071 -0.7071 0.7071 0.7071 -836.0721 763.5286)" class="st1" cx="503.62" cy="1390.99" rx="391.6" ry="391.6"/>
</g>
<g>
	<g>
		<path class="st2" d="M1581.43,1225.39c0,45.63-263.9,82.63-589.44,82.63s-589.43-37-589.43-82.63
			c0-45.64,263.89-82.65,589.43-82.65S1581.43,1179.74,1581.43,1225.39z"/>
		<path class="st3" d="M1531.63,1225.39c0,32.6-241.6,59.02-539.64,59.02c-298.03,0-539.64-26.43-539.64-59.02
			c0-32.61,241.61-59.03,539.64-59.03C1290.03,1166.36,1531.63,1192.78,1531.63,1225.39z"/>
		<g>
			<g>
				<path class="st4" d="M490.67,1127.51c0,0-74.64-134.53-117.16-170.61c19.86-0.04,92.17,46.54,142.83,155.72L490.67,1127.51z"/>
				<path class="st5" d="M373.51,956.9c1.56,1.33,3.16,2.79,4.79,4.36c28.74,12.48,62.43,58.39,86.44,91.9
					c17.79,24.84,24.77,43.96,25.14,54.14c0.18,5.18-0.63,10.2-2.11,15.05c1.86,3.3,2.89,5.15,2.89,5.15l25.67-14.88
					C465.68,1003.43,393.37,956.85,373.51,956.9z"/>
			</g>
			<g>
				<path class="st6" d="M509.35,1116.84c0,0-94.32-122.82-100.44-251.81c0,0,57.05,129.63,133.67,240.09L509.35,1116.84z"/>
				<path class="st5" d="M493.32,1066.91c-52.9-71.67-70.08-170.25-70.14-171.12c-9.19-19.18-14.28-30.77-14.28-30.77
					c6.12,128.99,100.44,251.81,100.44,251.81l17.43-6.15C523.93,1104.32,506.81,1085.19,493.32,1066.91z"/>
			</g>
			<g>
				<path class="st6" d="M539.68,1113.92c0,0-31.23-168.42-23.11-223.59c-14.94,13.07-40.26,63.77-11.29,229.15L539.68,1113.92z"/>
				<path class="st5" d="M521.26,1102.6c-2.97-24.98-5.83-49.98-8.93-74.94c-3.06-24.64-3.91-48.99-2.84-73.79
					c0.4-9.65,0.84-19.43,1.99-29.03c0.61-5.26,1.49-10.71,3.79-15.5c0.11-7.22,0.52-13.64,1.31-19
					c-14.94,13.07-40.26,63.77-11.29,229.15l17.74-2.86C522.4,1111.96,521.81,1107.27,521.26,1102.6z"/>
			</g>
			<g>
				<path class="st4" d="M510.8,1120.5c0,0-40.25-144.33-75.81-231.14c0,0,56.5,19.06,100.78,226.35L510.8,1120.5z"/>
				<path class="st5" d="M435,889.36c1.03,2.5,2.06,5.05,3.08,7.63c6.2,6.2,11.17,13.72,16.55,20.55
					c7.68,9.77,13.91,20.49,19.92,31.34c12.07,21.73,21.44,44.53,29.91,67.85c8.46,23.29,17.82,46.92,20.94,71.65
					c1.21,9.71,1.52,19.43,1.09,29.11l9.28-1.78C491.49,908.43,435,889.36,435,889.36z"/>
			</g>
			<path class="st7" d="M666.55,1160.45c23.58,66.4-8.83,138.53-72.38,161.11c-63.56,22.58-134.21-12.95-157.79-79.34
				c-23.58-66.4,8.83-138.53,72.38-161.11C572.32,1058.53,642.97,1094.06,666.55,1160.45z"/>
			<path class="st8" d="M494.64,1089.51c0,0-101.19,64.03-21.42,204.47"/>
			<path class="st8" d="M525.36,1078.59c0,0,118.64-12.47,145.32,146.82"/>
			<path class="st8" d="M562.93,1326.07c0,0-83.83-76.95-57.32-240.94c0,0-94.08,102.28,14.38,235.64"/>
			<path class="st8" d="M621.86,1305.14c0,0,16.48-112.58-107.54-223.11c0,0,138.42,18.61,138.4,190.52"/>
			<path class="st8" d="M593.56,1319.36c0,0-45.28-169.82-83.74-235.25"/>
			<path class="st9" d="M508.76,1081.11c-0.44,0.16-0.87,0.34-1.31,0.5c7.46,2.03,14.79,4.73,21.98,8.14
				c22.68,10.77,43.76,25.73,60.98,44.04c31.18,33.17,53.87,84.81,34.39,129.53c-7.66,17.58-20.53,32.18-37.57,41.1
				c-15.21,7.96-32.2,12.52-49.29,13.96c-10.87,0.92-22.38,0.65-33.59-1.2c27.65,12.68,59.53,15.14,89.82,4.38
				c63.56-22.58,95.96-94.71,72.38-161.11C642.97,1094.06,572.32,1058.53,508.76,1081.11z"/>
			<path class="st10" d="M487.29,1238.12c1.95-6.63,2.17-13.59,0.85-20.38c-2.42-12.5-9.02-23.9-8.11-37
				c0.45-6.44,2.6-12.13,4.93-18.07c2.38-6.09,4.87-13.15,2.63-19.67c-1.86-5.43-6.07-9.58-10.55-12.99
				c-0.46-0.35-0.95-0.72-1.47-1.08c-24.68,17.83-35.51,51.41-24.37,82.76c5.72,16.11,16.33,29.02,29.42,37.52
				C483.73,1246.33,485.95,1242.59,487.29,1238.12z"/>
		</g>
		<g>
			<g>
				<g>
					<path class="st4" d="M1103.26,884.91c0,0,49.02,115.75-74.9,222.08C1028.36,1106.99,992.13,942.29,1103.26,884.91z"/>
					<path class="st6" d="M1028.62,1106.76c123.58-106.26,74.64-221.85,74.64-221.85c-0.32,0.17-0.64,0.35-0.96,0.51
						L1028.62,1106.76z"/>
				</g>
				<g>
					<path class="st4" d="M1163.53,951.55c0,0,0.66,120.08-137.19,158.21C1026.34,1109.75,1052.87,953.2,1163.53,951.55z"/>
					<path class="st6" d="M1026.63,1109.66c137.55-38.21,136.89-158.12,136.89-158.12c-0.33,0-0.64,0.03-0.97,0.03L1026.63,1109.66z
						"/>
				</g>
				<g>
					<path class="st4" d="M1008.18,899.11c0,0-73.31,95.12,13.21,208.99C1021.38,1108.1,1095.17,967.51,1008.18,899.11z"/>
					<path class="st6" d="M1021.2,1107.86c-86.23-113.77-13.03-208.75-13.03-208.75c0.26,0.2,0.49,0.41,0.75,0.61L1021.2,1107.86z"
						/>
				</g>
			</g>
			<path class="st11" d="M1129.49,1240.2c-24.71,74.23-102.35,115.23-173.4,91.57c-71.06-23.66-108.63-103-83.92-177.24
				c24.71-74.23,102.35-115.23,173.4-91.57C1116.63,1086.61,1154.2,1165.96,1129.49,1240.2z"/>
			<path class="st10" d="M919.52,1185.73c6.24-4.48,11.18-10.42,14.67-17.25c6.42-12.61,8.42-27.1,18.17-37.94
				c4.78-5.33,10.56-8.85,16.65-12.46c6.25-3.7,13.26-8.19,15.75-15.42c2.08-6.03,1.23-12.52-0.37-18.58
				c-0.17-0.61-0.34-1.27-0.53-1.95c-33.79-1.24-66.21,20.75-77.87,55.79c-6,18.02-5.52,36.57,0.12,52.95
				C910.8,1190.48,915.31,1188.74,919.52,1185.73z"/>
			<path class="st12" d="M1045.57,1062.96c-0.49-0.17-0.99-0.3-1.49-0.46c5.15,6.87,9.72,14.24,13.67,22.14
				c12.5,24.92,20.74,52.4,23.3,80.21c4.63,50.33-10.78,111.04-58.37,136.87c-18.71,10.15-39.94,14.14-60.95,10.31
				c-18.75-3.42-36.76-11.04-52.69-21.45c-10.14-6.63-20.02-14.73-28.57-24c15.53,29.98,41.76,53.91,75.62,65.19
				c71.06,23.65,148.7-17.34,173.4-91.57C1154.2,1165.96,1116.63,1086.61,1045.57,1062.96z"/>
		</g>
		<g>
			<g>
				<g>
					<path class="st4" d="M679.17,891.52c0,0,81.05,40.77,53.23,153.38C732.39,1044.91,637.37,971.98,679.17,891.52z"/>
					<path class="st6" d="M732.45,1044.67c27.65-112.43-53.28-153.15-53.28-153.15c-0.12,0.23-0.23,0.47-0.34,0.71L732.45,1044.67z"
						/>
				</g>
				<g>
					<path class="st4" d="M778.94,889.24c0,0,41.95,80.44-46.44,155.58C732.5,1044.82,698.01,930.11,778.94,889.24z"/>
					<path class="st6" d="M732.69,1044.66c88.13-75.08,46.25-155.42,46.25-155.42c-0.24,0.12-0.46,0.25-0.71,0.36L732.69,1044.66z"
						/>
				</g>
				<g>
					<path class="st4" d="M598.24,952.82c0,0,17.66,89,133.62,92.23C731.86,1045.05,686.94,934.01,598.24,952.82z"/>
					<path class="st6" d="M731.62,1045.04c-115.73-3.36-133.38-92.22-133.38-92.22c0.26-0.06,0.51-0.1,0.78-0.15L731.62,1045.04z"/>
				</g>
			</g>
			<path class="st13" d="M835.23,1108.65c26.96,76.62,44.52,265.04,17.21,274.64c-27.32,9.61-132.97-148.75-159.94-225.37
				c-26.95-76.62-10.25-136.24,25.88-148.95C765.92,992.25,808.27,1032.01,835.23,1108.65z"/>
			<path class="st14" d="M718.38,1008.97c-4.13,1.45-7.99,3.55-11.57,6.18c23-1.7,43.87,8.59,60.35,25.01
				c10.47,10.43,68.11,83.28,82.28,258.15c1.5,18.43-13.06,38.79-35.1,35.3c-10.73-1.7-19.47-7.66-27.64-14.55
				c-2.44-2.07-4.91-4.11-7.36-6.16c30.78,43.04,60.4,74.86,73.09,70.4c27.31-9.61,9.74-198.02-17.21-274.64
				C808.27,1032.01,765.92,992.25,718.38,1008.97z"/>
			<g>
				<g>
					<path class="st15" d="M679.4,1095.93c6.41-5.81,13.68-9.18,21.16-11.94c7.57-2.52,15.35-4.44,23.99-3.94l0.16,0.47l-22.49,8.18
						l-22.66,7.71L679.4,1095.93z"/>
				</g>
			</g>
			<g>
				<g>
					<path class="st15" d="M718.5,1120.57c6.61-5.88,14.08-9.32,21.76-12.15c7.77-2.59,15.75-4.58,24.58-4.15l0.17,0.47l-23.09,8.39
						l-23.25,7.92L718.5,1120.57z"/>
				</g>
			</g>
			<g>
				<g>
					<path class="st15" d="M770.22,1070.61c5.78-5.59,12.41-8.74,19.26-11.28c6.94-2.3,14.08-4,22.09-3.27l0.16,0.47l-20.59,7.51
						l-20.76,7.04L770.22,1070.61z"/>
				</g>
			</g>
			<g>
				<g>
					<path class="st15" d="M779.7,1118.9c7.66-6.25,16.17-10.06,24.9-13.26c8.82-2.96,17.84-5.32,27.72-5.26l0.16,0.47l-26.22,9.49
						l-26.39,9.02L779.7,1118.9z"/>
				</g>
			</g>
			<g>
				<g>
					<path class="st15" d="M691.84,1155.99c6.32-5.78,13.51-9.12,20.91-11.85c7.48-2.49,15.18-4.38,23.73-3.85l0.16,0.47
						l-22.23,8.09l-22.4,7.62L691.84,1155.99z"/>
				</g>
			</g>
			<g>
				<g>
					<path class="st15" d="M769.45,1167.52c7.85-6.32,16.56-10.2,25.49-13.46c9.01-3.02,18.23-5.46,28.31-5.46l0.16,0.47l-26.81,9.7
						l-26.98,9.23L769.45,1167.52z"/>
				</g>
			</g>
			<g>
				<g>
					<path class="st15" d="M719.22,1216.05c7.23-6.1,15.32-9.76,23.63-12.81c8.39-2.81,16.99-5.02,26.44-4.81l0.17,0.47l-24.96,9.04
						l-25.12,8.57L719.22,1216.05z"/>
				</g>
			</g>
			<g>
				<g>
					<path class="st15" d="M780.74,1217.17c6.41-5.82,13.68-9.19,21.17-11.95c7.57-2.52,15.35-4.44,23.99-3.94l0.16,0.47
						l-22.49,8.18l-22.67,7.71L780.74,1217.17z"/>
				</g>
			</g>
			<g>
				<g>
					<path class="st15" d="M803.67,1238.89c8-6.37,16.86-10.3,25.94-13.62c9.16-3.08,18.53-5.56,28.75-5.62l0.16,0.47l-27.26,9.85
						l-27.42,9.39L803.67,1238.89z"/>
				</g>
			</g>
			<g>
				<g>
					<path class="st15" d="M807.61,1264.19c-7.06,6.04-14.97,9.64-23.1,12.63c-8.22,2.74-16.64,4.9-25.93,4.62l-0.16-0.47
						l24.43-8.86l24.6-8.39L807.61,1264.19z"/>
				</g>
			</g>
			<g>
				<g>
					<path class="st15" d="M801.19,1295.37c6.02-5.68,12.89-8.91,19.99-11.53c7.18-2.38,14.57-4.17,22.81-3.53l0.16,0.47
						l-21.32,7.76l-21.49,7.3L801.19,1295.37z"/>
				</g>
			</g>
			<g>
				<g>
					<path class="st15" d="M833.18,1314.66c-5.71,5.57-12.28,8.69-19.06,11.2c-6.87,2.27-13.95,3.95-21.88,3.2l-0.16-0.47
						l20.38-7.44l20.55-6.97L833.18,1314.66z"/>
				</g>
			</g>
			<g>
				<g>
					<path class="st15" d="M835.24,1350.47c3.8-4.9,8.46-7.35,13.34-9.19c4.96-1.6,10.13-2.61,16.15-1.18l0.17,0.47l-14.66,5.42
						l-14.82,4.95L835.24,1350.47z"/>
				</g>
			</g>
			<path class="st10" d="M744.52,1195.38c5.09-22.1-7.58-41.83-14.8-61.9c-6.54-18.16-18-38.87-14.95-58.85
				c1.87-12.2,7.54-26.33,18.79-32.46c-5.91-0.57-11.99,0.18-18.21,2.36c-24.47,8.61-35.77,48.97-17.52,100.85
				c6.28,17.84,18.85,42.21,33.4,66.25C737.43,1207.5,742.96,1202.18,744.52,1195.38z"/>
		</g>
		<g>
			<path class="st4" d="M1441.27,1144.18c-10.91-41.17-24.45-57.83-22.11-112.98c2.49-58.83-7.59-98.65-71.09-111.54
				c-60.7-12.32-86.46,12.54-113.3,71.46c-20.08,44.05-26.14,60.08-50.52,87.82c-27.89,31.75-51.7,65.03-66.91,139.96
				c-18.41,90.7,40.68,146.78,133.49,165.61c92.81,18.83,173.81-4.44,192.22-95.15C1455.1,1230.04,1457.35,1204.83,1441.27,1144.18z
				"/>
			<path class="st6" d="M1419,1143.77c-8.79-36.37-20.01-51-17.51-99.89c2.66-52.15-5.43-87.33-58.69-98.14
				c-50.92-10.34-72.81,11.94-95.95,64.39c-17.31,39.22-22.56,53.48-43.31,78.3c-23.76,28.39-44.09,58.11-57.6,124.64
				c-16.35,80.54,32.79,129.65,110.64,145.45c77.84,15.8,146.18-5.61,162.52-86.15C1429.78,1219.71,1431.93,1197.35,1419,1143.77z"
				/>
			<path class="st16" d="M1377.64,1231.46c-12.46,61.41-62.48,103.09-111.73,93.09c-49.24-9.99-79.07-67.88-66.61-129.28
				c12.46-61.41,62.49-103.09,111.74-93.09C1360.29,1112.16,1390.11,1170.05,1377.64,1231.46z"/>
			<path class="st10" d="M1233.71,1201.77c12.81,1.17,26.75,1.04,35.41-10.12c5.1-6.58,8.9-13.77,11.87-21.52
				c5.11-13.3,8.69-34.59,22.74-41.94c3.2-1.68,6.42-2.71,9.68-3.3c-2.25-0.74-4.56-1.36-6.92-1.84
				c-39.86-8.08-80.31,24.14-92.56,72.65C1220.12,1199.01,1226.88,1201.14,1233.71,1201.77z"/>
			<path class="st17" d="M1338.63,1113.98c13.33,17.98,22.77,38.69,24.72,60.79c3.59,40.35-9.54,80.24-39.92,107.77
				c-26.65,24.15-64.74,26.04-93.51,3.99c-19.67-15.08-25.51-37.42-33.36-58.85c1.61,48.2,28.92,88.68,69.34,96.87
				c49.24,10,99.27-31.68,111.73-93.09C1387.56,1182.62,1370.7,1136.04,1338.63,1113.98z"/>
			<path class="st18" d="M1441.27,1144.18c-10.91-41.17-24.45-57.83-22.11-112.98c2.49-58.83-7.59-98.65-71.09-111.54
				c-13.11-2.66-24.6-3.58-34.81-2.8c1.12,0.63,2.23,1.24,3.28,1.86c13.58,7.91,26.99,19.21,35.11,32.87
				c20.61,34.66,9.84,72.1,11.41,109.95c1.9,45.82,52.69,114.14,34.88,212.96c-4.49,24.9-18.26,42.13-38.18,56.75
				c-40.09,29.44-85.4,26.77-131.7,6.72c-31.28-13.54-51.33-31.51-70.12-57.82c-21.13-29.58-40.61-61.25-40.61-61.25
				c-18.41,90.7,40.68,146.78,133.49,165.61c92.81,18.83,173.81-4.44,192.22-95.15C1455.1,1230.04,1457.35,1204.83,1441.27,1144.18z
				"/>
			<path class="st10" d="M1187.71,1101.94c6.47,5.48,14.85,5.89,22.96,4.5c13.74-2.37,25.67-8.98,35.03-19.36
				c19.59-21.73,27.97-48.4,35.6-76.05c5.77-20.88,17.1-49.74,34.97-66.16c-33.05-2.71-53.18,12.79-69.73,49.1
				c-13.86,30.4-13.87,43.51-30.69,62.66c-11.01,12.54-21.1,25.43-29.68,43.85C1186.67,1100.98,1187.17,1101.48,1187.71,1101.94z"/>
		</g>
		<g>
			<path class="st19" d="M753.66,563.47c37.73,75.55,80.25,267.62,53.32,281.07c-26.93,13.45-156.43-136.21-194.16-211.76
				c-37.72-75.54-28.22-139.21,7.4-156.99C667.09,452.38,715.92,487.92,753.66,563.47z"/>
			<path class="st6" d="M660.93,469.81c-13.52-2.6-27.2-0.78-40.72,5.98c-10.34,5.16-18.47,14.22-23.89,26.29
				c0,0,7.08-0.28,34.52-13.98C655.82,475.63,660.93,469.81,660.93,469.81z"/>
			<path class="st20" d="M738.96,574.52c33.91,67.88,77.61,237.72,56.9,248.07c-20.72,10.34-131.42-126.95-165.33-194.84
				c-33.9-67.87-29.62-122.94-2.21-136.63C664.38,473.1,705.06,506.65,738.96,574.52z"/>
			<path class="st13" d="M708.76,589.61c33.9,67.87,96.01,228.53,86.86,233.09c-9.14,4.57-101-142.14-134.9-210.02
				c-33.9-67.88-43.84-115.85-31.74-121.88C644.88,482.84,674.86,521.73,708.76,589.61z"/>
			<path class="st21" d="M620.22,475.79c-4.07,2.03-7.78,4.69-11.14,7.87c23.51-4.73,46.37,3.18,65.5,17.98
				c12.15,9.41,69.38,69.66,106.64,248.2c3.93,18.82,3.23,49.13-19.95,48.39c-11.29-0.37-21.09-5.37-30.4-11.43
				c-2.8-1.82-5.59-3.61-8.39-5.4c37.32,40.4,72,69.4,84.51,63.14c26.93-13.45-15.59-205.52-53.32-281.07
				C715.92,487.92,667.09,452.38,620.22,475.79z"/>
			<path class="st10" d="M689.17,659.67c0.84-22.67-14.09-41.74-24.13-61.52c-9.07-17.88-23.08-38.02-23.73-58.41
				c-0.4-12.44,2.33-27.12,11.52-34.09c-5.47-0.17-10.89,1-16.17,3.64c-20.8,10.39-24.14,51.95,1.4,103.1
				c8.78,17.58,24.42,41.34,41.81,64.63C684.8,672.41,688.92,666.65,689.17,659.67z"/>
		</g>
		<g>
			<g>
				<path class="st7" d="M1270.06,513.65c-48.55,0-88.05-39.5-88.05-88.05s39.5-88.05,88.05-88.05c48.55,0,88.06,39.5,88.06,88.05
					S1318.61,513.65,1270.06,513.65z M1270.06,356.65c-38.01,0-68.94,30.93-68.94,68.95c0,38.02,30.93,68.94,68.94,68.94
					c38.02,0,68.94-30.92,68.94-68.94C1339,387.59,1308.08,356.65,1270.06,356.65z"/>
			</g>
		</g>
		<g>
			<path class="st7" d="M976.45,752.6c-28.34-25.01-78.25-19.47-93.19,5c-6.8,11.14,1.69,29.58,16.48,47.25
				c-11.51,14.54-32.83,40.58-44.96,49.75c-10.3,7.79,35.33,46.63,38.71,34.17c4.59-16.86,28.42-39.27,42.47-51.34
				c19.58,13.17,39.33,19.83,49.67,11.43C1014.89,825.11,1004.78,777.61,976.45,752.6z"/>
			<path class="st22" d="M976.45,752.6c-7.64-6.73-16.84-11.23-26.51-13.77c0.62,0.48,1.25,0.95,1.88,1.4
				c6.85,4.9,14.19,9.91,19.88,16.18c8.8,9.73,15.95,23.39,19.15,36.17c2.68,10.7,2.84,22.69-3.11,32.41
				c-5.09,8.3-11.76,16.5-22.19,16.61c-12.02,0.12-20.51-10.93-31.76-13.42c-16.14-3.57-28.08,13.76-37.33,24.32
				c-4.97,5.67-11.95,15.66-20.81,14.26c-5.39-0.85-9.68-4.23-13.37-8.13c-1.93-2.03-3.11-4.39-4.15-6.81
				c-1.17,1.03-2.3,1.99-3.35,2.78c-10.3,7.79,35.33,46.63,38.71,34.17c4.59-16.86,28.42-39.27,42.47-51.34
				c19.58,13.17,39.33,19.83,49.67,11.43C1014.89,825.11,1004.78,777.61,976.45,752.6z"/>
			<path class="st23" d="M919.31,798.67c0,0,37.76-20.93,33.58-28.66c-4.05-7.52-28.62-22.5-47.2-4.23
				C899.55,771.81,896.59,784.76,919.31,798.67z"/>
			<path class="st23" d="M941.88,818.59c0,0,16.34-35.85,24.26-36.88c4.19-0.55,25.89,25.61,10.07,46.32
				C970.98,834.86,958.49,839.4,941.88,818.59z"/>
			<path class="st10" d="M926.14,765.05c5.76-0.64,10.83,0.49,16.41,1.85c4.94,1.22,11.66,2.98,16.5,0.36
				c5.08-2.75,5.3-7.04,3.61-11.49c-1.89-1.44-3.86-2.79-5.9-4c-20.99-12.4-48.77-10.62-60.88,6.56
				C905.69,765.77,914.6,766.33,926.14,765.05z"/>
		</g>
		<g>
			<path class="st7" d="M755.89,291.28c-19.99,23.27-14.97,63.72,5.05,75.58c9.11,5.4,23.98-1.69,38.17-13.88
				c11.93,9.18,33.29,26.21,40.86,35.96c6.43,8.27,37.47-29.18,27.32-31.79c-13.73-3.53-32.18-22.64-42.11-33.91
				c10.48-16.04,15.68-32.14,8.74-40.44C814.33,259.31,775.89,268.01,755.89,291.28z"/>
			<path class="st22" d="M755.89,291.28c-5.39,6.27-8.94,13.79-10.9,21.66c0.38-0.5,0.76-1.02,1.12-1.54
				c3.9-5.61,7.89-11.62,12.92-16.3c7.8-7.26,18.81-13.2,29.15-15.94c8.65-2.29,18.38-2.54,26.34,2.19
				c6.79,4.03,13.52,9.37,13.71,17.83c0.23,9.75-8.65,16.76-10.54,25.92c-2.73,13.13,11.47,22.64,20.13,30.04
				c4.66,3.97,12.84,9.53,11.8,16.73c-0.63,4.39-3.33,7.9-6.45,10.94c-1.63,1.58-3.54,2.56-5.49,3.44c0.85,0.94,1.64,1.85,2.29,2.7
				c6.43,8.27,37.47-29.18,27.32-31.79c-13.73-3.53-32.18-22.64-42.11-33.91c10.48-16.04,15.68-32.14,8.74-40.44
				C814.33,259.31,775.89,268.01,755.89,291.28z"/>
			<path class="st23" d="M793.88,337.16c0,0-17.39-30.41-23.61-26.95c-6.06,3.36-17.96,23.47-2.94,38.36
				C772.3,353.49,782.85,355.75,793.88,337.16z"/>
			<path class="st23" d="M809.82,318.64c0,0-29.27-12.87-30.2-19.3c-0.48-3.4,20.51-21.28,37.48-8.66
				C822.71,294.84,826.52,304.93,809.82,318.64z"/>
			<path class="st10" d="M766.53,331.98c-0.57-4.66,0.28-8.79,1.33-13.33c0.93-4.03,2.29-9.49,0.11-13.4
				c-2.28-4.1-5.76-4.22-9.35-2.81c-1.16,1.55-2.23,3.17-3.19,4.83c-9.85,17.18-8.1,39.71,5.97,49.34
				C767.33,348.57,767.69,341.33,766.53,331.98z"/>
		</g>
		<g>
			<g>
				<path class="st24" d="M1430.77,953.77c-9.82,0-18.37-4.6-24.07-12.95c-7.19-10.52-9.15-26.49-4.68-37.96
					c5.11-13.08,1.13-19.75-2.71-26.21c-0.31-0.52-0.62-1.03-0.9-1.52c-12.32-21.16-9.77-34.52-5.46-42.01
					c5.33-9.27,16.35-14.81,29.47-14.81c1.78,0,3.56,0.1,5.29,0.32c2.25,0.28,4.33,0.42,6.2,0.42c7.41,0,10.33-2.06,14.02-4.66
					c1.62-1.14,3.44-2.43,5.62-3.5c7.01-3.48,13.5-5.23,19.31-5.23c8.1,0,14.95,3.34,19.83,9.67c8.45,10.98,8.91,29.24,6.56,38.13
					c-3.58,13.56,2.2,23.39,6.03,29.9l0.57,0.97c11.55,19.81,8.63,33.26,4.16,41.05c-5.95,10.35-17.18,14.98-25.66,14.98
					c-1.46,0-2.87-0.13-4.2-0.39c-2.77-0.54-5.34-0.82-7.65-0.82c-6.88,0-10.6,2.38-14.92,5.14c-0.63,0.4-1.24,0.8-1.86,1.18
					C1446.85,950.98,1438.45,953.77,1430.77,953.77z M1422.42,833.98c-5.74,0-12.93,1.83-15.87,6.96
					c-3.16,5.5-1.24,14.84,5.42,26.29c0.26,0.45,0.54,0.91,0.82,1.39c4.39,7.38,11.73,19.72,3.85,39.93
					c-2.27,5.82-1.76,16.43,3.01,23.42c2.81,4.11,6.45,6.11,11.12,6.11c4.72,0,10.34-2,16.69-5.93c0.55-0.34,1.1-0.7,1.67-1.06
					c5.02-3.21,11.91-7.61,23.37-7.61c3.31,0,6.9,0.37,10.66,1.11c0.24,0.05,0.63,0.1,1.19,0.1c3.21,0,9.06-1.9,12.07-7.12
					c3.46-6.02,2.04-14.78-4.11-25.34l-0.54-0.92c-4.2-7.13-12.93-21.98-7.68-41.84c1.35-5.1,1.22-18.02-3.82-24.56
					c-1.9-2.46-4.17-3.56-7.4-3.56c-3.37,0-7.53,1.21-12.35,3.6c-1.09,0.53-2.23,1.34-3.55,2.27c-4.51,3.18-10.68,7.52-23.05,7.52
					c-2.51,0-5.24-0.18-8.13-0.54C1424.69,834.05,1423.55,833.98,1422.42,833.98z"/>
			</g>
		</g>
		<g>
			<g>
				<path class="st6" d="M1023.82,470.09c-15.04,0-28.15-7.05-36.89-19.84c-11.01-16.11-14.03-40.59-7.16-58.17
					c7.82-20.05,1.73-30.28-4.15-40.17c-0.48-0.81-0.94-1.58-1.38-2.34c-18.87-32.42-14.96-52.89-8.37-64.37
					c8.18-14.21,25.06-22.7,45.16-22.7c2.73,0,5.46,0.17,8.11,0.5c3.45,0.42,6.64,0.64,9.51,0.64c11.35,0,15.83-3.15,21.49-7.14
					c2.47-1.74,5.27-3.71,8.6-5.36c10.74-5.32,20.7-8.02,29.6-8.02c12.41,0,22.92,5.13,30.38,14.82
					c12.95,16.82,13.65,44.81,10.06,58.44c-5.49,20.77,3.38,35.84,9.23,45.81l0.88,1.5c17.7,30.36,13.23,50.97,6.37,62.9
					c-9.12,15.87-26.32,22.97-39.33,22.97c-2.24,0-4.41-0.2-6.45-0.6c-4.24-0.83-8.18-1.25-11.71-1.25
					c-10.54,0-16.25,3.65-22.87,7.88c-0.96,0.62-1.91,1.22-2.85,1.8C1048.47,465.83,1035.6,470.09,1023.82,470.09z M1011.03,286.54
					c-8.8,0-19.81,2.8-24.32,10.65c-4.85,8.44-1.9,22.75,8.31,40.3c0.4,0.69,0.82,1.4,1.26,2.13c6.72,11.3,17.98,30.22,5.89,61.2
					c-3.47,8.92-2.7,25.17,4.62,35.88c4.31,6.3,9.88,9.37,17.05,9.37c7.24,0,15.85-3.06,25.58-9.09c0.85-0.52,1.69-1.06,2.56-1.61
					c7.7-4.93,18.25-11.68,35.82-11.68c5.08,0,10.57,0.57,16.34,1.7c0.36,0.08,0.96,0.16,1.82,0.16c4.91,0,13.89-2.91,18.49-10.91
					c5.3-9.23,3.13-22.66-6.3-38.83l-0.83-1.41c-6.43-10.93-19.81-33.67-11.76-64.13c2.07-7.8,1.87-27.61-5.85-37.64
					c-2.91-3.77-6.4-5.45-11.34-5.45c-5.17,0-11.53,1.85-18.93,5.52c-1.67,0.83-3.42,2.06-5.43,3.48
					c-6.91,4.86-16.37,11.52-35.33,11.52c-3.85,0-8.03-0.27-12.45-0.82C1014.52,286.65,1012.77,286.54,1011.03,286.54z"/>
			</g>
		</g>
		<g>
			<g>
				<path class="st6" d="M434.43,568.08c0,0-30.63-23.41-49.24-24.05c0,0-0.72-9.18,14.55-15.04c0,0,31.54,28.63,39.26,32
					L434.43,568.08z"/>
				<path class="st18" d="M385.19,544.03c0,0-0.12-4.09,3.26-7.61c0,0,22.47,14.41,33.92,19.82c13.9,6.57,16.57,4.71,16.63,4.74
					l-4.57,7.1C434.43,568.08,403.8,544.67,385.19,544.03z"/>
			</g>
			<path class="st24" d="M431.03,582.36c-4.36-8.52-8.38-23.07,14.97-29.89c23.35-6.81,53.07,31.68,74.02,54.53
				c20.29,22.13,77.53,43.9,78.8,51.93c0.91,5.8-44.8,21.1-106.56-24.67C474.67,621.21,444.26,608.2,431.03,582.36z"/>
			<path class="st10" d="M461.98,576.79c7.55,8.2,20.27,12.65,32.24,12.22c-12.99-14.63-29.09-32.38-42.15-28.57
				c-2.37,0.69-4.3,1.51-5.88,2.4C452.36,564.87,458.23,572.71,461.98,576.79z"/>
			<path class="st25" d="M557.21,651.29c-18.95-5.03-38.36-12.08-54.74-23.04c-8.4-5.61-16.26-11.94-24.15-18.24
				c-7.66-6.12-15.3-12.3-22.09-19.41c-6.35-6.65-12.37-13.89-16.68-22.06c-1.95-3.68-3.24-7.46-4.24-11.33
				c-11.09,7.5-7.81,18.29-4.29,25.15c13.23,25.84,43.64,38.85,61.23,51.89c61.76,45.77,107.47,30.47,106.56,24.67
				c-0.13-0.86-0.94-1.87-2.23-3.02C583.55,658.15,569.87,654.64,557.21,651.29z"/>
		</g>
		<g>
			<g>
				<path class="st6" d="M1488.38,436.47c0,0,30.62-23.41,49.24-24.05c0,0,0.72-9.17-14.55-15.04c0,0-31.53,28.62-39.26,31.99
					L1488.38,436.47z"/>
				<path class="st18" d="M1537.62,412.41c0,0,0.12-4.08-3.26-7.6c0,0-22.47,14.4-33.92,19.82c-13.9,6.58-16.56,4.71-16.63,4.74
					l4.58,7.1C1488.38,436.47,1519.01,413.06,1537.62,412.41z"/>
			</g>
			<path class="st24" d="M1491.78,450.75c4.36-8.51,8.38-23.06-14.97-29.88c-23.35-6.82-53.08,31.68-74.03,54.53
				c-20.29,22.13-77.53,43.9-78.79,51.92c-0.91,5.81,44.8,21.1,106.56-24.67C1448.14,489.6,1478.55,476.58,1491.78,450.75z"/>
			<path class="st10" d="M1460.83,445.18c-7.55,8.2-20.27,12.66-32.24,12.23c12.99-14.64,29.09-32.38,42.15-28.57
				c2.36,0.69,4.3,1.5,5.88,2.4C1470.45,433.26,1464.58,441.1,1460.83,445.18z"/>
			<path class="st25" d="M1365.59,519.68c18.96-5.02,38.37-12.07,54.74-23.03c8.4-5.62,16.26-11.94,24.15-18.24
				c7.66-6.12,15.3-12.31,22.09-19.41c6.35-6.65,12.37-13.89,16.68-22.06c1.94-3.68,3.24-7.47,4.23-11.34
				c11.09,7.5,7.81,18.29,4.29,25.15c-13.23,25.84-43.64,38.86-61.24,51.9c-61.76,45.77-107.47,30.47-106.56,24.67
				c0.14-0.85,0.94-1.87,2.23-3.02C1339.25,526.54,1352.94,523.03,1365.59,519.68z"/>
		</g>
		<g>
			<path class="st24" d="M1139.2,583.16c0,98.14-63.01,155.03-157.01,155.03c-93.98,0-157.76-56.4-157.76-154.53
				c0-66.01,20.78-111.04,72.08-138.56c61.3-32.88,119.47-27.6,165.58-2.94C1107.3,466.33,1139.2,507.25,1139.2,583.16z"/>
			<g>
				<path class="st26" d="M925.01,527.74c1.96-3.49,28.06,1.63,21.97,12.48C941.15,550.57,922.36,532.45,925.01,527.74z"/>
				<path class="st26" d="M924.78,629.53c-1.89-3.52,16.42-22.81,22.3-11.85C952.71,628.14,927.34,634.3,924.78,629.53z"/>
				<path class="st26" d="M913.99,593.31c-0.71-3.95,22.68-16.61,24.88-4.37C940.98,600.64,914.95,598.63,913.99,593.31z"/>
				<path class="st26" d="M915.78,559.92c0.73-3.94,27.09-7.55,24.83,4.69C938.45,576.29,914.81,565.23,915.78,559.92z"/>
			</g>
			<g>
				<path class="st26" d="M1038.89,527.74c-1.96-3.49-28.06,1.63-21.97,12.48C1022.75,550.57,1041.54,532.45,1038.89,527.74z"/>
				<path class="st26" d="M1039.06,623.25c1.89-3.53-16.41-22.82-22.3-11.87C1011.13,621.86,1036.5,628.01,1039.06,623.25z"/>
				<path class="st26" d="M1048.09,593.31c0.71-3.95-22.68-16.61-24.88-4.37C1021.1,600.64,1047.13,598.63,1048.09,593.31z"/>
				<path class="st26" d="M1048.67,559.92c-0.73-3.94-27.08-7.55-24.82,4.69C1026.01,576.29,1049.65,565.23,1048.67,559.92z"/>
			</g>
			<path class="st7" d="M1048.33,455.01c-40.15-21.89-90.8-26.58-144.17,2.6c-44.67,24.44-62.75,64.41-62.75,123.01
				c0,87.13,55.53,137.21,137.36,137.21c81.83,0,136.71-50.5,136.71-137.63C1115.47,512.81,1087.69,476.48,1048.33,455.01z
				 M869.59,582.65c0-45.64,14.37-76.78,49.84-95.81c12.51-6.71,24.82-11.1,36.78-13.55c4.81,18.47,7.87,40.7,9.47,64.52
				c-12.11,7.69-20.47,23.72-20.47,42.3c0,18.67,8.44,34.76,20.64,42.4c-1.3,23.28-3.61,45.79-6.71,65.73
				C905.03,681.07,869.59,643.46,869.59,582.65z M1005.46,687.06c-1.91-16.82-5.61-37.92-8.13-64.29
				c12.45-7.53,21.08-23.78,21.08-42.67c0-19.72-9.39-36.59-22.72-43.64c1.12-19.3,3.32-40.29,7.01-63.13
				c11.07,2.34,21.55,6.28,31.24,11.47c31.27,16.72,53.33,45.01,53.33,97.51C1087.27,640.36,1055.36,677.52,1005.46,687.06z"/>
			<path class="st27" d="M1062.31,442.64c-21.38-11.43-45.35-18.69-71.03-19.92c1.49,0.68,2.98,1.37,4.45,2.09
				c24.62,12.01,51.7,26.9,69.78,47.99c15.27,17.82,24.68,39.23,28.42,62.38c4,24.78,5.76,51.88-1.25,76.28
				c-6.98,24.31-20.31,45.86-39.95,61.94c-20.61,16.88-61.11,24.42-87.08,25.15c-82.05,2.31-107.54-36.13-132.4-56.81
				c20.38,62.26,75.48,96.93,149.16,96.93c93.99,0,157.01-56.88,157.01-155.02C1139.43,507.74,1107.53,466.82,1062.31,442.64z"/>
			<path class="st10" d="M884.87,591.6c19.08-5.23,27.69-18.62,27.59-38.26c-0.1-21.03-4.4-40.83,5.22-60.53
				c4.98-10.22,12.86-19.71,16.53-30.46c0.08-0.23,0.14-0.47,0.22-0.72c-9.98,2.8-20.16,6.86-30.45,12.38
				c-38.24,20.51-53.72,54.07-53.72,103.26c0,5.79,0.33,11.36,0.91,16.75C862.48,594.6,874.03,594.56,884.87,591.6z"/>
		</g>
		<g>
			<path class="st4" d="M1468.25,1267.23c-55.96,29.22-69.85-11.98-55.66-11.34c25.79,1.15,38.36-16.58,38.36-16.58
				c-69.63-2.69-55.09-58.71-38.75-51.98c46.14,18.99,47.51-2.51,47.51-2.51c-4.33-2.7-19.46,3.37-33.25-25.37
				c-13.79-28.74,6.45-40.23,12.71-33.74c30.02,31.11,48.26,22.46,46.52,10.04c-1.73-12.43-1.77-45.72,13.62-46.78
				c15.38-1.07,21.45-10.91,28.54-14.67c5.47-2.9,17.46-3.04,23.28,8.51c4.28,8.52,2.45,24.03,13.31,34.98
				c10.85,10.95-13,30.95-22.51,39.14c-9.51,8.2-1.51,26.73,41.57,23.17c8.99-0.75,16.61,21.24-12.71,33.74
				c-29.32,12.49-36.68-2.06-41.72-2.88c0,0-13.16,17.05,34.04,33.23c16.72,5.73-9.33,57.42-63.41,13.49c0,0-2.26,21.63,17.87,37.78
				C1528.63,1304.33,1491.01,1326.11,1468.25,1267.23"/>
			<path class="st28" d="M1455,1156.5c-5.13,0.07,2.04,12.91,5.11,16.54c4.2,4.97,13.97,8.06,20.68,7.62
				c7.29-0.48,14.06-7.87,17.7-14.59c8.08-14.96,12.12-27.9,16.95-40.71c3.25-8.64,7.97-20.52,6.24-29.41
				c-4.05,3.09-9.02,5.84-15.96,6.6c-14.39,1.59-15.45,35.13-14.24,47.6C1492.56,1161.33,1478.78,1156.17,1455,1156.5z"/>
			<line class="st29" x1="1435.53" y1="1354.08" x2="1529.45" y2="1104.78"/>
			<path class="st18" d="M1563.09,1244.18c-47.19-16.18-34.04-33.23-34.04-33.23c5.04,0.82,12.4,15.37,41.72,2.88
				c29.32-12.5,21.7-34.49,12.71-33.74c-43.08,3.56-51.08-14.97-41.57-23.17c9.51-8.19,33.36-28.18,22.51-39.14
				c-10.86-10.95-9.03-26.47-13.31-34.98c-3.02-6-7.7-8.83-12.26-9.77c0.3,1.07,0.55,2.16,0.79,3.24
				c2.5,11.78,3.79,23.56,2.76,35.59c-2.51,29.37-12.92,56.74-23.24,84.09c-4.95,13.14-9.94,27.36-20.55,37.13
				c-9.47,8.72-21.4,15.62-32.84,21.42c-14.96,7.59-35.67,10.28-50.51,1.44c-0.88,0.01-1.76-0.01-2.68-0.05
				c-14.19-0.63-0.3,40.56,55.66,11.34c22.77,58.88,60.39,37.1,49.31,28.22c-20.13-16.15-17.87-37.78-17.87-37.78
				C1553.76,1301.6,1579.82,1249.91,1563.09,1244.18z"/>
		</g>
		<g>
			<path class="st4" d="M703.24,1293.64c-24.8,58.05-61.64,34.98-50.26,26.48c20.69-15.44,19.18-37.13,19.18-37.13
				c-55.58,42.03-79.83-10.53-62.92-15.69c47.74-14.54,35.18-32.03,35.18-32.03c-5.07,0.66-12.92,14.93-41.8,1.43
				c-28.87-13.51-20.48-35.22-11.53-34.16c42.93,5.05,51.57-13.19,42.35-21.7c-9.21-8.52-30.32-34.25-19.1-44.82
				c11.23-10.57,9.69-22.03,12.79-29.42c2.4-5.72,11.59-13.43,23.41-8.17c8.71,3.88,17.12,17.04,32.45,18.64
				c15.34,1.6,9.55,32.19,7.38,44.55c-2.17,12.36,15.76,21.63,46.84-8.42c6.48-6.27,26.31,5.92,11.53,34.16
				c-14.77,28.24-29.69,21.65-34.1,24.2c0,0,0.62,21.53,47.39,4.15c16.56-6.16,29.15,50.34-40.53,50.6c0,0,11.95,18.17,37.76,17.91
				C773.46,1284.1,758.15,1324.78,703.24,1293.64"/>
			<path class="st28" d="M622.84,1216.34c-3.93,3.3,9.75,8.7,14.44,9.57c6.4,1.18,15.91-2.61,20.82-7.21c5.33-5,5.9-15,4.46-22.5
				c-3.23-16.71-8.3-29.26-12.68-42.24c-2.95-8.74-6.82-20.93-13.8-26.7c-1.18,4.96-3.28,10.24-8.17,15.22
				c-10.13,10.34,10.29,36.97,19.13,45.84C654.97,1196.29,641.04,1201.03,622.84,1216.34z"/>
			<line class="st29" x1="732.93" y1="1381.58" x2="647.7" y2="1129.17"/>
			<path class="st18" d="M762.03,1215.73c-46.77,17.37-47.39-4.15-47.39-4.15c4.42-2.56,19.33,4.04,34.1-24.2
				c14.78-28.25-5.06-40.43-11.53-34.16c-31.08,30.05-49.01,20.78-46.84,8.42c2.17-12.36,7.96-42.95-7.38-44.55
				c-15.34-1.6-23.74-14.76-32.45-18.64c-6.13-2.73-11.55-1.95-15.68,0.21c0.9,0.64,1.79,1.32,2.65,2
				c9.4,7.53,17.86,15.83,24.69,25.8c16.66,24.32,25.94,52.09,35.27,79.79c4.5,13.31,9.65,27.47,7.63,41.75
				c-1.81,12.74-6.67,25.64-11.84,37.38c-6.77,15.35-21.09,30.55-38.17,33.11c-0.68,0.55-1.37,1.11-2.11,1.65
				c-11.38,8.5,25.46,31.57,50.26-26.48c54.91,31.14,70.22-9.55,56.02-9.41c-25.81,0.26-37.76-17.91-37.76-17.91
				C791.18,1266.06,778.59,1209.57,762.03,1215.73z"/>
		</g>
		<path class="st3" d="M1196.64,1732.54c-60.51,37.38-391.38,18.65-408.78-1.48c-15.21-17.6-0.53-47.55-0.53-47.55h409.33
			C1196.66,1683.51,1216.48,1720.28,1196.64,1732.54z"/>
		<path class="st30" d="M402.56,1225.39c7.76,257.52,220.17,486,589.43,486c354.82,0,581.68-228.48,589.44-486
			c0,0-6.77,60.99-589.44,60.99C591.1,1286.37,402.56,1225.39,402.56,1225.39z"/>
		<path class="st30" d="M649.15,1438.87c21.42,20.92,55.49,31.68,84.41,39.85c14.64,4.14,29.61,6.17,44.66,8.14
			c15.44,2.02,30.95,3.67,46.51,4.23c36.25,1.32,73.09-2.71,105.91-19.13c25.54-12.78,46.39-32.27,60.79-56.94
			c12.76-21.85,20.95-45.54,27.89-69.73c-44.6,1.33-99.06,1.68-165.64,0.52c-123.03-2.12-213.67-12.93-273.9-23.33
			C581.53,1339.83,579.2,1370.58,649.15,1438.87z"/>
		<path class="st31" d="M1399.14,1271.04c-15.56,32.04-32.35,63.51-48.51,94.82c-22.29,43.17-49.67,83.03-85.84,115.8
			c-36.36,32.95-79.17,61.06-124.23,80.52c-105.89,45.74-222.78,47.19-335.03,28.27c-47.59-8.02-93.22-20.78-135.22-45.18
			c-38.1-22.14-72.09-51.07-100.35-84.88c-52.59-62.94-86.64-139.44-104.05-219.28c-42.51-9-63.36-15.73-63.36-15.73
			c7.76,257.52,220.17,486,589.43,486c354.82,0,581.68-228.48,589.44-486C1581.43,1225.39,1578.36,1252.97,1399.14,1271.04z"/>
		<g>
			<path class="st11" d="M1385.66,661.18c-6.73-24.65-20.81-38.81-35.65-47.27c-19.88-11.33-41.99-11.12-57.68,0.54
				c-22.35,16.61-56.66,69.16-98.3,104.05c-34.85,29.2-76.77,33.35-93.37,71.34c-19.61,44.84-0.92,74.83,40.18,96.9
				c51.46,27.64,94.09,4.82,129.82-28.64C1311.8,819.57,1403.03,724.8,1385.66,661.18z"/>
			<path class="st10" d="M1213.03,730.36c5.67,4.21,13.47,5.73,20.1,2.85c12.72-5.54,18.51-20.05,26.21-30.6
				c4.86-6.65,10.11-13.38,16.2-18.96c5.53-5.08,12.02-8.84,18.68-12.23c7.16-3.66,13.79-7.2,19.27-13.27
				c1.4-1.55,2.72-3.17,3.98-4.81c-0.94-0.62-1.9-1.22-2.86-1.76c-13.04-7.43-27.54-7.29-37.83,0.36
				c-14.65,10.9-37.14,45.35-64.45,68.23c-1.62,1.36-3.27,2.62-4.92,3.83C1208.93,726.43,1210.73,728.65,1213.03,730.36z"/>
			<path class="st12" d="M1385.66,661.18c-0.11-0.36-0.22-0.71-0.32-1.06c-6.1,10.67-12.84,21.01-19.52,31.29
				c-22.43,34.49-47.4,69.2-80.76,94.02c-18.42,13.69-36.24,28.48-56.15,40.03c-18.61,10.8-41.65,21.03-63.69,19.63
				c-21.03-1.34-40.63-13.03-53.02-29.93c-5.1-6.95-10.93-15.39-11.95-24.33c-18.91,44.31-0.21,74.02,40.58,95.93
				c51.46,27.64,94.09,4.82,129.82-28.64C1311.8,819.57,1403.03,724.8,1385.66,661.18z"/>
			<path class="st6" d="M1352.84,617.9c0,0,6.94-27.08,24.18-36.74c0,0-7.21-10.5-24.46-8.6c0,0-7.72,30.11-13.36,37.05
				L1352.84,617.9z"/>
			<path class="st18" d="M1377.02,581.15c0,0-2.11-3.07-6.77-5.58c0,0-10.49,14.81-14.04,20.18c-4.41,6.66-13.52,12.68-16.87,13.65
				c-0.04,0.06-0.09,0.14-0.14,0.2l13.64,8.3C1352.84,617.9,1359.78,590.81,1377.02,581.15z"/>
			<path class="st6" d="M1308.6,606.55c0,0-24.59,19.02-25.24,35.41c0,0,21.02-13.93,35.81-13.52c0,0-10.96,14.91-8.12,27.85
				c0,0,19.17-15.42,33.21-13.39c0,0,7.36,12.25,1.78,25.23c0,0,20.35-3.49,15.8-25.54c0,0,15.77,22,3.8,43.62
				c0,0,18.52-11.53,17.95-31.69C1383.57,654.52,1366.36,596.79,1308.6,606.55z"/>
			<path class="st18" d="M1383.57,654.52c0,0-4.13-13.86-15.14-26.84c1.26,5.18,1.6,10.93-0.25,15.59c-0.25,0.62-5.71-3.9-8.55-4.94
				c-1.17,3.99-2.41,8.29-6.29,10.38c-0.5,0.27-1.95-6.06-2.22-8.85c-0.18-1.88-0.18-6.68-3.37-6.71c-1.8-0.02-3.6,0.13-5.35,0.57
				c-5.43,1.37-16.27,5.99-16.32,5.5c-0.41-3.67,0.85-7.04,2.29-10.38c0.77-1.77,1.64-3.5,2.51-5.23c0.6-1.2,2.42-3.17-0.73-3.18
				c-0.86-0.02-1.72,0-2.59,0.05c-5.89,0.04-11.56,0-17.28,1.67c-2.78,0.8-11.21,2.21-11.03,1.77c3.28-7.73,9.3-13.03,15.6-18.18
				c-2.04,0.18-4.12,0.45-6.28,0.8c0,0-24.59,19.02-25.24,35.41c0,0,21.02-13.93,35.81-13.52c0,0-10.96,14.91-8.12,27.85
				c0,0,19.17-15.42,33.21-13.39c0,0,7.36,12.25,1.78,25.23c0,0,20.35-3.49,15.8-25.54c0,0,15.77,22,3.8,43.62
				C1365.62,686.21,1384.14,674.68,1383.57,654.52z"/>
		</g>
		<g>
			<polygon class="st4" points="508.78,328.52 501.88,332.9 517.91,358.18 519.88,386.16 524.41,385.7 525.34,363.36 542.98,372.71 
				546.2,367.35 524.77,353.63 			"/>
			<path class="st6" d="M530.48,371.7c-5.46,0.76-21.86,6.79-13.86,29.83c3.76,10.85-1.22,19.1-6.52,25.45
				c-7.21,8.64,4.37,52.6,20.23,48.49c16.56-4.3,19.45-22.14,22.19-43.11c1.38-10.67,10.97-19.19,4.32-30.74
				C547.71,385.75,555.27,368.25,530.48,371.7z"/>
			<path class="st30" d="M546.34,413.71c-7.55,5.64-14.54,12.16-15.33,22.22c-0.45,5.62,1.83,9.66,2.68,14.18
				c0.92,4.94,2.86,13.05,5.38,13.46c1.91,0.31,7.13-16.77,8.76-29.22c1.1-8.46,8.68-15.24,3.51-24.38
				C549.58,411.15,547.93,412.53,546.34,413.71z"/>
			<path class="st32" d="M523.74,425.15c-0.09,4.82,0.61,9.59,1.14,14.36c0.55,5.06,1.16,10.14,2.29,15.12
				c1.5,6.62,3.89,13.84,8.87,18.54c-1.7,0.97-3.59,1.74-5.71,2.3c-15.86,4.11-27.44-39.85-20.23-48.49
				c5.3-6.36,10.28-14.61,6.52-25.45c-8-23.03,8.4-29.07,13.86-29.83c9.46-1.31,14.19,0.42,16.96,3.95
				C532.94,387.23,524.05,407.41,523.74,425.15z"/>
			<path class="st6" d="M542.3,362.84c5.06-3.16,22.86-9.5,32.17,15.17c4.38,11.61,14.24,15.02,23.04,16.62
				c11.98,2.17,32.81,46.7,16.78,54.26c-16.72,7.9-31.47-4.9-48.28-20.43c-8.54-7.89-22.4-8.32-24.88-22.5
				C537.73,386.44,519.33,377.15,542.3,362.84z"/>
			<path class="st30" d="M598.28,435.19c-0.97-3.76-3.18-7.55-5.35-10.75c-2.24-3.31-5.25-6.14-8.64-8.27
				c-1.72-1.08-3.45-2.04-5.55-2.03c-1.67,0.01-3.32,0.28-4.98,0.3c-7.17,0.09-16.25-7.36-21.06-2.87
				c-2.77,2.58,9.79,8.19,15.14,13.27c10.68,10.14,25.43,25.14,30.67,20.09C600.83,442.69,599.2,438.74,598.28,435.19z"/>
			<path class="st32" d="M584.93,402.55c3.41,3.95,6.12,8.38,9,12.72c3.04,4.59,6.06,9.22,8.57,14.14
				c3.34,6.54,6.36,14.18,5.48,21.54c2.08-0.38,4.19-1.04,6.32-2.05c16.03-7.57-4.8-52.09-16.78-54.26
				c-8.8-1.6-18.66-5.01-23.04-16.62c-9.3-24.67-27.11-18.32-32.17-15.17c-8.76,5.45-11.49,10.18-11.35,15.03
				C551.01,377.44,572.38,388.04,584.93,402.55z"/>
		</g>
		<g>
			<polygon class="st4" points="846.44,1082.61 854.61,1082.61 854.61,1052.68 867.96,1028 863.88,1025.96 851.12,1044.32 
				841.24,1026.98 835.64,1029.78 846.39,1052.84 			"/>
			<path class="st6" d="M851.25,1034.53c5.02,2.28,22.1,5.97,27.69-17.76c2.63-11.17,11.26-15.48,19.14-18
				c10.73-3.44,24.5-46.76,8.9-51.77c-16.28-5.24-28.28,8.26-41.83,24.51c-6.89,8.26-19.55,10.32-20.12,23.63
				C844.23,1013.43,828.47,1024.16,851.25,1034.53z"/>
			<path class="st30" d="M860.38,990.55c9.39-0.7,18.78-2.47,24.85-10.53c3.39-4.51,3.62-9.13,5.34-13.42
				c1.86-4.66,4.58-12.54,2.67-14.24c-1.45-1.29-15,10.34-23.04,19.98c-5.47,6.56-15.5,8.22-16.04,18.71
				C856.26,990.98,858.39,990.7,860.38,990.55z"/>
			<path class="st32" d="M885.59,993.01c2.65-4.02,4.62-8.42,6.73-12.74c2.24-4.57,4.46-9.18,6.17-13.99
				c2.28-6.4,4.13-13.77,2.44-20.41c1.95,0.1,3.97,0.45,6.04,1.13c15.6,5.01,1.82,48.34-8.9,51.77c-7.88,2.52-16.51,6.82-19.14,18
				c-5.59,23.73-22.67,20.04-27.69,17.76c-8.69-3.96-11.76-7.97-12.21-12.43C857.49,1020.09,875.82,1007.82,885.59,993.01z"/>
			<path class="st6" d="M836.52,1035.67c-5.96-0.05-24.4-4.23-19.03-30.05c2.53-12.15-3.99-20.3-10.56-26.37
				c-8.94-8.26-2.67-57.02,14.91-54.82c18.35,2.3,23.95,21.01,29.82,43.12c2.98,11.24,14.46,19.04,8.94,32.34
				C853.03,1018.2,863.58,1035.9,836.52,1035.67z"/>
			<path class="st30" d="M828.03,944.6c-1.19,3.69-1.36,8.08-1.24,11.94c0.12,3.99,1.14,8,2.87,11.61c0.88,1.84,1.82,3.57,3.6,4.7
				c1.41,0.88,2.95,1.54,4.35,2.41c6.11,3.76,9.79,14.92,16.26,13.71c3.71-0.7-3.88-12.16-5.68-19.32
				c-3.58-14.27-8-34.84-15.12-33.39C829.89,936.9,829.15,941.1,828.03,944.6z"/>
			<path class="st32" d="M821.81,979.3c-0.77-5.16-0.68-10.35-0.79-15.56c-0.11-5.5-0.18-11.04,0.34-16.53
				c0.69-7.32,2.24-15.38,6.92-21.13c-1.96-0.8-4.09-1.36-6.44-1.65c-17.58-2.2-23.85,46.56-14.91,54.82
				c6.57,6.07,13.08,14.22,10.56,26.37c-5.37,25.82,13.07,30,19.03,30.05c10.32,0.09,15.16-2.44,17.64-6.61
				C836.99,1018.67,824.63,998.28,821.81,979.3z"/>
		</g>
		<g>
			<polygon class="st4" points="772.37,408 766.74,408.63 769.05,429.28 761.73,447.34 764.7,448.43 772.09,434.78 780.25,445.99 
				783.89,443.63 774.7,428.53 			"/>
			<path class="st6" d="M772.76,441.55c-3.64-1.19-15.72-2.42-17.74,14.38c-0.96,7.91-6.58,11.54-11.82,13.89
				c-7.14,3.19-13.32,34.15-2.16,36.42c11.64,2.36,18.88-7.88,26.98-20.14c4.12-6.22,12.7-8.62,12.07-17.84
				C779.22,455.57,789.27,446.95,772.76,441.55z"/>
			<path class="st30" d="M769.84,472.59c-6.43,1.21-12.77,3.16-16.34,9.19c-1.99,3.37-1.8,6.58-2.65,9.66
				c-0.93,3.37-2.2,9.02-0.75,10.04c1.1,0.78,9.56-8.29,14.37-15.56c3.27-4.95,10.07-6.87,9.63-14.15
				C772.64,471.99,771.19,472.34,769.84,472.59z"/>
			<path class="st32" d="M752.25,472.84c-1.53,2.98-2.54,6.15-3.67,9.3c-1.19,3.34-2.37,6.69-3.18,10.13
				c-1.08,4.6-1.79,9.82-0.12,14.27c-1.36,0.09-2.77-0.01-4.26-0.31c-11.15-2.27-4.97-33.23,2.16-36.42
				c5.24-2.35,10.87-5.98,11.82-13.89c2.03-16.81,14.1-15.57,17.74-14.38c6.3,2.07,8.72,4.6,9.37,7.64
				C769.56,451.99,757.86,461.87,752.25,472.84z"/>
			<path class="st6" d="M782.83,439.63c4.12-0.42,17.16,1.04,15.45,19.27c-0.81,8.59,4.3,13.72,9.31,17.4
				c6.81,5,6.23,39.14-6.07,38.97c-12.84-0.17-18.15-12.66-23.89-27.47c-2.92-7.52-11.44-12.03-8.66-21.62
				C772.79,452.96,764.14,441.55,782.83,439.63z"/>
			<path class="st30" d="M795.7,501.82c0.53-2.63,0.31-5.68-0.07-8.33c-0.39-2.75-1.4-5.43-2.88-7.8c-0.74-1.2-1.52-2.32-2.84-2.96
				c-1.04-0.49-2.15-0.84-3.2-1.33c-4.51-2.14-7.89-9.55-12.27-8.21c-2.52,0.76,3.61,8.09,5.4,12.9c3.57,9.58,8.2,23.43,13,21.89
				C795,507.28,795.19,504.32,795.7,501.82z"/>
			<path class="st32" d="M797.32,477.4c0.92,3.5,1.27,7.1,1.74,10.68c0.5,3.79,0.97,7.6,1.03,11.43c0.09,5.1-0.36,10.79-3.15,15.11
				c1.41,0.4,2.92,0.63,4.57,0.65c12.31,0.17,12.88-33.97,6.07-38.97c-5-3.68-10.12-8.81-9.31-17.4
				c1.71-18.23-11.33-19.69-15.45-19.27c-7.12,0.74-10.28,2.85-11.66,5.91C783.81,451.4,793.91,464.52,797.32,477.4z"/>
		</g>
		<g>
			<polygon class="st4" points="508.01,805.01 513.69,805.01 513.69,784.22 522.94,767.09 520.12,765.68 511.26,778.43 
				504.39,766.39 500.51,768.33 507.97,784.34 			"/>
			<path class="st6" d="M511.35,771.62c3.48,1.59,15.35,4.15,19.22-12.33c1.82-7.76,7.82-10.75,13.3-12.49
				c7.44-2.39,17.01-32.47,6.17-35.96c-11.31-3.64-19.63,5.74-29.05,17.02c-4.78,5.74-13.57,7.17-13.97,16.41
				C506.47,756.98,495.53,764.43,511.35,771.62z"/>
			<path class="st30" d="M517.68,741.09c6.52-0.49,13.04-1.72,17.26-7.32c2.35-3.13,2.52-6.34,3.7-9.31
				c1.3-3.24,3.19-8.71,1.86-9.89c-1.01-0.9-10.42,7.18-16,13.87c-3.8,4.56-10.76,5.71-11.14,13
				C514.83,741.38,516.31,741.2,517.68,741.09z"/>
			<path class="st32" d="M535.19,742.8c1.84-2.79,3.21-5.84,4.68-8.84c1.55-3.18,3.09-6.38,4.28-9.72c1.58-4.44,2.86-9.56,1.7-14.16
				c1.36,0.06,2.75,0.31,4.19,0.78c10.83,3.49,1.27,33.57-6.17,35.96c-5.47,1.74-11.47,4.73-13.3,12.49
				c-3.88,16.48-15.74,13.92-19.22,12.33c-6.03-2.74-8.17-5.53-8.47-8.62C515.68,761.6,528.4,753.07,535.19,742.8z"/>
			<path class="st6" d="M501.12,772.41c-4.14-0.04-16.94-2.93-13.22-20.86c1.75-8.44-2.76-14.1-7.32-18.31
				c-6.21-5.74-1.86-39.59,10.35-38.06c12.74,1.59,16.63,14.59,20.71,29.94c2.07,7.81,10.04,13.22,6.21,22.46
				C512.58,760.28,519.91,772.58,501.12,772.41z"/>
			<path class="st30" d="M495.22,709.18c-0.82,2.56-0.94,5.61-0.86,8.29c0.08,2.77,0.79,5.55,2,8.06c0.6,1.28,1.26,2.49,2.5,3.26
				c0.98,0.61,2.04,1.08,3.02,1.68c4.24,2.61,6.79,10.36,11.29,9.51c2.58-0.48-2.7-8.44-3.94-13.41
				c-2.48-9.92-5.56-24.19-10.5-23.19C496.51,703.84,496,706.75,495.22,709.18z"/>
			<path class="st32" d="M490.9,733.28c-0.53-3.58-0.47-7.19-0.54-10.81c-0.08-3.82-0.13-7.66,0.23-11.47
				c0.47-5.09,1.56-10.69,4.8-14.67c-1.36-0.56-2.84-0.95-4.47-1.15c-12.21-1.53-16.56,32.33-10.35,38.06
				c4.56,4.21,9.08,9.87,7.32,18.31c-3.72,17.93,9.08,20.83,13.22,20.86c7.16,0.07,10.53-1.69,12.24-4.58
				C501.45,760.62,492.86,746.45,490.9,733.28z"/>
		</g>
		<g>
			<polygon class="st4" points="1194.75,632.44 1200.42,632.44 1200.42,611.65 1209.69,594.51 1206.86,593.1 1198,605.85 
				1191.14,593.81 1187.25,595.75 1194.72,611.77 			"/>
			<path class="st6" d="M1198.09,599.05c3.48,1.59,15.35,4.15,19.22-12.33c1.83-7.76,7.82-10.75,13.29-12.5
				c7.45-2.38,17.02-32.46,6.18-35.95c-11.31-3.64-19.64,5.74-29.05,17.03c-4.78,5.73-13.57,7.17-13.97,16.4
				C1193.21,584.4,1182.27,591.85,1198.09,599.05z"/>
			<path class="st30" d="M1204.42,568.52c6.52-0.49,13.04-1.72,17.26-7.32c2.35-3.13,2.52-6.35,3.7-9.32
				c1.3-3.24,3.19-8.71,1.86-9.89c-1.01-0.89-10.42,7.18-16.01,13.88c-3.8,4.55-10.76,5.71-11.13,12.98
				C1201.57,568.81,1203.04,568.62,1204.42,568.52z"/>
			<path class="st32" d="M1221.93,570.22c1.84-2.8,3.2-5.85,4.67-8.85c1.56-3.18,3.09-6.38,4.28-9.71c1.58-4.45,2.87-9.57,1.7-14.17
				c1.35,0.06,2.75,0.31,4.2,0.78c10.83,3.49,1.27,33.57-6.18,35.95c-5.47,1.75-11.46,4.74-13.29,12.5
				c-3.88,16.48-15.74,13.92-19.22,12.33c-6.03-2.75-8.17-5.53-8.47-8.62C1202.42,589.02,1215.14,580.5,1221.93,570.22z"/>
			<path class="st6" d="M1187.86,599.84c-4.14-0.03-16.94-2.93-13.22-20.86c1.75-8.45-2.76-14.1-7.32-18.32
				c-6.21-5.73-1.87-39.59,10.35-38.06c12.74,1.59,16.63,14.59,20.71,29.94c2.07,7.8,10.03,13.23,6.21,22.45
				C1199.32,587.71,1206.65,600,1187.86,599.84z"/>
			<path class="st30" d="M1181.96,536.61c-0.83,2.57-0.94,5.61-0.86,8.29c0.09,2.77,0.8,5.55,2,8.06c0.61,1.28,1.27,2.48,2.5,3.26
				c0.98,0.62,2.05,1.07,3.02,1.68c4.25,2.61,6.8,10.36,11.29,9.52c2.58-0.48-2.69-8.45-3.94-13.42
				c-2.49-9.92-5.55-24.19-10.5-23.19C1183.25,531.26,1182.74,534.17,1181.96,536.61z"/>
			<path class="st32" d="M1177.64,560.7c-0.52-3.58-0.47-7.19-0.54-10.8c-0.07-3.82-0.12-7.67,0.24-11.48
				c0.47-5.08,1.55-10.68,4.8-14.67c-1.36-0.55-2.83-0.95-4.47-1.15c-12.21-1.53-16.56,32.33-10.35,38.06
				c4.56,4.22,9.08,9.87,7.32,18.32c-3.71,17.92,9.08,20.83,13.22,20.86c7.17,0.07,10.52-1.69,12.24-4.59
				C1188.19,588.04,1179.6,573.87,1177.64,560.7z"/>
		</g>
	</g>
	<g>
		<g>
			<path class="st33" d="M1368.61,1826.02c-165.3,9.86-288.24,23.47-462.63,10.23c-98.76-7.49-113.34-8.72-214.06-93.17
				c-34.35-28.79-52.2-84.5-3.57-101.39c28.51-9.89,106.13,49.41,147.88,64.22c89.19,31.63,305.15,18.98,306.9-6.63
				c2.04-30.43-90.3-18.47-135.13-45.71c-67.91-41.2-8.19-108.35,70.44-85.29c190.25,55.83,286.13,73.57,286.13,73.57
				L1368.61,1826.02z"/>
		</g>
		<path class="st33" d="M2052,1646.75l-756.67-13.54l1.58,195.66c0,0,334.47,61.63,755.09,116.93V1646.75z"/>
	</g>
</g>
</svg>
