<?xml version="1.0" encoding="utf-8"?>
<!-- Generator: Adobe Illustrator 24.3.0, SVG Export Plug-In . SVG Version: 6.00 Build 0)  -->
<svg version="1.1" id="Capa_1" xmlns="http://www.w3.org/2000/svg" xmlns:xlink="http://www.w3.org/1999/xlink" x="0px" y="0px"
	 viewBox="0 0 2052 2194" style="enable-background:new 0 0 2052 2194;" xml:space="preserve">
<style type="text/css">
	.st0{fill:#CDE7DF;}
	.st1{fill:#E2ECC1;}
	.st2{opacity:0.2;fill:#1D1F3E;}
	.st3{fill:#1E203F;}
	.st4{fill:#414A7F;}
	.st5{fill:#6773A4;}
	.st6{opacity:0.4;fill:#1E203F;}
	.st7{fill:#F29185;}
	.st8{opacity:0.5;fill:#EC6764;}
	.st9{fill:#EC6764;}
	.st10{fill:#FFFFFF;}
	.st11{fill:#E9454C;}
	.st12{opacity:0.2;fill:#1E203F;}
	.st13{fill:#313B68;}
	.st14{fill:#F5ADA0;}
	.st15{opacity:0.5;fill:#313B68;}
	.st16{fill:#EF7F70;}
	.st17{opacity:0.2;fill:#313B68;}
	.st18{fill:#441133;}
	.st19{fill:#561440;}
	.st20{opacity:0.3;fill:#131328;}
	.st21{fill:#D14A3F;}
	.st22{fill:#BA3B35;}
	.st23{opacity:0.1;fill:#131328;}
	.st24{opacity:0.15;fill:#1E203F;}
	.st25{opacity:0.3;fill:#1D1F3E;}
	.st26{opacity:0.5;fill:#A02B27;}
	.st27{fill:#1D1F3E;}
	.st28{fill:#A3302B;}
	.st29{fill:#131328;}
	.st30{fill:#DD554E;}
</style>
<rect x="3.25" y="-3.64" class="st0" width="2052" height="2194"/>
<ellipse class="st1" cx="1031.25" cy="1093.36" rx="797.6" ry="815.69"/>
<g>
	<ellipse class="st2" cx="1051.93" cy="1904.32" rx="851.17" ry="53.92"/>
</g>
<g>
	<g>
		<g>
			<path class="st3" d="M1259.49,1780.17c0,0,25.32,77.64,25.32,91.14c0,13.5-216.03,143.46-43.88-5.06l-27-59.07L1259.49,1780.17z"
				/>
			<path class="st3" d="M1324.33,1492.82c0,0-52.8,62.29-57.91,74.79c-5.11,12.5,145.72,214.52,42.54,11.91l47.34-44.47
				L1324.33,1492.82z"/>
		</g>
		<g>
			<path class="st4" d="M1095.77,1067.94c0,0-55.7,204.22-5.06,406.75c50.63,202.53,118.14,344.3,118.14,344.3
				s32.07,10.13,65.82-10.13c0,0-59.07-246.41-82.7-340.92c-23.63-94.51,27-276.79,27-276.79l45.57-3.38
				c0,0,141.77,77.64,175.53,145.15c0,0-109.7,150.21-141.77,178.9c0,0,28.69,40.51,42.19,45.57
				c13.5,5.06,195.78-129.96,214.34-200.84c18.57-70.89-216.03-290.29-216.03-290.29L1095.77,1067.94z"/>
			<path class="st5" d="M1211.14,1839.33c0,0,63.19-11.07,68.99-23.27c0,0,1.15-18.14-5.17-32.36l-80.96,28.79L1211.14,1839.33z"/>
			<g>
				<path class="st6" d="M1347.25,1074.7c-8.75-8.48-8.44-8.44-8.44-8.44l-243.04,1.69c0,0-4.99,18.31-10.63,49.39
					C1217.29,1160.77,1319.82,1092.15,1347.25,1074.7z"/>
				<path class="st6" d="M1426.52,1154.79c-17.4,34.99-34.23,70.28-48.29,106.75c-0.26,0.67-0.51,1.34-0.76,2.01
					c26.85,21.96,51.06,46.25,62.61,69.36c0,0-109.7,150.21-141.77,178.9c0,0,28.69,40.51,42.19,45.57
					c13.5,5.06,195.78-129.96,214.34-200.84C1565.63,1315.37,1490.98,1224.09,1426.52,1154.79z"/>
			</g>
			<path class="st5" d="M1289.87,1513.51c0,0,37.13,52.32,50.63,52.32c0,0,16.88-6.75,27-18.57l-60.76-60.76L1289.87,1513.51z"/>
			<path class="st6" d="M1289.87,1513.51c0,0,37.13,52.32,50.63,52.32c0,0,16.88-6.75,27-18.57l-60.76-60.76L1289.87,1513.51z"/>
		</g>
	</g>
	<g>
		<g>
			<path class="st7" d="M1162.29,551.87c-1.32,16.57,4.01,30.52,11.91,31.15c7.9,0.63,18.61-17.65,19.94-34.23
				c1.32-16.57-7.25-25.16-15.15-25.79C1171.09,522.37,1163.61,535.3,1162.29,551.87z"/>
			<path class="st7" d="M1178.33,595.49c0,0-1.79,74.44-14.01,76.21c-12.22,1.77-47.13-3.57-47.13-3.57s82,95.76,160.57,76.31
				c0,0-47.12-19.52-47.12-33.7c0.01-14.18,15.75-63.8,15.75-63.8L1178.33,595.49z"/>
			<path class="st8" d="M1175.62,635.55c5.36,12.21,9.6,25.1,16.4,36.7c7.49,12.76,22.38,26.3,38.95,34.09
				c2.26-17.95,15.41-59.41,15.41-59.41l-68.06-51.44C1178.33,595.49,1177.84,615.87,1175.62,635.55z"/>
			<path class="st7" d="M1240.73,475.04c0,0,65.07-14.01,90.05,37.37c24.98,51.38-10.17,198.51-90.42,170s-72.2-119.32-65.12-135.12
				C1182.33,531.48,1210.22,486.67,1240.73,475.04z"/>
			<path class="st3" d="M1363.79,517.38c0,0,23.67,2.59,29.81-21.5c0,0-17.02,19.71-42.07-9.68
				c-18.9-22.18-86.01-71.44-127.77-22.55c-14.16-3.11-40-2.4-53.91,37.55c-26.42,75.85,6.64,119.22,6.64,119.22
				c-0.85-22.69,5.46-33.27,5.46-33.27c-20.63-14.29-12.38-47.34-0.76-52.03c11.61-4.69,15.66,6.17,15.66,6.17l-7.06,26.83l8.1,4.16
				l11.41-28.59c22.48,2.93,26.81-11.16,31.03-22.43c14.74,13.16,42.95,32.3,84.53,35.16l-12.09-15.71c0,0,20.77,21.32,51.61,13.25
				l-6.7-4.05c0,0,27.33,0.78,33.43-31.74C1391.12,518.16,1375.21,523.91,1363.79,517.38z"/>
		</g>
		<g>
			<g>
				<path class="st9" d="M1297.29,585.11c-0.51,4.36-1.08,8.72-1.7,13.06c-0.59,4.35-1.26,8.69-1.93,13.03l-1,6.51l-1.09,6.49
					l-1.09,6.49l-1.17,6.48l-0.06,0.32l-0.31,0c-3.4,0.03-6.8,0.09-10.21,0.09l-10.21,0.01l10.2-0.47c3.4-0.16,6.8-0.27,10.2-0.39
					l-0.37,0.32l0.92-6.52l1-6.51l1-6.51l1.09-6.49c0.72-4.33,1.44-8.66,2.25-12.98C1295.58,593.73,1296.4,589.42,1297.29,585.11z"
					/>
			</g>
			<path class="st10" d="M1224.11,622.12c0,0,34.53,16.1,60.97,28.04C1285.07,650.16,1232.83,671.27,1224.11,622.12z"/>
			<g>
				<path class="st9" d="M1181.86,579.42c-1-1.24-1.9-2.56-2.72-3.93c-0.81-1.38-1.57-2.81-2.01-4.37c-0.22-0.78-0.37-1.6-0.28-2.45
					c0.07-0.84,0.49-1.73,1.25-2.21c0.73-0.49,1.59-0.68,2.41-0.73c0.83-0.07,1.64,0.01,2.45,0.1l-0.36,0.2
					c1.28-3.06,2.4-6.2,3.32-9.38c0.9-3.17,1.76-6.45,1.59-9.69c-0.06-0.8-0.2-1.6-0.54-2.29c-0.34-0.69-0.9-1.19-1.64-1.46
					c-1.46-0.6-3.13-0.01-4.46,0.89c-2.7,1.87-4.79,4.56-6.61,7.34c0.8-1.47,1.73-2.86,2.76-4.18c1.03-1.31,2.19-2.57,3.58-3.55
					c0.7-0.49,1.46-0.91,2.31-1.14c0.84-0.25,1.78-0.24,2.63,0.06c0.84,0.27,1.65,0.91,2.03,1.73c0.41,0.81,0.56,1.69,0.64,2.54
					c0.2,3.44-0.64,6.75-1.54,9.97c-0.97,3.21-2.12,6.35-3.45,9.44l-0.1,0.24l-0.26-0.03c-0.77-0.09-1.55-0.17-2.31-0.12
					c-0.76,0.02-1.52,0.18-2.13,0.56c-0.62,0.37-0.97,1.04-1.06,1.78c-0.1,0.74,0.02,1.52,0.2,2.27c0.39,1.51,1.06,2.96,1.79,4.36
					C1180.12,576.75,1180.96,578.11,1181.86,579.42z"/>
			</g>
			<g>
				<path class="st3" d="M1241.43,554.67c4.27-2.36,9.06-3.78,13.97-4.39c4.91-0.61,10.01-0.25,14.8,1.34
					c2.38,0.83,4.66,1.94,6.76,3.31c2.1,1.39,3.98,3.07,5.66,4.91c3.31,3.73,5.73,8.12,7.24,12.74c-2.42-4.22-5.21-8.15-8.58-11.45
					c-3.4-3.26-7.42-5.78-11.84-7.25c-4.41-1.5-9.16-1.96-13.89-1.75C1250.82,552.38,1246.07,553.24,1241.43,554.67z"/>
			</g>
			<g>
				<path class="st3" d="M1306.64,582.3c2.38-2.14,5.38-3.64,8.66-4.26c1.64-0.32,3.35-0.32,5.04-0.06c1.69,0.29,3.32,0.92,4.8,1.79
					c1.46,0.9,2.72,2.07,3.8,3.34c1.08,1.28,1.94,2.7,2.68,4.16c1.44,2.93,2.3,6.07,2.68,9.23c-1.34-2.9-2.66-5.74-4.31-8.32
					c-1.67-2.54-3.63-4.88-6.11-6.37c-2.45-1.54-5.38-2.13-8.36-1.93C1312.55,580.11,1309.54,581,1306.64,582.3z"/>
			</g>
			<g>
				<path class="st3" d="M1247.88,578.4c0.41-1.59,1.11-3.12,2.06-4.5c0.98-1.36,2.25-2.53,3.72-3.39c1.47-0.87,3.15-1.37,4.86-1.53
					c1.71-0.13,3.45,0.12,5.07,0.7c1.61,0.61,3.1,1.56,4.29,2.82c1.17,1.27,2.05,2.8,2.51,4.44c0.47,1.64,0.6,3.35,0.45,5.01
					c-0.2,1.66-0.61,3.27-1.21,4.8c0.73-3.18,0.98-6.54-0.11-9.52c-1.04-2.98-3.4-5.39-6.34-6.42c-2.91-1.11-6.28-0.92-9.08,0.51
					C1251.26,572.72,1249.15,575.38,1247.88,578.4z"/>
			</g>
			<g>
				<path class="st3" d="M1301.7,601.02c0.65-1.34,1.58-2.56,2.71-3.58c1.15-1,2.53-1.75,4.01-2.21c2.97-0.92,6.3-0.49,9.03,1.03
					c1.36,0.77,2.57,1.81,3.5,3.07c0.91,1.27,1.57,2.75,1.77,4.3c0.22,1.54,0.08,3.11-0.34,4.57c-0.45,1.45-1.11,2.81-1.95,4.05
					c0.6-1.37,1.13-2.75,1.38-4.18c0.29-1.42,0.31-2.89,0-4.27c-0.59-2.78-2.49-5.14-4.96-6.49c-2.45-1.4-5.44-1.83-8.21-1.19
					C1305.86,596.75,1303.41,598.6,1301.7,601.02z"/>
			</g>
		</g>
	</g>
	<g>
		<g>
			<path class="st11" d="M1164.32,671.7c0,0,53.06,80.94,75.26,50.38c0,0,78.59,16.51,80.66,42.07
				c25.32,312.23,18.57,302.11,18.57,302.11s-140.51,72.69-244.56,3.31c0,0-51.18-242.17-23.77-393.46
				C1077.2,639.06,1164.32,671.7,1164.32,671.7z"/>
			<path class="st12" d="M1215.73,954.36c-60.94-38.18-113.18-94.24-153.17-156.94c2.32,133.17,31.69,272.15,31.69,272.15
				c104.05,69.38,244.56-3.31,244.56-3.31s2.84,4.22-2.07-77.94C1294.2,990.03,1253.23,977.85,1215.73,954.36z"/>
		</g>
		<g>
			<path class="st7" d="M1176.09,325.14c1.77-13.2-10.55-10.37-10.55-10.37c6.41-18.85-13.84-12.6-13.84-12.6
				c4.02-18.87-12.57-10.94-12.57-10.94c-1.76-12.39-13.41-4.97-24.1,5.36c-4.89-9.69-18.3-7.54-21.42,15.71
				c-1.74,12.98,9.91,27.36,9.26,26.78c-8.81,14.41-18.55,26.91-18.55,26.91l30.8,24.13l14.02-22.66l0.35-0.46
				C1145.46,372.63,1174.33,338.28,1176.09,325.14z"/>
			<path class="st11" d="M1185.54,708.82c0,0-16.19-37.96-33.32-56.89c-24.3-26.85-65.01-62.1-77.72-93.11
				c-17.99-43.9,52.53-139.64,55.52-177.12c0,0-21.57-44.84-56.91-29.69S961.08,483.14,969.24,561.04
				c8.16,77.9,135.19,211.33,135.19,211.33l69.52-84.95"/>
		</g>
		<g>
			<g>
				<path class="st7" d="M1450.44,505.04c-10.72-7.9-14.17,4.26-14.17,4.26c-13.44-14.68-17.7,6.07-17.7,6.07
					c-14.61-12.6-15.64,5.76-15.64,5.76c-11.7-4.42-10.8,9.37-6.9,23.71c-10.85-0.37-15.41,12.42,3.47,26.34
					c10.54,7.77,24.93,7.55,24.11,7.84c8.39,14.66,14.67,29.21,14.67,29.21l39.8-18.48l-13.13-23.2l-0.23-0.52
					C1477.34,554.74,1461.11,512.91,1450.44,505.04z"/>
				<path class="st9" d="M1424.97,542.37c-0.15-0.67-0.32-1.37-0.55-2.1C1424.42,540.27,1424.59,541.13,1424.97,542.37z"/>
				<path class="st9" d="M1445.27,536.88c-0.2-0.5-0.38-0.99-0.63-1.51C1444.65,535.36,1444.87,535.97,1445.27,536.88z"/>
				<path class="st8" d="M1464.96,566.55l-0.23-0.52c8.55-7.64,3.85-29.3-3.38-44.93c4.2,15.51-0.51,24.57-5.97,26.26
					c-4.42,1.37-8.57-6.98-10.1-10.48c4.78,12.05-5,15.8-5,15.8c-9.82,3.66-13.95-5.9-15.3-10.3c1.64,7.48-1.58,11.3-5.86,13.2
					c3.83,0.57,7.68,2.29,10.38,6.29c4.27,6.34-0.89,12.72-6.16,17.05c0.26,0.03,0.38,0.06,0.29,0.09
					c3.06,5.35,5.83,10.67,8.13,15.29c12.4,5.08,29.37,6.77,42.28-11.74L1464.96,566.55z"/>
			</g>
			<path class="st11" d="M1239.58,722.08c0,0,53.98-1.08,110.68,8.83c56.7,9.91,131.33-0.73,131.33-0.73s-62.25-125.02-50.55-136.66
				c11.71-11.64,48.37-16.21,48.37-16.21s14.28,1.14,41.92,37.48c27.64,36.34,92.93,163.71,19.1,188.36
				c-73.82,24.65-159.31,36.22-209.15,30.45c-49.84-5.77-86.78-105.73-86.78-105.73"/>
			<path class="st12" d="M1521.33,614.79c-27.64-36.34-41.92-37.48-41.92-37.48s-36.66,4.57-48.37,16.21
				c-11.71,11.64,50.54,136.66,50.54,136.66s-66.16,9.43-121.22,2.26c-2.61,34.99-12.25,71.11-30.01,100.99
				c0.31,0.04,0.62,0.13,0.93,0.16c49.84,5.77,135.32-5.8,209.15-30.45C1614.26,778.49,1548.97,651.12,1521.33,614.79z"/>
		</g>
	</g>
</g>
<g>
	<g>
		<g>
			<g>
				<path class="st7" d="M1590.99,921.74l11.45,43.01l-23.23,11.04l103.98,62.65c0,0,30.11-60.32-4.59-83.78
					c-34.7-23.46-20.11-94.7-20.11-94.7L1590.99,921.74z"/>
			</g>
			<g>
				<path class="st13" d="M1679.53,751.71c0,0,14.25-54.64,68.89-36.82c54.64,17.82-1.19,180.54,59.39,146.1
					c0,0-24.94,43.95-68.89,13.07c-31.01-21.79,1.19-168.66-49.89-118.78"/>
				<path class="st10" d="M1668.84,752.3c0,9.51,6.65,17.22,14.85,17.22c8.2,0,14.85-7.71,14.85-17.22
					c0-9.51-6.65-17.22-14.85-17.22C1675.49,735.08,1668.84,742.79,1668.84,752.3z"/>
			</g>
			<g>
				<path class="st14" d="M1575.88,732.4c0,0-40.97,25.11-50.93,91.92c-9.9,66.44,11.81,100.6,47.36,104.24
					c41.84,4.28,97.79-39.07,98.23-96.21c0.41-53.18,7.59-73.73-6.97-86.47C1649,733.13,1575.88,732.4,1575.88,732.4z"/>
				<path class="st4" d="M1615.29,715.69c0,0-33.35-17.28-70.45,24.05c-31.68,35.28-15.77,68.43,6.18,85.56
					c0,0-8.59-40.34-5.17-51.68c0,0-4.79,52.62,61.12,65.3c0,0-23.72-18.68-26.3-30.76c0,0,26.76,38.11,71.5,37.8l-26.32-15.6
					c0,0,3.27,16.23,3.6,46.33c0.3,27.25,0.11,47.13-11.51,63.03c0,0,18.94-7.29,32.72-60.3c1.34-5.15,1.4,24.94,7.04,20.69
					c16.92-12.76,28.04-20.78,39.28-59.01C1716.96,773.15,1686.75,710.36,1615.29,715.69z"/>
				<path class="st15" d="M1649.14,718.91c1.1,19.26,2.21,38.78-2.26,57.37c-5.66,23.55-18.61,40.95-37.36,55.83
					c-0.43,0.34-0.88,0.67-1.31,1.01c5.65,3.5,12.1,6.67,19.29,9c0.86,7.82,1.77,19.44,1.94,34.58c0.3,27.25,0.11,47.13-11.51,63.03
					c0,0,18.94-7.29,32.72-60.3c1.34-5.15,1.4,24.94,7.04,20.69c16.92-12.76,28.04-20.78,39.28-59.01
					C1713.44,785.13,1695.81,732.68,1649.14,718.91z"/>
				<path class="st14" d="M1650.66,844.09c0,0,5.63,23.42,0,35.33c0,0,16.2,2.16,19.63-16.84
					C1673.44,845.15,1658.14,839.4,1650.66,844.09z"/>
			</g>
		</g>
		<g>
			<g>
				<path class="st16" d="M1561.42,829.37c-1.11,2.78-2.24,5.55-3.44,8.29c-1.19,2.75-2.36,5.5-3.6,8.22
					c-1.22,2.73-2.47,5.45-3.73,8.16c-1.26,2.71-2.54,5.41-3.84,8.11l-0.04-0.51l4.13,6.22c0.7,1.03,1.35,2.09,2.02,3.14
					c0.67,1.05,1.34,2.1,1.99,3.16c-0.78-0.97-1.53-1.96-2.29-2.95c-0.75-0.99-1.52-1.97-2.26-2.97l-4.43-6.01l-0.17-0.23l0.12-0.28
					c1.21-2.73,2.44-5.46,3.7-8.17c1.25-2.72,2.52-5.42,3.81-8.12c1.28-2.7,2.61-5.38,3.94-8.06
					C1558.64,834.67,1560.02,832.02,1561.42,829.37z"/>
			</g>
			<g>
				<path class="st3" d="M1529.39,839.63c0.04-1.59,0.35-3.19,0.89-4.72c0.57-1.52,1.45-2.96,2.64-4.12
					c1.17-1.18,2.66-2.07,4.27-2.55c1.62-0.47,3.36-0.51,5.02-0.16c1.65,0.37,3.19,1.2,4.45,2.3c1.25,1.12,2.24,2.51,2.89,4.03
					c0.66,1.51,1.01,3.13,1.15,4.74c0.1,1.62,0,3.22-0.25,4.8c0.02-3.18-0.41-6.37-1.8-9.11c-1.36-2.72-3.8-4.88-6.73-5.52
					c-2.9-0.68-6.08,0.16-8.34,2.19C1531.3,833.52,1529.98,836.51,1529.39,839.63z"/>
			</g>
			<g>
				<path class="st3" d="M1581.43,847.75c0.04-1.59,0.35-3.19,0.89-4.72c0.57-1.52,1.45-2.96,2.64-4.12
					c1.17-1.18,2.66-2.07,4.27-2.55c1.62-0.47,3.36-0.51,5.02-0.16c1.65,0.37,3.19,1.2,4.45,2.3c1.25,1.12,2.24,2.51,2.89,4.03
					c0.66,1.51,1.01,3.13,1.15,4.74c0.1,1.62,0,3.22-0.25,4.8c0.02-3.18-0.41-6.37-1.8-9.11c-1.36-2.72-3.8-4.88-6.73-5.52
					c-2.9-0.68-6.08,0.16-8.34,2.19C1583.34,841.63,1582.01,844.63,1581.43,847.75z"/>
			</g>
			<g>
				<path class="st16" d="M1550.5,890.67c1.88,0.99,3.8,1.88,5.77,2.64c1.96,0.8,3.95,1.49,5.98,2.05
					c4.05,1.11,8.22,1.79,12.38,1.61c2.08-0.09,4.13-0.43,6.12-1.01c1-0.26,1.96-0.66,2.92-1.05c0.92-0.47,1.87-0.9,2.74-1.47
					c0.45-0.26,0.89-0.54,1.3-0.86c0.41-0.31,0.85-0.61,1.25-0.94c0.78-0.7,1.59-1.36,2.28-2.16c1.51-1.47,2.71-3.22,3.94-4.95
					c-1.94,3.76-4.65,7.27-8.27,9.68c-3.55,2.52-7.93,3.7-12.23,3.94c-4.33,0.15-8.64-0.59-12.7-1.93
					C1557.92,894.89,1554.02,893.06,1550.5,890.67z"/>
			</g>
			<g>
				<path class="st3" d="M1525.41,818.24c1.9-2.65,4.5-4.83,7.5-6.34c1.5-0.76,3.13-1.29,4.82-1.59c1.69-0.28,3.44-0.26,5.13,0.02
					c1.69,0.32,3.33,0.89,4.84,1.67c1.47,0.85,2.89,1.78,4.09,2.93c2.48,2.23,4.42,4.94,5.92,7.83c-2.18-2.41-4.4-4.74-6.92-6.63
					c-2.5-1.88-5.28-3.35-8.27-3.84c-2.97-0.56-6.08-0.1-8.98,1.02C1530.64,814.47,1527.9,816.17,1525.41,818.24z"/>
			</g>
			<g>
				<path class="st3" d="M1576.6,823.53c2.51-3.1,5.86-5.54,9.6-7.19c1.87-0.83,3.88-1.37,5.93-1.68c2.06-0.29,4.16-0.25,6.22,0.06
					c2.05,0.36,4.06,0.95,5.93,1.84c0.48,0.2,0.91,0.48,1.37,0.72c0.45,0.24,0.91,0.49,1.33,0.78l1.28,0.84l1.2,0.95
					c3.18,2.54,5.78,5.68,7.8,9.1c-2.81-2.82-5.7-5.48-8.9-7.6c-3.18-2.13-6.69-3.72-10.38-4.27c-3.68-0.64-7.5-0.18-11.12,1
					C1583.24,819.3,1579.78,821.16,1576.6,823.53z"/>
			</g>
		</g>
	</g>
	<g>
		<g>
			<path class="st7" d="M1580.42,984.96c-53.47,13.79-114.44,32.65-126.74,30.3c-15.48-2.96-84.44-29.74-117.93-42.94
				c1.44,22.71,2.38,39.94,2.97,53.01c53.39,38.98,93.98,51.25,126.47,62.31c54.67-10.43,96.2-18.04,127.18-29.4
				C1585.7,1034.07,1581.08,1009.47,1580.42,984.96z"/>
			<g>
				<path class="st14" d="M1572.97,946.08c-52.91-15.8-114.86-31.14-124.18-39.5c-15.63-14.03-90.78-113.39-90.78-113.39
					c5.46-36.38-5.25-9.56-5.25-9.56c-22.47-58.36-12.46-12.38-12.46-12.38c-22.33-66.35-6.84,0.93-6.84,0.93
					c-30.13-67.16-7.51,0.74-7.51,0.74c-30.94-59.36,0.54,30.82,0.54,30.82c29.52,96.91,67.11,137.91,94.8,170.77
					c52.2,19.3,91.7,34.23,124.1,40.5C1552.14,990.87,1560.88,967.41,1572.97,946.08z"/>
			</g>
		</g>
		<g>
			<path class="st10" d="M1588.26,957.67c0,0,24.6,13.94,73.62-11.21c0,0,59.87,23.95,53.91,83.47
				c-5.96,59.53-53.89,150.63-77.33,159.56c-67.35,53.38-134.69-57.11-134.69-57.11S1437.97,1038.35,1588.26,957.67z"/>
			<path class="st17" d="M1627.88,1125.29c-55.34-25.78-84.8-83.11-80.69-141.46c-95.91,73.52-43.42,148.55-43.42,148.55
				s67.34,110.48,134.69,57.11c10.28-3.92,25.28-23.65,39.37-49.59C1660.28,1137.35,1643.1,1132.38,1627.88,1125.29z"/>
			<path class="st10" d="M1455.91,993.56l37.45-76.09c0,0,89.79,24,107.52,22.57c26.72-2.15,68.38-4.23,95.23,29
				c46.45,57.49-93.42,71.66-93.42,71.66L1455.91,993.56z"/>
		</g>
	</g>
	<g>
		<g>
			<g>
				<path class="st14" d="M1817.27,1326.21c-9.96,8.57-113.58,94.2-163.6,183.64c14.75,10.99,29.85,21.54,44.8,32.27
					c44.25-36.67,93.72-86.68,93.72-86.68s48.21-78.76,58.16-111.8c0,0,46.55-14.75,54.42-24.03
					C1912.64,1310.34,1834.57,1311.32,1817.27,1326.21z"/>
				<path class="st7" d="M1801.9,1339.43c-32.88,28.81-107.95,98.38-148.24,170.42c14.75,10.99,29.85,21.55,44.8,32.27
					c44.25-36.67,93.72-86.68,93.72-86.68s34.52-56.39,51.16-93.76C1830.7,1351.52,1816.89,1343.62,1801.9,1339.43z"/>
				<path class="st10" d="M1817.01,1326.43c14.94-0.3,46.78-0.54,55.7,2.62c2.76,0.98,3.67,2.97,3.47,5.45
					c12.16-4.73,24.81-10.43,28.58-14.88c7.87-9.28-70.2-8.3-87.5,6.6C1817.2,1326.27,1817.09,1326.36,1817.01,1326.43z"/>
			</g>
			<g>
				<path class="st14" d="M1578.68,1733.03c0,0,41.1,82.69,63.81,108.68c0,0-12.24,47.28-8.56,58.87
					c3.68,11.6,44.33-55.06,40.91-77.63c-2.34-15.43-26.54-200.48-99.74-281.08C1519.36,1480.51,1578.68,1733.03,1578.68,1733.03z"
					/>
				<path class="st7" d="M1630.92,1826.19c15.34-5.31,29.36-12.81,40.88-23.28c-8.55-53.21-35.49-193.63-96.71-261.04
					c-55.73-61.36,3.59,191.16,3.59,191.16S1608.11,1792.23,1630.92,1826.19z"/>
				<path class="st10" d="M1674.78,1822.61c-7.69,12.82-24.4,39.92-31.82,45.8c-2.3,1.82-4.47,1.53-6.46,0.05
					c-2.45,12.82-4.35,26.56-2.58,32.12c3.68,11.6,44.33-55.06,40.91-77.63C1674.82,1822.86,1674.79,1822.72,1674.78,1822.61z"/>
			</g>
		</g>
		<g>
			<path class="st18" d="M1538.52,1366.96c0,0,67.49,207.79,146.55,206.32c79.06-1.48,156.96-181.27,157.52-186.85l-4.58-8.26
				c0,0-25.11-30.7-60.08-37.96c0,0-49.68,64.54-63.81,55.61c-14.14-8.93-23.24-86.87-23.24-86.87L1538.52,1366.96z"/>
			<path class="st19" d="M1664.3,1161.61c0,0,48.35,80,36.06,146.4c-12.29,66.41-111.81,84.62-111.81,84.62
				s25.14,210.73,99.15,390.99c0,0-45.72,29.21-99.56,21.55c0,0-185.07-286.45-178.53-445.49c6.54-159.04,94.16-227.3,94.16-227.3
				S1563.85,1170.34,1664.3,1161.61z"/>
			<path class="st18" d="M1503.77,1132.38c0,0-1.91,1.5-5.12,4.48l0.59,0.21c0,0,32.61,32.68,96.25,38.66
				c21.11,1.99,46.33-3.18,70.64-10.96c-1.15-2.04-1.83-3.17-1.83-3.17C1563.85,1170.34,1503.77,1132.38,1503.77,1132.38z"/>
		</g>
	</g>
</g>
<g>
	<g>
		<g>
			<g>
				<path class="st3" d="M378.31,1879c-7.31-0.01-15.01-2.48-19.6-4.85c-164.9,80.96,75.84,3.41,75.84,3.41l-0.75-11.32
					C416.06,1873.59,397.65,1879.02,378.31,1879z"/>
				<path class="st14" d="M429.53,1755.44l4.52,117.22c0,0-257.93,86.76-53.93-9.38l-24.68-138.34L429.53,1755.44z"/>
				<path class="st8" d="M433.33,1853.8l-3.8-98.36l-74.09-30.51l22.03,123.5C395.93,1851.58,414.6,1853.19,433.33,1853.8z"/>
				<path class="st10" d="M377.88,1875.59c-7.31-0.01-12.69-0.61-17.29-2.98c-166.85,80.88,73.46,0.05,73.46,0.05l-0.25-6.43
					C416.06,1873.59,397.22,1875.61,377.88,1875.59z"/>
			</g>
			<g>
				<path class="st3" d="M642.4,1872.67c7.08-1.83,13.92-6.14,17.77-9.58c179.86,37.33-72.6,22.19-72.6,22.19l-2.1-11.15
					C604.5,1876.83,623.68,1877.5,642.4,1872.67z"/>
				<path class="st14" d="M562.02,1765.77l24.82,114.65c0,0,271.41,19.78,49.89-22.52l-10.56-140.13L562.02,1765.77z"/>
				<path class="st8" d="M582.84,1861.97l-20.82-96.2l64.15-48l9.43,125.1C618.5,1850.5,600.83,1856.71,582.84,1861.97z"/>
				<path class="st10" d="M641.97,1869.26c7.08-1.83,12.14-3.75,16-7.19c181.73,36.77-71.13,18.35-71.13,18.35l-1.36-6.29
					C604.5,1876.83,623.24,1874.09,641.97,1869.26z"/>
			</g>
		</g>
		<g>
			<path class="st11" d="M563.02,1089.49c0,0,83.24,655.38,86.76,736.27c0,0-32.83,16.41-89.1,2.34c0,0-84.41-349.38-100.83-574.48
				l-21.1,4.69l4.69,562.76c0,0-50.41,31.66-82.07,7.03c0,0-70.34-389.24-53.93-694.07C323.85,829.21,563.02,1089.49,563.02,1089.49
				z"/>
			<path class="st20" d="M568.27,1131.05c-3.31-26.23-5.25-41.56-5.25-41.56s-239.17-260.28-255.59,44.55
				c-0.97,18.09-1.95,21.27-2.34,39.86C314.78,1173.18,537.2,1152.54,568.27,1131.05z"/>
			<path class="st20" d="M305.85,1294.95c7.13,265.32,55.52,533.16,55.52,533.16c31.66,24.62,82.07-7.03,82.07-7.03l-4.64-556.82
				C395.93,1279.71,351.27,1289.12,305.85,1294.95z"/>
			<path class="st20" d="M594.59,1341.93c-36.23,57.71-66.55,118.79-98,179.25c29.26,162.77,64.08,306.93,64.08,306.93
				c56.28,14.07,89.1-2.34,89.1-2.34C647.73,1778.58,618.55,1535.95,594.59,1341.93z"/>
		</g>
	</g>
	<g>
		<g>
			<polygon class="st14" points="476.65,641.85 479.48,779.48 389.81,780.39 388.03,662.88 			"/>
			<path class="st8" d="M389.04,729.24l-1-66.37l88.61-21.03l0.74,36.11C455.93,704.55,421.88,720.59,389.04,729.24z"/>
		</g>
		<g>
			<path class="st14" d="M320.63,507.97c0,0-21.69,208.1,84.45,170.43c27.31-9.69,47.94-11.73,59.3-40.72
				c26.82-68.41,7.03-186.74-62.36-188.45C303.23,446.8,320.63,507.97,320.63,507.97z"/>
			<path class="st21" d="M475.08,547.53c0,0,32.87,87.98-12.98,130.14c-28.83,26.51-85.54,36.61-117.45,8.48
				c-18.83-16.6-23.76-48.93-23.7-98.83c0,0,3.76,55.96,15.06,54.19c9.29-1.45-4.81-24.84,24.66-28.76
				c29.46-3.92,67.65-16.91,69.95,15.61s54.5,15.24,30.49-78.08c0,0-22.76-17.56-20.31-54.59c0,0-38.26,47.76-85.88,35.78
				l39.94-21.44c0,0-44.08,32.93-102.06,2.15l14.13-8.93l-21.55-3.62c0,0,53.51-103.03,156.39-43.33c0,0,35.32-23.96,54.31,22.96
				c18.95,46.83-0.48,115.14-19.4,130.13"/>
			<path class="st12" d="M440.79,495.69c-2.45,37.04,20.31,54.59,20.31,54.59c8.78,34.12,7.35,58.03,1.91,73.1
				c6.37,8.11,12.76,16.42,17.76,25.26c5.73-16.33,6.48-34.39,5.1-50.68c15.06-25.5,26.02-79.58,10.19-118.7
				c-18.99-46.92-54.31-22.96-54.31-22.96c-4.5-2.61-8.9-4.89-13.21-6.9c4.75,23.05,1.14,47.97-11.37,67.66
				C431.81,506.87,440.79,495.69,440.79,495.69z"/>
			<path class="st14" d="M486.19,598.8l-8.63-58.17c0,0,23.85-8.36,28.13,19.23C511.7,598.65,486.19,598.8,486.19,598.8z"/>
		</g>
		<g>
			<path class="st10" d="M416.67,629.57l-67.27,1.45C349.4,631.02,372.61,661.73,416.67,629.57z"/>
			<g>
				<path class="st9" d="M380.95,604.74c-1.88-0.41-3.75-0.85-5.62-1.29c-1.87-0.45-3.75-0.86-5.61-1.34l-11.19-2.78l-0.52-0.13
					l0.12-0.54l2.95-13.28c0.98-4.42,2.06-8.83,3.08-13.24c1.01-4.42,2.12-8.82,3.21-13.22c1.08-4.4,2.24-8.79,3.42-13.17
					c-0.84,4.46-1.7,8.91-2.64,13.35c-0.93,4.44-1.84,8.88-2.84,13.3c-0.99,4.42-1.94,8.86-2.97,13.27l-3.11,13.24l-0.4-0.67
					l11.08,3.17c1.85,0.52,3.68,1.09,5.53,1.64C377.27,603.61,379.11,604.16,380.95,604.74z"/>
			</g>
			<g>
				<path class="st22" d="M367.63,548.85c-3.49-3.21-7.41-5.82-11.63-7.58c-4.21-1.72-8.75-2.51-13.19-1.95
					c-2.22,0.24-4.41,0.81-6.54,1.57c-2.12,0.8-4.18,1.79-6.17,2.96c-3.99,2.32-7.64,5.28-11.24,8.38
					c2.76-3.87,6.11-7.39,10.09-10.17l1.5-1.03c0.51-0.34,1.06-0.61,1.58-0.92c1.05-0.63,2.19-1.1,3.3-1.63
					c2.29-0.9,4.7-1.56,7.17-1.87c2.48-0.28,5-0.16,7.44,0.3c2.43,0.5,4.79,1.3,6.96,2.44c2.19,1.11,4.18,2.53,6,4.12
					C364.69,545.06,366.33,546.84,367.63,548.85z"/>
			</g>
			<g>
				<path class="st22" d="M438.12,542.06c-3.49-3.21-7.41-5.82-11.63-7.58c-4.21-1.72-8.75-2.51-13.19-1.95
					c-2.22,0.24-4.41,0.81-6.54,1.57c-2.12,0.8-4.18,1.79-6.17,2.96c-3.99,2.32-7.64,5.28-11.24,8.38
					c2.76-3.87,6.11-7.39,10.09-10.17l1.5-1.03c0.51-0.34,1.06-0.61,1.58-0.92c1.05-0.63,2.19-1.1,3.3-1.63
					c2.29-0.9,4.7-1.56,7.17-1.87c2.48-0.28,5-0.16,7.44,0.3c2.43,0.5,4.79,1.3,6.96,2.44c2.19,1.11,4.18,2.53,6,4.12
					C435.18,538.28,436.82,540.05,438.12,542.06z"/>
			</g>
			<g>
				<g>
					<path class="st3" d="M338.94,573.54c-0.37-1.55-0.48-3.17-0.35-4.79c0.17-1.62,0.64-3.23,1.49-4.66
						c0.83-1.44,2.04-2.68,3.48-3.56c1.45-0.87,3.12-1.36,4.81-1.44c1.69-0.06,3.39,0.34,4.89,1.08c1.5,0.76,2.81,1.85,3.82,3.15
						c1.03,1.29,1.78,2.76,2.33,4.28c0.52,1.54,0.83,3.11,0.99,4.7c-0.79-3.07-2.03-6.05-4.07-8.34c-2.01-2.28-4.93-3.74-7.92-3.61
						c-2.98,0.08-5.84,1.72-7.5,4.26C339.22,567.14,338.7,570.38,338.94,573.54z"/>
				</g>
				<g>
					<path class="st3" d="M408.4,567.39c-0.37-1.55-0.48-3.17-0.35-4.79c0.17-1.62,0.64-3.23,1.49-4.66
						c0.83-1.44,2.04-2.68,3.48-3.56c1.45-0.87,3.12-1.36,4.81-1.44c1.69-0.06,3.39,0.34,4.89,1.08c1.5,0.76,2.81,1.85,3.82,3.15
						c1.03,1.29,1.78,2.76,2.33,4.28c0.52,1.54,0.83,3.11,0.99,4.7c-0.79-3.07-2.03-6.05-4.07-8.34c-2.01-2.28-4.93-3.74-7.92-3.61
						c-2.98,0.08-5.84,1.72-7.5,4.26C408.68,560.99,408.17,564.22,408.4,567.39z"/>
				</g>
			</g>
			<g>
				<path class="st9" d="M490.36,590.28c0.96-1.01,1.84-2.1,2.64-3.23c0.79-1.14,1.49-2.35,1.89-3.65c0.19-0.65,0.31-1.32,0.23-1.96
					c-0.07-0.64-0.35-1.23-0.8-1.68c-0.91-0.91-2.29-1.27-3.62-1.49l-0.21-0.04l-0.07-0.21c-0.75-2.12-1.39-4.27-1.93-6.45
					c-0.55-2.18-1.03-4.37-1.38-6.6c-0.35-2.22-0.6-4.48-0.55-6.75c0.07-2.26,0.34-4.62,1.56-6.69c0.61-1.02,1.55-1.91,2.69-2.34
					c1.14-0.42,2.32-0.55,3.51-0.4c1.19,0.17,2.32,0.73,3.17,1.55c0.86,0.82,1.47,1.82,1.95,2.86c0.94,2.09,1.39,4.33,1.62,6.56
					c0.22,2.23,0.27,4.48,0.1,6.71c0-2.23-0.14-4.47-0.48-6.66c-0.36-2.19-0.85-4.38-1.81-6.34c-0.48-0.97-1.09-1.88-1.88-2.59
					c-0.78-0.72-1.76-1.15-2.79-1.27c-1.02-0.13-2.12,0.02-3.07,0.38c-0.96,0.38-1.72,1.11-2.25,2.01
					c-1.05,1.82-1.32,4.06-1.36,6.24c-0.01,2.19,0.16,4.4,0.5,6.59c0.65,4.39,1.79,8.71,3.08,12.95l-0.28-0.24
					c0.7,0.15,1.4,0.31,2.08,0.59c0.68,0.26,1.33,0.66,1.85,1.21c0.52,0.55,0.85,1.3,0.9,2.04c0.06,0.75-0.09,1.48-0.33,2.16
					c-0.49,1.35-1.27,2.55-2.13,3.66C492.34,588.3,491.39,589.33,490.36,590.28z"/>
			</g>
		</g>
	</g>
	<g>
		<g>
			<path class="st14" d="M330.32,761.47l-135.5,28.12c0,0-17.17-334.57-27.19-206.72c0,0-2.24-90.07-12.56,2.11
				c0,0-4.5-80.95-11.02,2.24c0,0-3.81-70.04-8.19,5.56c-4.38,75.6-36.18,263.75,12.03,281.47
				c48.21,17.73,188.35-30.18,188.35-30.18L330.32,761.47z"/>
			<path class="st8" d="M225.55,819.83c1.97,17.45,4.39,34.58,7.48,51.84c51.44-9.9,103.21-27.6,103.21-27.6l-5.92-82.61
				l-111.23,23.09C222.58,795.99,224.23,808.15,225.55,819.83z"/>
			<path class="st14" d="M179.7,603.41c0,0,35.43-60.92,11.96,7.74C168.19,679.8,179.7,603.41,179.7,603.41z"/>
		</g>
		<g>
			<path class="st14" d="M557.65,679.37l131.9,41.85c0,0,51.33-331.06,48.21-202.85c0,0,11.45-89.37,12.28,3.39
				c0,0,12.77-80.06,10.74,3.35c0,0,10.96-69.29,7.57,6.37c-3.39,75.65,8.98,266.06-40.79,278.76
				c-49.77,12.7-184.27-49.31-184.27-49.31L557.65,679.37z"/>
			<path class="st14" d="M729.26,550.62c0,0-41.9-56.66-11.04,9C749.08,625.29,729.26,550.62,729.26,550.62z"/>
			<path class="st8" d="M655.89,748.16c-3.75,17.16-7.91,33.94-12.75,50.81c-50.15-15.12-99.85-38.02-99.85-38.02l14.35-81.57
				l108.28,34.36C661.29,724.75,658.4,736.67,655.89,748.16z"/>
		</g>
		<g>
			<path class="st10" d="M403.7,754c-8.55-3.86-16.44-9.05-22.91-16.02c-0.86-0.93-1.31-1.95-1.42-2.96
				c-35.96,5.94-123.14,33.85-123.14,33.85l-14.59,3.27l18.14,107.97l72.36-16.12c-0.2-1.53,19.81-3.58,21.74-4.11
				c47.88-13.16,18.61-28.56,51.38-64.84c-4.34-5.71-6.8-9.75-6.8-9.75S403.93,768.41,403.7,754z"/>
			<path class="st23" d="M403.46,749.96c-0.67-0.3-1.36-0.55-2.03-0.86c-8.09-3.84-15.09-9.76-23.6-12.69
				c-0.61-0.21-1.11-0.51-1.55-0.84c-37.61,6.91-120.06,33.31-120.06,33.31l-14.59,3.27l18.14,107.97l72.36-16.12
				c-0.2-1.53,19.81-3.58,21.74-4.11c47.88-13.16,18.61-28.56,51.38-64.84c-4.34-5.71-6.8-9.75-6.8-9.75
				S405.02,765.03,403.46,749.96z"/>
			<path class="st10" d="M620.87,685.54c0,0-36.81-11.72-64.58-13.94c-27.77-2.22-77.95,27.47-77.95,27.47s-46.6,73.06-90.49,34.89
				c0,0-75.9,4.56-92.14,36.62c-16.24,32.06,2.34,272,9.38,377.52c0,0,192.15-2.55,268.48-26.97c0,0,15.62-277.17,16.86-328.15
				l24.64,3.69l39.52-99.5L620.87,685.54z"/>
			<path class="st23" d="M502.08,950.55c-51.65,43.44-109.5,79.71-170.5,108.52c-10.37,4.9-20.83,9.47-31.37,13.8
				c1.74,28.16,3.47,54.08,4.89,75.25c0,0,192.15-2.55,268.48-26.97c0,0,9.37-166.21,14.17-264.88
				C564.71,892.03,534.41,923.36,502.08,950.55z"/>
		</g>
	</g>
</g>
<g>
	<g>
		<g>
			<g>
				<path class="st10" d="M719.63,1132.02c0,0-100.15,58.46-121.87,232.18c-21.71,173.72,107.71,521.94,107.71,521.94
					s70.34-221.59,9.88-361.52l46.39-180.14c0,0,93.57,341.59,278.4,520.76c0,0,17.35-215.11-114.85-325.56
					c0,0,58.03-221.59-63.57-362.69C752.81,1050.62,719.63,1132.02,719.63,1132.02z"/>
				<path class="st24" d="M874.75,1193.36c-4.1-5.55-8.41-11.02-13.01-16.35c-108.92-126.39-142.11-44.99-142.11-44.99
					s-6.35,3.71-16.18,12.01C756.51,1172.82,814.14,1192.17,874.75,1193.36z"/>
				<path class="st24" d="M758.45,1357.32c0.4-4.35,0.75-8.7,1.2-13.04c-48.08-26.87-92.47-60.68-127.84-102.86
					c-15.01,32.27-27.78,72.72-34.04,122.78c-21.71,173.72,107.71,521.94,107.71,521.94s70.34-221.59,9.88-361.52L758.45,1357.32z"
					/>
			</g>
			<path class="st24" d="M965.05,1777.94c23.09,31.52,48.11,61.15,75.1,87.31c0,0,4.7-58.39-9.48-129.93
				C1011.3,1752.82,987.71,1766.66,965.05,1777.94z"/>
		</g>
		<g>
			<path class="st19" d="M657.99,1780.63l79.14,14.07c0,0-15.83,119.59-21.1,119.59c-5.28,0-156.52,28.14-42.21-15.83
				L657.99,1780.63z"/>
			<path class="st19" d="M1044.67,1760.38l-80.68,34.32c0,0,37.82,80.44,58.03,105.52c3.31,4.11,153,70.34,22.95-20.95
				L1044.67,1760.38z"/>
		</g>
	</g>
	<g>
		<path class="st4" d="M734.51,1062.22l-32-15.15c0,0,20.91-113.55,44.51-124.44c23.6-10.89,223.61,19.53,241.61,74.11
			c18.01,54.58-63.42,161.35-116.9,192.97c0,0-157.77-49.79-161.41-57.24C706.68,1125,734.51,1062.22,734.51,1062.22z"/>
		<path class="st25" d="M905.21,1044.52c-34.02,21.14-75.5,31.94-113.27,26.69c-23.95-3.33-48.63-11.79-69.62-23.77
			c-6.03-3.45-12.05-7.33-17.55-11.76c-1.46,7.05-2.26,11.39-2.26,11.39l32,15.15c0,0-27.82,62.78-24.19,70.24
			c3.64,7.45,161.41,57.24,161.41,57.24c23.55-13.92,52.51-42.41,76.02-74.6C933.1,1091.89,919.63,1067.89,905.21,1044.52z"/>
		<path class="st21" d="M857.37,891.57l-6.56,38.27l-17.28-2.64c0,0,8.29,37.18,73.86,32.88l14.32-72.81L857.37,891.57z"/>
		<path class="st26" d="M857.37,891.57l-6.56,38.27l-17.28-2.64c0,0,8.29,37.18,73.86,32.88l14.32-72.81L857.37,891.57z"/>
	</g>
	<g>
		<g>
			<path class="st21" d="M955.21,816.51c0,0,27.22-2.2,29.52,15.95c2.29,18.16-13.59,40.26-40,44.12
				C918.31,880.44,955.21,816.51,955.21,816.51z"/>
			<g>
				<path class="st27" d="M983.69,732.02c0,0-3.72-38.35,11.51-53.44c15.23-15.09,14.03,34.98,14.03,34.98s5.97-72.21,33.39-62.3
					c27.42,9.9,14.97,75.12-19.62,83.64c-34.59,8.53,44.87-30.28,56.41-13.41c11.54,16.87-74.89,70.83-109.27,33.86
					C935.77,718.39,983.69,732.02,983.69,732.02z"/>
				<ellipse class="st11" cx="986.86" cy="750.52" rx="21.98" ry="24.18"/>
			</g>
			<path class="st21" d="M899.11,726.28c0,0-72.6,0.02-84.99,102.63c-12.39,102.61,88.2,115.91,124.51,63.87
				C974.94,840.74,985.56,739.38,899.11,726.28z"/>
			<path class="st27" d="M952.73,751.01c0,0-80.49,44.54-96.01,34.23c-15.52-10.31,28.85-34.12,28.85-34.12s-67.54,38.38-96.89,5.29
				c-29.35-33.09,36.55-63.67,71.59-53.18c0,0-46.83-2.81-45.89-18.42c0.94-15.61,54.82-15.08,84.19,14.89
				c0,0-18.06-25.16-10.24-30.56C908.38,655.3,964.16,701.15,952.73,751.01z"/>
			<path class="st27" d="M1007.08,772.94c-7.13-66.77-89.27-44.14-89.27-44.14s-15.38,54.51,33.46,90.92c0,0-16.11,49.04-0.43,43.73
				c15.67-5.31,16.85-45.13,16.85-45.13s16.44-3.74,13.07,21.21c-1.26,9.36-19.14,27.84-32.14,36.42c-0.05,0.04-0.1,0.07-0.16,0.11
				c-0.12,0.33-0.29,0.65-0.51,0.95c-0.74,0.99-5.29,9.92-7.77,13.16C966.34,875.69,1014.19,839.53,1007.08,772.94z"/>
		</g>
		<g>
			<path class="st10" d="M842.58,853.2l68.93,18.25C911.51,871.46,868.54,892.7,842.58,853.2z"/>
			<g>
				<path class="st28" d="M872.45,852.91c-3.2-3.09-6.25-6.3-9.26-9.55l-0.33-0.36l0.23-0.49c0.75-1.59,1.51-3.17,2.29-4.74
					c0.77-1.58,1.55-3.15,2.35-4.71c1.57-3.14,3.21-6.24,4.85-9.34l2.51-4.63l2.58-4.59c1.75-3.04,3.53-6.08,5.42-9.04
					c-1.33,3.26-2.77,6.47-4.24,9.65l-2.25,4.76l-2.32,4.72c-1.58,3.13-3.17,6.26-4.81,9.36c-0.81,1.56-1.64,3.1-2.48,4.64
					c-0.83,1.54-1.68,3.08-2.54,4.61l-0.1-0.84C867.12,845.82,869.86,849.3,872.45,852.91z"/>
			</g>
			<g>
				<path class="st3" d="M840.27,812.33c-0.08-1.59,0.11-3.21,0.54-4.77c0.46-1.56,1.22-3.06,2.32-4.31
					c1.08-1.26,2.5-2.26,4.07-2.86c1.58-0.59,3.31-0.76,4.99-0.53c1.68,0.25,3.27,0.95,4.61,1.96c1.33,1.02,2.42,2.34,3.18,3.8
					c0.78,1.46,1.24,3.04,1.5,4.64c0.23,1.6,0.24,3.21,0.11,4.8c-0.21-3.17-0.88-6.32-2.47-8.95c-1.56-2.61-4.16-4.58-7.12-5
					c-2.94-0.46-6.06,0.62-8.15,2.81C841.72,806.09,840.62,809.18,840.27,812.33z"/>
			</g>
			<g>
				<path class="st29" d="M833.64,788.54c2.27-3.28,5.43-5.97,9.03-7.88c1.8-0.97,3.77-1.66,5.79-2.12c2.03-0.44,4.13-0.56,6.21-0.4
					c2.07,0.2,4.12,0.65,6.05,1.39c0.49,0.17,0.95,0.41,1.42,0.61c0.47,0.21,0.94,0.42,1.38,0.68l1.34,0.74l1.27,0.85
					c3.36,2.3,6.18,5.23,8.46,8.49c-3.01-2.6-6.09-5.03-9.44-6.91c-3.33-1.88-6.95-3.21-10.67-3.48c-3.72-0.36-7.49,0.38-11.01,1.83
					C839.95,783.82,836.64,785.93,833.64,788.54z"/>
			</g>
			<g>
				<path class="st3" d="M899.2,820.52c0.34-1.56,0.94-3.07,1.77-4.47c0.85-1.38,1.98-2.63,3.37-3.55c1.38-0.93,3-1.53,4.68-1.7
					c1.68-0.15,3.4,0.13,4.96,0.79c1.55,0.68,2.91,1.78,3.94,3.1c1.02,1.34,1.73,2.89,2.08,4.5c0.37,1.61,0.4,3.26,0.24,4.87
					c-0.2,1.61-0.6,3.17-1.15,4.66c0.62-3.11,0.8-6.33-0.04-9.28c-0.82-2.93-2.82-5.51-5.57-6.69c-2.72-1.22-6.01-0.99-8.6,0.58
					C902.23,814.88,900.37,817.57,899.2,820.52z"/>
			</g>
			<g>
				<path class="st29" d="M899.03,795.82c3.05-2.57,6.8-4.34,10.78-5.24c1.99-0.46,4.07-0.62,6.14-0.54
					c2.07,0.11,4.13,0.54,6.1,1.24c1.95,0.74,3.81,1.7,5.48,2.93c0.43,0.29,0.8,0.64,1.21,0.96c0.4,0.32,0.8,0.65,1.15,1.02
					l1.1,1.07l1,1.16c2.64,3.1,4.6,6.66,5.94,10.41c-2.22-3.3-4.56-6.45-7.3-9.14c-2.73-2.69-5.86-4.91-9.39-6.16
					c-3.49-1.32-7.33-1.6-11.11-1.12C906.35,792.92,902.6,794.1,899.03,795.82z"/>
			</g>
		</g>
	</g>
	<g>
		<path class="st30" d="M807.43,887.8c0,0-19.58-48.75-15.22-55.45c4.37-6.7,55.26-80.38,15.82-5.24c0,0,63.73-66.81,4.14,16.23
			c0,0,65.17-68.14,5.61,12.19c0,0,63.62-56.02,5.63,10.85c0,0,24.2,16.42,9.54,50c-14.67,33.57-82.06,181.27-110.64,172.89
			C693.72,1080.89,673.99,1046.98,807.43,887.8z"/>
		<path class="st21" d="M931.44,1028.31c0,0,30.74,17.61,32.84,54.73s-63.76,71.08-82.2,59.77
			C863.65,1131.5,931.44,1028.31,931.44,1028.31z"/>
		<path class="st30" d="M925.09,920.68c0,0,34.51-35.34,34.58-43.14c0.07-7.8-1.46-94.96-9.67-12.07c0,0-15.16-87.49-11.69,11.8
			c0,0-15.6-89.33-10.75,7.67c0,0-20.7-78.27-10.06,6.51c0,0-19.92,4.42-25.91,40.03c-5.99,35.61-48.97,199.82-9.51,211.34
			C908.55,1150.54,946.8,1120.29,925.09,920.68z"/>
	</g>
</g>
</svg>
