<?xml version="1.0" encoding="utf-8"?>
<!-- Generator: Adobe Illustrator 24.3.0, SVG Export Plug-In . SVG Version: 6.00 Build 0)  -->
<svg version="1.1" id="Capa_1" xmlns="http://www.w3.org/2000/svg" xmlns:xlink="http://www.w3.org/1999/xlink" x="0px" y="0px"
	 viewBox="0 0 2052 2194" style="enable-background:new 0 0 2052 2194;" xml:space="preserve">
<style type="text/css">
	.st0{fill:#CFEAF5;}
	.st1{fill:#B8DFDE;}
	.st2{fill:#A8D8D5;}
	.st3{fill:#AEDCE3;}
	.st4{fill:#99D3DB;}
	.st5{fill:#997B53;}
	.st6{fill:#EE993D;}
	.st7{fill:#80B9C6;}
	.st8{fill:#6BA5AE;}
	.st9{fill:#E2F1F1;}
	.st10{opacity:0.6;fill:url(#SVGID_1_);}
	.st11{fill:#BBC92F;}
	.st12{fill:#999629;}
	.st13{fill:#AA7D7D;}
	.st14{fill:#8E715C;}
	.st15{fill:#7D5858;}
	.st16{fill:#B29984;}
	.st17{opacity:0.4;fill:#F9D8C5;}
	.st18{fill:#937A6A;}
	.st19{fill:#916464;}
	.st20{fill:#714444;}
	.st21{fill:#E2A062;}
	.st22{fill:#996969;}
	.st23{opacity:0.5;fill:#937A6A;}
	.st24{fill:#71444D;}
	.st25{fill:#BBA3CC;}
	.st26{opacity:0.4;fill:#B69685;}
	.st27{fill:#7B545E;}
	.st28{fill:#FDD181;}
	.st29{fill:#E2C8B7;}
	.st30{fill:#694545;}
	.st31{fill:#D1B874;}
	.st32{fill:#735545;}
	.st33{fill:#F9D8C5;}
	.st34{fill:#D8B49C;}
	.st35{fill:#F0CEB6;}
	.st36{fill:#B69685;}
	.st37{fill:#ACB235;}
	.st38{fill:#C4D334;}
	.st39{fill:#9C982F;}
	.st40{fill:#E5BDAA;}
	.st41{fill:#F8B785;}
	.st42{fill:#805454;}
	.st43{fill:#FEFBE3;}
	.st44{fill:#CE6641;}
	.st45{opacity:0.6;fill:#BC7458;}
	.st46{opacity:0.6;fill:url(#SVGID_2_);}
</style>
<g>
	<rect x="-3.05" y="3.26" class="st0" width="2054.82" height="1901.8"/>
	<g>
		<polygon class="st1" points="2051.77,3.26 -3.86,3.26 -3.86,1730.24 2051.77,1727.85 		"/>
		<polygon class="st2" points="2051.77,3.26 -3.86,3.26 -3.86,108.31 2051.77,238.72 		"/>
		<polygon class="st3" points="498.54,486.95 999.97,386.61 1115.31,1278.89 516.9,1290.01 		"/>
		<polygon class="st4" points="1493.32,485.05 1673.5,518.87 1716.01,1339.79 1495.44,1350.01 		"/>
		<polygon class="st4" points="131.54,648.31 311.72,671.64 354.23,1237.96 133.65,1245.01 		"/>
		<polygon class="st4" points="1156.94,805.52 1337.11,828.85 1379.64,1395.16 1159.06,1402.21 		"/>
		<polygon class="st3" points="1036.52,335.5 495.2,393.37 495.2,439.95 1009.02,456.63 		"/>
		<rect x="550.02" y="408.84" class="st3" width="340.32" height="104.45"/>
		<polygon class="st3" points="920.03,299.94 693.91,328.84 693.91,382.17 878.92,382.17 		"/>
		<path class="st5" d="M353.59,1723.92l-9.71-47.78l108.37-57.47C462.65,1670.03,410.69,1700.03,353.59,1723.92z"/>
		<polygon class="st6" points="59.5,1742.53 114.74,1532.45 127.65,1533.37 199.4,1739.22 206.08,1738.61 131.47,1525.46 
			112.34,1521.74 54.96,1737.65 		"/>
		<polygon class="st7" points="2051.77,657.75 1902.16,615.52 1872.47,648.86 1650.91,609.96 1698.89,1760.04 2051.77,1820.04 		"/>
		<polygon class="st7" points="1801.66,1322.23 1559.56,1322.23 1539,853.31 1783.11,824.4 		"/>
		<polygon class="st7" points="834.38,555.52 1235.23,705.52 1187.26,1855.6 834.38,1915.6 		"/>
		<polygon class="st8" points="246.25,456.62 647.09,619.13 599.12,1865.04 246.25,1930.05 		"/>
		<polygon class="st8" points="-0.43,798.62 202.05,773.62 177.82,1787.16 -0.43,1840.04 		"/>
		<polygon class="st7" points="554.58,889.98 969.13,866.65 931.45,1726.65 578.57,1770.04 		"/>
		<polygon class="st8" points="117.79,1193.88 532.34,1176.65 494.65,1811.6 141.77,1843.63 		"/>
		<polygon class="st7" points="1431.83,980.99 1591.7,956.59 1557.22,1743.49 1423.17,1744.61 		"/>
		<polygon class="st7" points="1254.2,897 1405.71,873.88 1373.03,1619.58 1246,1620.65 		"/>
		<polygon class="st8" points="1874.97,1005.85 1893.21,978.6 1895.31,913.22 1829.93,884.73 1830.22,881.03 1718.79,862.22 
			1731.79,864.42 1731.81,777.88 1738.61,780.79 1739.02,763.35 1682.63,724.13 1681.43,756.32 1690.01,759.99 1683.8,856.32 
			1305.33,792.42 1305.33,928.1 1326.43,956.19 1329.14,1258.89 1329.14,1258.89 1259.68,1294.23 1257.86,1295.07 1257.86,1345.74 
			1339.07,1422.85 1339.07,1801.18 1351.16,1801.18 1351.12,1811.35 1359.46,1812.62 1359.42,1801.18 1380.45,1801.18 
			1387.65,1801.18 1402.11,1801.18 1402.46,1820.49 1419.25,1820.49 1418.71,1801.18 1428.71,1801.18 1428.71,1801.3 
			1449.25,1804.39 1449.15,1801.18 1457.91,1801.18 1458.25,1820.49 1488.24,1816.47 1487.73,1801.18 1514.66,1801.18 
			1514.04,1816.47 1591.44,1824.51 1590.8,1801.18 1604.14,1801.18 1603.44,1818.48 1871.81,1805.71 1878.61,1747.4 
			1862.26,1742.18 1868.26,1394.17 1895.01,1326.28 1895.01,1280.69 1870.41,1270.29 		"/>
		<polygon class="st8" points="566.93,1080.92 579.53,1057.47 580.98,1001.19 535.81,976.68 536.01,973.49 461.43,957.8 
			468.03,959.19 468.04,884.71 472.73,887.22 473.02,872.21 434.07,838.45 433.24,866.15 439.17,869.31 434.87,952.22 
			173.45,897.23 173.45,1014 188.03,1038.18 189.89,1298.7 189.89,1298.7 141.86,1329.15 140.66,1329.85 140.66,1373.45 
			196.76,1439.81 196.76,1765.43 205.1,1765.43 205.08,1774.19 210.84,1775.27 210.81,1765.43 225.34,1765.43 230.32,1765.43 
			240.31,1765.43 240.54,1782.05 252.14,1782.05 251.77,1765.43 258.68,1765.43 258.68,1765.54 272.86,1768.19 272.8,1765.43 
			278.84,1765.43 279.08,1782.05 299.8,1778.59 299.44,1765.43 318.05,1765.43 317.62,1778.59 371.08,1785.51 370.64,1765.43 
			379.85,1765.43 379.36,1780.32 564.75,1769.33 569.44,1719.14 558.15,1714.65 562.3,1415.14 580.77,1356.7 580.77,1317.46 
			563.77,1308.51 		"/>
		<polygon class="st7" points="1182.69,624.41 932.26,592.14 949.73,724.42 1168.99,733.3 		"/>
		<polygon class="st7" points="1068.49,564.4 945.16,579.96 945.16,611.07 1068.49,611.07 		"/>
		<rect x="675.64" y="837.75" class="st7" width="118.77" height="60.01"/>
		<path class="st9" d="M472.3,380.46c-74.57-2.62-82.02-28.9-82.02-28.9c34.8-18.4,14.91-68.33,14.91-68.33
			c-1.58-51.76-35.26-9.11-59.62,28.88c1.9-33.34-29.86-89.32-29.86-89.32c-39.77-105.12-59.65,84.09-59.65,84.09
			c-17.4-47.31-47.23-52.56-86.99-5.26s19.88,55.19,19.88,55.19l-72.08,28.91L472.3,380.46z"/>
		<path class="st9" d="M1387.37,464.65c-45.95-1.62-50.54-17.81-50.54-17.81c21.44-11.34,9.19-42.1,9.19-42.1
			c-0.97-31.89-21.73-5.61-36.73,17.79c1.17-20.54-18.4-55.04-18.4-55.04c-24.5-64.77-36.75,51.82-36.75,51.82
			c-10.72-29.15-29.1-32.38-53.61-3.24c-24.5,29.15,12.26,34.01,12.26,34.01l-44.41,17.81L1387.37,464.65z"/>
		<path class="st9" d="M1887.57,178.48c-45.95-1.62-50.54-17.81-50.54-17.81c21.44-11.34,9.19-42.1,9.19-42.1
			c-0.97-31.89-21.73-5.61-36.73,17.79c1.17-20.54-18.4-55.04-18.4-55.04c-24.5-64.77-36.75,51.82-36.75,51.82
			c-10.72-29.15-29.1-32.38-53.61-3.24c-24.5,29.15,12.26,34.01,12.26,34.01l-44.41,17.81L1887.57,178.48z"/>
	</g>
	<linearGradient id="SVGID_1_" gradientUnits="userSpaceOnUse" x1="1275.3781" y1="72.9007" x2="808.1743" y2="1545.8383">
		<stop  offset="0" style="stop-color:#FDCF7B"/>
		<stop  offset="1" style="stop-color:#480C23"/>
	</linearGradient>
	<polygon class="st10" points="2051.77,3.26 -3.86,3.26 -3.86,1730.24 2051.77,1727.85 	"/>
</g>
<rect x="-3.86" y="1833.41" class="st11" width="2055.86" height="351.33"/>
<path class="st12" d="M2063.87,1890.92L-3.86,1826.11v278.31c696.78,83.5,1383.48-39.69,2017.72-140.65L2063.87,1890.92z"/>
<polygon class="st13" points="2017.19,1314.14 1830.72,1236.86 1811,1777.81 2040.5,1777.81 "/>
<polygon class="st13" points="2052,1314.14 1823.08,1200.63 1823.08,1246.52 2050.2,1335.87 "/>
<path class="st14" d="M2051.77,1731.93H-3.86v206.48c68.52,0,955.87,206.48,2055.63,7.24V1731.93z"/>
<polygon class="st15" points="282.32,1355.19 67.39,1405.91 48.07,1746.42 291.98,1765.74 "/>
<polygon class="st15" points="296.81,1326.21 28.75,1420.4 31.16,1444.55 296.81,1398.66 "/>
<rect x="310.63" y="1640.1" class="st14" width="1436.58" height="236.44"/>
<polygon class="st16" points="1644.51,849.08 1020.26,732.72 418.37,844.03 435.31,1015.75 1627.49,1011.62 "/>
<polygon class="st16" points="1925.97,996.88 184.92,993.67 310.62,1771.82 1860.93,1771.82 "/>
<polygon class="st17" points="1912.35,1003.7 1561.17,1003.7 1520.81,1708.66 1871.99,1708.66 "/>
<polygon class="st17" points="541.19,995.3 190.02,995.3 306.9,1767.36 658.08,1767.36 "/>
<polygon class="st17" points="1045.42,709.13 429.02,889.95 435.31,940.28 1625.64,926.12 1639.79,872.66 "/>
<polygon class="st16" points="174.74,1064.58 452.98,1063.54 451.38,1123.73 182.79,1147.38 "/>
<polygon class="st16" points="1941.69,1047.2 1543.09,1062.92 1554.09,1119.53 1938.03,1130.32 "/>
<polygon class="st18" points="1940.34,1104.11 1593.14,1077.6 1595.24,1039.87 1491.46,1044.06 1471.54,1113.76 1474.07,1132.6 
	1938.59,1130.18 "/>
<polygon class="st18" points="597.27,1063.71 475.41,1065.28 485.63,1088.87 179.01,1127.92 181.21,1146.67 605.18,1134.89 "/>
<polygon class="st15" points="1505.09,1011.56 590.99,1040.92 655.98,1630.05 1463.16,1640.53 "/>
<polygon class="st19" points="1429.06,1063.88 660.17,1094.37 713.15,1624.28 1385.75,1628.99 "/>
<polygon class="st20" points="1213.66,1407.29 855.3,1414.91 852.89,1622.71 1216.72,1619.72 "/>
<polygon class="st21" points="1199.14,1417.49 869.38,1423.98 878.07,1612.04 1198.06,1614.5 "/>
<polygon class="st22" points="1189.22,1425.02 1073.59,1429.09 1077.01,1508.89 1186.77,1508.65 "/>
<polygon class="st22" points="1187.05,1520.55 1068.04,1523.36 1071.42,1608.13 1184.47,1609.31 "/>
<polygon class="st22" points="1010.21,1531.6 881.89,1532.54 884.39,1604.25 999.5,1604.56 "/>
<polygon class="st22" points="1004.65,1430.84 880.48,1433.22 884.19,1519.64 996.23,1518.85 "/>
<polygon class="st23" points="1048.03,1691.37 1080.68,1022.03 963.12,1024.67 978.23,1379.5 991.43,1689.27 "/>
<polygon class="st23" points="806.43,1717.89 796.92,1047.82 679.77,1057.85 749.81,1719.37 "/>
<polygon class="st23" points="1296.91,1702.86 1387.09,1038.82 1269.74,1031.32 1240.7,1695.9 "/>
<polygon class="st24" points="1523.43,1014.17 567.4,1034.62 661.22,1122.68 1444.81,1099.09 "/>
<polygon class="st25" points="834.71,1684.03 796.68,1021.5 700.91,1021.5 778.1,1687.17 "/>
<polygon class="st25" points="1334.74,1687.17 1394.5,1017.32 1304.86,1015.75 1272.36,1674.08 "/>
<polygon class="st25" points="1076.34,1692.95 1108.98,1023.6 991.43,1026.24 1019.73,1690.85 "/>
<polygon class="st26" points="1108.31,1036.19 990.77,1041.3 999.82,1139.19 1105.16,1132.9 "/>
<polygon class="st26" points="1393.31,1063.32 1302.9,1065.28 1297.79,1138.4 1384.27,1125.82 "/>
<polygon class="st26" points="803.26,1052.7 703.02,1050.35 715.21,1138.4 803.26,1134.47 "/>
<polygon class="st16" points="621.89,1693.99 335.2,1686.66 131.05,1693.99 131.05,1867.58 557.44,1867.58 635.01,1806.68 "/>
<polygon class="st16" points="2040.5,1693.99 1866.22,1663.59 1549.67,1693.99 1521.86,1833.42 1567.99,1864.86 2040.5,1867.58 "/>
<polygon class="st14" points="1855.21,1147.84 1559.44,1163.56 1557.58,1602.59 1821.87,1610.12 "/>
<polygon class="st27" points="1817.48,1175.09 1576.38,1183.48 1574.28,1592.31 1792.32,1596.12 "/>
<path class="st28" d="M1835.56,1170.64l-250.01,14.15c3.28,135.38,1.56,261.24-3.56,351.44l72.75,5.5l85.69-14.16l69.59,5.51
	C1808.74,1449.57,1821.03,1311.27,1835.56,1170.64z"/>
<polygon class="st16" points="603.21,774.16 487.12,792.44 504.07,873.2 606.54,857.8 "/>
<polygon class="st16" points="1610.17,800.2 1482.74,775.28 1487.79,834.4 1605.72,837.55 "/>
<polygon class="st14" points="502.17,1195.86 274.71,1195.86 328.58,1580.27 556.04,1580.27 "/>
<polygon class="st27" points="490.78,1212.17 300.04,1212.17 349.93,1579.35 540.67,1579.35 "/>
<polygon class="st29" points="480.74,1536.3 383.22,1536.3 389.55,1581.56 487.06,1581.56 "/>
<polygon class="st16" points="1639.23,1693.09 449.49,1620.61 442.69,1816.36 1619.6,1845.76 "/>
<polygon class="st30" points="1545.44,1656.52 1521.33,1649.44 1471.54,1842.85 1534.96,1846.51 "/>
<polygon class="st17" points="2037.46,1695.68 1583.71,1730.69 1564.32,1845.99 2034.47,1842.85 "/>
<polygon class="st17" points="539.09,1726.49 140.22,1701.33 136.03,1843.9 551.15,1846 "/>
<path class="st14" d="M2051.77,1863.95L30.97,1850.27l-4.65,84.52c690.3,88.16,1218.97,92.08,2025.44,9.74V1863.95z"/>
<path class="st31" d="M2049.75,1879.54c-805.51,82.23-1333.29,90.23-2022.4,2.4l-0.4,16.46c690.29,88.16,1218.36,80.24,2024.82-2.09
	L2049.75,1879.54z"/>
<polygon class="st32" points="1561.56,1871.54 1452.67,1838.91 1530.51,1827.13 "/>
<polygon class="st29" points="1477.83,1644.72 655.45,1652.58 675.89,1798.82 1432.23,1816.12 "/>
<polygon class="st33" points="180.87,1075.1 598.36,1084.07 602.52,1117.44 189.13,1137.7 "/>
<polygon class="st18" points="371.13,850.24 1045.11,708.67 1050.26,741.47 381.53,911.58 "/>
<path class="st14" d="M619.52,901.11c-2.61,0.06-4.86-1.82-5.26-4.4c-0.4-2.58,1.18-5.06,3.68-5.79l400.14-116.75l381.35,95.77
	c3.16,0.79,5.24,3.8,4.88,7.03c-0.36,3.24-3.06,5.7-6.31,5.78L619.52,901.11z"/>
<rect x="1837.13" y="1610.91" transform="matrix(0.0673 -0.9977 0.9977 0.0673 120.2533 3391.3525)" class="st16" width="73.91" height="40.88"/>
<polygon class="st18" points="1792.32,1622.7 1554.09,1632.14 1551.73,1658.09 1893.32,1671.1 "/>
<path class="st14" d="M1806.86,1183.61c0-3.69-2.99-6.68-6.68-6.68c-3.7,0-6.69,2.99-6.69,6.68c0,3.69,2.99,6.68,6.69,6.68
	C1803.87,1190.29,1806.86,1187.3,1806.86,1183.61z"/>
<polygon class="st15" points="2051.77,1849.14 1560.39,1853.07 1561.17,1871.15 2051.77,1871.15 "/>
<polygon class="st15" points="562.88,1856.35 122.51,1850.7 118.88,1871.2 562.88,1878.37 "/>
<polygon class="st16" points="1468.66,1764.23 617.72,1764.23 617.72,1781.52 1464.16,1789.39 "/>
<polygon class="st16" points="1484.46,1707.62 633.51,1707.62 633.51,1724.91 1479.94,1732.79 "/>
<polygon class="st16" points="1494.61,1658.36 643.66,1658.36 643.66,1675.65 1490.09,1683.52 "/>
<rect x="625.58" y="1619.56" class="st16" width="872.7" height="33.9"/>
<path class="st28" d="M1809.28,1151.57c-1,14.61-4.34,28.01-8.58,27.97c-4.24-0.04-7.97-13.48-8.74-28.1l-1.47-0.01
	c-0.04,17.78,4.36,32.14,9.9,32.18c5.54,0.04,10.13-14.25,10.36-32.03L1809.28,1151.57z"/>
<path class="st14" d="M1743.58,1187.46c-0.2-3.69-3.34-6.52-7.03-6.33c-3.69,0.2-6.51,3.34-6.32,7.03c0.19,3.69,3.33,6.52,7.02,6.33
	C1740.93,1194.29,1743.76,1191.15,1743.58,1187.46z"/>
<path class="st28" d="M1744.31,1155.34c-0.23,14.63-2.87,28.19-7.1,28.39c-4.23,0.18-8.65-13.05-10.2-27.61l-1.47,0.06
	c0.89,17.77,6.03,31.87,11.56,31.62c5.55-0.24,9.38-14.76,8.7-32.53L1744.31,1155.34z"/>
<path class="st14" d="M1679.28,1192.05c-0.19-3.69-3.34-6.52-7.03-6.32c-3.69,0.2-6.52,3.33-6.33,7.03
	c0.19,3.69,3.33,6.52,7.02,6.32C1676.64,1198.88,1679.47,1195.74,1679.28,1192.05z"/>
<path class="st28" d="M1680.02,1159.93c-0.23,14.64-2.87,28.19-7.1,28.39c-4.23,0.18-8.65-13.05-10.2-27.61l-1.49,0.06
	c0.91,17.76,6.04,31.86,11.57,31.62c5.55-0.25,9.39-14.77,8.69-32.53L1680.02,1159.93z"/>
<path class="st14" d="M1620.05,1193.63c-0.19-3.69-3.33-6.52-7.02-6.33c-3.69,0.2-6.52,3.33-6.33,7.03
	c0.18,3.69,3.33,6.52,7.02,6.32C1617.4,1200.46,1620.25,1197.31,1620.05,1193.63z"/>
<path class="st28" d="M1620.8,1161.51c-0.23,14.63-2.87,28.19-7.11,28.38c-4.23,0.18-8.65-13.05-10.2-27.61l-1.47,0.06
	c0.9,17.76,6.03,31.87,11.57,31.62c5.54-0.25,9.37-14.76,8.68-32.53L1620.8,1161.51z"/>
<polygon class="st30" points="1561.17,1852.67 1533.66,1831.84 1532.47,1845.6 1561.56,1871.54 "/>
<rect x="163.29" y="978.01" class="st16" width="275.17" height="25.16"/>
<polygon class="st16" points="1940.12,984.31 1608.87,983.26 1607.82,1011.56 1940.12,1009.46 "/>
<polygon class="st34" points="1122.46,1023.62 979.37,1023.62 986.19,1084.95 1115.13,1086 "/>
<polygon class="st34" points="1407.27,1014.26 1298.06,1005.01 1292.63,1077.23 1402.28,1074.31 "/>
<polygon class="st35" points="1405.53,1009.84 1364.3,998.84 1355.16,1070.59 1397.76,1069.5 "/>
<polygon class="st34" points="809.55,1023.62 688.48,1023.62 697.91,1086 805.88,1083.89 "/>
<polygon class="st33" points="1090.75,1581.85 1006.11,1581.7 1008.65,1625.92 1087.87,1627.95 "/>
<polygon class="st33" points="1355.65,1573.44 1267.59,1574.23 1264.58,1622.85 1349.48,1623.63 "/>
<polygon class="st33" points="837.86,1580.25 756.01,1580.76 763.62,1627.71 839.43,1625.85 "/>
<polygon class="st15" points="1595.76,885.24 482.79,930.62 474.63,1075.51 1594.9,1054.56 "/>
<polygon class="st29" points="1583.97,904.44 489.87,937.03 489.41,1052.81 1586.03,1030.12 "/>
<polygon class="st36" points="1377.2,915.12 705.77,946.57 721.5,1040.91 1367.77,1020.47 "/>
<polygon class="st30" points="627.68,1636.35 607.24,1635.81 609.85,1822.93 653.88,1820.84 "/>
<polygon class="st33" points="1934.25,1057.69 1486.61,1079.17 1493.59,1115.37 1929.64,1120.56 "/>
<polygon class="st33" points="375.85,839.24 1041.31,689.3 1046.43,722.07 386.18,900.5 "/>
<polygon class="st18" points="1680.9,846.08 1035.68,708.56 1031.15,741.42 1671.67,907.52 "/>
<polygon class="st33" points="1676.26,835.1 1039.09,689.17 1024.97,725.64 1667.1,896.47 "/>
<polygon class="st17" points="2037.46,1695.68 1583.71,1730.69 2034.47,1842.85 "/>
<polygon class="st15" points="1937.77,1681.68 1956.64,1691.11 1580.04,1715.48 1539.15,1702.9 1521.47,1649.24 "/>
<polygon class="st37" points="1953.49,1593.62 1584.5,1625.32 1580.04,1690.32 1944.57,1687.15 "/>
<polygon class="st38" points="1951.07,1574.95 1584.5,1625.32 1922.04,1625.85 1944.57,1687.15 "/>
<polygon class="st39" points="1620.14,1625.07 1624.85,1689.54 1580.04,1690.32 1584.5,1625.32 "/>
<path class="st17" d="M1035.98,1135.26c2.64,155.54,14.26,361.66,28.34,361.66c14.07,0,21.98-274.29,21.98-361.26L1035.98,1135.26z"
	/>
<path class="st17" d="M747.08,1133.06c18.55,154.43,41.99,365.43,54.1,364.15c12.11-1.27-7.25-274.44-16.35-360.93L747.08,1133.06z"
	/>
<path class="st17" d="M1319.74,1139.01c-6.59,155.43-12.06,352.59,2.96,353.5c15.01,0.91,45.31-278.3,50.57-365.11L1319.74,1139.01z
	"/>
<polygon class="st40" points="482.88,1081.4 599.5,1083.94 602.78,1108.53 493.89,1105.38 "/>
<polygon class="st40" points="1486.08,1078.26 1594.19,1073.93 1589.47,1095.95 1492.77,1103.02 "/>
<polygon class="st29" points="1498.8,1636.34 647.85,1636.34 646.8,1659.66 1494.29,1661.5 "/>
<polygon class="st15" points="1477.05,1819.26 650.74,1805.89 648.38,1821.61 1475.48,1843.63 "/>
<polygon class="st17" points="539.09,1726.49 140.22,1701.33 551.15,1846 "/>
<polygon class="st41" points="1810.02,1533.08 1744.1,1470.71 1740.43,1527.57 "/>
<polygon class="st41" points="1653.83,1542.51 1646.61,1450.79 1586.86,1428.77 1582.66,1536.75 "/>
<polygon class="st41" points="1745.15,1268.39 1767.16,1181.38 1715.79,1185.57 1728.37,1272.58 "/>
<polygon class="st41" points="1663.38,1289.36 1635.07,1245.33 1624.59,1249.52 1627.74,1338.62 "/>
<g>
	<polygon class="st42" points="934.82,1183.47 863.54,1183.47 870.88,1321.85 942.16,1321.85 	"/>
	<path class="st42" d="M863.01,1180.07c11.79-19.65,51.1-45.6,73.12,0H863.01z"/>
</g>
<g>
	<polygon class="st42" points="1223.15,1180.48 1151.93,1177.38 1140.88,1317.25 1212.09,1320.35 	"/>
	<path class="st42" d="M1151.85,1173.93c14.4-19.31,57.12-43.76,73.05,3.18L1151.85,1173.93z"/>
</g>
<polygon class="st16" points="2015.6,1724.4 1599.43,1749.55 1599.43,1768.42 2015.6,1743.26 "/>
<path class="st29" d="M423.26,1344.39l-7.34-1.05l-22.28,87.53c6.88,30.05,9.24,63.21,5.5,106.93l63.68,1.58
	C445.54,1463.1,455.04,1411.65,423.26,1344.39z"/>
<path class="st29" d="M418.02,1347.54l-24.37,6.29c-0.66,28.24,2.61,44.79,6.29,72.33l30.66-19.66L418.02,1347.54z"/>
<path class="st29" d="M396,1353.3c-41.09,0-43.07,81.5-1.97,81.5c17.15,0,31.05-17.07,31.05-38.14
	C425.09,1375.61,413.16,1353.3,396,1353.3z M394.43,1429.82c-28.71,0-31.58-66.56,3.54-66.56c13.68,0,22.41,15.83,22.41,32.63
	C420.38,1412.69,408.11,1429.82,394.43,1429.82z"/>
<path class="st29" d="M443.84,1294.62c4.21,10.52,3.89,23.12-1.94,34.44c-6.48,12.56-18.18,20.51-30.59,22.27l-1.84,10.5
	c15.2,1.2,30.77-7.24,38.63-22.5C456.02,1323.99,453.78,1306.3,443.84,1294.62z"/>
<path class="st29" d="M464.14,1271.01c-14.68,0.52-39.84,28.84-7.86,37.22c31.98,8.38,27.78-17.31,23.06-20.97
	c0,0,3.77,30.78-25.68,13.11C435.32,1289.36,464.14,1271.01,464.14,1271.01z"/>
<path class="st29" d="M410.46,1316.31c-6.07-11.21-18.1-16.44-26.88-11.68c-8.78,4.76-3.75,16.75,2.32,27.96
	c6.06,11.19,11.47,14.65,20.25,9.89C414.93,1337.72,416.52,1327.5,410.46,1316.31z"/>
<path class="st29" d="M376.44,1323.99c0.5-6.08,13.11-0.5,14.87,2C393.08,1328.48,375.36,1337.22,376.44,1323.99z"/>
<path class="st29" d="M411.21,1311.07c6.1,0.2,1.13,13.06-1.27,14.95C407.53,1327.9,397.95,1310.63,411.21,1311.07z"/>
<path class="st29" d="M405.96,1330.76h-7.86c2.09,12.63,2.14,20.87-3.15,27.25l15.2-2.09C406.08,1348.49,405,1340.58,405.96,1330.76
	z"/>
<polygon class="st16" points="299.04,1588.11 309.09,1635.95 422.74,1617.99 426.7,1601.8 "/>
<g>
	<polygon class="st16" points="200.24,1086.51 204.96,1124.25 232.47,1121.89 222.25,1103.02 226.18,1086.51 	"/>
	<polygon class="st16" points="274.2,1084.94 274.38,1122.92 249.44,1123.48 256.39,1103.67 250.94,1087.68 	"/>
	<polygon class="st16" points="285.93,1087.77 290.3,1121.54 315.79,1119.43 306.32,1102.54 309.97,1087.77 	"/>
	<polygon class="st16" points="354.44,1086.37 355.51,1117.96 331.51,1120.84 337.95,1103.11 332.9,1088.81 	"/>
	<polygon class="st16" points="375.3,1084.43 380.29,1118.13 407.69,1116.24 398.38,1100.39 402.86,1086.2 	"/>
	<polygon class="st16" points="440.77,1084.61 438.89,1112.02 416.81,1114.38 424.11,1098.89 420.24,1085.55 	"/>
	<polygon class="st16" points="459.11,1084.64 463.68,1115.57 488.83,1113.83 480.29,1099.29 484.39,1086.27 	"/>
	<polygon class="st16" points="521.8,1086.65 520.08,1111.81 499.82,1113.97 506.52,1099.75 502.97,1087.52 	"/>
	<polygon class="st16" points="538.54,1088.15 541.98,1111.12 578.66,1110.83 566.35,1098.48 572.61,1086.82 	"/>
</g>
<g>
	<polygon class="st16" points="1915.95,1069.95 1912.91,1107.84 1883.6,1106.52 1893.46,1087.28 1888.43,1070.93 	"/>
	<polygon class="st16" points="1837.4,1071.17 1839.19,1109.13 1865.67,1108.75 1857.27,1089.21 1862.21,1073.02 	"/>
	<polygon class="st16" points="1825.1,1074.44 1822.22,1108.35 1795.06,1107.21 1804.23,1089.97 1799.6,1075.35 	"/>
	<polygon class="st16" points="1752.33,1075.62 1752.84,1107.24 1778.46,1109.21 1770.7,1091.73 1775.31,1077.26 	"/>
	<polygon class="st16" points="1730.11,1074.47 1726.57,1108.35 1697.4,1107.49 1706.44,1091.3 1700.95,1077.28 	"/>
	<polygon class="st16" points="1660.65,1077.12 1664.06,1104.46 1687.62,1105.97 1679.06,1090.76 1682.48,1077.29 	"/>
	<polygon class="st16" points="1641.2,1077.84 1637.95,1108.94 1611.18,1108.14 1619.48,1093.29 1614.45,1080.43 	"/>
	<polygon class="st16" points="1574.78,1082.22 1577.91,1107.3 1599.52,1108.68 1591.67,1094.74 1594.81,1082.38 	"/>
	<polygon class="st16" points="1557.1,1084.35 1554.65,1107.44 1515.71,1108.53 1528.14,1095.73 1520.89,1084.3 	"/>
</g>
<g>
	<path class="st43" d="M851.6,949.8c0.6,4.32,1.11,8.63,1.54,12.92c0.42,4.29,0.81,8.58,1.16,12.89c0.58,7.26,1.06,14.49,1.43,21.69
		c0.37,7.18,0.72,14.33,1.04,21.44c0.02,1.18-0.37,1.9-1.17,2.14c-0.79,0.23-2.01,0.39-3.63,0.45c-6.82,0.27-12,0.44-15.56,0.51
		c-3.55,0.07-6.12,0-7.71-0.22c-1.59-0.21-2.49-0.56-2.69-1.03c-0.2-0.48-0.34-1.1-0.4-1.85c-0.34-3.94-0.58-7.25-0.73-9.92
		c-0.15-2.67-0.25-5.26-0.31-7.76c-2.17,7.68-4.96,14.53-8.37,20.55c-0.27,0.56-0.64,0.9-1.11,1.02c-0.47,0.12-1.54,0.21-3.22,0.28
		c-1.52,0.06-2.5,0.03-2.95-0.09c-0.45-0.12-0.94-0.47-1.47-1.08c-2.74-2.98-5.3-6.09-7.66-9.31c-2.36-3.22-4.56-6.76-6.59-10.61
		c0.29,1.44,0.58,3.3,0.87,5.56c0.28,2.27,0.62,5.43,0.98,9.48c0.22,2.34,0.24,3.9,0.08,4.7c-0.17,0.8-0.45,1.24-0.83,1.32
		c-0.61,0.23-1.77,0.43-3.45,0.59c-1.69,0.17-4.5,0.33-8.44,0.49c-1.34,0.05-2.22-0.06-2.64-0.36c-0.42-0.28-0.68-0.81-0.74-1.57
		c-0.84-6.4-1.66-12.95-2.44-19.64c-0.79-6.71-1.51-13.48-2.15-20.32c-0.45-4.77-0.86-9.45-1.21-14.05
		c-0.36-4.59-0.59-9.2-0.7-13.83c-0.03-0.35,0.22-0.64,0.75-0.89c0.54-0.24,1.2-0.44,1.98-0.58c0.78-0.16,1.66-0.28,2.61-0.37
		c0.95-0.08,1.86-0.15,2.74-0.21c0.4-0.02,1.21-0.07,2.45-0.18c1.23-0.1,2.53-0.14,3.91-0.11c1.37,0.03,2.71,0.18,4.02,0.45
		c1.32,0.28,2.24,0.77,2.79,1.44c2.52,3.74,5.22,7.44,8.13,11.09c2.91,3.64,5.92,7.17,9.06,10.6c2.52-3.5,4.91-7.28,7.15-11.36
		c2.25-4.08,4.22-8.19,5.91-12.33c0.12-0.57,0.73-1.03,1.85-1.38c1.11-0.35,2.44-0.63,3.98-0.86c1.54-0.23,3.15-0.4,4.82-0.53
		c1.67-0.13,3.12-0.23,4.35-0.3c4.68-0.26,7.93-0.33,9.76-0.18C850.6,948.65,851.54,949.08,851.6,949.8z"/>
	<path class="st43" d="M929.62,946.2c0.2,0.43,0.32,0.94,0.36,1.52c0.16,2.46,0.28,5.63,0.37,9.51c0.09,3.87,0.17,7.91,0.24,12.1
		c0.07,4.18,0.15,8.27,0.24,12.3c0.1,4.02,0.25,7.41,0.43,10.2c0.27,4.07,0.08,7.81-0.59,11.21c-0.66,3.42-2.13,6.38-4.4,8.88
		c-2.28,2.51-5.49,4.51-9.62,6.01c-4.13,1.51-9.53,2.39-16.18,2.65c-11.68,0.46-20.22-1.46-25.66-5.71
		c-5.44-4.26-8.51-10.92-9.22-19.97c-0.29-3.66-0.61-7.51-0.97-11.57c-0.36-4.06-0.74-7.98-1.12-11.76c-0.38-3.79-0.71-7.25-1-10.38
		c-0.29-3.12-0.5-5.62-0.65-7.47c-0.1-1.2,0.02-2.1,0.35-2.65c0.33-0.56,1.07-0.94,2.22-1.15c3.45-0.69,6.43-1.16,8.96-1.4
		c2.53-0.26,5-0.45,7.42-0.59c2.01-0.11,4.1-0.22,6.27-0.35c2.18-0.12,4.87-0.23,8.06-0.34c2.19-0.05,3.7,0.06,4.53,0.35
		c0.82,0.27,1.3,1.32,1.43,3.11c0.56,7.83,1.01,15.87,1.35,24.1c0.34,8.21,0.78,16.16,1.34,23.89c0.09,1.2,0.44,2.29,1.05,3.25
		c0.61,0.97,1.84,1.41,3.68,1.33c1.26-0.06,2.2-0.35,2.84-0.87c0.63-0.52,1.07-1.19,1.3-2.03c0.24-0.82,0.36-1.7,0.39-2.62
		c0.02-0.93-0.01-1.82-0.07-2.66c-0.51-7.33-1.12-14.78-1.82-22.35c-0.71-7.59-1.35-15.52-1.93-23.8c-0.1-1.37,0.33-2.26,1.28-2.68
		c0.95-0.41,3.2-0.72,6.76-0.92c2.38-0.13,4.33-0.2,5.87-0.22c1.54-0.01,2.76,0.01,3.66,0.07c0.91,0.05,1.55,0.16,1.95,0.33
		C929.14,945.71,929.44,945.93,929.62,946.2z"/>
	<path class="st43" d="M987.8,939.77c0.75,2.31,1.43,4.75,2.06,7.3c0.63,2.54,1.21,5.07,1.75,7.57c0.54,2.51,0.97,4.87,1.32,7.09
		c0.35,2.22,0.57,4.09,0.65,5.63c0.03,0.58-0.48,0.9-1.53,0.95c-0.35,0.02-0.72,0-1.12-0.05c-0.4-0.04-0.95-0.06-1.64-0.03
		c-3.66,0.18-6.17,0.91-7.53,2.19c-1.37,1.26-2,2.77-1.89,4.51c0.05,0.8,0.22,1.57,0.53,2.32c0.31,0.75,0.96,1.61,1.98,2.57
		c2.67,2.57,4.82,5.13,6.45,7.71c1.63,2.56,2.53,5.27,2.68,8.08c0.21,3.75-0.52,7-2.19,9.74c-1.66,2.73-4.05,5.02-7.14,6.87
		c-3.09,1.84-6.82,3.24-11.19,4.2c-4.36,0.96-9.1,1.54-14.22,1.74c-1.53,0.06-2.65,0.03-3.34-0.08c-0.69-0.12-1.19-0.56-1.49-1.33
		c-0.51-1.27-0.96-2.7-1.36-4.33c-0.41-1.62-0.66-3.29-0.77-5.01c-0.04-0.56,0.5-0.85,1.61-0.86c1.11-0.02,2.43-0.12,3.95-0.32
		c3.14-0.43,5.61-1.13,7.39-2.14c1.78-1.01,2.63-2.37,2.52-4.09c-0.1-1.65-0.86-3.15-2.27-4.49c-1.42-1.34-3.78-2.98-7.08-4.91
		c-5.35-3.22-9.43-6.68-12.23-10.41c-2.81-3.72-4.37-8.07-4.7-13.04c-0.24-3.6,0.31-7.03,1.64-10.25c1.34-3.24,3.62-6.13,6.87-8.67
		c3.25-2.56,7.59-4.67,13.04-6.33c5.47-1.66,12.21-2.73,20.23-3.18c2.01-0.1,3.64-0.11,4.87,0
		C986.87,938.84,987.59,939.19,987.8,939.77z"/>
	<path class="st43" d="M1066.31,938.39c0.18,4.11,0.22,8.11,0.11,12.02c-0.11,3.88-0.29,7.37-0.57,10.44
		c-0.27,3.06-0.64,5.53-1.1,7.41c-0.46,1.87-0.91,2.82-1.36,2.84c-0.9,0.04-3.02,0.03-6.36-0.02c-3.33-0.06-8.53,0.08-15.58,0.42
		c-0.14,0.82-0.19,1.61-0.16,2.38c0.04,0.77,0.07,1.57,0.11,2.38l0.15,3.19c1.78-0.09,3.59-0.21,5.41-0.37
		c1.83-0.15,3.61-0.33,5.35-0.52c1.74-0.19,3.35-0.37,4.83-0.55c1.47-0.19,2.75-0.3,3.83-0.34c1.53-0.07,2.57,0.01,3.12,0.23
		c0.55,0.24,0.84,0.61,0.86,1.13c-0.28,1.72-0.65,3.31-1.07,4.81c-0.43,1.51-0.96,3.11-1.61,4.84c-0.42,0.82-4.48,1.41-12.16,1.74
		c-1.25,0.06-2.56,0.12-3.94,0.18c-1.38,0.06-2.83,0.09-4.34,0.08c-0.13,1.04-0.21,2.34-0.21,3.92c-0.02,1.57,0.01,3.09,0.08,4.54
		c3.29,0.07,6.72,0.04,10.29-0.11c1.87-0.08,3.77-0.21,5.69-0.4c1.92-0.2,3.81-0.33,5.7-0.4c0.71-0.04,1.1,0.46,1.14,1.48
		c0.11,2.57,0.16,4.77,0.15,6.6c-0.01,1.83-0.11,3.69-0.29,5.6c-0.08,0.3-0.51,0.59-1.3,0.88c-0.8,0.28-2.24,0.58-4.32,0.87
		c-2.09,0.31-4.9,0.59-8.45,0.83c-3.55,0.25-8.11,0.48-13.67,0.69c-5.03,0.19-9.14,0.34-12.35,0.44c-3.2,0.09-5.73,0.08-7.58-0.03
		c-1.84-0.11-3.15-0.36-3.92-0.77c-0.76-0.4-1.21-1-1.34-1.79c-0.67-2.72-1.36-6.17-2.07-10.38c-0.71-4.22-1.4-8.71-2.1-13.47
		c-0.7-4.78-1.33-9.63-1.9-14.58c-0.58-4.96-1.11-9.49-1.6-13.62c-0.49-4.13-0.88-7.64-1.17-10.53c-0.29-2.9-0.45-4.69-0.49-5.35
		c-0.03-0.66,0.55-1.27,1.76-1.81c1.21-0.55,3.41-1.08,6.62-1.6c3.22-0.51,7.63-1.01,13.27-1.52c5.65-0.5,12.95-1,21.92-1.5
		l19.5-1.09C1065.91,937.51,1066.29,937.79,1066.31,938.39z"/>
	<path class="st43" d="M1150.11,933.96c0.2,0.45,0.32,0.97,0.33,1.58c0.07,2.6,0.07,5.93-0.01,10.01
		c-0.06,4.08-0.16,8.32-0.26,12.72c-0.11,4.4-0.2,8.7-0.26,12.94c-0.06,4.23-0.06,7.8,0.02,10.73c0.13,4.26-0.25,8.2-1.13,11.78
		c-0.88,3.6-2.62,6.71-5.23,9.35c-2.61,2.63-6.22,4.75-10.83,6.33c-4.61,1.6-10.57,2.53-17.88,2.82
		c-12.85,0.51-22.14-1.49-27.93-5.95c-5.78-4.48-8.88-11.45-9.27-20.95c-0.16-3.85-0.35-7.89-0.57-12.15
		c-0.22-4.26-0.46-8.38-0.71-12.35c-0.25-3.99-0.48-7.62-0.66-10.9c-0.18-3.28-0.31-5.91-0.39-7.86c-0.06-1.27,0.11-2.2,0.5-2.78
		c0.39-0.58,1.21-0.99,2.49-1.21c3.81-0.74,7.11-1.24,9.89-1.51c2.79-0.27,5.51-0.48,8.18-0.63c2.21-0.12,4.51-0.26,6.91-0.39
		c2.4-0.14,5.35-0.26,8.87-0.38c2.41-0.05,4.05,0.05,4.95,0.35c0.89,0.29,1.37,1.39,1.44,3.28c0.28,8.23,0.42,16.68,0.44,25.34
		c0.02,8.62,0.16,16.99,0.44,25.11c0.04,1.27,0.39,2.39,1.02,3.42c0.62,1.02,1.96,1.48,3.98,1.39c1.39-0.06,2.43-0.36,3.16-0.92
		c0.72-0.55,1.23-1.27,1.52-2.14c0.3-0.87,0.47-1.79,0.54-2.76c0.06-0.97,0.08-1.91,0.04-2.8c-0.25-7.7-0.59-15.52-1.03-23.47
		c-0.44-7.98-0.8-16.32-1.08-25.03c-0.06-1.44,0.45-2.39,1.51-2.83c1.06-0.43,3.54-0.77,7.47-0.98c2.62-0.16,4.78-0.23,6.47-0.25
		c1.69-0.02,3.03,0,4.02,0.06c0.99,0.05,1.7,0.17,2.13,0.34C1149.6,933.44,1149.92,933.66,1150.11,933.96z"/>
	<path class="st43" d="M1256.57,927.22c0.35,4.75,0.59,9.47,0.73,14.18c0.14,4.69,0.25,9.4,0.29,14.13
		c0.09,7.96,0.03,15.89-0.13,23.78c-0.17,7.87-0.35,15.69-0.57,23.48c-0.09,1.29-0.61,2.07-1.58,2.34
		c-0.97,0.27-2.42,0.44-4.35,0.51c-8.12,0.32-14.28,0.53-18.52,0.62c-4.22,0.1-7.27,0.03-9.14-0.2c-1.87-0.23-2.9-0.6-3.11-1.13
		c-0.2-0.52-0.3-1.2-0.32-2.03c-0.07-4.31-0.08-7.93-0.04-10.85c0.05-2.92,0.14-5.76,0.29-8.5c-3.21,8.42-7.1,15.93-11.65,22.53
		c-0.37,0.61-0.85,0.99-1.41,1.12c-0.57,0.13-1.85,0.24-3.84,0.32c-1.81,0.07-2.96,0.05-3.49-0.09c-0.53-0.13-1.08-0.52-1.66-1.17
		c-3.01-3.26-5.78-6.65-8.31-10.15c-2.54-3.52-4.85-7.37-6.93-11.59c0.23,1.57,0.41,3.61,0.57,6.09c0.15,2.48,0.27,5.94,0.37,10.37
		c0.06,2.56-0.04,4.25-0.3,5.13c-0.25,0.87-0.63,1.35-1.09,1.45c-0.76,0.25-2.14,0.47-4.15,0.67c-2.02,0.19-5.36,0.38-10.05,0.56
		c-1.58,0.07-2.62-0.05-3.09-0.38c-0.47-0.31-0.73-0.88-0.75-1.7c-0.46-7.01-0.88-14.16-1.26-21.47
		c-0.39-7.32-0.68-14.73-0.88-22.22c-0.13-5.23-0.23-10.36-0.27-15.38c-0.04-5.03,0.06-10.09,0.32-15.15
		c-0.01-0.38,0.3-0.71,0.96-0.97c0.65-0.27,1.46-0.49,2.41-0.65c0.94-0.17,1.98-0.31,3.12-0.41c1.13-0.1,2.22-0.19,3.27-0.24
		c0.48-0.02,1.45-0.1,2.92-0.22c1.47-0.12,3.01-0.17,4.64-0.15c1.62,0.03,3.2,0.19,4.73,0.49c1.54,0.3,2.6,0.82,3.19,1.55
		c2.67,4.08,5.58,8.13,8.73,12.11c3.14,3.98,6.43,7.83,9.86,11.58c3.3-3.85,6.45-8.01,9.45-12.49c3.01-4.48,5.7-9,8.05-13.56
		c0.18-0.63,0.96-1.14,2.31-1.53c1.35-0.38,2.95-0.7,4.8-0.97c1.85-0.26,3.77-0.46,5.77-0.61c2-0.15,3.74-0.27,5.21-0.35
		c5.58-0.31,9.46-0.4,11.62-0.24C1255.48,925.97,1256.57,926.44,1256.57,927.22z"/>
</g>
<path class="st16" d="M519.83,684.6c-29.26,19.52-24.62,113,19.68,108.79C583.03,789.25,550.92,663.88,519.83,684.6z"/>
<path class="st16" d="M1540.34,686.17c-29.26,19.51-24.62,113,19.68,108.79C1603.54,790.82,1571.42,665.45,1540.34,686.17z"/>
<g>
	<path class="st16" d="M1006.59,815.26c-5.51-2.02-10.85-6.86-20.09,2.4c4.1,27.53,6.91,43.6-7.41,67.21l35.97-1.6
		C1005.94,864.33,1003.2,841.62,1006.59,815.26z"/>
	<path class="st16" d="M1071.79,814.49c-5.52-2.03-10.85-6.87-20.1,2.4c4.1,27.52,6.91,43.6-7.41,67.2l35.96-1.6
		C1071.12,863.56,1068.39,840.84,1071.79,814.49z"/>
	<path class="st16" d="M1136.97,813.35c-5.52-2.03-10.85-6.86-20.09,2.4c4.1,27.54,6.91,43.6-7.41,67.21l35.97-1.6
		C1136.31,862.42,1133.58,839.7,1136.97,813.35z"/>
	<path class="st16" d="M1174.65,881.98l35.98-1.6c-8.21-17.04-11.21-37.15-9.25-60.19l-19.22-4.82
		C1186.2,842.52,1188.86,858.55,1174.65,881.98z"/>
	<path class="st16" d="M1239.85,880.96l35.96-1.6c-6.09-12.63-9.26-26.98-9.74-42.93l-16.25-4.08
		C1251.69,849.69,1250.62,863.19,1239.85,880.96z"/>
	<path class="st16" d="M848.72,886.68l35.97-1.6c-9.13-18.93-11.86-41.65-8.46-68c-0.72-0.26-1.43-0.58-2.15-0.9l-17.67,5.15
		C860.35,847.72,862.71,863.63,848.72,886.68z"/>
	<path class="st16" d="M783.54,888.02l35.97-1.6c-7.15-14.86-10.32-32.06-9.75-51.48l-16.22,4.74
		C795.38,856.89,794.26,870.35,783.54,888.02z"/>
	<path class="st16" d="M754.32,887.31c-4.86-10.1-7.86-21.3-9.13-33.53l-16.38,4.78c-0.8,9.77-3.71,19.22-10.46,30.34L754.32,887.31
		z"/>
	<path class="st16" d="M941.42,816.18c-5.52-2.03-10.85-6.86-20.1,2.4c4.1,27.53,6.91,43.6-7.41,67.2l35.97-1.6
		C940.75,865.25,938.02,842.54,941.42,816.18z"/>
</g>
<path class="st16" d="M1042.79,800.33c0-6.36-5.87-11.53-13.1-11.53c-7.24,0-13.1,5.17-13.1,11.53c0,6.37,5.87,11.53,13.1,11.53
	C1036.93,811.87,1042.79,806.7,1042.79,800.33z"/>
<polygon class="st19" points="1177.5,1262.62 1153.91,1262.62 1149.19,1307.44 1172.78,1307.44 "/>
<polygon class="st19" points="1208.42,1264.19 1184.84,1264.19 1180.12,1309.01 1203.7,1309.01 "/>
<polygon class="st19" points="1184.31,1188.72 1160.73,1188.72 1154.49,1253.54 1178.07,1253.54 "/>
<polygon class="st19" points="1215.18,1190.99 1191.59,1190.99 1185.36,1255.81 1208.95,1255.81 "/>
<polygon class="st19" points="900.7,1267.69 877.11,1267.69 879.03,1316.22 902.62,1316.22 "/>
<polygon class="st19" points="931.86,1269.4 908.27,1269.4 910.19,1317.92 933.77,1317.92 "/>
<polygon class="st19" points="896.56,1187.67 872.97,1187.67 876.34,1257.86 899.93,1257.86 "/>
<polygon class="st19" points="927.77,1190.13 904.18,1190.13 907.55,1260.32 931.14,1260.32 "/>
<polygon class="st21" points="952.84,1426.96 942.02,1427.24 948.79,1606.83 960.27,1606.81 "/>
<polygon class="st21" points="1127.34,1424.57 1116.02,1424.85 1122.54,1610.89 1134.55,1610.87 "/>
<polygon class="st14" points="1075.29,1925.66 991.43,1917.28 978.85,1980.18 1096.26,1980.18 "/>
<polygon class="st14" points="1494.32,1906.99 1410.25,1913.02 1408.57,1977.13 1524.26,1957.13 "/>
<polygon class="st14" points="1892.95,1890.02 1833.76,1887.86 1832.09,1951.97 1947.76,1931.98 "/>
<polygon class="st14" points="655.67,1921.91 601.47,1913.08 533.02,1957.95 649.51,1972.56 "/>
<polygon class="st14" points="286.67,1890.46 232.47,1881.63 164.03,1926.5 280.52,1941.12 "/>
<polygon class="st15" points="555.49,1690.97 535.95,1704.47 131.05,1693.99 300.09,1654.16 "/>
<polygon class="st37" points="557.01,1619.09 191.4,1626.62 186.87,1682.64 555.92,1697.99 "/>
<polygon class="st38" points="559.54,1616.41 191.4,1626.62 528.75,1644.47 555.92,1697.99 "/>
<polygon class="st39" points="227.5,1628.26 232.94,1684.21 186.87,1682.64 191.4,1626.62 "/>
<g>
	<path class="st44" d="M1654.98,1289.21c0.03,1.51,0.04,2.92,0.03,4.21c-0.02,1.29-0.06,2.67-0.1,4.13
		c-0.06,1.72-0.13,3.43-0.23,5.15c-0.09,1.71-0.18,3.4-0.28,5.09c-0.01,0.39-0.2,0.59-0.57,0.58c-1.24,0-2.56-0.01-3.94-0.01
		c-1.39,0-2.7,0.02-3.93,0.06c-0.12,1.46-0.26,3.16-0.43,5.1c-0.17,1.92-0.37,3.96-0.6,6.09c-0.23,2.14-0.48,4.31-0.72,6.53
		c-0.25,2.21-0.52,4.33-0.81,6.35c-0.01,0.59-1.49,0.86-4.43,0.84c-1.49-0.01-2.79-0.05-3.92-0.12c-1.12-0.07-2.21-0.15-3.25-0.24
		c-0.2-0.04-0.34-0.16-0.42-0.35c-0.08-0.18-0.13-0.57-0.17-1.2c-0.08-4.03-0.25-7.98-0.5-11.84c-0.25-3.91-0.52-7.68-0.82-11.35
		c-0.82-0.08-1.63-0.13-2.4-0.13c-0.78-0.01-1.58-0.01-2.4-0.01l-3.13-0.01c-0.38-0.01-0.57-0.2-0.56-0.59
		c-0.13-3.28-0.19-6.64-0.19-10.06c0-1.55,0.01-2.99,0.03-4.34c0.02-1.37,0.08-2.82,0.16-4.37c0-0.4,0.19-0.62,0.57-0.62
		c1.08-0.08,2.18-0.13,3.29-0.13c1.1,0,2.22,0,3.35,0c4.35,0,8.67,0.05,12.95,0.13c4.28,0.1,8.58,0.25,12.86,0.48
		C1654.8,1288.6,1654.99,1288.79,1654.98,1289.21z"/>
	<path class="st44" d="M1677.38,1287.38c3.01,0,5.65,0.6,7.9,1.8c2.24,1.19,4.08,2.8,5.5,4.83c1.41,2.01,2.43,4.34,3.06,7
		c0.62,2.65,0.83,5.43,0.63,8.35c-0.21,3.16-0.81,6.23-1.78,9.18c-0.96,2.94-2.29,5.53-3.96,7.82c-1.66,2.26-3.65,4.05-5.95,5.39
		c-2.31,1.34-4.94,1.99-7.9,1.97c-2.76-0.01-5.24-0.58-7.41-1.7c-2.19-1.11-4.04-2.7-5.54-4.75c-1.51-2.07-2.66-4.57-3.43-7.55
		c-0.78-2.98-1.1-6.32-0.98-10.01c0.11-3.18,0.63-6.11,1.58-8.79c0.96-2.71,2.29-5.07,4-7.08c1.73-2,3.79-3.58,6.17-4.73
		C1671.66,1287.95,1674.37,1287.38,1677.38,1287.38z M1675.1,1323.16c1.19,0,2.21-0.76,3.01-2.31c0.84-1.55,1.32-3.5,1.44-5.86
		c0.13-2.19-0.09-3.74-0.64-4.63c-0.55-0.88-1.5-1.33-2.83-1.34c-1.67-0.01-2.82,0.45-3.47,1.32c-0.64,0.9-1,2.44-1.12,4.63
		c-0.11,2.44,0.18,4.41,0.86,5.91C1673.04,1322.4,1673.96,1323.15,1675.1,1323.16z"/>
	<path class="st44" d="M1710.89,1287.8c3.78,0,7.14,0.54,10.08,1.66c2.94,1.1,5.38,2.67,7.3,4.68c1.92,2,3.31,4.38,4.18,7.15
		c0.86,2.75,1.12,5.78,0.77,9.11c-0.46,4.3-1.52,7.97-3.19,10.97c-1.67,3-3.72,5.46-6.15,7.39c-2.42,1.92-5.09,3.31-8.03,4.19
		c-2.91,0.88-5.87,1.31-8.86,1.28c-0.74,0-1.58-0.06-2.53-0.2c-0.95-0.13-1.86-0.33-2.72-0.57c-0.87-0.26-1.61-0.55-2.25-0.86
		c-0.62-0.31-0.99-0.67-1.09-1.05c0.05-4.57,0.16-9.16,0.31-13.79c0.15-4.66,0.42-9.56,0.79-14.7c0.16-2.12,0.33-4.28,0.5-6.51
		c0.2-2.23,0.42-4.43,0.71-6.59c0.09-0.63,0.25-1.06,0.46-1.29c0.2-0.23,0.48-0.38,0.83-0.47c0.78-0.13,1.84-0.24,3.2-0.3
		C1706.54,1287.82,1708.45,1287.8,1710.89,1287.8z M1719.85,1318.13c0.18-2.06-0.22-3.75-1.23-5.06c-1.01-1.3-2.62-1.99-4.79-2.1
		c-0.28,1.71-0.5,3.35-0.69,4.97c-0.18,1.61-0.33,3.18-0.47,4.73c-0.07,0.85-0.15,1.7-0.22,2.55c-0.07,0.86-0.13,1.7-0.16,2.55
		c0.62,0,1.34-0.18,2.17-0.54c0.81-0.35,1.61-0.86,2.37-1.5c0.76-0.67,1.44-1.47,2.01-2.43
		C1719.4,1320.36,1719.74,1319.3,1719.85,1318.13z"/>
	<path class="st44" d="M1765.98,1290.12c0.67,7.73,1.21,15.2,1.65,22.42c0.45,7.12,0.82,14.26,1.16,21.41l-0.03,0.19
		c-0.04,0.29-0.23,0.44-0.55,0.44c-2.38-0.01-4.75-0.05-7.1-0.11c-2.35-0.05-4.69-0.19-7.04-0.42c-0.19-0.04-0.35-0.13-0.47-0.22
		c-0.11-0.11-0.16-0.39-0.14-0.86l0.14-4.11c-0.32,0.25-0.69,0.52-1.09,0.79c-0.42,0.27-0.83,0.5-1.22,0.69
		c-0.4,0.18-0.75,0.34-1.03,0.47c-0.28,0.13-0.49,0.18-0.62,0.18c-0.37,0-0.7-0.3-0.98-0.88c-0.28-0.59-0.47-1.11-0.54-1.53l-1,3.67
		c-0.13,0.33-0.26,0.6-0.41,0.81c-0.15,0.21-0.45,0.35-0.9,0.47c-0.45,0.09-1.13,0.17-2.04,0.21c-0.93,0.04-2.19,0.05-3.8,0.03
		c-3.35-0.01-5.72-0.07-7.1-0.16c-1.37-0.1-2.04-0.28-2.01-0.58c0.01-0.08,0.07-0.29,0.19-0.62c2.4-6.99,4.87-13.95,7.4-20.9
		c2.56-7.05,5.38-14.21,8.45-21.52c0.08-0.23,0.23-0.41,0.5-0.54c0.25-0.13,0.66-0.23,1.22-0.3c0.58-0.08,1.35-0.11,2.33-0.14
		c0.98-0.01,2.27-0.03,3.86-0.03c2.26,0,4.12,0.03,5.57,0.06c1.44,0.05,2.58,0.13,3.42,0.22c0.83,0.09,1.4,0.21,1.71,0.37
		C1765.81,1289.77,1765.97,1289.94,1765.98,1290.12z M1752.79,1320.35c0.24,0.01,0.5,0.12,0.77,0.33c0.27,0.22,0.67,0.75,1.2,1.61
		c-0.17-2.06-0.33-4.11-0.5-6.15c-0.17-2.03-0.42-4.1-0.75-6.21c-0.98,2.11-1.85,4.18-2.58,6.24c-0.74,2.06-1.46,4.17-2.14,6.35
		c1.28-0.86,2.17-1.42,2.71-1.73C1752.01,1320.5,1752.44,1320.35,1752.79,1320.35z"/>
	<path class="st44" d="M1808.97,1289.58c0.33,0.16,0.45,0.45,0.38,0.9c-0.06,0.33-0.14,0.57-0.27,0.76
		c-2.32,3.82-4.68,7.49-7.08,10.98c-2.38,3.47-4.83,6.93-7.32,10.36c-0.14,1.66-0.33,3.35-0.57,5.07c-0.24,1.72-0.5,3.4-0.76,5.04
		c-0.31,1.85-0.63,3.66-0.96,5.46c-0.34,1.78-0.71,3.56-1.14,5.33c-0.06,0.37-0.27,0.57-0.64,0.57c-1.28,0.07-2.53,0.13-3.76,0.16
		c-1.22,0.03-2.46,0.04-3.72,0.04c-1.26-0.01-2.5-0.04-3.73-0.08c-1.23-0.04-2.45-0.13-3.65-0.21c-0.37-0.05-0.54-0.24-0.47-0.58
		c0.34-1.77,0.67-3.54,0.97-5.32c0.31-1.8,0.59-3.58,0.86-5.39c0.23-1.63,0.47-3.31,0.69-5.04c0.2-1.74,0.4-3.45,0.55-5.09
		c-1.52-3.3-3.01-6.68-4.45-10.12c-1.46-3.47-2.54-7.11-3.28-10.92c-0.03-0.18-0.04-0.33-0.04-0.47c-0.01-0.14,0.01-0.28,0.03-0.42
		c0.08-0.64,0.4-1,0.93-1.09c0.71-0.04,1.63-0.11,2.81-0.21c1.17-0.08,2.43-0.16,3.79-0.23c1.37-0.07,2.74-0.13,4.12-0.16
		c1.39-0.05,2.62-0.07,3.72-0.07c0.26,0,0.52,0.02,0.77,0.07c0.26,0.04,0.42,0.13,0.49,0.27c0.21,2.05,0.53,4.03,0.99,5.92
		c0.45,1.87,0.92,3.74,1.4,5.63c1.02-1.75,2-3.51,2.96-5.3c0.96-1.79,1.93-3.71,2.92-5.77c0.08-0.18,0.18-0.33,0.33-0.44
		c0.15-0.11,0.37-0.21,0.67-0.28c0.3-0.06,0.7-0.11,1.21-0.13c0.51-0.02,1.18-0.03,2.02-0.03c0.52,0,1.22,0.02,2.07,0.07
		c0.85,0.04,1.72,0.09,2.64,0.17c0.91,0.06,1.77,0.14,2.6,0.23C1807.87,1289.34,1808.51,1289.44,1808.97,1289.58z"/>
</g>
<polygon class="st44" points="1634.36,1395.98 1651.14,1414.53 1669.17,1394.64 1676.84,1495.34 1710.46,1493.12 1699.19,1363.28 
	1671.44,1362.43 "/>
<path class="st44" d="M1759.36,1423.36l13.24-10.07c0,0-10.32-7.4-20.14-11.66l1.74-18h-8.6l-1.1,15.39
	c-8.43-1.59-13.5,2.59-5.28,22.22c0,0,25.97,33.9,1.6,21.73l-6.37,10.06c0,0,5.46,2.03,12.15,3.77l-1,14.09l7.92,1.98l1.39-14.28
	c12.42,2.02,23.49,0.23,9.75-18.28C1738.69,1405.35,1759.36,1423.36,1759.36,1423.36z"/>
<polygon class="st45" points="1408.47,1059.92 1502.72,1058.35 1501.23,1077.2 1487.01,1077.98 1494.34,1114.87 1499.73,1118.05 
	1466.81,1617.67 1393.51,1616.09 1430.16,1102.34 1393.51,1099.98 "/>
<polygon class="st45" points="1106.4,1109.41 1107.17,1086.63 1115.45,1086.11 1118.02,1062.28 1292.37,1059.13 1290.39,1077.35 
	1298.57,1076.42 1275.06,1573.16 1265.77,1574.72 1263.18,1619.24 1243.03,1618.19 1266.29,1106.79 "/>
<polygon class="st45" points="1016.45,1581.96 1006.12,1584.31 1009.3,1620.97 988.65,1618.88 967.2,1113.93 800.38,1120.04 
	797.2,1087.05 803.82,1085.22 805.15,1070.55 982.29,1065.84 986,1086.27 994.21,1085.48 "/>
<polygon class="st45" points="738.27,1620.02 762.1,1619.24 756.45,1580.47 766.07,1579.96 708.08,1085.84 697.75,1086.11 
	694.58,1072.49 607.2,1072.49 660.68,1122.76 685.84,1122.76 "/>
<rect x="-3.86" y="1833.41" class="st11" width="2055.63" height="360.59"/>
<path class="st12" d="M2063.87,1890.92L-3.86,1826.11v278.31c696.78,83.5,1383.48-39.69,2017.72-140.65L2063.87,1890.92z"/>
<polygon class="st13" points="2027.31,1314.14 1831.69,1236.86 1811,1777.81 2051.77,1777.81 "/>
<polygon class="st13" points="2027.31,1314.14 1823.08,1200.63 1823.08,1246.52 2025.71,1335.87 "/>
<path class="st14" d="M2051.77,1731.93H-3.86v206.48c68.52,0,955.87,206.48,2055.63,7.24V1731.93z"/>
<polygon class="st15" points="282.32,1355.19 67.39,1405.91 48.07,1746.42 291.98,1765.74 "/>
<polygon class="st15" points="296.81,1326.21 28.75,1420.4 31.16,1444.55 296.81,1398.66 "/>
<rect x="310.63" y="1640.1" class="st14" width="1436.58" height="236.44"/>
<polygon class="st16" points="1644.51,849.08 1020.26,732.72 418.37,844.03 435.31,1015.75 1627.49,1011.62 "/>
<polygon class="st16" points="1925.97,996.88 184.92,993.67 310.62,1771.82 1860.93,1771.82 "/>
<polygon class="st17" points="1912.35,1003.7 1561.17,1003.7 1520.81,1708.66 1871.99,1708.66 "/>
<polygon class="st17" points="541.19,995.3 190.02,995.3 306.9,1767.36 658.08,1767.36 "/>
<polygon class="st17" points="1045.42,709.13 429.02,889.95 435.31,940.28 1625.64,926.12 1639.79,872.66 "/>
<polygon class="st16" points="174.74,1064.58 452.98,1063.54 451.38,1123.73 182.79,1147.38 "/>
<polygon class="st16" points="1941.69,1047.2 1543.09,1062.92 1554.09,1119.53 1938.03,1130.32 "/>
<polygon class="st18" points="1940.34,1104.11 1593.14,1077.6 1595.24,1039.87 1491.46,1044.06 1471.54,1113.76 1474.07,1132.6 
	1938.59,1130.18 "/>
<polygon class="st18" points="597.27,1063.71 475.41,1065.28 485.63,1088.87 179.01,1127.92 181.21,1146.67 605.18,1134.89 "/>
<polygon class="st15" points="1505.09,1011.56 590.99,1040.92 655.98,1630.05 1463.16,1640.53 "/>
<polygon class="st19" points="1429.06,1063.88 660.17,1094.37 713.15,1624.28 1385.75,1628.99 "/>
<polygon class="st20" points="1213.66,1407.29 855.3,1414.91 852.89,1622.71 1216.72,1619.72 "/>
<polygon class="st21" points="1199.14,1417.49 869.38,1423.98 878.07,1612.04 1198.06,1614.5 "/>
<polygon class="st22" points="1189.22,1425.02 1073.59,1429.09 1077.01,1508.89 1186.77,1508.65 "/>
<polygon class="st22" points="1187.05,1520.55 1068.04,1523.36 1071.42,1608.13 1184.47,1609.31 "/>
<polygon class="st22" points="1010.21,1531.6 881.89,1532.54 884.39,1604.25 999.5,1604.56 "/>
<polygon class="st22" points="1004.65,1430.84 880.48,1433.22 884.19,1519.64 996.23,1518.85 "/>
<polygon class="st23" points="1048.03,1691.37 1080.68,1022.03 963.12,1024.67 978.23,1379.5 991.43,1689.27 "/>
<polygon class="st23" points="806.43,1717.89 796.92,1047.82 679.77,1057.85 749.81,1719.37 "/>
<polygon class="st23" points="1296.91,1702.86 1387.09,1038.82 1269.74,1031.32 1240.7,1695.9 "/>
<polygon class="st24" points="1523.43,1014.17 567.4,1034.62 661.22,1122.68 1444.81,1099.09 "/>
<polygon class="st25" points="834.71,1684.03 796.68,1021.5 700.91,1021.5 778.1,1687.17 "/>
<polygon class="st25" points="1334.74,1687.17 1394.5,1017.32 1304.86,1015.75 1272.36,1674.08 "/>
<polygon class="st25" points="1076.34,1692.95 1108.98,1023.6 991.43,1026.24 1019.73,1690.85 "/>
<polygon class="st26" points="1108.31,1036.19 990.77,1041.3 999.82,1139.19 1105.16,1132.9 "/>
<polygon class="st26" points="1393.31,1063.32 1302.9,1065.28 1297.79,1138.4 1384.27,1125.82 "/>
<polygon class="st26" points="803.26,1052.7 703.02,1050.35 715.21,1138.4 803.26,1134.47 "/>
<polygon class="st16" points="621.89,1693.99 335.2,1686.66 131.05,1693.99 131.05,1867.58 557.44,1867.58 635.01,1806.68 "/>
<polygon class="st16" points="2040.5,1693.99 1866.22,1663.59 1549.67,1693.99 1521.86,1833.42 1567.99,1864.86 2040.5,1867.58 "/>
<polygon class="st14" points="1855.21,1147.84 1559.44,1163.56 1557.58,1602.59 1821.87,1610.12 "/>
<polygon class="st27" points="1817.48,1175.09 1576.38,1183.48 1574.28,1592.31 1792.32,1596.12 "/>
<path class="st28" d="M1835.56,1170.64l-250.01,14.15c3.28,135.38,1.56,261.24-3.56,351.44l72.75,5.5l85.69-14.16l69.59,5.51
	C1808.74,1449.57,1821.03,1311.27,1835.56,1170.64z"/>
<polygon class="st16" points="603.21,774.16 487.12,792.44 504.07,873.2 606.54,857.8 "/>
<polygon class="st16" points="1610.17,800.2 1482.74,775.28 1487.79,834.4 1605.72,837.55 "/>
<polygon class="st14" points="502.17,1195.86 274.71,1195.86 328.58,1580.27 556.04,1580.27 "/>
<polygon class="st27" points="490.78,1212.17 300.04,1212.17 349.93,1579.35 540.67,1579.35 "/>
<polygon class="st29" points="480.74,1536.3 383.22,1536.3 389.55,1581.56 487.06,1581.56 "/>
<polygon class="st16" points="1639.23,1693.09 449.49,1620.61 442.69,1816.36 1619.6,1845.76 "/>
<polygon class="st30" points="1545.44,1656.52 1521.33,1649.44 1471.54,1842.85 1534.96,1846.51 "/>
<polygon class="st17" points="2037.46,1695.68 1583.71,1730.69 1564.32,1845.99 2034.47,1842.85 "/>
<polygon class="st17" points="539.09,1726.49 140.22,1701.33 136.03,1843.9 551.15,1846 "/>
<path class="st14" d="M2051.77,1863.95L30.97,1850.27l-4.65,84.52c690.3,88.16,1218.97,92.08,2025.44,9.74V1863.95z"/>
<path class="st31" d="M2049.75,1879.54c-805.51,82.23-1333.29,90.23-2022.4,2.4l-0.4,16.46c690.29,88.16,1218.36,80.24,2024.82-2.09
	L2049.75,1879.54z"/>
<polygon class="st32" points="1561.56,1871.54 1452.67,1838.91 1530.51,1827.13 "/>
<polygon class="st29" points="1477.83,1644.72 655.45,1652.58 675.89,1798.82 1432.23,1816.12 "/>
<polygon class="st33" points="180.87,1075.1 598.36,1084.07 602.52,1117.44 189.13,1137.7 "/>
<polygon class="st18" points="371.13,850.24 1045.11,708.67 1050.26,741.47 381.53,911.58 "/>
<path class="st14" d="M619.52,901.11c-2.61,0.06-4.86-1.82-5.26-4.4c-0.4-2.58,1.18-5.06,3.68-5.79l400.14-116.75l381.35,95.77
	c3.16,0.79,5.24,3.8,4.88,7.03c-0.36,3.24-3.06,5.7-6.31,5.78L619.52,901.11z"/>
<rect x="1837.13" y="1610.91" transform="matrix(0.0673 -0.9977 0.9977 0.0673 120.2533 3391.3525)" class="st16" width="73.91" height="40.88"/>
<polygon class="st18" points="1792.32,1622.7 1554.09,1632.14 1551.73,1658.09 1893.32,1671.1 "/>
<path class="st14" d="M1806.86,1183.61c0-3.69-2.99-6.68-6.68-6.68c-3.7,0-6.69,2.99-6.69,6.68c0,3.69,2.99,6.68,6.69,6.68
	C1803.87,1190.29,1806.86,1187.3,1806.86,1183.61z"/>
<polygon class="st15" points="2051.77,1849.14 1560.39,1853.07 1561.17,1871.15 2051.77,1871.15 "/>
<polygon class="st15" points="562.88,1856.35 122.51,1850.7 118.88,1871.2 562.88,1878.37 "/>
<polygon class="st16" points="1468.66,1764.23 617.72,1764.23 617.72,1781.52 1464.16,1789.39 "/>
<polygon class="st16" points="1484.46,1707.62 633.51,1707.62 633.51,1724.91 1479.94,1732.79 "/>
<polygon class="st16" points="1494.61,1658.36 643.66,1658.36 643.66,1675.65 1490.09,1683.52 "/>
<rect x="625.58" y="1619.56" class="st16" width="872.7" height="33.9"/>
<path class="st28" d="M1809.28,1151.57c-1,14.61-4.34,28.01-8.58,27.97c-4.24-0.04-7.97-13.48-8.74-28.1l-1.47-0.01
	c-0.04,17.78,4.36,32.14,9.9,32.18c5.54,0.04,10.13-14.25,10.36-32.03L1809.28,1151.57z"/>
<path class="st14" d="M1743.58,1187.46c-0.2-3.69-3.34-6.52-7.03-6.33c-3.69,0.2-6.51,3.34-6.32,7.03c0.19,3.69,3.33,6.52,7.02,6.33
	C1740.93,1194.29,1743.76,1191.15,1743.58,1187.46z"/>
<path class="st28" d="M1744.31,1155.34c-0.23,14.63-2.87,28.19-7.1,28.39c-4.23,0.18-8.65-13.05-10.2-27.61l-1.47,0.06
	c0.89,17.77,6.03,31.87,11.56,31.62c5.55-0.24,9.38-14.76,8.7-32.53L1744.31,1155.34z"/>
<path class="st14" d="M1679.28,1192.05c-0.19-3.69-3.34-6.52-7.03-6.32c-3.69,0.2-6.52,3.33-6.33,7.03
	c0.19,3.69,3.33,6.52,7.02,6.32C1676.64,1198.88,1679.47,1195.74,1679.28,1192.05z"/>
<path class="st28" d="M1680.02,1159.93c-0.23,14.64-2.87,28.19-7.1,28.39c-4.23,0.18-8.65-13.05-10.2-27.61l-1.49,0.06
	c0.91,17.76,6.04,31.86,11.57,31.62c5.55-0.25,9.39-14.77,8.69-32.53L1680.02,1159.93z"/>
<path class="st14" d="M1620.05,1193.63c-0.19-3.69-3.33-6.52-7.02-6.33c-3.69,0.2-6.52,3.33-6.33,7.03
	c0.18,3.69,3.33,6.52,7.02,6.32C1617.4,1200.46,1620.25,1197.31,1620.05,1193.63z"/>
<path class="st28" d="M1620.8,1161.51c-0.23,14.63-2.87,28.19-7.11,28.38c-4.23,0.18-8.65-13.05-10.2-27.61l-1.47,0.06
	c0.9,17.76,6.03,31.87,11.57,31.62c5.54-0.25,9.37-14.76,8.68-32.53L1620.8,1161.51z"/>
<polygon class="st30" points="1561.17,1852.67 1533.66,1831.84 1532.47,1845.6 1561.56,1871.54 "/>
<rect x="163.29" y="978.01" class="st16" width="275.17" height="25.16"/>
<polygon class="st16" points="1940.12,984.31 1608.87,983.26 1607.82,1011.56 1940.12,1009.46 "/>
<polygon class="st34" points="1122.46,1023.62 979.37,1023.62 986.19,1084.95 1115.13,1086 "/>
<polygon class="st34" points="1407.27,1014.26 1298.06,1005.01 1292.63,1077.23 1402.28,1074.31 "/>
<polygon class="st35" points="1405.53,1009.84 1364.3,998.84 1355.16,1070.59 1397.76,1069.5 "/>
<polygon class="st34" points="809.55,1023.62 688.48,1023.62 697.91,1086 805.88,1083.89 "/>
<polygon class="st33" points="1090.75,1581.85 1006.11,1581.7 1008.65,1625.92 1087.87,1627.95 "/>
<polygon class="st33" points="1355.65,1573.44 1267.59,1574.23 1264.58,1622.85 1349.48,1623.63 "/>
<polygon class="st33" points="837.86,1580.25 756.01,1580.76 763.62,1627.71 839.43,1625.85 "/>
<polygon class="st15" points="1595.76,885.24 482.79,930.62 474.63,1075.51 1594.9,1054.56 "/>
<polygon class="st29" points="1583.97,904.44 489.87,937.03 489.41,1052.81 1586.03,1030.12 "/>
<polygon class="st36" points="1377.2,915.12 705.77,946.57 721.5,1040.91 1367.77,1020.47 "/>
<polygon class="st30" points="627.68,1636.35 607.24,1635.81 609.85,1822.93 653.88,1820.84 "/>
<polygon class="st33" points="1934.25,1057.69 1486.61,1079.17 1493.59,1115.37 1929.64,1120.56 "/>
<polygon class="st33" points="375.85,839.24 1041.31,689.3 1046.43,722.07 386.18,900.5 "/>
<polygon class="st18" points="1680.9,846.08 1035.68,708.56 1031.15,741.42 1671.67,907.52 "/>
<polygon class="st33" points="1676.26,835.1 1039.09,689.17 1024.97,725.64 1667.1,896.47 "/>
<polygon class="st17" points="2037.46,1695.68 1583.71,1730.69 2034.47,1842.85 "/>
<polygon class="st15" points="1937.77,1681.68 1956.64,1691.11 1580.04,1715.48 1539.15,1702.9 1521.47,1649.24 "/>
<polygon class="st37" points="1953.49,1593.62 1584.5,1625.32 1580.04,1690.32 1944.57,1687.15 "/>
<polygon class="st38" points="1951.07,1574.95 1584.5,1625.32 1922.04,1625.85 1944.57,1687.15 "/>
<polygon class="st39" points="1620.14,1625.07 1624.85,1689.54 1580.04,1690.32 1584.5,1625.32 "/>
<path class="st17" d="M1035.98,1135.26c2.64,155.54,14.26,361.66,28.34,361.66c14.07,0,21.98-274.29,21.98-361.26L1035.98,1135.26z"
	/>
<path class="st17" d="M747.08,1133.06c18.55,154.43,41.99,365.43,54.1,364.15c12.11-1.27-7.25-274.44-16.35-360.93L747.08,1133.06z"
	/>
<path class="st17" d="M1319.74,1139.01c-6.59,155.43-12.06,352.59,2.96,353.5c15.01,0.91,45.31-278.3,50.57-365.11L1319.74,1139.01z
	"/>
<polygon class="st40" points="482.88,1081.4 599.5,1083.94 602.78,1108.53 493.89,1105.38 "/>
<polygon class="st40" points="1486.08,1078.26 1594.19,1073.93 1589.47,1095.95 1492.77,1103.02 "/>
<polygon class="st29" points="1498.8,1636.34 647.85,1636.34 646.8,1659.66 1494.29,1661.5 "/>
<polygon class="st15" points="1477.05,1819.26 650.74,1805.89 648.38,1821.61 1475.48,1843.63 "/>
<polygon class="st17" points="539.09,1726.49 140.22,1701.33 551.15,1846 "/>
<g>
	<polygon class="st42" points="934.82,1183.47 863.54,1183.47 870.88,1321.85 942.16,1321.85 	"/>
	<path class="st42" d="M863.01,1180.07c11.79-19.65,51.1-45.6,73.12,0H863.01z"/>
</g>
<g>
	<polygon class="st42" points="1223.15,1180.48 1151.93,1177.38 1140.88,1317.25 1212.09,1320.35 	"/>
	<path class="st42" d="M1151.85,1173.93c14.4-19.31,57.12-43.76,73.05,3.18L1151.85,1173.93z"/>
</g>
<polygon class="st16" points="2015.6,1724.4 1599.43,1749.55 1599.43,1768.42 2015.6,1743.26 "/>
<path class="st29" d="M423.26,1344.39l-7.34-1.05l-22.28,87.53c6.88,30.05,9.24,63.21,5.5,106.93l63.68,1.58
	C445.54,1463.1,455.04,1411.65,423.26,1344.39z"/>
<path class="st29" d="M418.02,1347.54l-24.37,6.29c-0.66,28.24,2.61,44.79,6.29,72.33l30.66-19.66L418.02,1347.54z"/>
<path class="st29" d="M396,1353.3c-41.09,0-43.07,81.5-1.97,81.5c17.15,0,31.05-17.07,31.05-38.14
	C425.09,1375.61,413.16,1353.3,396,1353.3z M394.43,1429.82c-28.71,0-31.58-66.56,3.54-66.56c13.68,0,22.41,15.83,22.41,32.63
	C420.38,1412.69,408.11,1429.82,394.43,1429.82z"/>
<path class="st29" d="M443.84,1294.62c4.21,10.52,3.89,23.12-1.94,34.44c-6.48,12.56-18.18,20.51-30.59,22.27l-1.84,10.5
	c15.2,1.2,30.77-7.24,38.63-22.5C456.02,1323.99,453.78,1306.3,443.84,1294.62z"/>
<path class="st29" d="M464.14,1271.01c-14.68,0.52-39.84,28.84-7.86,37.22c31.98,8.38,27.78-17.31,23.06-20.97
	c0,0,3.77,30.78-25.68,13.11C435.32,1289.36,464.14,1271.01,464.14,1271.01z"/>
<path class="st29" d="M410.46,1316.31c-6.07-11.21-18.1-16.44-26.88-11.68c-8.78,4.76-3.75,16.75,2.32,27.96
	c6.06,11.19,11.47,14.65,20.25,9.89C414.93,1337.72,416.52,1327.5,410.46,1316.31z"/>
<path class="st29" d="M376.44,1323.99c0.5-6.08,13.11-0.5,14.87,2C393.08,1328.48,375.36,1337.22,376.44,1323.99z"/>
<path class="st29" d="M411.21,1311.07c6.1,0.2,1.13,13.06-1.27,14.95C407.53,1327.9,397.95,1310.63,411.21,1311.07z"/>
<path class="st29" d="M405.96,1330.76h-7.86c2.09,12.63,2.14,20.87-3.15,27.25l15.2-2.09C406.08,1348.49,405,1340.58,405.96,1330.76
	z"/>
<polygon class="st16" points="299.04,1588.11 309.09,1635.95 422.74,1617.99 426.7,1601.8 "/>
<g>
	<polygon class="st16" points="200.24,1086.51 204.96,1124.25 232.47,1121.89 222.25,1103.02 226.18,1086.51 	"/>
	<polygon class="st16" points="274.2,1084.94 274.38,1122.92 249.44,1123.48 256.39,1103.67 250.94,1087.68 	"/>
	<polygon class="st16" points="285.93,1087.77 290.3,1121.54 315.79,1119.43 306.32,1102.54 309.97,1087.77 	"/>
	<polygon class="st16" points="354.44,1086.37 355.51,1117.96 331.51,1120.84 337.95,1103.11 332.9,1088.81 	"/>
	<polygon class="st16" points="375.3,1084.43 380.29,1118.13 407.69,1116.24 398.38,1100.39 402.86,1086.2 	"/>
	<polygon class="st16" points="440.77,1084.61 438.89,1112.02 416.81,1114.38 424.11,1098.89 420.24,1085.55 	"/>
	<polygon class="st16" points="459.11,1084.64 463.68,1115.57 488.83,1113.83 480.29,1099.29 484.39,1086.27 	"/>
	<polygon class="st16" points="521.8,1086.65 520.08,1111.81 499.82,1113.97 506.52,1099.75 502.97,1087.52 	"/>
	<polygon class="st16" points="538.54,1088.15 541.98,1111.12 578.66,1110.83 566.35,1098.48 572.61,1086.82 	"/>
</g>
<g>
	<polygon class="st16" points="1915.95,1069.95 1912.91,1107.84 1883.6,1106.52 1893.46,1087.28 1888.43,1070.93 	"/>
	<polygon class="st16" points="1837.4,1071.17 1839.19,1109.13 1865.67,1108.75 1857.27,1089.21 1862.21,1073.02 	"/>
	<polygon class="st16" points="1825.1,1074.44 1822.22,1108.35 1795.06,1107.21 1804.23,1089.97 1799.6,1075.35 	"/>
	<polygon class="st16" points="1752.33,1075.62 1752.84,1107.24 1778.46,1109.21 1770.7,1091.73 1775.31,1077.26 	"/>
	<polygon class="st16" points="1730.11,1074.47 1726.57,1108.35 1697.4,1107.49 1706.44,1091.3 1700.95,1077.28 	"/>
	<polygon class="st16" points="1660.65,1077.12 1664.06,1104.46 1687.62,1105.97 1679.06,1090.76 1682.48,1077.29 	"/>
	<polygon class="st16" points="1641.2,1077.84 1637.95,1108.94 1611.18,1108.14 1619.48,1093.29 1614.45,1080.43 	"/>
	<polygon class="st16" points="1574.78,1082.22 1577.91,1107.3 1599.52,1108.68 1591.67,1094.74 1594.81,1082.38 	"/>
	<polygon class="st16" points="1557.1,1084.35 1554.65,1107.44 1515.71,1108.53 1528.14,1095.73 1520.89,1084.3 	"/>
</g>
<g>
	<path class="st43" d="M851.6,949.8c0.6,4.32,1.11,8.63,1.54,12.92c0.42,4.29,0.81,8.58,1.16,12.89c0.58,7.26,1.06,14.49,1.43,21.69
		c0.37,7.18,0.72,14.33,1.04,21.44c0.02,1.18-0.37,1.9-1.17,2.14c-0.79,0.23-2.01,0.39-3.63,0.45c-6.82,0.27-12,0.44-15.56,0.51
		c-3.55,0.07-6.12,0-7.71-0.22c-1.59-0.21-2.49-0.56-2.69-1.03c-0.2-0.48-0.34-1.1-0.4-1.85c-0.34-3.94-0.58-7.25-0.73-9.92
		c-0.15-2.67-0.25-5.26-0.31-7.76c-2.17,7.68-4.96,14.53-8.37,20.55c-0.27,0.56-0.64,0.9-1.11,1.02c-0.47,0.12-1.54,0.21-3.22,0.28
		c-1.52,0.06-2.5,0.03-2.95-0.09c-0.45-0.12-0.94-0.47-1.47-1.08c-2.74-2.98-5.3-6.09-7.66-9.31c-2.36-3.22-4.56-6.76-6.59-10.61
		c0.29,1.44,0.58,3.3,0.87,5.56c0.28,2.27,0.62,5.43,0.98,9.48c0.22,2.34,0.24,3.9,0.08,4.7c-0.17,0.8-0.45,1.24-0.83,1.32
		c-0.61,0.23-1.77,0.43-3.45,0.59c-1.69,0.17-4.5,0.33-8.44,0.49c-1.34,0.05-2.22-0.06-2.64-0.36c-0.42-0.28-0.68-0.81-0.74-1.57
		c-0.84-6.4-1.66-12.95-2.44-19.64c-0.79-6.71-1.51-13.48-2.15-20.32c-0.45-4.77-0.86-9.45-1.21-14.05
		c-0.36-4.59-0.59-9.2-0.7-13.83c-0.03-0.35,0.22-0.64,0.75-0.89c0.54-0.24,1.2-0.44,1.98-0.58c0.78-0.16,1.66-0.28,2.61-0.37
		c0.95-0.08,1.86-0.15,2.74-0.21c0.4-0.02,1.21-0.07,2.45-0.18c1.23-0.1,2.53-0.14,3.91-0.11c1.37,0.03,2.71,0.18,4.02,0.45
		c1.32,0.28,2.24,0.77,2.79,1.44c2.52,3.74,5.22,7.44,8.13,11.09c2.91,3.64,5.92,7.17,9.06,10.6c2.52-3.5,4.91-7.28,7.15-11.36
		c2.25-4.08,4.22-8.19,5.91-12.33c0.12-0.57,0.73-1.03,1.85-1.38c1.11-0.35,2.44-0.63,3.98-0.86c1.54-0.23,3.15-0.4,4.82-0.53
		c1.67-0.13,3.12-0.23,4.35-0.3c4.68-0.26,7.93-0.33,9.76-0.18C850.6,948.65,851.54,949.08,851.6,949.8z"/>
	<path class="st43" d="M929.62,946.2c0.2,0.43,0.32,0.94,0.36,1.52c0.16,2.46,0.28,5.63,0.37,9.51c0.09,3.87,0.17,7.91,0.24,12.1
		c0.07,4.18,0.15,8.27,0.24,12.3c0.1,4.02,0.25,7.41,0.43,10.2c0.27,4.07,0.08,7.81-0.59,11.21c-0.66,3.42-2.13,6.38-4.4,8.88
		c-2.28,2.51-5.49,4.51-9.62,6.01c-4.13,1.51-9.53,2.39-16.18,2.65c-11.68,0.46-20.22-1.46-25.66-5.71
		c-5.44-4.26-8.51-10.92-9.22-19.97c-0.29-3.66-0.61-7.51-0.97-11.57c-0.36-4.06-0.74-7.98-1.12-11.76c-0.38-3.79-0.71-7.25-1-10.38
		c-0.29-3.12-0.5-5.62-0.65-7.47c-0.1-1.2,0.02-2.1,0.35-2.65c0.33-0.56,1.07-0.94,2.22-1.15c3.45-0.69,6.43-1.16,8.96-1.4
		c2.53-0.26,5-0.45,7.42-0.59c2.01-0.11,4.1-0.22,6.27-0.35c2.18-0.12,4.87-0.23,8.06-0.34c2.19-0.05,3.7,0.06,4.53,0.35
		c0.82,0.27,1.3,1.32,1.43,3.11c0.56,7.83,1.01,15.87,1.35,24.1c0.34,8.21,0.78,16.16,1.34,23.89c0.09,1.2,0.44,2.29,1.05,3.25
		c0.61,0.97,1.84,1.41,3.68,1.33c1.26-0.06,2.2-0.35,2.84-0.87c0.63-0.52,1.07-1.19,1.3-2.03c0.24-0.82,0.36-1.7,0.39-2.62
		c0.02-0.93-0.01-1.82-0.07-2.66c-0.51-7.33-1.12-14.78-1.82-22.35c-0.71-7.59-1.35-15.52-1.93-23.8c-0.1-1.37,0.33-2.26,1.28-2.68
		c0.95-0.41,3.2-0.72,6.76-0.92c2.38-0.13,4.33-0.2,5.87-0.22c1.54-0.01,2.76,0.01,3.66,0.07c0.91,0.05,1.55,0.16,1.95,0.33
		C929.14,945.71,929.44,945.93,929.62,946.2z"/>
	<path class="st43" d="M987.8,939.77c0.75,2.31,1.43,4.75,2.06,7.3c0.63,2.54,1.21,5.07,1.75,7.57c0.54,2.51,0.97,4.87,1.32,7.09
		c0.35,2.22,0.57,4.09,0.65,5.63c0.03,0.58-0.48,0.9-1.53,0.95c-0.35,0.02-0.72,0-1.12-0.05c-0.4-0.04-0.95-0.06-1.64-0.03
		c-3.66,0.18-6.17,0.91-7.53,2.19c-1.37,1.26-2,2.77-1.89,4.51c0.05,0.8,0.22,1.57,0.53,2.32c0.31,0.75,0.96,1.61,1.98,2.57
		c2.67,2.57,4.82,5.13,6.45,7.71c1.63,2.56,2.53,5.27,2.68,8.08c0.21,3.75-0.52,7-2.19,9.74c-1.66,2.73-4.05,5.02-7.14,6.87
		c-3.09,1.84-6.82,3.24-11.19,4.2c-4.36,0.96-9.1,1.54-14.22,1.74c-1.53,0.06-2.65,0.03-3.34-0.08c-0.69-0.12-1.19-0.56-1.49-1.33
		c-0.51-1.27-0.96-2.7-1.36-4.33c-0.41-1.62-0.66-3.29-0.77-5.01c-0.04-0.56,0.5-0.85,1.61-0.86c1.11-0.02,2.43-0.12,3.95-0.32
		c3.14-0.43,5.61-1.13,7.39-2.14c1.78-1.01,2.63-2.37,2.52-4.09c-0.1-1.65-0.86-3.15-2.27-4.49c-1.42-1.34-3.78-2.98-7.08-4.91
		c-5.35-3.22-9.43-6.68-12.23-10.41c-2.81-3.72-4.37-8.07-4.7-13.04c-0.24-3.6,0.31-7.03,1.64-10.25c1.34-3.24,3.62-6.13,6.87-8.67
		c3.25-2.56,7.59-4.67,13.04-6.33c5.47-1.66,12.21-2.73,20.23-3.18c2.01-0.1,3.64-0.11,4.87,0
		C986.87,938.84,987.59,939.19,987.8,939.77z"/>
	<path class="st43" d="M1066.31,938.39c0.18,4.11,0.22,8.11,0.11,12.02c-0.11,3.88-0.29,7.37-0.57,10.44
		c-0.27,3.06-0.64,5.53-1.1,7.41c-0.46,1.87-0.91,2.82-1.36,2.84c-0.9,0.04-3.02,0.03-6.36-0.02c-3.33-0.06-8.53,0.08-15.58,0.42
		c-0.14,0.82-0.19,1.61-0.16,2.38c0.04,0.77,0.07,1.57,0.11,2.38l0.15,3.19c1.78-0.09,3.59-0.21,5.41-0.37
		c1.83-0.15,3.61-0.33,5.35-0.52c1.74-0.19,3.35-0.37,4.83-0.55c1.47-0.19,2.75-0.3,3.83-0.34c1.53-0.07,2.57,0.01,3.12,0.23
		c0.55,0.24,0.84,0.61,0.86,1.13c-0.28,1.72-0.65,3.31-1.07,4.81c-0.43,1.51-0.96,3.11-1.61,4.84c-0.42,0.82-4.48,1.41-12.16,1.74
		c-1.25,0.06-2.56,0.12-3.94,0.18c-1.38,0.06-2.83,0.09-4.34,0.08c-0.13,1.04-0.21,2.34-0.21,3.92c-0.02,1.57,0.01,3.09,0.08,4.54
		c3.29,0.07,6.72,0.04,10.29-0.11c1.87-0.08,3.77-0.21,5.69-0.4c1.92-0.2,3.81-0.33,5.7-0.4c0.71-0.04,1.1,0.46,1.14,1.48
		c0.11,2.57,0.16,4.77,0.15,6.6c-0.01,1.83-0.11,3.69-0.29,5.6c-0.08,0.3-0.51,0.59-1.3,0.88c-0.8,0.28-2.24,0.58-4.32,0.87
		c-2.09,0.31-4.9,0.59-8.45,0.83c-3.55,0.25-8.11,0.48-13.67,0.69c-5.03,0.19-9.14,0.34-12.35,0.44c-3.2,0.09-5.73,0.08-7.58-0.03
		c-1.84-0.11-3.15-0.36-3.92-0.77c-0.76-0.4-1.21-1-1.34-1.79c-0.67-2.72-1.36-6.17-2.07-10.38c-0.71-4.22-1.4-8.71-2.1-13.47
		c-0.7-4.78-1.33-9.63-1.9-14.58c-0.58-4.96-1.11-9.49-1.6-13.62c-0.49-4.13-0.88-7.64-1.17-10.53c-0.29-2.9-0.45-4.69-0.49-5.35
		c-0.03-0.66,0.55-1.27,1.76-1.81c1.21-0.55,3.41-1.08,6.62-1.6c3.22-0.51,7.63-1.01,13.27-1.52c5.65-0.5,12.95-1,21.92-1.5
		l19.5-1.09C1065.91,937.51,1066.29,937.79,1066.31,938.39z"/>
	<path class="st43" d="M1150.11,933.96c0.2,0.45,0.32,0.97,0.33,1.58c0.07,2.6,0.07,5.93-0.01,10.01
		c-0.06,4.08-0.16,8.32-0.26,12.72c-0.11,4.4-0.2,8.7-0.26,12.94c-0.06,4.23-0.06,7.8,0.02,10.73c0.13,4.26-0.25,8.2-1.13,11.78
		c-0.88,3.6-2.62,6.71-5.23,9.35c-2.61,2.63-6.22,4.75-10.83,6.33c-4.61,1.6-10.57,2.53-17.88,2.82
		c-12.85,0.51-22.14-1.49-27.93-5.95c-5.78-4.48-8.88-11.45-9.27-20.95c-0.16-3.85-0.35-7.89-0.57-12.15
		c-0.22-4.26-0.46-8.38-0.71-12.35c-0.25-3.99-0.48-7.62-0.66-10.9c-0.18-3.28-0.31-5.91-0.39-7.86c-0.06-1.27,0.11-2.2,0.5-2.78
		c0.39-0.58,1.21-0.99,2.49-1.21c3.81-0.74,7.11-1.24,9.89-1.51c2.79-0.27,5.51-0.48,8.18-0.63c2.21-0.12,4.51-0.26,6.91-0.39
		c2.4-0.14,5.35-0.26,8.87-0.38c2.41-0.05,4.05,0.05,4.95,0.35c0.89,0.29,1.37,1.39,1.44,3.28c0.28,8.23,0.42,16.68,0.44,25.34
		c0.02,8.62,0.16,16.99,0.44,25.11c0.04,1.27,0.39,2.39,1.02,3.42c0.62,1.02,1.96,1.48,3.98,1.39c1.39-0.06,2.43-0.36,3.16-0.92
		c0.72-0.55,1.23-1.27,1.52-2.14c0.3-0.87,0.47-1.79,0.54-2.76c0.06-0.97,0.08-1.91,0.04-2.8c-0.25-7.7-0.59-15.52-1.03-23.47
		c-0.44-7.98-0.8-16.32-1.08-25.03c-0.06-1.44,0.45-2.39,1.51-2.83c1.06-0.43,3.54-0.77,7.47-0.98c2.62-0.16,4.78-0.23,6.47-0.25
		c1.69-0.02,3.03,0,4.02,0.06c0.99,0.05,1.7,0.17,2.13,0.34C1149.6,933.44,1149.92,933.66,1150.11,933.96z"/>
	<path class="st43" d="M1256.57,927.22c0.35,4.75,0.59,9.47,0.73,14.18c0.14,4.69,0.25,9.4,0.29,14.13
		c0.09,7.96,0.03,15.89-0.13,23.78c-0.17,7.87-0.35,15.69-0.57,23.48c-0.09,1.29-0.61,2.07-1.58,2.34
		c-0.97,0.27-2.42,0.44-4.35,0.51c-8.12,0.32-14.28,0.53-18.52,0.62c-4.22,0.1-7.27,0.03-9.14-0.2c-1.87-0.23-2.9-0.6-3.11-1.13
		c-0.2-0.52-0.3-1.2-0.32-2.03c-0.07-4.31-0.08-7.93-0.04-10.85c0.05-2.92,0.14-5.76,0.29-8.5c-3.21,8.42-7.1,15.93-11.65,22.53
		c-0.37,0.61-0.85,0.99-1.41,1.12c-0.57,0.13-1.85,0.24-3.84,0.32c-1.81,0.07-2.96,0.05-3.49-0.09c-0.53-0.13-1.08-0.52-1.66-1.17
		c-3.01-3.26-5.78-6.65-8.31-10.15c-2.54-3.52-4.85-7.37-6.93-11.59c0.23,1.57,0.41,3.61,0.57,6.09c0.15,2.48,0.27,5.94,0.37,10.37
		c0.06,2.56-0.04,4.25-0.3,5.13c-0.25,0.87-0.63,1.35-1.09,1.45c-0.76,0.25-2.14,0.47-4.15,0.67c-2.02,0.19-5.36,0.38-10.05,0.56
		c-1.58,0.07-2.62-0.05-3.09-0.38c-0.47-0.31-0.73-0.88-0.75-1.7c-0.46-7.01-0.88-14.16-1.26-21.47
		c-0.39-7.32-0.68-14.73-0.88-22.22c-0.13-5.23-0.23-10.36-0.27-15.38c-0.04-5.03,0.06-10.09,0.32-15.15
		c-0.01-0.38,0.3-0.71,0.96-0.97c0.65-0.27,1.46-0.49,2.41-0.65c0.94-0.17,1.98-0.31,3.12-0.41c1.13-0.1,2.22-0.19,3.27-0.24
		c0.48-0.02,1.45-0.1,2.92-0.22c1.47-0.12,3.01-0.17,4.64-0.15c1.62,0.03,3.2,0.19,4.73,0.49c1.54,0.3,2.6,0.82,3.19,1.55
		c2.67,4.08,5.58,8.13,8.73,12.11c3.14,3.98,6.43,7.83,9.86,11.58c3.3-3.85,6.45-8.01,9.45-12.49c3.01-4.48,5.7-9,8.05-13.56
		c0.18-0.63,0.96-1.14,2.31-1.53c1.35-0.38,2.95-0.7,4.8-0.97c1.85-0.26,3.77-0.46,5.77-0.61c2-0.15,3.74-0.27,5.21-0.35
		c5.58-0.31,9.46-0.4,11.62-0.24C1255.48,925.97,1256.57,926.44,1256.57,927.22z"/>
</g>
<path class="st16" d="M519.83,684.6c-29.26,19.52-24.62,113,19.68,108.79C583.03,789.25,550.92,663.88,519.83,684.6z"/>
<path class="st16" d="M1540.34,686.17c-29.26,19.51-24.62,113,19.68,108.79C1603.54,790.82,1571.42,665.45,1540.34,686.17z"/>
<g>
	<path class="st16" d="M1006.59,815.26c-5.51-2.02-10.85-6.86-20.09,2.4c4.1,27.53,6.91,43.6-7.41,67.21l35.97-1.6
		C1005.94,864.33,1003.2,841.62,1006.59,815.26z"/>
	<path class="st16" d="M1071.79,814.49c-5.52-2.03-10.85-6.87-20.1,2.4c4.1,27.52,6.91,43.6-7.41,67.2l35.96-1.6
		C1071.12,863.56,1068.39,840.84,1071.79,814.49z"/>
	<path class="st16" d="M1136.97,813.35c-5.52-2.03-10.85-6.86-20.09,2.4c4.1,27.54,6.91,43.6-7.41,67.21l35.97-1.6
		C1136.31,862.42,1133.58,839.7,1136.97,813.35z"/>
	<path class="st16" d="M1174.65,881.98l35.98-1.6c-8.21-17.04-11.21-37.15-9.25-60.19l-19.22-4.82
		C1186.2,842.52,1188.86,858.55,1174.65,881.98z"/>
	<path class="st16" d="M1239.85,880.96l35.96-1.6c-6.09-12.63-9.26-26.98-9.74-42.93l-16.25-4.08
		C1251.69,849.69,1250.62,863.19,1239.85,880.96z"/>
	<path class="st16" d="M848.72,886.68l35.97-1.6c-9.13-18.93-11.86-41.65-8.46-68c-0.72-0.26-1.43-0.58-2.15-0.9l-17.67,5.15
		C860.35,847.72,862.71,863.63,848.72,886.68z"/>
	<path class="st16" d="M783.54,888.02l35.97-1.6c-7.15-14.86-10.32-32.06-9.75-51.48l-16.22,4.74
		C795.38,856.89,794.26,870.35,783.54,888.02z"/>
	<path class="st16" d="M754.32,887.31c-4.86-10.1-7.86-21.3-9.13-33.53l-16.38,4.78c-0.8,9.77-3.71,19.22-10.46,30.34L754.32,887.31
		z"/>
	<path class="st16" d="M941.42,816.18c-5.52-2.03-10.85-6.86-20.1,2.4c4.1,27.53,6.91,43.6-7.41,67.2l35.97-1.6
		C940.75,865.25,938.02,842.54,941.42,816.18z"/>
</g>
<path class="st16" d="M1042.79,800.33c0-6.36-5.87-11.53-13.1-11.53c-7.24,0-13.1,5.17-13.1,11.53c0,6.37,5.87,11.53,13.1,11.53
	C1036.93,811.87,1042.79,806.7,1042.79,800.33z"/>
<polygon class="st19" points="1177.5,1262.62 1153.91,1262.62 1149.19,1307.44 1172.78,1307.44 "/>
<polygon class="st19" points="1208.42,1264.19 1184.84,1264.19 1180.12,1309.01 1203.7,1309.01 "/>
<polygon class="st19" points="1184.31,1188.72 1160.73,1188.72 1154.49,1253.54 1178.07,1253.54 "/>
<polygon class="st19" points="1215.18,1190.99 1191.59,1190.99 1185.36,1255.81 1208.95,1255.81 "/>
<polygon class="st19" points="900.7,1267.69 877.11,1267.69 879.03,1316.22 902.62,1316.22 "/>
<polygon class="st19" points="931.86,1269.4 908.27,1269.4 910.19,1317.92 933.77,1317.92 "/>
<polygon class="st19" points="896.56,1187.67 872.97,1187.67 876.34,1257.86 899.93,1257.86 "/>
<polygon class="st19" points="927.77,1190.13 904.18,1190.13 907.55,1260.32 931.14,1260.32 "/>
<polygon class="st21" points="952.84,1426.96 942.02,1427.24 948.79,1606.83 960.27,1606.81 "/>
<polygon class="st21" points="1127.34,1424.57 1116.02,1424.85 1122.54,1610.89 1134.55,1610.87 "/>
<polygon class="st14" points="1075.29,1925.66 991.43,1917.28 978.85,1980.18 1096.26,1980.18 "/>
<polygon class="st14" points="1494.32,1906.99 1410.25,1913.02 1408.57,1977.13 1524.26,1957.13 "/>
<polygon class="st14" points="1892.95,1890.02 1833.76,1887.86 1832.09,1951.97 1947.76,1931.98 "/>
<polygon class="st14" points="655.67,1921.91 601.47,1913.08 533.02,1957.95 649.51,1972.56 "/>
<polygon class="st14" points="286.67,1890.46 232.47,1881.63 164.03,1926.5 280.52,1941.12 "/>
<polygon class="st15" points="555.49,1690.97 535.95,1704.47 131.05,1693.99 300.09,1654.16 "/>
<polygon class="st37" points="557.01,1619.09 191.4,1626.62 186.87,1682.64 555.92,1697.99 "/>
<polygon class="st38" points="559.54,1616.41 191.4,1626.62 528.75,1644.47 555.92,1697.99 "/>
<polygon class="st39" points="227.5,1628.26 232.94,1684.21 186.87,1682.64 191.4,1626.62 "/>
<polygon class="st45" points="1408.47,1058.11 1502.72,1056.54 1501.23,1075.39 1487.01,1076.17 1494.34,1113.06 1499.73,1116.24 
	1466.81,1615.86 1393.51,1614.28 1430.16,1100.53 1393.51,1098.17 "/>
<polygon class="st45" points="1106.4,1107.6 1107.17,1084.82 1115.45,1084.3 1118.02,1060.46 1292.37,1057.32 1290.39,1075.54 
	1298.57,1074.6 1275.06,1571.35 1265.77,1572.91 1263.18,1617.43 1243.03,1616.38 1266.29,1104.97 "/>
<polygon class="st45" points="1016.45,1580.14 1006.12,1582.5 1009.3,1619.16 988.65,1617.07 967.2,1112.12 800.38,1118.23 
	797.2,1085.23 803.82,1083.41 805.15,1068.74 982.29,1064.03 986,1084.46 994.21,1083.66 "/>
<polygon class="st45" points="738.27,1618.21 762.1,1617.43 756.45,1578.65 766.07,1578.15 708.08,1084.03 697.75,1084.3 
	694.58,1070.67 607.2,1070.67 660.68,1120.95 685.84,1120.95 "/>
<linearGradient id="SVGID_2_" gradientUnits="userSpaceOnUse" x1="1653.8418" y1="436.9601" x2="183.3145" y2="2701.988">
	<stop  offset="0" style="stop-color:#FDCF7B"/>
	<stop  offset="1" style="stop-color:#480C23"/>
</linearGradient>
<path class="st46" d="M1920.68,1502.43l-24.97-407.2l34.34,11.14l2.19-21.73l-202.4-82.71l7.69-101.13l17.19-0.1l3.86,0.12
	l0.01-0.14l0.51,0l1.58-26.06l-1.04-0.09l2.27-56.82l-18.12,0.79l2.92-38.43l13.78-0.1v-25.16l-280.44-0.98l7.99-84.21l29.34,8.4
	l8.36-61.44l-5.51-1.3l1.31-9.69l-61.93-15.66l2.08-19.24l-37.66-8.13c27.27-19.32,0.44-125.05-25.59-105.9
	c-20.82,15.33-22.68,76.32-3.05,99.71l-49.1-10.6l1.22,15.81l-400.93-101.4l-0.05-0.38l-0.74,0.18l-1.27-0.32l-0.25,0.7l-394,98.02
	l-0.5-13.73l-42.97,7.47c14.61-31.57-9.28-114.15-32.53-97.04c-21.79,16.05-22.8,82.11-0.15,102.72l-29.48,5.13l3.94,20.74
	l-104.71,26.05l1.48,9.68l-5.75,1.33l9.42,61.34l38.43-10.79l6.9,77.23H151.37v25.16h20.99l8.97,61.33l-19.59,0.08l5.56,63.1
	l-1.69,0.24l1.99,18.75l1.37-0.04l0.07,0.75l11.29-1.1l12.91-0.4l29.21,199.67l-150.75,58.49l-7.17,1.87l-0.05,0.93l-34.95,13.56
	l2.19,24.15l31.13-5.94l-15.07,293.32H0v94.18v7.3v105v166.01v80.32h1968.33v-239.08v-112.24v-101.48H1920.68z"/>
</svg>
