<?xml version="1.0" encoding="utf-8"?>
<!-- Generator: Adobe Illustrator 24.3.0, SVG Export Plug-In . SVG Version: 6.00 Build 0)  -->
<svg version="1.1" id="Capa_1" xmlns="http://www.w3.org/2000/svg" xmlns:xlink="http://www.w3.org/1999/xlink" x="0px" y="0px"
	 viewBox="0 0 2052 2194" style="enable-background:new 0 0 2052 2194;" xml:space="preserve">
<style type="text/css">
	.st0{fill:#FFFFFF;}
	.st1{fill:url(#SVGID_1_);}
	.st2{opacity:0.3;fill:url(#SVGID_2_);}
	.st3{opacity:0.3;fill:url(#SVGID_3_);}
	.st4{opacity:0.3;fill:url(#SVGID_4_);}
	.st5{opacity:0.7;fill:url(#desert3_1_);}
	.st6{fill:#5B2D46;}
	.st7{fill:url(#SVGID_5_);}
	.st8{fill:url(#SVGID_6_);}
	.st9{fill:url(#sun_1_);}
	.st10{fill:url(#SVGID_7_);}
	.st11{fill:url(#SVGID_8_);}
	.st12{fill:url(#SVGID_9_);}
	.st13{fill:url(#SVGID_10_);}
	.st14{fill:url(#SVGID_11_);}
	.st15{fill:#AB5157;}
	.st16{fill:url(#SVGID_12_);}
	.st17{fill:#F3AF79;}
	.st18{opacity:0.3;fill:#F3AE78;}
	.st19{opacity:0.2;fill:#A24953;}
	.st20{fill:url(#SVGID_13_);}
	.st21{fill:url(#SVGID_14_);}
	.st22{fill:url(#SVGID_15_);}
	.st23{fill:url(#SVGID_16_);}
	.st24{fill:url(#SVGID_17_);}
	.st25{fill:url(#SVGID_18_);}
	.st26{fill:url(#SVGID_19_);}
	.st27{fill:#A24953;}
	.st28{fill:url(#SVGID_20_);}
	.st29{fill:#F3AE78;}
	.st30{opacity:0.3;fill:#A24953;}
	.st31{fill:url(#SVGID_21_);}
	.st32{fill:url(#SVGID_22_);}
	.st33{fill:url(#SVGID_23_);}
	.st34{fill:url(#SVGID_24_);}
	.st35{fill:url(#SVGID_25_);}
	.st36{fill:url(#SVGID_26_);}
	.st37{fill:url(#SVGID_27_);}
	.st38{fill:url(#SVGID_28_);}
	.st39{fill:url(#SVGID_29_);}
	.st40{fill:url(#SVGID_30_);}
	.st41{fill:url(#SVGID_31_);}
	.st42{fill:url(#SVGID_32_);}
	.st43{fill:url(#SVGID_33_);}
	.st44{fill:url(#SVGID_34_);}
	.st45{opacity:0.54;fill:url(#SVGID_35_);}
	.st46{opacity:0.54;fill:url(#SVGID_36_);}
	.st47{fill:url(#SVGID_37_);}
	.st48{fill:none;stroke:#7DCBE0;stroke-miterlimit:10;}
	.st49{fill:#7B3941;}
	.st50{fill:url(#SVGID_38_);}
	.st51{fill:url(#SVGID_39_);}
	.st52{fill:url(#SVGID_40_);}
	.st53{fill:url(#SVGID_41_);}
	.st54{fill:url(#SVGID_42_);}
	.st55{fill:url(#SVGID_43_);}
	.st56{fill:url(#SVGID_44_);}
	.st57{fill:url(#SVGID_45_);}
	.st58{fill:url(#SVGID_46_);}
	.st59{fill:url(#SVGID_47_);}
	.st60{fill:url(#SVGID_48_);}
	.st61{fill:url(#SVGID_49_);}
	.st62{fill:url(#SVGID_50_);}
	.st63{fill:url(#SVGID_51_);}
	.st64{opacity:0.3;}
	.st65{fill:url(#SVGID_52_);}
	.st66{fill:url(#SVGID_53_);}
	.st67{fill:url(#SVGID_54_);}
	.st68{fill:url(#SVGID_55_);}
	.st69{fill:url(#SVGID_56_);}
	.st70{fill:url(#SVGID_57_);}
	.st71{fill:url(#SVGID_58_);}
	.st72{fill:url(#SVGID_59_);}
	.st73{fill:url(#SVGID_60_);}
	.st74{fill:url(#SVGID_61_);}
</style>
<rect x="-63.78" y="-24.63" class="st0" width="2247.48" height="2247.48"/>
<linearGradient id="SVGID_1_" gradientUnits="userSpaceOnUse" x1="1059.4225" y1="1180.4209" x2="1059.4225" y2="31.8684">
	<stop  offset="5.235600e-03" style="stop-color:#FAF4EE"/>
	<stop  offset="0.2408" style="stop-color:#FCE495"/>
	<stop  offset="0.7749" style="stop-color:#CA7D7B"/>
	<stop  offset="1" style="stop-color:#815876"/>
</linearGradient>
<rect x="-64.32" y="-24.63" class="st1" width="2247.48" height="2247.48"/>
<g id="cloud">
	<linearGradient id="SVGID_2_" gradientUnits="userSpaceOnUse" x1="503.143" y1="555.0784" x2="309.8601" y2="914.6749">
		<stop  offset="5.235600e-03" style="stop-color:#FFFFFF"/>
		<stop  offset="0.1242" style="stop-color:#FFFFFF;stop-opacity:0.8791"/>
		<stop  offset="0.9895" style="stop-color:#FFFFFF;stop-opacity:0"/>
	</linearGradient>
	<path class="st2" d="M991.41,1003.82c0,40.18-12.63,77.4-34.07,107.92c-3.37,4.81-6.97,9.39-10.79,13.84
		c-8.09,9.48-17.08,18.11-26.88,25.85h-0.04c-2.34,1.89-4.72,3.64-7.15,5.39h-0.04c-5.71,4.05-11.6,7.78-17.76,11.19
		c-8,4.49-16.41,8.36-25.13,11.64c1.8,16.99,3.37,33.89,4.49,49.67v0.05c0.18,2.34,0.36,4.67,0.49,6.97
		c0.45,6.38,0.76,12.54,0.99,18.38v0.04c0.04,0.22,0.04,0.4,0.04,0.63c0.27,6.97,0.45,13.48,0.4,19.42
		c-0.09,21.4-2.29,35.47-7.82,36.14c-3.82,0.45-18.47,5.62-40.41,14.02c-8.63,3.33-18.38,7.1-29.04,11.33
		c-12.59,4.94-26.48,10.47-41.31,16.45c-4.67,1.89-9.44,3.82-14.34,5.75c-4.09,1.66-8.27,3.37-12.54,5.08
		c-10.11,4.09-20.59,8.36-31.24,12.72c-9.84,4-19.91,8.09-30.07,12.27c-15.69,6.43-31.64,12.95-47.6,19.51
		c-3.24,1.35-6.43,2.7-9.66,4c-0.04,0-0.04,0.04-0.09,0.04c-2.65,1.08-5.35,2.2-8,3.28c-6.92,2.88-13.8,5.71-20.68,8.54
		c-9.39,3.87-18.74,7.73-27.91,11.55c-98.17,40.63-181.33,75.52-181.33,75.52s-77.27-22.29-184.47-53.53
		c-11.64-3.37-23.64-6.88-35.92-10.43c-7.96-2.38-16.05-4.72-24.23-7.1c-60.91-17.8-127.75-37.4-193.64-56.82V172.16
		c18.88-3.82,38.43-5.84,58.43-5.84c161.55,0,292.53,130.98,292.53,292.53c0,19.1-1.89,37.71-5.35,55.74
		c16.59-4.67,34.07-7.24,52.19-7.24c105.9,0,191.71,85.85,191.71,191.71c0,7.28-0.45,14.43-1.21,21.49
		c8.81-3.37,18.34-5.26,28.32-5.26c22.43,0,42.61,9.3,57.09,24.18c24.9-17.22,55.15-27.33,87.74-27.33
		c64.14,0,119.12,39.02,142.49,94.62c1.93,4.49,3.6,9.08,5.08,13.8c3.6,0.81,7.15,1.71,10.65,2.74h0.04
		c6.97,1.98,13.71,4.36,20.32,7.1h0.04c25.13,10.47,47.51,26.21,65.67,45.89C972.49,909.78,991.41,954.55,991.41,1003.82z"/>
	<linearGradient id="SVGID_3_" gradientUnits="userSpaceOnUse" x1="1701.9637" y1="621.5543" x2="2322.2664" y2="1646.4011">
		<stop  offset="5.235600e-03" style="stop-color:#FFFFFF"/>
		<stop  offset="0.1242" style="stop-color:#FFFFFF;stop-opacity:0.8791"/>
		<stop  offset="0.9895" style="stop-color:#FFFFFF;stop-opacity:0"/>
	</linearGradient>
	<path class="st3" d="M2181.63,597.52v813.5c-37.94-6.02-222.46-35.29-342.52-56.91c-2.47-0.45-4.94-0.9-7.37-1.35
		c-2.16-0.4-4.31-0.76-6.47-1.17c-24.59-4.49-45.8-8.59-61.63-11.96c-16.05-3.42-26.52-6.11-29.26-7.78
		c-4.23-2.52-13.8-7.24-26.25-13.31c-14.29-7.01-32.32-15.87-50.25-25.31c-21.44-11.28-42.7-23.42-57.36-34.3
		c-12.54-9.39-20.23-17.85-18.79-24.05c0.13-0.54,0.31-1.03,0.58-1.53c3.42-6.65,14.79-20.14,31.15-38.25
		c5.21-5.75,10.92-12,17.04-18.61c0.13-0.18,0.31-0.31,0.45-0.49c-7.42-4.81-14.38-10.34-20.77-16.41
		c-27.33-25.98-44.36-62.66-44.36-103.34c0-47.42,23.19-89.45,58.84-115.39c15.24-11.15,32.81-19.28,51.83-23.64h0.05
		c10.25-2.34,20.9-3.6,31.91-3.6c17.08,0,33.49,3.01,48.64,8.5c-1.12-5.57-1.71-11.33-1.71-17.22c0-27.82,13.26-52.5,33.71-68.28
		c-30.57-38.3-48.91-86.84-48.91-139.7c0-123.84,100.37-224.21,224.21-224.21c90.21,0,167.93,53.31,203.49,130.08
		C2172.33,600.8,2176.91,599,2181.63,597.52z"/>
	<linearGradient id="SVGID_4_" gradientUnits="userSpaceOnUse" x1="547.8804" y1="813.8813" x2="287.1726" y2="1528.5781">
		<stop  offset="5.235600e-03" style="stop-color:#FFFFFF"/>
		<stop  offset="0.1242" style="stop-color:#FFFFFF;stop-opacity:0.8791"/>
		<stop  offset="0.9895" style="stop-color:#FFFFFF;stop-opacity:0"/>
	</linearGradient>
	<path class="st4" d="M1007.96,1398.65l-1.66,6.47l-1.84,6.97v0.04l-3.06,11.82l-29.85,114.76l-425.67-3.28l-255.85-1.98
		l-210.23-1.62l-144.11-1.08V605.88c166.63,0,307.23,111.03,352.09,263.09c15.78-28.9,46.43-48.5,81.67-48.5
		c51.33,0,92.96,41.62,92.96,93c0,1.8-0.13,3.55-0.27,5.3c20.32-12.18,44.1-19.19,69.49-19.19c49.4,0,92.6,26.48,116.19,65.99
		c4.14,6.88,7.69,14.16,10.52,21.76c0,0,0,0,0,0.04c6.56-5.48,13.57-10.47,20.99-14.83c0,0,0,0,0-0.04
		c24.27-14.52,52.64-22.88,82.98-22.88c17.26,0,33.94,2.7,49.53,7.73c13.84,4.41,26.88,10.65,38.79,18.43
		c2.11,1.35,4.14,2.74,6.16,4.18c21.94,15.78,39.78,36.86,51.65,61.36c10.29,21.31,16.09,45.26,16.09,70.53c0,1.53,0,3.01-0.09,4.54
		c-0.31,12.05-1.93,23.78-4.76,35.06h-0.04c-2.88,11.55-7.01,22.61-12.27,33.04c-7.24,14.47-16.63,27.69-27.69,39.24
		c-1.8,1.93-3.69,3.82-5.62,5.62v0.05c-4,3.78-8.23,7.42-12.59,10.79c2.43,2.65,4.9,5.3,7.33,7.96c2.16,2.34,4.31,4.63,6.52,6.97
		v0.04l0.27,0.27c5.98,6.47,11.96,12.9,17.89,19.28c15.6,16.86,30.79,33.13,44.68,48.1c9.21,9.89,17.84,19.19,25.71,27.64l0.31,0.31
		c0.63,0.72,1.26,1.35,1.89,2.02C989.71,1378.25,1005.84,1395.73,1007.96,1398.65z"/>
</g>
<linearGradient id="desert3_1_" gradientUnits="userSpaceOnUse" x1="1059.4225" y1="1147.3502" x2="1059.4225" y2="1305.4475">
	<stop  offset="0" style="stop-color:#F29067"/>
	<stop  offset="1" style="stop-color:#EFC286"/>
</linearGradient>
<path id="desert3" class="st5" d="M2183.16,1204.29v258.55l-191.53-9.39l-64.19-3.15h-0.13l-181.06-8.9l-92.69-4.54l-53.67-2.65
	l-44.54-2.16l-4.54-0.22l-126.26-6.2l-62.39-3.06c0-0.04-0.04,0-0.04,0l-25.35-1.26l-89.85-4.41l-234.37-11.46l-6.25-0.31
	l-85.13-4.18l-251.94-12.36l-59.29-2.92h-0.04l-42.75-2.07c-0.04-0.04-0.04,0-0.04,0l-45.13-2.25l-16.09-0.76c-0.04,0-0.04,0-0.09,0
	l-22.25-1.12h-0.04l-12.32-0.58l-82.98-4.09l-218.45-10.7l-10.16-0.49l-10.02-0.49l-22.52-1.08l-9.53-0.49l-181.82-8.9v-204.16
	c32.36,3.78,84.82,14.07,154.31,47.15c20,9.53,48.28,18.16,81.45,25.89c4.58,1.03,9.26,2.07,14.02,3.15
	c20.9,4.5,43.42,8.72,66.84,12.63c106.26,17.71,230.59,28.95,302.6,34.52c5.08,0.4,9.84,0.76,14.34,1.08
	c28.45,2.11,45.71,3.15,45.71,3.15s23.69-0.05,64.68-0.18h0.04c11.37-0.09,24.09-0.13,38.03-0.18c11.33-0.09,23.51-0.13,36.41-0.18
	c29.04-0.13,61.76-0.31,97.32-0.54h0.04c8-0.05,16.18-0.09,24.5-0.13c5.75-0.05,11.55-0.05,17.49-0.13
	c60.95-0.31,128.51-0.81,199.08-1.35c6.43-0.09,12.86-0.13,19.33-0.18c19.91-0.18,40.1-0.36,60.41-0.54
	c20.14-0.18,40.41-0.4,60.77-0.58c12.18-0.13,24.36-0.27,36.54-0.4c40.41-0.45,80.82-0.9,120.64-1.44
	c44.59-0.58,88.42-1.21,130.62-1.93c27.69-0.45,54.66-0.94,80.68-1.44c22.52-0.45,44.36-0.9,65.31-1.39c0.67,0,1.35-0.04,2.02-0.04
	c24.54-0.58,47.87-1.17,69.76-1.8c50.21-1.44,92.82-3.06,124.74-4.85c26.88-1.48,46.21-3.1,56.05-4.85c4.76-0.85,9.66-1.8,14.7-2.79
	c18.02-3.55,37.62-7.91,58.3-12.54c5.3-1.21,10.74-2.43,16.18-3.64c0.54-0.13,1.03-0.22,1.57-0.36l0.67-0.13
	c3.15-0.72,6.34-1.44,9.53-2.11c14.79-3.33,29.98-6.65,45.35-9.8c0.72-0.18,1.44-0.31,2.11-0.45c34.3-7.01,69.49-13.26,103.43-16.68
	C2175.29,1204.92,2179.25,1204.56,2183.16,1204.29z"/>
<g id="coconut">
	<g>
		<path class="st6" d="M150.28,1106.17c0,0,18.34-5.39,22.47-14.11c0,0-6.38-16.36-6.74-17.84c0.94,1.44,13.13,12.23,13.13,12.23
			s7.1-5.89,12.45-16.14l-9.48-8.32l10.92,5.3c3.1-6.88,5.17-15.37,4.09-25.17C197.12,1042.12,149.51,1063.11,150.28,1106.17z"/>
		<path class="st6" d="M150.28,1106.18c0,0,40.45,101.62,48.32,204.76c0,0-28.76-0.43-26.74-0.34c2.02,0.09,11.01-98.8-24.95-200.5
			L150.28,1106.18z"/>
		<path class="st6" d="M150.28,1106.18c0,0,18.35-50.95,99.26-23.23c0,0-28.19,11.14-36.05,11.42l-7.87-10.11l2.53,9.83
			c0,0-13.48,7.02-17.98,7.87l-4.21-8.43v12.57C185.96,1106.1,169.1,1113.49,150.28,1106.18z"/>
		<path class="st6" d="M154.02,1109.41c0,0-22.47-57.17-72.29-57.55c0,0,15.73,26.46,20.98,28.77l15.17-8.17l-8.8,11.99l7.12,7.6
			l7.49-11.42l-5.81,15.43l7.68,6.37l7.87-8.24l-4.49,9.36C128.93,1103.55,143.5,1109.52,154.02,1109.41z"/>
		<path class="st6" d="M153.04,1109.06c0,0-49.73-44.81-104.28-13.44c0,0,28.18,13,30.46,12.18l12.27-17.05l-3.18,18.31
			c0,0,12.27,2.59,26.82,2.76C129.68,1111.98,153.04,1109.06,153.04,1109.06z"/>
		<path class="st6" d="M150.41,1106.18c0,0-31.67,8.09-28.21,76.26c0,0,16.08-28.78,16.08-31.43c0,0-9.4-10.17-8.66-9.59
			s12.12,5.2,12.12,5.2l3.96-10.4c0,0-13.11-7.56-11.63-7.54c1.48,0.03,14.1,1.76,14.1,1.76S151.65,1116.29,150.41,1106.18z"/>
		<path class="st6" d="M150.28,1106.18c0,0,59.56-4.5,76.41,53.94c0,0-26.69-13.77-31.75-18.82l0.84-14.61l-4.5,13.77
			C191.29,1140.45,156.46,1122.2,150.28,1106.18z"/>
	</g>
	<g>
		<path class="st6" d="M2048.76,1174.57c0,0,18-20.35,36.45-0.41c0,0-10.32,0.29-12.65,0l-2.52-5.44l0.75,5.84
			c0,0-7.96,0.13-10.02,0l-1.03-3.59l-0.84,3.65C2058.89,1174.62,2050.9,1175.63,2048.76,1174.57z"/>
		<g>
			<path class="st6" d="M1993.33,1293.24c0,0,12.28-75.92,56.1-119.74l3,3.03c0,0-37.46,37.56-46.07,116.71H1993.33z"/>
			<path class="st6" d="M2049.44,1173.5c0,0,17.42,21.91,18.54,50.85c0,0-9.13-7.02-12.36-14.33l4.78-6.6l-6.6,4.5
				c0,0-3.09-7.44-3.51-12.22l4.21-2.67l-3.93,0.14C2050.56,1193.17,2046.63,1178.84,2049.44,1173.5z"/>
			<path class="st6" d="M2050.84,1174.9c0,0-35.68-7.87-48.6,27.53c0,0,14.19-6.21,18.54-10.83l-0.14-9.96l4.64,9.13
				c0,0,9.27-4.92,10.96-6.6l-0.56-4.5l2.25,2.53C2037.92,1182.21,2048.45,1174.76,2050.84,1174.9z"/>
			<path class="st6" d="M2048.76,1175.53c0,0,26.52-9.61,47.59,9.77c0,0-13.63,2.11-17.28,1.55l-4.35-8.57l-0.14,7.59
				c0,0-7.8-1.26-12.54-3.79l-0.8-5.54l-0.42,4.41C2060.81,1180.94,2051.62,1176.77,2048.76,1175.53z"/>
			<path class="st6" d="M2016.57,1155.8c0,0,27.53,0.84,34.27,19.1c0,0-15.93-2.81-19.9-5.06l2.36-6.88l-5.21,4.64
				C2028.08,1167.6,2017.69,1165.35,2016.57,1155.8z"/>
		</g>
	</g>
	<g>
		<path class="st6" d="M2033.7,1089.22c0,0-18.34-5.39-22.47-14.11c0,0,6.38-16.36,6.74-17.84c-0.94,1.44-13.13,12.23-13.13,12.23
			s-7.1-5.89-12.45-16.14l9.48-8.32l-10.92,5.3c-3.1-6.88-5.17-15.37-4.09-25.17C1986.87,1025.17,2034.47,1046.16,2033.7,1089.22z"
			/>
		<path class="st6" d="M2033.7,1089.22c0,0-40.45,101.62-48.32,204.76c0,0,28.76-0.43,26.74-0.34c-2.02,0.09-11.01-98.8,24.95-200.5
			L2033.7,1089.22z"/>
		<path class="st6" d="M2033.7,1089.22c0,0-18.35-50.95-99.26-23.23c0,0,28.19,11.14,36.05,11.42l7.87-10.11l-2.53,9.83
			c0,0,13.48,7.02,17.98,7.87l4.21-8.43v12.57C1998.02,1089.14,2014.88,1096.53,2033.7,1089.22z"/>
		<path class="st6" d="M2029.96,1092.45c0,0,22.47-57.17,72.29-57.55c0,0-15.73,26.46-20.98,28.77l-15.17-8.17l8.8,11.99l-7.12,7.6
			l-7.49-11.42l5.81,15.43l-7.68,6.37l-7.87-8.24l4.49,9.36C2055.05,1086.6,2040.48,1092.57,2029.96,1092.45z"/>
		<path class="st6" d="M2030.94,1092.1c0,0,49.73-44.81,104.28-13.44c0,0-28.18,13-30.46,12.18l-12.27-17.05l3.18,18.31
			c0,0-12.27,2.59-26.82,2.76C2054.3,1095.03,2030.94,1092.1,2030.94,1092.1z"/>
		<path class="st6" d="M2033.57,1089.22c0,0,31.67,8.09,28.21,76.26c0,0-16.08-28.78-16.08-31.43c0,0,9.4-10.17,8.66-9.59
			c-0.74,0.58-12.12,5.2-12.12,5.2l-3.96-10.4c0,0,13.11-7.56,11.63-7.54c-1.48,0.03-14.1,1.76-14.1,1.76
			S2032.33,1099.34,2033.57,1089.22z"/>
		<path class="st6" d="M2033.7,1089.22c0,0-59.56-4.5-76.41,53.94c0,0,26.69-13.77,31.75-18.82l-0.84-14.61l4.5,13.77
			C1992.69,1123.49,2027.52,1105.24,2033.7,1089.22z"/>
	</g>
</g>
<g>
	<g>
		<linearGradient id="SVGID_5_" gradientUnits="userSpaceOnUse" x1="602.1843" y1="1624.6956" x2="1332.6144" y2="1069.5693">
			<stop  offset="0" style="stop-color:#FBCA9C"/>
			<stop  offset="0.5069" style="stop-color:#F5A573"/>
			<stop  offset="1" style="stop-color:#AB5157"/>
		</linearGradient>
		<path class="st7" d="M1735.91,1352.76H552.3l480.24-588.03l121.5-148.74c1.8-2.25,4.27-3.51,6.83-3.87
			c3.69-0.49,7.55,0.9,10.02,4.14l125.95,164.2h0.04L1735.91,1352.76z"/>
		<linearGradient id="SVGID_6_" gradientUnits="userSpaceOnUse" x1="1855.5701" y1="1194.7279" x2="1370.115" y2="1011.9333">
			<stop  offset="0" style="stop-color:#F29067"/>
			<stop  offset="1" style="stop-color:#EFC286"/>
		</linearGradient>
		<path class="st8" d="M1735.91,1352.76h-316.89l-204.97-588.03l-53.18-152.6c3.69-0.49,7.55,0.9,10.02,4.14l125.95,164.2h0.04
			L1735.91,1352.76z"/>
	</g>
</g>
<linearGradient id="sun_1_" gradientUnits="userSpaceOnUse" x1="1404.402" y1="413.8307" x2="1404.402" y2="100.6705">
	<stop  offset="0" style="stop-color:#FFFFFF;stop-opacity:0"/>
	<stop  offset="1" style="stop-color:#FFFFFE"/>
</linearGradient>
<circle id="sun_2_" class="st9" cx="1404.4" cy="250" r="167.92"/>
<g id="pyramid">
	<g>
		<g>
			<g>
				<linearGradient id="SVGID_7_" gradientUnits="userSpaceOnUse" x1="1072.9408" y1="1510.1122" x2="1828.0951" y2="1047.13">
					<stop  offset="0" style="stop-color:#FBCA9C"/>
					<stop  offset="0.5069" style="stop-color:#F5A573"/>
					<stop  offset="1" style="stop-color:#AB5157"/>
				</linearGradient>
				<path class="st10" d="M2012.13,1352.76h-905.26l367.3-449.74l92.93-113.76c1.37-1.72,3.27-2.68,5.23-2.96
					c2.82-0.38,5.78,0.69,7.67,3.16l96.33,125.59h0.03L2012.13,1352.76z"/>
				<linearGradient id="SVGID_8_" gradientUnits="userSpaceOnUse" x1="1548.5046" y1="1026.8378" x2="2170.3037" y2="1241.0958">
					<stop  offset="0" style="stop-color:#FBCA9C"/>
					<stop  offset="0.5069" style="stop-color:#F5A573"/>
					<stop  offset="1" style="stop-color:#AB5157"/>
				</linearGradient>
				<path class="st11" d="M2012.13,1352.76h-242.37l-156.77-449.74l-40.67-116.72c2.82-0.38,5.78,0.69,7.67,3.16l96.33,125.59h0.03
					L2012.13,1352.76z"/>
			</g>
			<g>
				<linearGradient id="SVGID_9_" gradientUnits="userSpaceOnUse" x1="1052.6105" y1="1476.9531" x2="1807.7607" y2="1013.9734">
					<stop  offset="0" style="stop-color:#FBCA9C"/>
					<stop  offset="0.5069" style="stop-color:#F5A573"/>
					<stop  offset="1" style="stop-color:#AB5157"/>
				</linearGradient>
				<polygon class="st12" points="1559.49,943.2 1474.17,903.01 1106.86,1352.76 1769.75,1352.76 1612.99,903.01 				"/>
				<linearGradient id="SVGID_10_" gradientUnits="userSpaceOnUse" x1="1104.6813" y1="1561.8824" x2="1859.8319" y2="1098.9025">
					<stop  offset="0" style="stop-color:#FBCA9C"/>
					<stop  offset="0.5069" style="stop-color:#F5A573"/>
					<stop  offset="1" style="stop-color:#AB5157"/>
				</linearGradient>
				<polygon class="st13" points="1676.35,915.05 1676.31,915.05 1612.99,903.01 1769.75,1352.76 2012.13,1352.76 				"/>
				<linearGradient id="SVGID_11_" gradientUnits="userSpaceOnUse" x1="1534.0375" y1="1068.7684" x2="2155.8618" y2="1283.0352">
					<stop  offset="0" style="stop-color:#FBCA9C"/>
					<stop  offset="0.5069" style="stop-color:#F5A573"/>
					<stop  offset="1" style="stop-color:#AB5157"/>
				</linearGradient>
				<polygon class="st14" points="2012.13,1352.76 1769.76,1352.76 1649.47,1007.68 1648.76,1005.66 1648.53,1005.03 
					1647.77,1002.78 1612.98,902.99 1676.31,915.04 1676.35,915.04 				"/>
				<path class="st15" d="M1612.99,903.01l-40.67-116.72c-1.96,0.28-3.85,1.24-5.23,2.96l-92.93,113.76l85.33,40.19L1612.99,903.01z
					"/>
				<linearGradient id="SVGID_12_" gradientUnits="userSpaceOnUse" x1="929.7271" y1="1276.5225" x2="1684.8782" y2="813.5422">
					<stop  offset="0" style="stop-color:#FBCA9C"/>
					<stop  offset="0.5069" style="stop-color:#F5A573"/>
					<stop  offset="1" style="stop-color:#AB5157"/>
				</linearGradient>
				<path class="st16" d="M1676.31,915.05l-96.33-125.59c-1.89-2.48-4.85-3.54-7.67-3.16l40.67,116.72L1676.31,915.05z"/>
				<path class="st17" d="M1676.31,915.05l-96.33-125.59c-1.89-2.48-4.85-3.54-7.67-3.16l40.67,116.72L1676.31,915.05z"/>
			</g>
		</g>
		<path class="st18" d="M1638.47,941.88l41.9-1.95l-14.49,3.27c0,0,32.46-0.89,31-0.68c-4.58,0.68-44.09,3.95-44.09,3.95l6.91-3.14
			L1638.47,941.88z"/>
		<path class="st18" d="M1687.19,1004.27c-3.42,0.49-26.34,2.47-37.71,3.42l-0.72-2.02l1.26-0.54l-1.48-0.09l-0.76-2.25l22.92-1.08
			l-14.47,3.24C1656.22,1004.94,1685.7,1004.18,1687.19,1004.27z"/>
		<path class="st19" d="M1611.71,968.65h-93.8l70.98,2.54l-16.57,2.43c0,0,56.09,0,54.78,0s-26.22-2.49-26.22-2.49L1611.71,968.65z"
			/>
		<polygon class="st19" points="1480.68,1020.06 1516.78,1020.06 1498.73,1023.82 1572.32,1023.82 1485.5,1026.34 1480.68,1021.29 
					"/>
		<path class="st19" d="M1644.14,1077.38h-44.95c0,0,19.48,2.62,18.35,2.62s-51.72,1.5-51.72,1.5l80.94,0.19l-19.67-1.31
			L1644.14,1077.38z"/>
	</g>
	<g>
		<g>
			<g>
				<linearGradient id="SVGID_13_" gradientUnits="userSpaceOnUse" x1="114.8411" y1="1412.3014" x2="597.2992" y2="1178.5638">
					<stop  offset="0" style="stop-color:#FBCA9C"/>
					<stop  offset="0.5069" style="stop-color:#F5A573"/>
					<stop  offset="1" style="stop-color:#AB5157"/>
				</linearGradient>
				<path class="st20" d="M746.97,1363.59H149.15l242.56-297l61.37-75.12c0.91-1.14,2.16-1.77,3.45-1.95
					c1.86-0.25,3.81,0.45,5.06,2.09l63.61,82.93h0.02L746.97,1363.59z"/>
				<linearGradient id="SVGID_14_" gradientUnits="userSpaceOnUse" x1="693.3979" y1="1185.2794" x2="488.1283" y2="1174.7911">
					<stop  offset="0" style="stop-color:#F29067"/>
					<stop  offset="1" style="stop-color:#EFC286"/>
				</linearGradient>
				<path class="st21" d="M746.97,1363.59H586.91l-103.53-297l-26.86-77.08c1.86-0.25,3.81,0.45,5.06,2.09l63.61,82.93h0.02
					L746.97,1363.59z"/>
			</g>
			<linearGradient id="SVGID_15_" gradientUnits="userSpaceOnUse" x1="114.8411" y1="1412.3014" x2="597.2992" y2="1178.5638">
				<stop  offset="0" style="stop-color:#FBCA9C"/>
				<stop  offset="0.5069" style="stop-color:#F5A573"/>
				<stop  offset="1" style="stop-color:#AB5157"/>
			</linearGradient>
			<path class="st22" d="M746.97,1363.59H149.15l242.56-297l61.37-75.12c0.91-1.14,2.16-1.77,3.45-1.95
				c1.86-0.25,3.81,0.45,5.06,2.09l63.61,82.93h0.02L746.97,1363.59z"/>
			<g>
				<linearGradient id="SVGID_16_" gradientUnits="userSpaceOnUse" x1="691.4666" y1="1223.0801" x2="486.1971" y2="1212.5918">
					<stop  offset="0" style="stop-color:#F29067"/>
					<stop  offset="1" style="stop-color:#EFC286"/>
				</linearGradient>
				<polygon class="st23" points="525.23,1074.54 525.21,1074.54 483.39,1066.59 586.92,1363.59 746.97,1363.59 				"/>
				<path class="st15" d="M453.08,991.47l-61.37,75.12l56.35,26.54l35.33-26.54l-26.86-77.08
					C455.24,989.7,453.99,990.33,453.08,991.47z"/>
				<path class="st17" d="M461.59,991.6c-1.25-1.63-3.2-2.34-5.06-2.09l26.86,77.08l41.82,7.95L461.59,991.6z"/>
			</g>
		</g>
		<polygon class="st19" points="375.44,1108.4 426.01,1108.4 404.38,1111.52 448.06,1113.21 383.78,1114.64 394.45,1111.39 		"/>
		<polygon class="st19" points="516.39,1161.28 453.45,1161.28 478.17,1164.29 419.17,1166.53 518.73,1167.99 		"/>
		<polygon class="st19" points="290.22,1239.01 356.05,1239.01 333.49,1242.39 397.51,1242.39 317.76,1246.88 325.06,1242.95 		"/>
	</g>
	<g>
		<g>
			<linearGradient id="SVGID_17_" gradientUnits="userSpaceOnUse" x1="557.8545" y1="1566.3682" x2="1288.2875" y2="1011.2397">
				<stop  offset="0" style="stop-color:#FBCA9C"/>
				<stop  offset="0.5069" style="stop-color:#F5A573"/>
				<stop  offset="1" style="stop-color:#AB5157"/>
			</linearGradient>
			<polygon class="st24" points="1419.02,1352.76 552.3,1352.76 983.05,825.32 989.93,816.92 1032.54,764.73 1144.11,817.28 
				1214.05,764.73 			"/>
			<linearGradient id="SVGID_18_" gradientUnits="userSpaceOnUse" x1="649.0939" y1="1686.4175" x2="1379.524" y2="1131.2913">
				<stop  offset="0" style="stop-color:#FBCA9C"/>
				<stop  offset="0.5069" style="stop-color:#F5A573"/>
				<stop  offset="1" style="stop-color:#AB5157"/>
			</linearGradient>
			<polygon class="st25" points="1296.89,780.46 1296.85,780.46 1214.05,764.73 1419.02,1352.76 1735.91,1352.76 			"/>
			<linearGradient id="SVGID_19_" gradientUnits="userSpaceOnUse" x1="1528.4779" y1="1250.4216" x2="1297.7372" y2="1001.701">
				<stop  offset="0" style="stop-color:#F29067"/>
				<stop  offset="1" style="stop-color:#EFC286"/>
			</linearGradient>
			<polygon class="st26" points="1735.91,1352.76 1419.02,1352.76 1214.05,764.73 1296.85,780.46 1296.89,780.46 1338.78,835.08 
				1344.09,842 			"/>
			<path class="st27" d="M1214.05,764.73l-53.18-152.6c-2.56,0.36-5.03,1.62-6.83,3.87l-121.5,148.74l111.56,52.55L1214.05,764.73z"
				/>
			<linearGradient id="SVGID_20_" gradientUnits="userSpaceOnUse" x1="384.3708" y1="1338.1042" x2="1114.8046" y2="782.9753">
				<stop  offset="0" style="stop-color:#FBCA9C"/>
				<stop  offset="0.5069" style="stop-color:#F5A573"/>
				<stop  offset="1" style="stop-color:#AB5157"/>
			</linearGradient>
			<path class="st28" d="M1296.85,780.46l-125.95-164.2c-2.47-3.24-6.34-4.63-10.02-4.14l53.18,152.6L1296.85,780.46z"/>
			<path class="st29" d="M1296.85,780.46l-125.95-164.2c-2.47-3.24-6.34-4.63-10.02-4.14l53.18,152.6L1296.85,780.46z"/>
		</g>
		<polygon class="st30" points="894.37,1100.76 967.26,1100.76 938.76,1105.82 1012.93,1105.82 894.37,1111.44 		"/>
		<path class="st30" d="M946.47,897.5l73.72,2.47l-36.32,3.86l111.81,4.7c0,0-149.13,0.4-148.01,0.28
			c1.12-0.12,26.94-7.38,26.94-7.38L946.47,897.5z"/>
		<polygon class="st30" points="1252.5,875.05 1138.17,882.91 1222.79,884.38 1195.47,889.07 1257.24,889.5 		"/>
		<polygon class="st18" points="1319.23,842.81 1330.47,838.85 1279.68,838.67 1338.78,835.08 1344.09,842 		"/>
		<polygon class="st18" points="1283.27,963.3 1327.62,963.3 1316.38,966.88 1376.69,966.88 1299.53,974 1311.88,970.63 
			1286.11,971.47 		"/>
		<path class="st30" d="M1027.96,1050.79l95.34-3.37l-32.97,5.66c0,0,73.86-1.54,70.55-1.17c-10.43,1.17-100.33,6.83-100.33,6.83
			l15.73-5.43L1027.96,1050.79z"/>
		<polygon class="st18" points="1398.23,1060.05 1457.23,1056.03 1443.37,1058.74 1500.49,1058.04 1420.14,1064.27 1432.32,1060.15 
					"/>
		<polygon class="st30" points="1317.13,1127.89 1160.98,1127.89 1257.24,1131.32 1214.05,1135.82 1329.98,1135.82 1296.85,1131.85 
					"/>
	</g>
</g>
<linearGradient id="SVGID_21_" gradientUnits="userSpaceOnUse" x1="1051.0778" y1="1473.7905" x2="1037.5929" y2="1165.8865">
	<stop  offset="0" style="stop-color:#F29067"/>
	<stop  offset="1" style="stop-color:#EFC286"/>
</linearGradient>
<path class="st31" d="M2183.16,1299.99v728.68H-64.32v-716.99c0.18-0.04,0.36-0.04,0.54-0.09c48.46-8.85,128.2-20.54,237.56-21.53
	h0.27c5.75-0.09,11.55-0.09,17.49-0.09c1.66,0,3.33,0,4.99,0.05h0.05c4.18,0,8.32,0.04,12.59,0.09h0.04c1.62,0,3.24,0.05,4.85,0.05
	c83.11,1.21,181.33,8.68,293.88,27.33c1.39,0.22,2.74,0.45,4.13,0.67c2.74,0.45,5.48,0.9,8.27,1.39c2.74,0.45,5.53,0.99,8.32,1.48
	c0.99,0.13,1.98,0.31,2.97,0.49c13.75,2.43,27.42,4.54,40.95,6.38h0.04c0.67,0.13,1.26,0.22,1.93,0.27
	c8.68,1.21,17.35,2.29,25.94,3.19h0.09c5.71,0.63,11.42,1.26,17.08,1.75c14.88,1.48,29.58,2.56,44.19,3.37h0.45
	c19.1,1.08,37.89,1.66,56.59,1.75c0,0,0,0,0.04,0c2.88,0.04,5.75,0.04,8.63,0.04c23.96,0,47.65-0.72,71.16-1.98
	c11.37-0.63,22.74-1.39,34.03-2.25c35.47-2.74,70.53-6.61,105.41-11.28c46.03-6.07,91.74-13.44,137.68-21.04
	c1.84-0.31,3.64-0.58,5.48-0.9c3.01-0.49,6.07-0.99,9.08-1.48c2.79-0.45,5.62-0.94,8.41-1.39c1.26-0.22,2.47-0.4,3.73-0.63
	c3.87-0.63,7.73-1.3,11.64-1.93h0.05c15.15-2.52,30.34-5.03,45.58-7.46c24.54-4,49.26-7.82,74.21-11.37
	c0.76-0.13,1.48-0.22,2.25-0.31c5.8-0.9,11.64-1.66,17.49-2.47c5.26-0.72,10.56-1.44,15.87-2.16c38.25-5.03,77.13-9.26,116.87-12.18
	c43.65-3.19,88.33-4.81,134.4-4.09c22.38,0.31,45.04,1.17,68.14,2.7c3.78,0.22,7.55,0.49,11.37,0.76c0.54,0.05,1.12,0.09,1.66,0.14
	c21.26,1.62,42.84,3.73,64.82,6.47c0.76,0.09,1.48,0.18,2.25,0.27c2.79,0.36,5.57,0.72,8.36,1.08c22.38,2.97,44.1,5.66,65.13,8.05
	c43.06,4.94,83.29,8.77,120.78,11.64c36.72,2.83,70.8,4.72,102.4,5.89c6.7,0.27,13.26,0.49,19.69,0.67
	c2.65,0.09,5.26,0.18,7.87,0.22h0.4c2.97,0,1.71-2.97,0.72-5.8c-0.94-2.52-1.66-4.9,1.03-4.85l13.62-8.54l0.85-0.54l2.16-1.35
	c3.6,0.09,7.19,0.13,10.74,0.13h0.04l0.81,0.09c0.4,0.05,0.9,0.09,1.57,0.13c9.48,0.81,44.95,4.14,81.45,10.7
	c15.42,2.74,31.06,6.07,44.95,10.02c10.02,2.88,20.14,4.94,29.94,6.47C2182.13,1299.85,2182.67,1299.9,2183.16,1299.99z"/>
<g id="pyramid4_4">
	<linearGradient id="SVGID_22_" gradientUnits="userSpaceOnUse" x1="1678.7662" y1="1659.0992" x2="1741.6956" y2="1455.328">
		<stop  offset="0" style="stop-color:#FBCA9C"/>
		<stop  offset="0.5069" style="stop-color:#F5A573"/>
		<stop  offset="0.8109" style="stop-color:#C77161"/>
		<stop  offset="1" style="stop-color:#AB5157"/>
	</linearGradient>
	<path class="st32" d="M1474.17,1351.6l-91.6,136.59c0,0,720.25-48.84,713.79-51.41c-6.46-2.57-28.37-90.09-28.37-90.09
		L1474.17,1351.6z"/>
	<g>
		<linearGradient id="SVGID_23_" gradientUnits="userSpaceOnUse" x1="1837.3602" y1="1279.8613" x2="2120.5427" y2="1366.7639">
			<stop  offset="0" style="stop-color:#FBCA9C"/>
			<stop  offset="0.5069" style="stop-color:#F5A573"/>
			<stop  offset="1" style="stop-color:#AB5157"/>
		</linearGradient>
		<polygon class="st33" points="1880.13,1351.6 2071.98,1351.6 2071.98,1293.24 1880.13,1293.24 		"/>
		<linearGradient id="SVGID_24_" gradientUnits="userSpaceOnUse" x1="1854.5757" y1="1248.6868" x2="2095.0564" y2="1289.8906">
			<stop  offset="0" style="stop-color:#FBCA9C"/>
			<stop  offset="0.5069" style="stop-color:#F5A573"/>
			<stop  offset="1" style="stop-color:#AB5157"/>
		</linearGradient>
		<polygon class="st34" points="1863.4,1293.24 2025.28,1293.24 2025.28,1234.89 1863.4,1234.89 		"/>
		<linearGradient id="SVGID_25_" gradientUnits="userSpaceOnUse" x1="1845.6514" y1="1189.3502" x2="2014.2123" y2="1229.8048">
			<stop  offset="0" style="stop-color:#FBCA9C"/>
			<stop  offset="0.5069" style="stop-color:#F5A573"/>
			<stop  offset="1" style="stop-color:#AB5157"/>
		</linearGradient>
		<polygon class="st35" points="1847.3,1234.89 1980.33,1234.89 1980.33,1176.53 1847.3,1176.53 		"/>
		<linearGradient id="SVGID_26_" gradientUnits="userSpaceOnUse" x1="1768.6202" y1="1126.0653" x2="2021.4625" y2="1173.2625">
			<stop  offset="0" style="stop-color:#FBCA9C"/>
			<stop  offset="0.5069" style="stop-color:#F5A573"/>
			<stop  offset="1" style="stop-color:#AB5157"/>
		</linearGradient>
		<polygon class="st36" points="1830.87,1176.53 1934.44,1176.53 1934.44,1118.17 1830.87,1118.17 		"/>
		<linearGradient id="SVGID_27_" gradientUnits="userSpaceOnUse" x1="1769.3918" y1="1073.0129" x2="1982.9023" y2="1114.5914">
			<stop  offset="0" style="stop-color:#FBCA9C"/>
			<stop  offset="0.5069" style="stop-color:#F5A573"/>
			<stop  offset="1" style="stop-color:#AB5157"/>
		</linearGradient>
		<polygon class="st37" points="1815.04,1118.4 1890.24,1118.4 1890.24,1060.05 1815.04,1060.05 		"/>
		<g>
			<linearGradient id="SVGID_28_" gradientUnits="userSpaceOnUse" x1="1828.2781" y1="1278.584" x2="945.0214" y2="1534.7959">
				<stop  offset="0" style="stop-color:#AB5157"/>
				<stop  offset="0.5069" style="stop-color:#F5A573"/>
				<stop  offset="1" style="stop-color:#FBCA9C"/>
			</linearGradient>
			<rect x="1474.17" y="1293.24" class="st38" width="405.96" height="58.36"/>
			<linearGradient id="SVGID_29_" gradientUnits="userSpaceOnUse" x1="1813.8274" y1="1228.7667" x2="930.5699" y2="1484.9789">
				<stop  offset="0" style="stop-color:#AB5157"/>
				<stop  offset="0.5069" style="stop-color:#F5A573"/>
				<stop  offset="1" style="stop-color:#FBCA9C"/>
			</linearGradient>
			<rect x="1520.87" y="1234.89" class="st39" width="342.52" height="58.36"/>
			<linearGradient id="SVGID_30_" gradientUnits="userSpaceOnUse" x1="1799.3325" y1="1178.7985" x2="916.0753" y2="1435.0106">
				<stop  offset="0" style="stop-color:#AB5157"/>
				<stop  offset="0.5069" style="stop-color:#F5A573"/>
				<stop  offset="1" style="stop-color:#FBCA9C"/>
			</linearGradient>
			<rect x="1565.82" y="1176.53" class="st40" width="281.48" height="58.36"/>
			<linearGradient id="SVGID_31_" gradientUnits="userSpaceOnUse" x1="1784.8608" y1="1128.9104" x2="901.6031" y2="1385.1227">
				<stop  offset="0" style="stop-color:#AB5157"/>
				<stop  offset="0.5069" style="stop-color:#F5A573"/>
				<stop  offset="1" style="stop-color:#FBCA9C"/>
			</linearGradient>
			<rect x="1611.71" y="1118.17" class="st41" width="219.16" height="58.36"/>
			<linearGradient id="SVGID_32_" gradientUnits="userSpaceOnUse" x1="1770.4093" y1="1079.0898" x2="887.1522" y2="1335.302">
				<stop  offset="0" style="stop-color:#AB5157"/>
				<stop  offset="0.5069" style="stop-color:#F5A573"/>
				<stop  offset="1" style="stop-color:#FBCA9C"/>
			</linearGradient>
			<rect x="1655.91" y="1060.05" class="st42" width="159.13" height="58.36"/>
			<linearGradient id="SVGID_33_" gradientUnits="userSpaceOnUse" x1="1755.9707" y1="1029.3143" x2="872.7137" y2="1285.5264">
				<stop  offset="0" style="stop-color:#AB5157"/>
				<stop  offset="0.5069" style="stop-color:#F5A573"/>
				<stop  offset="1" style="stop-color:#FBCA9C"/>
			</linearGradient>
			<rect x="1703.11" y="1001.69" class="st43" width="95.03" height="58.36"/>
		</g>
		<linearGradient id="SVGID_34_" gradientUnits="userSpaceOnUse" x1="1754.0298" y1="1009.7205" x2="1969.7881" y2="1078.2687">
			<stop  offset="0" style="stop-color:#FBCA9C"/>
			<stop  offset="0.5069" style="stop-color:#F5A573"/>
			<stop  offset="1" style="stop-color:#AB5157"/>
		</linearGradient>
		<polygon class="st44" points="1798.13,1060.05 1843.04,1060.05 1843.04,1001.69 1798.13,1001.69 		"/>
	</g>
</g>
<g id="shadows">
	<linearGradient id="SVGID_35_" gradientUnits="userSpaceOnUse" x1="319.5496" y1="1500.9517" x2="402.7062" y2="1278.4514">
		<stop  offset="0" style="stop-color:#793F58;stop-opacity:0"/>
		<stop  offset="1" style="stop-color:#793F58"/>
	</linearGradient>
	<path class="st45" d="M590.15,1352.76c-5.62,2.2-468.19,101.05-468.19,101.05l87.2-163.71h0.04c1.62,0,3.24,0.04,4.85,0.04
		c84.15,1.21,183.71,8.85,298.02,28c5.48,0.9,11.01,1.84,16.59,2.88c32.77,18.02,58.93,31.91,61.45,31.73H590.15z"/>
	<linearGradient id="SVGID_36_" gradientUnits="userSpaceOnUse" x1="104.4231" y1="1388.8223" x2="216.0478" y2="1244.984">
		<stop  offset="0" style="stop-color:#793F58;stop-opacity:0"/>
		<stop  offset="1" style="stop-color:#793F58"/>
	</linearGradient>
	<path class="st46" d="M196.53,1290.01c-2.29,2.52-75.52,83.43-124.78,121.05c2.92-3.1,97.27-102.35,102.04-121
		c5.84-0.09,11.73-0.09,17.75-0.09C193.2,1289.96,194.86,1289.96,196.53,1290.01z"/>
</g>
<g id="bird">
	<g>
		<g>
			<path class="st6" d="M1395.07,688.79c1.53-0.72,3.17-1.12,4.83-1.36c1.66-0.24,3.35-0.28,5.03-0.16
				c3.39,0.21,6.62,1.55,9.57,3.13c1.48,0.81,2.88,1.76,4.18,2.8c1.3,1.05,2.48,2.24,3.57,3.49c2.09,2.58,3.75,5.44,4.9,8.48
				l-0.28,0.13c-1.59-2.79-3.48-5.38-5.76-7.54c-1.15-1.07-2.34-2.07-3.64-2.92c-1.3-0.85-2.66-1.58-4.07-2.19
				c-2.85-1.21-5.89-1.66-8.89-2.28c-3.02-0.59-6.12-0.94-9.39-1.27L1395.07,688.79z"/>
			<path class="st6" d="M1458.91,689.09c-3.27,0.32-6.37,0.68-9.39,1.27c-2.99,0.62-6.04,1.07-8.89,2.28
				c-1.41,0.61-2.77,1.34-4.07,2.19c-1.3,0.85-2.49,1.85-3.64,2.92c-2.28,2.16-4.17,4.75-5.76,7.54l-0.28-0.13
				c1.15-3.03,2.81-5.9,4.9-8.48c1.1-1.24,2.27-2.43,3.57-3.49c1.31-1.05,2.71-1.99,4.18-2.8c2.96-1.58,6.18-2.92,9.58-3.13
				c1.68-0.11,3.37-0.08,5.03,0.16c1.66,0.23,3.29,0.63,4.83,1.36L1458.91,689.09z"/>
		</g>
		<g>
			<path class="st6" d="M1618.78,687.58c1.78-0.84,3.68-1.31,5.61-1.58c1.93-0.28,3.89-0.32,5.85-0.19
				c3.94,0.24,7.69,1.8,11.13,3.63c1.72,0.95,3.34,2.04,4.86,3.26c1.52,1.22,2.88,2.61,4.15,4.05c2.43,3,4.36,6.33,5.7,9.85
				l-0.33,0.15c-1.84-3.25-4.05-6.25-6.69-8.76c-1.33-1.24-2.72-2.4-4.23-3.39c-1.51-0.98-3.09-1.84-4.73-2.54
				c-3.31-1.41-6.85-1.93-10.33-2.65c-3.52-0.68-7.11-1.1-10.91-1.47L1618.78,687.58z"/>
			<path class="st6" d="M1692.97,687.93c-3.8,0.38-7.4,0.79-10.91,1.47c-3.48,0.72-7.02,1.24-10.33,2.65
				c-1.64,0.71-3.22,1.56-4.73,2.54c-1.51,0.99-2.9,2.15-4.23,3.39c-2.64,2.51-4.85,5.52-6.69,8.76l-0.33-0.15
				c1.34-3.52,3.27-6.86,5.7-9.85c1.27-1.44,2.64-2.83,4.15-4.05c1.52-1.21,3.14-2.31,4.86-3.26c3.44-1.83,7.19-3.39,11.13-3.63
				c1.96-0.13,3.92-0.09,5.85,0.19c1.92,0.27,3.83,0.74,5.61,1.58L1692.97,687.93z"/>
		</g>
		<g>
			<path class="st6" d="M1478.19,588.69c2.75-1.3,5.68-2.02,8.65-2.44c2.98-0.44,6-0.49,9.02-0.3c6.08,0.37,11.86,2.78,17.17,5.61
				c2.65,1.46,5.16,3.15,7.5,5.03c2.34,1.89,4.45,4.02,6.41,6.25c3.75,4.62,6.73,9.76,8.79,15.2l-0.51,0.24
				c-2.85-5.01-6.25-9.65-10.33-13.52c-2.05-1.91-4.2-3.71-6.53-5.23c-2.33-1.52-4.77-2.83-7.3-3.93
				c-5.11-2.17-10.57-2.97-15.94-4.08c-5.42-1.06-10.98-1.69-16.84-2.27L1478.19,588.69z"/>
			<path class="st6" d="M1592.66,589.24c-5.86,0.58-11.42,1.22-16.84,2.27c-5.37,1.11-10.83,1.91-15.94,4.08
				c-2.53,1.09-4.97,2.41-7.3,3.93c-2.32,1.53-4.47,3.32-6.53,5.23c-4.08,3.87-7.48,8.51-10.33,13.52l-0.51-0.24
				c2.06-5.44,5.04-10.58,8.79-15.2c1.96-2.23,4.07-4.36,6.41-6.25c2.34-1.87,4.85-3.56,7.5-5.03c5.31-2.83,11.09-5.23,17.17-5.61
				c3.02-0.2,6.05-0.14,9.02,0.3c2.97,0.42,5.91,1.13,8.65,2.44L1592.66,589.24z"/>
		</g>
	</g>
	<g>
		<g>
			<path class="st6" d="M797.01,514.73c2.03-0.96,4.21-1.49,6.4-1.8c2.2-0.32,4.44-0.37,6.67-0.22c4.5,0.28,8.78,2.06,12.7,4.15
				c1.96,1.08,3.82,2.33,5.55,3.72c1.73,1.4,3.29,2.98,4.74,4.62c2.77,3.42,4.98,7.22,6.5,11.25l-0.38,0.18
				c-2.11-3.71-4.62-7.14-7.64-10c-1.52-1.42-3.11-2.74-4.83-3.87c-1.72-1.12-3.53-2.1-5.4-2.9c-3.78-1.61-7.82-2.2-11.79-3.02
				c-4.01-0.78-8.12-1.25-12.46-1.68L797.01,514.73z"/>
			<path class="st6" d="M881.7,515.13c-4.34,0.43-8.44,0.9-12.46,1.68c-3.97,0.82-8.01,1.41-11.79,3.02
				c-1.87,0.81-3.68,1.78-5.4,2.9c-1.72,1.13-3.31,2.46-4.83,3.87c-3.02,2.86-5.53,6.3-7.64,10l-0.38-0.18
				c1.53-4.02,3.73-7.82,6.5-11.25c1.45-1.65,3.01-3.23,4.74-4.62c1.73-1.39,3.59-2.64,5.55-3.72c3.92-2.09,8.2-3.87,12.7-4.15
				c2.23-0.15,4.47-0.1,6.67,0.22c2.2,0.31,4.37,0.84,6.4,1.8L881.7,515.13z"/>
		</g>
		<g>
			<path class="st6" d="M633.52,476.5c3.65-1.72,7.54-2.67,11.48-3.23c3.95-0.58,7.96-0.66,11.97-0.39
				c8.06,0.5,15.74,3.69,22.78,7.44c3.51,1.94,6.84,4.18,9.95,6.67c3.1,2.5,5.9,5.34,8.5,8.29c4.97,6.13,8.93,12.95,11.66,20.16
				l-0.67,0.31c-3.78-6.65-8.29-12.8-13.7-17.94c-2.73-2.54-5.58-4.92-8.66-6.94c-3.09-2.01-6.33-3.76-9.68-5.21
				c-6.78-2.88-14.02-3.94-21.14-5.42c-7.2-1.4-14.56-2.24-22.34-3.02L633.52,476.5z"/>
			<path class="st6" d="M785.37,477.23c-7.78,0.77-15.14,1.62-22.34,3.02c-7.12,1.47-14.36,2.53-21.14,5.42
				c-3.36,1.45-6.59,3.2-9.68,5.21c-3.08,2.03-5.93,4.4-8.66,6.94c-5.41,5.14-9.92,11.29-13.7,17.94l-0.67-0.31
				c2.73-7.21,6.69-14.03,11.66-20.16c2.61-2.96,5.4-5.79,8.5-8.29c3.11-2.49,6.44-4.73,9.95-6.67c7.04-3.75,14.71-6.94,22.78-7.44
				c4.01-0.26,8.02-0.19,11.97,0.39c3.94,0.56,7.83,1.51,11.48,3.23L785.37,477.23z"/>
		</g>
	</g>
</g>
<g id="sphinx">
	<g>
		<linearGradient id="SVGID_37_" gradientUnits="userSpaceOnUse" x1="167.0394" y1="1163.3965" x2="719.9166" y2="1217.3358">
			<stop  offset="0" style="stop-color:#FBCA9C"/>
			<stop  offset="0.5069" style="stop-color:#F5A573"/>
			<stop  offset="1" style="stop-color:#AB5157"/>
		</linearGradient>
		<path class="st47" d="M901.83,1114.08c-13.31,148.29-70.84,195.22-152.69,212.34c-24.27,5.08-50.75,7.51-78.8,9.21
			c-70.48,4.27-65.67,81.36-65.67,81.36H380.24c-3.15-47.92,18.83-77.4,65.67-81.36c172.02-25.26,159.93-191.84,168.29-218.19
			c6.07-19.06,47.06-30.34,71.69-38.66c9.39-3.19,16.45-5.93,18.2-8.54c6.79-12.95,9.93-42.12,10.52-53.26
			c9.22,5.8,19.6,9.08,30.66,9.08h29.85c5.57,0,11.01-0.58,16.23-1.71c18.16-3.87,34.07-14.11,45.53-28.41
			c3.06,2.38,4.54,5.57,3.78,9.84c-4.72,25.8,14.74,57.72,14.74,57.72s8.59,3.82,27.51,12.05c0.04,0,0.09,0,0.09,0
			c0.09,0.04,0.18,0.09,0.27,0.13c0.76,0.31,1.57,0.72,2.38,1.08c2.74,1.39,5.62,3.51,8.18,6.83h0.04
			C898.32,1089.31,901.83,1098.61,901.83,1114.08z"/>
		<path class="st48" d="M801.85,988.38l-0.45,1.39c-0.09,0-0.22,0-0.31,0.04C801.31,989.36,801.58,988.87,801.85,988.38z"/>
		<g>
			<path class="st49" d="M752.26,1287.98c1.69-6.64,2.71-11.97,2.82-15.36c0.79-23.95-22.76-46.49-46.3,18.32
				c-6.04,16.61-19.73,27.79-37.36,35.47C711.03,1320.42,742.72,1310.6,752.26,1287.98z"/>
			<path class="st49" d="M604.66,1417h-89.71c0,0-6.9-49.75,38.25-71.86c-19.34,1.17-35.68,2.43-45.32,5.67
				c-37.67,12.68-28.25,66.19-28.25,66.19s218.94,0,223.65,0c0,0,0,0,0,0L604.66,1417z"/>
		</g>
		<linearGradient id="SVGID_38_" gradientUnits="userSpaceOnUse" x1="934.2614" y1="1339.448" x2="958.9836" y2="1116.948">
			<stop  offset="0" style="stop-color:#F29067"/>
			<stop  offset="1" style="stop-color:#EFC286"/>
		</linearGradient>
		<path class="st50" d="M1247.66,1417.01h-643c0,0-4.81-77.09,65.67-81.36c122.53-7.37,214.23-29.22,231.49-221.56
			c0-15.46-3.51-24.77-7.96-30.48h-0.04c-2.56-3.33-5.44-5.44-8.18-6.83c2.74,1.26,5.53,2.74,8.32,4.45
			c0.9,0.54,1.84,1.12,2.74,1.75c0.13,0.04,0.22,0.09,0.36,0.22c0.22,0.09,0.45,0.27,0.67,0.45c0.04,0,0.09,0,0.13,0.09
			c1.26,0.81,2.47,1.71,3.73,2.61c0.54,0.41,1.03,0.81,1.57,1.26c0.85,0.67,1.75,1.39,2.61,2.16c0.76,0.63,1.48,1.3,2.25,1.98
			c3.55,3.24,7.01,6.97,10.29,11.15c32.5,41.8,189.1,0.67,262.33,56.77c1.26,0.94,2.47,1.98,3.69,3.01
			c0.81,0.67,1.57,1.39,2.34,2.16c2.52,2.25,4.94,4.76,7.24,7.46c0.72,0.81,1.39,1.66,2.07,2.52c0.94,1.17,1.89,2.38,2.79,3.6
			c0.94,1.21,1.84,2.47,2.7,3.73c1.8,2.56,3.46,5.17,5.08,7.91c3.55,6.02,6.83,12.45,9.8,19.24c0.99,2.25,1.93,4.54,2.88,6.88
			c0.58,1.44,1.12,2.83,1.66,4.27c0.54,1.44,1.08,2.83,1.57,4.27c0.72,1.98,1.39,4,2.07,6.02c0.54,1.66,1.08,3.33,1.62,5.03
			c0.63,1.98,1.21,3.96,1.8,5.98c0.36,1.17,0.72,2.38,1.03,3.55c0.36,1.35,0.76,2.7,1.08,4.05c0.72,2.56,1.35,5.12,1.98,7.69
			c0.4,1.62,0.81,3.28,1.17,4.9c0.36,1.62,0.72,3.24,1.08,4.85c0.72,3.28,1.39,6.52,2.02,9.8c0.27,1.3,0.49,2.61,0.76,3.91
			c0.49,2.61,0.94,5.26,1.39,7.87c0.22,1.3,0.45,2.61,0.67,3.91c0.63,3.91,1.21,7.82,1.75,11.69c0.18,1.3,0.36,2.61,0.54,3.87
			c0.36,2.56,0.67,5.12,0.99,7.69c0.81,6.38,1.48,12.63,2.02,18.74c0.13,1.44,0.27,2.88,0.4,4.32c0.13,1.39,0.27,2.83,0.36,4.22
			c0.05,0.72,0.14,1.44,0.18,2.16c0.13,1.71,0.27,3.42,0.36,5.08c0.22,2.92,0.45,5.75,0.58,8.54c0.22,3.28,0.4,6.52,0.54,9.57
			c0.13,2.52,0.22,4.94,0.31,7.28c0.04,1.26,0.09,2.47,0.13,3.69c0.09,1.44,0.13,2.83,0.13,4.18c0.09,1.62,0.09,3.19,0.13,4.68
			C1248.02,1405.82,1247.66,1417.01,1247.66,1417.01z"/>
		<linearGradient id="SVGID_39_" gradientUnits="userSpaceOnUse" x1="1354.3115" y1="1355.5483" x2="1032.174" y2="1295.6156">
			<stop  offset="0" style="stop-color:#FBCA9C"/>
			<stop  offset="0.5069" style="stop-color:#F5A573"/>
			<stop  offset="1" style="stop-color:#AB5157"/>
		</linearGradient>
		<path class="st51" d="M1206.52,1190.08c-52.11-16.09-80.8,24.06-88.11,52.72c-7.31,28.63-10.45,66.67-64.35,89.94
			c-53.9,23.25-38.7,84.25-38.7,84.25h-95.49c0,0-8.63-68.53,80.83-84.25c89.46-15.75,87.11-48.55,97.31-84.28
			C1108.21,1212.74,1153.41,1158.98,1206.52,1190.08z"/>
		<linearGradient id="SVGID_40_" gradientUnits="userSpaceOnUse" x1="677.4706" y1="918.3445" x2="813.0386" y2="918.3445">
			<stop  offset="0" style="stop-color:#F29067"/>
			<stop  offset="1" style="stop-color:#EFC286"/>
		</linearGradient>
		<path class="st52" d="M813.04,894.66v47.38c0,3.19-0.13,6.34-0.45,9.44c-1.21,13.53-4.99,26.12-10.74,36.9
			c-0.27,0.49-0.54,0.99-0.76,1.44c-2.38,4.18-4.99,8.09-7.87,11.69c-8.36,10.29-18.83,17.93-30.57,21.8
			c-5.53,1.84-11.37,2.79-17.4,2.79c-11.06,0-21.44-3.28-30.66-9.08c-22.03-13.84-37.13-42.21-37.13-74.98v-47.38
			c0-8,0.9-15.78,2.61-23.1c7.82-34.12,32.63-59.38,62.35-60.86c0.94-0.04,1.89-0.09,2.83-0.09c33.04,0,60.5,29.26,66.53,68.01
			C812.63,883.82,813.04,889.17,813.04,894.66z"/>
		<linearGradient id="SVGID_41_" gradientUnits="userSpaceOnUse" x1="742.423" y1="842.5477" x2="851.111" y2="842.5477">
			<stop  offset="0" style="stop-color:#F29067"/>
			<stop  offset="1" style="stop-color:#EFC286"/>
		</linearGradient>
		<path class="st53" d="M851.11,827.55c-9.12-0.99-16.36,0.76-21.98,4.77c-3.96,2.79-7.15,6.74-9.57,11.55
			c-4.54,9.03-6.52,21.31-6.52,35.38c0,0-0.45-0.22-1.26-0.63c-6.02-38.75-33.49-68.01-66.53-68.01c-0.94,0-1.89,0.04-2.83,0.09
			c2.65-1.12,6.07-1.98,10.34-2.61c69.99-10.2,96.91,17.89,98.3,19.42L851.11,827.55z"/>
		<linearGradient id="SVGID_42_" gradientUnits="userSpaceOnUse" x1="745.2551" y1="929.1998" x2="855.696" y2="929.1998">
			<stop  offset="0" style="stop-color:#FBCA9C"/>
			<stop  offset="0.5069" style="stop-color:#F5A573"/>
			<stop  offset="1" style="stop-color:#AB5157"/>
		</linearGradient>
		<path class="st54" d="M829.13,832.31c-3.96,2.79-7.15,6.74-9.57,11.55c-4.54,9.04-6.52,21.31-6.52,35.38c0,0-0.45-0.22-1.26-0.63
			c0.85,5.21,1.26,10.56,1.26,16.05v47.38c0,3.19-0.14,6.34-0.45,9.44c-1.21,13.53-4.99,26.12-10.74,36.9l-0.45,1.39
			c-0.09,0-0.22,0-0.31,0.04c-2.38,4.18-4.99,8.09-7.87,11.69c-8.36,10.29-18.83,17.94-30.57,21.8c-5.53,1.84-11.37,2.79-17.4,2.79
			h17.35h12.5c5.57,0,11.01-0.58,16.23-1.71c18.16-3.87,34.07-14.11,45.53-28.41c11.78-14.56,18.83-33.4,18.83-53.94v-47.38
			C855.7,869.89,845.45,847.64,829.13,832.31z"/>
		<linearGradient id="SVGID_43_" gradientUnits="userSpaceOnUse" x1="749.8838" y1="1007.5185" x2="920.2415" y2="931.4255">
			<stop  offset="0" style="stop-color:#FBCA9C"/>
			<stop  offset="0.5069" style="stop-color:#F5A573"/>
			<stop  offset="1" style="stop-color:#AB5157"/>
		</linearGradient>
		<path class="st55" d="M954.5,989.7c0,0-48.1,28-56.05,72.82l-4.59,21.08h-0.04c-2.56-3.33-5.44-5.44-8.18-6.83
			c-0.81-0.36-1.62-0.76-2.38-1.08c-0.09-0.04-0.18-0.09-0.27-0.13c0,0-0.04,0-0.09,0c-18.92-8.23-27.51-12.05-27.51-12.05
			S838.71,1044,837,1008.22c-0.27-5.57-0.36-6.52-0.13-12.27c11.78-14.56,18.83-33.4,18.83-53.94v-47.38
			c0-24.77-10.25-47.02-26.57-62.34c3.15-2.25,6.83-3.82,11.1-4.54c3.28-0.58,6.88-0.67,10.88-0.22
			C915.12,890.09,954.5,989.7,954.5,989.7z"/>
		<path class="st48" d="M693.37,840.58"/>
		<linearGradient id="SVGID_44_" gradientUnits="userSpaceOnUse" x1="607.6657" y1="1057.5381" x2="695.3174" y2="967.639">
			<stop  offset="0" style="stop-color:#FBCA9C"/>
			<stop  offset="0.5069" style="stop-color:#F5A573"/>
			<stop  offset="1" style="stop-color:#AB5157"/>
		</linearGradient>
		<path class="st56" d="M714.6,1017.01c-0.58,11.15-3.73,40.32-10.52,53.26c-1.75,2.61-8.81,5.35-18.2,8.54
			c3.33-36.05-43.24-70.17-43.24-70.17c-4.5-46.61,37.44-137.1,37.44-137.1c-1.71,7.33-2.61,15.1-2.61,23.1v47.38
			C677.47,974.8,692.57,1003.16,714.6,1017.01z"/>
	</g>
	<linearGradient id="SVGID_45_" gradientUnits="userSpaceOnUse" x1="548.3498" y1="1402.6906" x2="689.1917" y2="1310.5441">
		<stop  offset="2.100000e-07" style="stop-color:#F6A877"/>
		<stop  offset="1" style="stop-color:#F5A674;stop-opacity:0"/>
	</linearGradient>
	<path class="st57" d="M749.14,1326.42c-24.27,5.08-50.75,7.51-78.8,9.21c-70.48,4.27-65.67,81.36-65.67,81.36h-89.72
		c0,0-6.88-49.76,38.25-71.87c20-6.29,95.83-16.95,118.22-18.7C693.22,1324.67,746.08,1326.33,749.14,1326.42z"/>
	<g>
		<linearGradient id="SVGID_46_" gradientUnits="userSpaceOnUse" x1="330.821" y1="1522.2279" x2="434.2051" y2="1356.6638">
			<stop  offset="0" style="stop-color:#FBCA9C"/>
			<stop  offset="0.5069" style="stop-color:#F5A573"/>
			<stop  offset="1" style="stop-color:#AB5157"/>
		</linearGradient>
		<path class="st58" d="M417.39,1363.59c0,0-19.9,23.19-19.88,56.9h9.94C407.45,1420.5,405.78,1386.47,417.39,1363.59z"/>
		<linearGradient id="SVGID_47_" gradientUnits="userSpaceOnUse" x1="347.216" y1="1532.4658" x2="450.6003" y2="1366.9012">
			<stop  offset="0" style="stop-color:#FBCA9C"/>
			<stop  offset="0.5069" style="stop-color:#F5A573"/>
			<stop  offset="1" style="stop-color:#AB5157"/>
		</linearGradient>
		<path class="st59" d="M438.53,1363.94c0,0-15.36,18.73-15.36,53.94h9.74C432.92,1417.88,430.08,1386.86,438.53,1363.94z"/>
		<linearGradient id="SVGID_48_" gradientUnits="userSpaceOnUse" x1="363.7091" y1="1542.7651" x2="467.0936" y2="1377.2002">
			<stop  offset="0" style="stop-color:#FBCA9C"/>
			<stop  offset="0.5069" style="stop-color:#F5A573"/>
			<stop  offset="1" style="stop-color:#AB5157"/>
		</linearGradient>
		<path class="st60" d="M461.35,1363.59c0,0-13.29,22.44-13.29,54.28h7.87C455.93,1417.88,456.86,1373.33,461.35,1363.59z"/>
	</g>
	<g>
		<linearGradient id="SVGID_49_" gradientUnits="userSpaceOnUse" x1="467.5428" y1="1522.2274" x2="570.9264" y2="1356.6639">
			<stop  offset="0" style="stop-color:#FBCA9C"/>
			<stop  offset="0.5069" style="stop-color:#F5A573"/>
			<stop  offset="1" style="stop-color:#AB5157"/>
		</linearGradient>
		<path class="st61" d="M554.11,1363.59c0,0-19.9,23.19-19.88,56.9h9.94C544.18,1420.5,542.5,1386.47,554.11,1363.59z"/>
		<linearGradient id="SVGID_50_" gradientUnits="userSpaceOnUse" x1="483.9371" y1="1532.4664" x2="587.3218" y2="1366.9012">
			<stop  offset="0" style="stop-color:#FBCA9C"/>
			<stop  offset="0.5069" style="stop-color:#F5A573"/>
			<stop  offset="1" style="stop-color:#AB5157"/>
		</linearGradient>
		<path class="st62" d="M575.26,1363.94c0,0-15.36,18.73-15.36,53.94h9.74C569.64,1417.88,566.8,1386.86,575.26,1363.94z"/>
		<linearGradient id="SVGID_51_" gradientUnits="userSpaceOnUse" x1="500.4301" y1="1542.7659" x2="603.8151" y2="1377.2002">
			<stop  offset="0" style="stop-color:#FBCA9C"/>
			<stop  offset="0.5069" style="stop-color:#F5A573"/>
			<stop  offset="1" style="stop-color:#AB5157"/>
		</linearGradient>
		<path class="st63" d="M598.08,1363.59c0,0-13.29,22.44-13.29,54.28h7.87C592.65,1417.88,593.58,1373.33,598.08,1363.59z"/>
	</g>
	<g class="st64">
		<path class="st6" d="M956.58,1367.08c0,0-19.9,23.19-19.88,56.9h9.94C946.64,1423.98,944.97,1389.96,956.58,1367.08z"/>
		<path class="st6" d="M977.72,1367.42c0,0-15.36,18.73-15.36,53.94h9.74C972.1,1421.36,969.27,1390.35,977.72,1367.42z"/>
		<path class="st6" d="M1000.54,1367.08c0,0-13.29,22.44-13.29,54.28h7.87C995.12,1421.36,996.05,1376.82,1000.54,1367.08z"/>
	</g>
	<linearGradient id="SVGID_52_" gradientUnits="userSpaceOnUse" x1="897.8823" y1="973.0828" x2="804.0501" y2="833.7391">
		<stop  offset="0" style="stop-color:#F29067"/>
		<stop  offset="1" style="stop-color:#EFC286"/>
	</linearGradient>
	<path class="st65" d="M954.5,989.7c0,0-48.1,28-56.05,72.82c3.24-41.94,46.66-74.17,46.66-74.17S869.77,830.9,840.24,827.79
		c0,0,0,0,0-0.04c3.28-0.58,6.88-0.67,10.88-0.22C915.12,890.09,954.5,989.7,954.5,989.7z"/>
	
		<linearGradient id="SVGID_53_" gradientUnits="userSpaceOnUse" x1="759.9092" y1="976.3618" x2="759.9092" y2="891.933" gradientTransform="matrix(0.9992 0.0406 -0.0406 0.9992 43.8176 -37.7467)">
		<stop  offset="0" style="stop-color:#FBCA9C"/>
		<stop  offset="0.5069" style="stop-color:#F5A573"/>
		<stop  offset="1" style="stop-color:#AB5157"/>
	</linearGradient>
	<path class="st66" d="M741.22,903.23c0,0,33.92-3.12,39.72,1.61c5.81,4.73,9.54,12.38,9.54,12.38s-36.34,1.15-38.57,0.68
		C749.69,917.44,741.22,903.23,741.22,903.23z"/>
	
		<linearGradient id="SVGID_54_" gradientUnits="userSpaceOnUse" x1="702.7657" y1="976.2734" x2="702.7657" y2="891.8436" gradientTransform="matrix(0.994 0.0404 -0.0406 0.9992 48.2891 -37.484)">
		<stop  offset="0" style="stop-color:#FBCA9C"/>
		<stop  offset="0.5069" style="stop-color:#F5A573"/>
		<stop  offset="1" style="stop-color:#AB5157"/>
	</linearGradient>
	<path class="st67" d="M689.22,902.47c0,0,28.05-3.36,32.81,1.33c4.76,4.69,7.8,12.31,7.8,12.31s-30.03,1.4-31.87,0.95
		C696.12,916.62,689.22,902.47,689.22,902.47z"/>
	<linearGradient id="SVGID_55_" gradientUnits="userSpaceOnUse" x1="784.8962" y1="1005.8536" x2="710.8718" y2="940.1381">
		<stop  offset="0" style="stop-color:#FBCA9C"/>
		<stop  offset="0.5069" style="stop-color:#F5A573"/>
		<stop  offset="1" style="stop-color:#AB5157"/>
	</linearGradient>
	<path class="st68" d="M716.85,962.9v-3.86l6.05-11.09l12.57,0.21l11.68,6.74c0,0,4.64,7.74,3.4,7.74
		C749.31,962.62,716.85,962.9,716.85,962.9z"/>
	<g>
		<linearGradient id="SVGID_56_" gradientUnits="userSpaceOnUse" x1="738.1168" y1="1005.8776" x2="734.4708" y2="967.2298">
			<stop  offset="0" style="stop-color:#FBCA9C"/>
			<stop  offset="0.5069" style="stop-color:#F5A573"/>
			<stop  offset="1" style="stop-color:#AB5157"/>
		</linearGradient>
		<path class="st69" d="M759.58,980.14c0-3.01-10.7-5.45-23.9-5.45c-13.2,0-23.9,2.44-23.9,5.45H759.58z"/>
		<linearGradient id="SVGID_57_" gradientUnits="userSpaceOnUse" x1="738.7344" y1="1040.2692" x2="732.3007" y2="972.0709">
			<stop  offset="0" style="stop-color:#FBCA9C"/>
			<stop  offset="0.5069" style="stop-color:#F5A573"/>
			<stop  offset="1" style="stop-color:#AB5157"/>
		</linearGradient>
		<path class="st70" d="M717.47,991.05c0,0,6.74-6.74,16.48-6.37c9.74,0.37,16.83,5.59,16.78,6.37
			C750.05,1001.53,717.47,1000.93,717.47,991.05z"/>
	</g>
</g>
<g id="desert">
	<g>
		<linearGradient id="SVGID_58_" gradientUnits="userSpaceOnUse" x1="3059.6294" y1="1760.8566" x2="927.8568" y2="1811.8987">
			<stop  offset="0" style="stop-color:#F29067"/>
			<stop  offset="1" style="stop-color:#EFC286"/>
		</linearGradient>
		<path class="st71" d="M2183.16,1388.14v834.71H-64.32v-656.35c0.18-0.04,0.36-0.04,0.54-0.09c46.57-7.15,92.1-19.51,137.46-34.61
			c38.57-12.77,76.95-27.51,115.79-42.66c15.42-6.02,30.93-12.09,46.48-18.11c2.2-0.9,4.36-1.75,6.56-2.56
			c7.69-2.97,15.37-5.93,23.1-8.85c6.56-2.52,13.17-5.03,19.82-7.46l9.44-3.46c3.1-1.17,6.29-2.29,9.44-3.46
			c0.81-0.31,1.66-0.63,2.52-0.9c6.79-2.43,13.57-4.85,20.41-7.24c6.7-2.29,13.4-4.59,20.14-6.83c0.4-0.13,0.76-0.27,1.17-0.36
			c2.74-0.94,5.53-1.8,8.27-2.7c1.75-0.58,3.51-1.12,5.26-1.71c1.75-0.58,3.51-1.12,5.26-1.66c3.64-1.17,7.28-2.25,10.92-3.37
			c3.82-1.21,7.69-2.34,11.55-3.46c0,0,0-0.04,0.04,0c2.38-0.72,4.76-1.44,7.15-2.11c0.22-0.05,0.45-0.13,0.67-0.18
			c3.24-0.94,6.47-1.84,9.75-2.74c4.67-1.3,9.39-2.56,14.11-3.82c0.67-0.18,1.35-0.31,2.07-0.49c1.89-0.49,3.78-0.99,5.71-1.48
			c1.03-0.27,2.07-0.49,3.15-0.76c2.56-0.63,5.12-1.26,7.73-1.89c3.01-0.76,6.02-1.48,9.03-2.11v-0.05
			c0.72-0.18,1.44-0.31,2.16-0.45c1.75-0.4,3.51-0.81,5.26-1.17c1.75-0.4,3.51-0.81,5.3-1.17c1.8-0.4,3.6-0.81,5.44-1.17
			c3.15-0.63,6.29-1.3,9.44-1.89c0.67-0.13,1.35-0.27,2.02-0.4c0,0,0,0,0.04,0c2.52-0.49,5.03-0.99,7.55-1.44
			c3.51-0.67,7.06-1.3,10.61-1.89c2.92-0.49,5.89-0.99,8.81-1.44c1.8-0.31,3.6-0.58,5.44-0.85c2.02-0.31,4.05-0.63,6.07-0.9v-0.04
			c2.02-0.27,4.09-0.58,6.11-0.85c0.99-0.13,2.02-0.27,3.01-0.36c3.28-0.45,6.61-0.85,9.93-1.26c0,0,0,0,0.04,0
			c1.62-0.18,3.24-0.36,4.9-0.54c1.89-0.22,3.78-0.45,5.71-0.63c5.35-0.58,10.7-1.08,16.09-1.48c0.76-0.09,1.53-0.13,2.29-0.18
			c1.75-0.18,3.46-0.31,5.21-0.4c6.56-0.49,13.13-0.9,19.78-1.17c1.39-0.09,2.83-0.13,4.27-0.18c4.99-0.18,10.07-0.31,15.15-0.4
			c1.93-0.04,3.91-0.09,5.89-0.09h0.04c4.05,0,8.09,0,12.18,0.04c13.98,0.13,28.18,0.67,42.61,1.71c3.64,0.27,7.28,0.49,10.97,0.81
			c5.89,0.4,11.78,0.85,17.71,1.3c44.46,3.37,89.4,7.33,134.35,11.55c1.75,0.18,3.55,0.31,5.3,0.49c27.1,2.56,54.21,5.21,81.09,7.87
			c1.35,0.13,2.65,0.27,4,0.4c4.72,0.49,9.39,0.94,14.07,1.39c0.13,0,0.22,0.04,0.36,0.04c2.83,0.27,5.71,0.54,8.54,0.85
			c5.35,0.54,10.7,1.08,16.05,1.57c2.88,0.31,5.71,0.58,8.59,0.9c5.35,0.54,10.7,1.03,16,1.57c2.56,0.27,5.17,0.54,7.73,0.81
			c2.92,0.27,5.89,0.58,8.81,0.9c1.26,0.09,2.52,0.22,3.78,0.36l4.76,0.45l2.07,0.22l15.96,1.57c4,0.4,7.96,0.76,11.91,1.17
			c52.28,5.08,103.2,9.93,151.84,13.84c0.22,0,0.45,0.04,0.67,0.04c17.58,1.44,34.88,2.7,51.78,3.82
			c34.34,2.43,67.15,4.14,98.17,5.08c0.04,0,0.09-0.09,0.13,0c2.43,0.09,4.81,0.18,7.24,0.22h0.18c21.58,0.63,42.25,0.81,61.85,0.49
			c4.81-0.09,9.53-0.18,14.2-0.31c37.22-1.03,70.3-4,98.17-9.35c0.27-0.04,0.49-0.09,0.76-0.13c9.48-1.93,19.28-4.05,29.44-6.38
			h0.04c0.67-0.18,1.39-0.36,2.11-0.54c0.9-0.22,1.75-0.4,2.65-0.63c12.81-3.06,26.12-6.52,39.96-10.25
			c0.67-0.13,1.39-0.31,2.11-0.54h0.04c15.37-4.14,31.38-8.59,47.92-13.08c0.85-0.22,1.66-0.45,2.52-0.67h0.05
			c54.79-14.97,115.16-30.84,179.08-41.13c0.04,0,0.04,0,0.09,0c2.29-0.4,4.63-0.81,6.97-1.12c1.98-0.31,3.96-0.58,5.93-0.9
			c1.93-0.27,3.87-0.58,5.8-0.85c3.78-0.54,7.55-1.03,11.37-1.48c0.94-0.14,1.89-0.27,2.83-0.36c3.19-0.45,6.38-0.81,9.62-1.17
			c1.3-0.18,2.61-0.31,3.91-0.45c9.17-1.03,18.38-1.98,27.69-2.65h0.27c2.65-0.22,5.35-0.4,8-0.54c27.33-1.89,55.06-2.25,83.11-0.67
			c1.48,0.04,2.97,0.13,4.45,0.23h0.18c1.39,0.04,2.83,0.13,4.23,0.22h0.22c12.63,0.94,25.31,2.16,38.03,3.87
			c3.55,0.45,7.15,0.99,10.7,1.53c4.22,0.63,8.45,1.3,12.68,2.07c0.18,0.05,0.36,0.05,0.54,0.09
			c33.58,5.89,67.38,15.06,101.09,28.09c3.46,1.35,6.88,2.7,10.34,4.14C2182.13,1387.73,2182.67,1387.91,2183.16,1388.14z"/>
		<linearGradient id="SVGID_59_" gradientUnits="userSpaceOnUse" x1="-238.6183" y1="1998.4286" x2="637.9002" y2="1535.4479">
			<stop  offset="0" style="stop-color:#FBCA9C"/>
			<stop  offset="0.5069" style="stop-color:#F5A573"/>
			<stop  offset="1" style="stop-color:#AB5157"/>
		</linearGradient>
		<path class="st72" d="M-63.78,1945.37c-0.18,0.04-0.36,0.04-0.54,0.09v-378.97c0.18-0.04,0.36-0.04,0.54-0.09
			c46.57-7.15,92.1-19.51,137.46-34.61c38.57-12.77,76.95-27.51,115.79-42.66c15.42-6.02,30.93-12.09,46.48-18.11
			c2.2-0.9,4.36-1.75,6.56-2.56c7.69-2.97,15.37-5.93,23.1-8.85c6.56-2.52,13.17-5.03,19.82-7.46l9.44-3.46
			c3.1-1.17,6.29-2.29,9.44-3.46c0.81-0.31,1.66-0.63,2.52-0.9c6.79-2.43,13.57-4.85,20.41-7.24c6.7-2.29,13.4-4.59,20.14-6.83
			c0.4-0.13,0.76-0.27,1.17-0.36c2.74-0.94,5.53-1.8,8.27-2.7c1.75-0.58,3.51-1.12,5.26-1.71c1.75-0.58,3.51-1.12,5.26-1.66
			c3.64-1.17,7.28-2.25,10.92-3.37c3.82-1.21,7.69-2.34,11.55-3.46c0,0,0-0.04,0.04,0c2.38-0.72,4.76-1.44,7.15-2.11
			c0.22-0.05,0.45-0.13,0.67-0.18c3.24-0.94,6.47-1.84,9.75-2.74c4.67-1.3,9.39-2.56,14.11-3.82c0.67-0.18,1.39-0.36,2.07-0.54
			c1.89-0.49,3.78-0.99,5.71-1.44c1.03-0.27,2.07-0.54,3.15-0.81c2.56-0.63,5.12-1.26,7.73-1.84c3.01-0.76,6.02-1.48,9.03-2.11
			v-0.05c0.72-0.18,1.44-0.31,2.16-0.45c1.75-0.45,3.51-0.81,5.26-1.21c1.75-0.41,3.51-0.76,5.3-1.12c1.8-0.4,3.6-0.81,5.44-1.17
			c3.15-0.63,6.29-1.3,9.44-1.89c0.67-0.13,1.35-0.27,2.02-0.4c0,0,0,0,0.04,0c2.52-0.49,5.03-0.99,7.55-1.44
			c3.51-0.67,7.06-1.3,10.61-1.89c2.92-0.49,5.89-0.99,8.81-1.44c1.8-0.31,3.6-0.58,5.44-0.85c2.02-0.31,4.05-0.63,6.07-0.9
			c3.06-0.45,6.07-0.9,9.13-1.26c3.28-0.45,6.61-0.85,9.93-1.26c0,0,0,0,0.04,0c1.53,0.18,3.01,0.36,4.45,0.58
			c1.98,0.27,3.82,0.58,5.62,0.94c6.52,1.21,11.91,2.74,16.32,4.54v0.05c2.52,1.03,4.72,2.16,6.61,3.37
			c8.63,5.53,11.28,12.86,10.02,21.44c-0.45,3.06-1.39,6.29-2.79,9.62c-12.54,31.1-59.96,73.81-68.46,108.55
			c-2.65,10.79-1.53,20.81,5.48,29.44c32.54,40.09,172.11,80.1,263.27,127.52c0.04,0,0.04,0.04,0.04,0.04h0.04
			c33.49,17.44,60.46,35.82,73.18,55.65C889.69,1809.27,180.93,1912.25-63.78,1945.37z"/>
	</g>
	<g>
		<linearGradient id="SVGID_60_" gradientUnits="userSpaceOnUse" x1="2.2366" y1="1850.8987" x2="1865.073" y2="1850.8987">
			<stop  offset="0" style="stop-color:#FBCA9C"/>
			<stop  offset="0.5069" style="stop-color:#F5A573"/>
			<stop  offset="1" style="stop-color:#AB5157"/>
		</linearGradient>
		<path class="st73" d="M2183.16,1504.15v477.18c-98.75,2.83-253.07,23.78-428.37,47.33c-243.99,32.77-528.7,70.53-760.91,71.29
			c-299.5,0.94-1040.9,96.96-1046.42,98.17c-0.85,0.18-4.81-2.25-11.24-6.79c-0.18-0.09-0.36-0.22-0.54-0.36v-276.21
			c0.18-0.04,0.36-0.04,0.54-0.09c203.17-20.27,437.94-43.47,436.46-45.13c-54.12-61.09-105.68-121.72-105.68-121.72
			c0.31,0,1.48,0.04,3.51,0.13c0.85,0.05,1.84,0.09,3.01,0.14c5.89,0.31,15.42,0.76,28,1.26c13.62,0.54,30.79,1.08,50.66,1.35H353
			c21.98,0.31,47.2,0.31,74.44-0.31c0.4-0.05,0.81-0.05,1.21-0.05c6.2-0.13,12.54-0.31,18.97-0.54c4.27-0.13,8.59-0.31,12.95-0.49
			c2.16-0.04,4.31-0.13,6.52-0.27c3.42-0.13,6.83-0.27,10.25-0.45h0.04c5.44-0.27,10.92-0.58,16.45-0.94
			c22.56-1.3,45.71-3.19,69.04-5.71c9.35-0.99,18.7-2.07,28-3.33c9.35-1.21,18.7-2.52,27.96-4c9.3-1.44,18.52-3.01,27.69-4.72
			c11.46-2.11,22.79-4.45,33.94-7.01c2.25-0.54,4.45-1.03,6.7-1.57c2.2-0.49,4.4-1.03,6.61-1.62c2.2-0.49,4.4-1.03,6.56-1.66
			c4.36-1.12,8.68-2.29,12.95-3.51c8.59-2.38,16.99-4.94,25.22-7.69c8.23-2.7,16.23-5.57,24-8.68c3.91-1.48,7.73-3.06,11.51-4.72
			c1.03-0.36,2.02-0.81,3.06-1.26h0.04c0.85-0.4,1.71-0.81,2.56-1.21c5.57-2.47,11.01-5.08,16.27-7.78
			c107.43-54.84,220.52-115.48,347.68-134.44c58.84-8.9,120.69-8.81,186.36,4.9c0.45,0.05,0.94,0.18,1.39,0.27
			c9.84,2.11,19.73,4.45,29.76,7.19c6.07,1.62,12.23,3.37,18.38,5.26c8.36,2.56,16.81,5.35,25.35,8.41
			c30.61,10.92,64.91,16.81,101.77,18.92c1.66,0.09,3.33,0.18,5.03,0.27c11.06,0.54,22.29,0.72,33.76,0.63c1.57,0,3.15,0,4.72-0.04
			c16-0.22,32.36-1.03,49.08-2.29c4.36-0.31,8.77-0.67,13.17-1.08c13.75-1.21,27.64-2.74,41.71-4.54
			c32.86-4.14,66.48-9.57,100.28-15.78c25.53-4.63,51.2-9.71,76.73-14.88c58.03-11.78,115.39-24.18,169.41-33.94
			C2068.63,1509.68,2131.33,1501.54,2183.16,1504.15z"/>
		<linearGradient id="SVGID_61_" gradientUnits="userSpaceOnUse" x1="143.2007" y1="1908.661" x2="1019.7166" y2="1553.559">
			<stop  offset="0" style="stop-color:#FBCA9C"/>
			<stop  offset="0.5069" style="stop-color:#F5A573"/>
			<stop  offset="1" style="stop-color:#AB5157"/>
		</linearGradient>
		<path class="st74" d="M1082.89,1687.59c39.47,53.13-157.55,154.63-157.55,154.63s-133.28,55.24-232.79,95.34
			c-43.47,17.53-235.31,57.36-433.45,91.11c-108.24,18.43-218.32,35.02-307.14,45.17c-5.35,0.63-10.56,1.21-15.73,1.75
			c-0.18,0.05-0.36,0.05-0.54,0.09v-334.42c0.18,0,0.36-0.04,0.54-0.04c152.69-23.15,330.78,6.61,330.78,6.61
			c0.31,0,1.48,0.04,3.51,0.13c0.85,0.05,1.89,0.09,3.01,0.14c5.89,0.31,15.42,0.76,28,1.26c13.62,0.54,30.79,1.03,50.66,1.35H353
			c21.98,0.27,47.2,0.27,74.44-0.31c0.4-0.05,0.81-0.05,1.21-0.05c6.2-0.13,12.54-0.31,18.97-0.54c4.27-0.13,8.59-0.31,12.95-0.49
			c2.16-0.09,4.36-0.18,6.52-0.27c8.81-0.4,17.71-0.85,26.75-1.39c22.52-1.35,45.71-3.24,69.04-5.71c9.35-1.03,18.7-2.11,28-3.33
			c9.35-1.21,18.7-2.56,27.96-4c9.3-1.44,18.52-3.01,27.69-4.72c11.46-2.16,22.79-4.5,33.94-7.01c2.25-0.54,4.45-1.03,6.7-1.57
			c2.2-0.54,4.4-1.08,6.61-1.62c2.2-0.54,4.36-1.12,6.56-1.66c4.36-1.12,8.68-2.29,12.95-3.51c8.59-2.43,16.99-4.99,25.22-7.69
			c8.18-2.74,16.23-5.62,24-8.68c3.91-1.48,7.73-3.06,11.51-4.72c1.03-0.45,2.02-0.9,3.01-1.3c0.9-0.4,1.75-0.76,2.65-1.17
			c5.57-2.47,11.01-5.08,16.27-7.78c107.43-54.84,220.52-115.48,347.68-134.44C1069.09,1564.88,1043.47,1634.55,1082.89,1687.59z"/>
	</g>
</g>
<g id="front">
	<path class="st49" d="M2183.16,1980.97v241.87H-64.32v-153.64c0.18,0.04,0.36,0.09,0.54,0.13c4.99,1.48,10.2,3.01,15.73,4.49
		c123.79,34.34,378.56,77.76,746.39,5.71c75.38-14.74,148.2-32.32,219.13-50.88c39.65-10.38,78.71-21.13,117.27-31.87
		c89.13-24.77,175.8-49.62,261.56-70.75c2.02-0.49,4.05-0.99,6.07-1.48c2.52-0.63,5.03-1.26,7.55-1.84
		c6.52-1.57,13.04-3.15,19.55-4.67c21.67-5.08,43.2-9.89,64.77-14.38h0.04c0.04,0,0.04,0,0.09,0c0.76-0.18,1.62-0.31,2.38-0.49
		c4.14-0.9,8.18-1.71,12.32-2.56c0.05,0,0.09,0,0.09,0c2.02-0.4,4.09-0.81,6.11-1.21c0.27-0.05,0.54-0.09,0.81-0.13
		c0.13-0.05,0.27-0.05,0.4-0.09c1.84-0.36,3.73-0.72,5.62-1.08c0.45-0.09,0.85-0.18,1.3-0.27c75.56-14.61,150.94-24.86,227.31-28.05
		c10.83-0.45,21.62-0.85,32.54-0.99h0.05c6.47-0.04,12.99-0.09,19.51-0.04h2.07c9.89,0,19.78,0.18,29.71,0.54
		c1.93,0,3.87,0.09,5.8,0.13c4.76,0.18,9.53,0.36,14.29,0.58c35.38,1.71,71.02,5.12,107.11,10.52c10.25,1.53,20.5,3.24,30.84,5.08
		c6.11,1.08,12.18,2.25,18.34,3.51c0.4,0.04,0.85,0.13,1.26,0.22c4.99,0.99,10.02,2.02,15.06,3.1c2.43,0.49,4.85,1.03,7.28,1.62
		l0.67,0.14c5.08,1.08,10.16,2.29,15.24,3.55c7.06,1.66,14.11,3.37,21.22,5.26c0.31,0.09,0.67,0.18,0.99,0.27
		c7.64,1.93,15.28,4.05,23.01,6.25c1.71,0.49,3.46,0.99,5.17,1.48c0.9,0.27,1.84,0.58,2.74,0.85
		C2062.02,1928.83,2121.71,1951.58,2183.16,1980.97z"/>
	<g>
		<g>
			<path class="st49" d="M1890.91,1747.95c0,0,43.33,66.53,45.11,76.3c1.78,9.77-18.04,64.08-20.71,64.08
				c-2.67,0-24.43,4-24.43,23.1h31.09l10.44-12.44l30.48-69.71l-26.87-132.95l-46.19,17.77L1890.91,1747.95z"/>
			<path class="st49" d="M1705.59,1743.7c0,0,12.32,75.75,13.68,80.55c1.36,4.8,24.7,72.01,24.7,72.01s-19.89,4.59-13.89,20.14
				l19.65-1.62l12.04-14.46l-19.36-83.12l1.44-80.64l-27.14-10.26L1705.59,1743.7z"/>
			<path class="st49" d="M1536.72,1504.54c-7.95-22.63,23.98-38.2,51.52-43.53c27.54-5.33,33.76-28.43,56.85-15.1
				c23.1,13.32,3.55,31.09,9.77,52.41c6.22,21.32-23.98,135.91,39.09,129.69c63.07-6.22,49.04-89.96,102.64-85.3
				c50.86,4.42,44.82,45.32,67.91,45.32c23.1,0,31.09-47.08,71.06-44.42c39.97,2.67,79.06,71.06,67.07,159.01
				c-11.99,87.94,22.65,115.92,11.99,138.58c-10.66,22.65-21.59,81.85-21.59,81.85h-35.09c0,0,5.33-18.65,21.32-23.98l0.66-71.66
				c0,0-55.91-71.48-57.24-79.47c0,0-135.34,8.3-197.96,5.63l-28.22,77.08l13.19,79.22l-1.47,14.48h-34.51
				c0,0,3.64-14.48,16.97-14.48c0,0-13.63-73.98-13.63-80.64s5.82-79.37,5.82-79.37s-51.99,2.07-74.65-81.88
				c-22.65-83.94,5.33-135.91-5.33-155.9C1592.24,1492.1,1542.49,1520.97,1536.72,1504.54z"/>
		</g>
		<g>
			<g>
				<g>
					<path class="st49" d="M1382.56,1592.5c0,1.25-0.36,2.42-1.03,3.36c-1.08,1.61-2.91,2.64-4.97,2.64h-56.74
						c-2.06,0-3.9-1.03-4.97-2.64c-0.67-0.94-1.03-2.11-1.03-3.36c0-2.33,1.39-4.39,3.41-5.33c0.76-0.4,1.66-0.63,2.6-0.63h56.74
						c0.94,0,1.84,0.22,2.6,0.63C1381.17,1588.11,1382.56,1590.17,1382.56,1592.5z"/>
					<g>
						<path class="st49" d="M1378.06,1605.33c0,20.21-13.38,36.6-29.88,36.6s-29.88-16.39-29.88-36.6c0-20.21,13.38-36.6,29.88-36.6
							S1378.06,1585.12,1378.06,1605.33z"/>
						<path class="st49" d="M1381.53,1596.73c-1.08,1.61-2.91,2.64-4.97,2.64h-56.74c-2.06,0-3.9-1.03-4.97-2.64
							c0.54-3,1.3-5.96,2.38-8.69c5.33-14.39,17.16-24.43,30.97-24.43s25.64,10.04,30.97,24.43
							C1380.23,1590.77,1380.99,1593.72,1381.53,1596.73z"/>
					</g>
				</g>
				<path class="st49" d="M1368.8,1633.67c0,0,21.12,41.82,30.58,130.55c3.13,29.33-0.83,39.7,5.68,60.98
					c6.68,21.87,13.03,40.18,19.2,56.09c3.2,8.25,2.33,17.5-6.21,17.99c-24.83,1.42-69.48,4.63-90.09,5.91
					c-26.96,1.68-28.97-4.34-28.97-4.34s-7.23-42.43,8.51-89.3c4.43-13.19,7.26-19.19,7.86-40.4c1.42-50.24,7.3-105.41,21.11-137.47
					C1363.94,1569.91,1368.8,1633.67,1368.8,1633.67z"/>
				<path class="st49" d="M1368.26,1644.2c-0.23,5.47-26.25,52.82-98.16,94.37l-8.82-10.22c0,0,66.94-62.65,74.16-83.53
					C1342.66,1623.93,1368.65,1635,1368.26,1644.2z"/>
				<path class="st49" d="M1311.92,1888.14v16.19c0,2.18-1.32,4.06-3.18,4.47c-4.68,1.04-13.51,3.39-19.35,7.32
					c-3.45,2.32-1.89,8.46,2.1,8.46h34c2.16,0,3.93-1.99,3.97-4.48l0.55-33.47c0.05-2.8-2.09-4.99-4.5-4.61l-10.15,1.6
					C1313.38,1883.92,1311.92,1885.85,1311.92,1888.14z"/>
				<path class="st49" d="M1411.16,1899.09"/>
				<path class="st49" d="M1389.69,1894.77c0,0.82,6.15,6.73,4.49,10.71c-1.66,3.98-11.83,8.07-12.06,13.24s11.12,3.92,16.56,1.14
					c5.44-2.78,18.45-16.66,18.21-19.65c-0.24-2.99-13.48-16.06-14.19-16.06S1389.69,1894.77,1389.69,1894.77z"/>
			</g>
			<path class="st49" d="M1262.48,1729.73c0,0-13.26,2.52-11.83,8.83c1.44,6.31,8.41,8.57,12.92,4.88c4.51-3.69,5.59-5.96,5.59-5.96
				L1262.48,1729.73z"/>
		</g>
		<g>
			<path class="st49" d="M1370.5,1776.64c-33.01,0-69.11-10.41-107.99-31.22l2.12-3.96c65.57,35.09,122.89,40.09,170.35,14.88
				c110.47-58.68,132.79-262.88,133.01-264.94l4.47,0.47c-0.22,2.08-22.78,208.63-135.36,268.44
				C1416.6,1771.19,1394.36,1776.64,1370.5,1776.64z"/>
		</g>
	</g>
</g>
</svg>
