<?xml version="1.0" encoding="iso-8859-1"?>
<!-- Generator: Adobe Illustrator 19.0.0, SVG Export Plug-In . SVG Version: 6.00 Build 0)  -->
<svg version="1.1" id="Layer_1" xmlns="http://www.w3.org/2000/svg" xmlns:xlink="http://www.w3.org/1999/xlink" x="0px" y="0px"
	 viewBox="0 0 512 512" style="enable-background:new 0 0 512 512;" xml:space="preserve">
<g>
	<g>
		<path d="M502.883,283.125c5.879-5.878,9.117-13.696,9.117-22.014c0-17.159-13.965-31.12-31.13-31.12h-64.538
			c-0.978-8.937-8.567-15.917-17.76-15.917H342.33c-9.194,0-16.782,6.98-17.76,15.917H169c-4.142,0-7.5,3.358-7.5,7.5
			c0,4.142,3.358,7.5,7.5,7.5h155.457v32.24H30.828C22.099,277.081,15,269.853,15,261.111c0-4.31,1.675-8.355,4.717-11.39
			c3.057-3.05,7.11-4.729,11.413-4.729h103.25c4.142,0,7.5-3.358,7.5-7.5c0-4.142-3.358-7.5-7.5-7.5H31.13
			c-8.302,0-16.118,3.235-22.007,9.11C3.24,244.973,0,252.788,0,261.111c0,13.787,9.155,25.619,21.7,29.648v41.919
			c-3.617,0.535-6.396,3.644-6.396,7.41s2.779,6.874,6.396,7.41v48.041c-3.617,0.535-6.396,3.644-6.396,7.41s2.779,6.874,6.396,7.41
			v48.669c-3.617,0.535-6.396,3.644-6.396,7.41c0,4.142,3.358,7.5,7.5,7.5h4.799c0.515,0.112,1.048,0.174,1.597,0.174h453.6
			c0.549,0,1.082-0.063,1.597-0.174h4.799c4.143,0,7.5-3.358,7.5-7.5c0-3.766-2.778-6.875-6.396-7.41V410.36
			c3.617-0.535,6.396-3.644,6.396-7.41s-2.778-6.875-6.396-7.41v-48.041c3.617-0.535,6.396-3.644,6.396-7.41
			s-2.778-6.875-6.396-7.41V290.79C494.999,289.304,499.306,286.701,502.883,283.125z M339.457,231.947
			c0-1.584,1.289-2.873,2.873-2.873h56.242c1.584,0,2.872,1.289,2.872,2.873v100.64h-61.987V231.947z M36.7,292.242h287.757v40.346
			H36.7V292.242z M475.3,395.448H273.033c-4.143,0-7.5,3.358-7.5,7.5c0,4.142,3.357,7.5,7.5,7.5H475.3v48.489H36.7v-48.489h202.031
			c4.142,0,7.5-3.358,7.5-7.5c0-4.142-3.358-7.5-7.5-7.5H36.7v-47.861h294.312c0.31,0.039,0.624,0.066,0.945,0.066h76.987
			c0.321,0,0.635-0.027,0.945-0.066h65.41v20.586h-51.625c-4.143,0-7.5,3.358-7.5,7.5c0,4.142,3.357,7.5,7.5,7.5H475.3V395.448z
			 M475.3,332.587h-58.856v-40.346H475.3V332.587z M481.177,277.231h-64.733v-32.24h64.426c8.895,0.001,16.13,7.232,16.13,16.12
			c0,4.31-1.678,8.361-4.723,11.406C489.306,275.488,485.365,277.161,481.177,277.231z"/>
	</g>
</g>
<g>
	<g>
		<path d="M144.015,361.474h-33.526c-4.142,0-7.5,3.358-7.5,7.5c0,4.142,3.358,7.5,7.5,7.5h33.526c4.142,0,7.5-3.358,7.5-7.5
			C151.515,364.832,148.157,361.474,144.015,361.474z"/>
	</g>
</g>
<g>
	<g>
		<path d="M301.52,431.013h-58.145c-4.143,0-7.5,3.358-7.5,7.5c0,4.142,3.358,7.5,7.5,7.5h58.145c4.143,0,7.5-3.358,7.5-7.5
			C309.02,434.371,305.663,431.013,301.52,431.013z"/>
	</g>
</g>
<g>
	<g>
		<path d="M226.944,306.123h-37.53c-4.142,0-7.5,3.358-7.5,7.5c0,4.142,3.358,7.5,7.5,7.5h37.53c4.142,0,7.5-3.358,7.5-7.5
			C234.444,309.481,231.086,306.123,226.944,306.123z"/>
	</g>
</g>
<g>
	<g>
		<path d="M470.087,170.044h-36.323c-4.143,0-7.5,3.358-7.5,7.5c0,4.142,3.357,7.5,7.5,7.5h36.323c4.143,0,7.5-3.358,7.5-7.5
			C477.587,173.402,474.23,170.044,470.087,170.044z"/>
	</g>
</g>
<g>
	<g>
		<path d="M348.09,176.778h-36.323c-4.143,0-7.5,3.358-7.5,7.5c0,4.142,3.357,7.5,7.5,7.5h36.323c4.143,0,7.5-3.358,7.5-7.5
			C355.59,180.137,352.233,176.778,348.09,176.778z"/>
	</g>
</g>
<g>
	<g>
		<path d="M491.572,125.062h-20.538c-4.143,0-7.5,3.358-7.5,7.5c0,4.142,3.358,7.5,7.5,7.5h20.538c4.143,0,7.5-3.358,7.5-7.5
			C499.072,128.421,495.715,125.062,491.572,125.062z"/>
	</g>
</g>
<g>
	<g>
		<path d="M376.313,125.062H294.35c-4.143,0-7.5,3.358-7.5,7.5c0,4.142,3.357,7.5,7.5,7.5h81.963c4.143,0,7.5-3.358,7.5-7.5
			C383.813,128.421,380.456,125.062,376.313,125.062z"/>
	</g>
</g>
<g>
	<g>
		<path d="M208.539,170.044h-36.323c-4.142,0-7.5,3.358-7.5,7.5c0,4.142,3.358,7.5,7.5,7.5h36.323c4.142,0,7.5-3.358,7.5-7.5
			C216.039,173.402,212.681,170.044,208.539,170.044z"/>
	</g>
</g>
<g>
	<g>
		<path d="M110.49,176.778H41.454c-4.142,0-7.5,3.358-7.5,7.5c0,4.142,3.358,7.5,7.5,7.5h69.036c4.142,0,7.5-3.358,7.5-7.5
			C117.99,180.137,114.632,176.778,110.49,176.778z"/>
	</g>
</g>
<g>
	<g>
		<path d="M230.026,95.533h-20.539c-4.142,0-7.5,3.358-7.5,7.5c0,4.142,3.358,7.5,7.5,7.5h20.539c4.142,0,7.5-3.358,7.5-7.5
			C237.526,98.89,234.168,95.533,230.026,95.533z"/>
	</g>
</g>
<g>
	<g>
		<path d="M134.382,125.062h-23.893c-4.142,0-7.5,3.358-7.5,7.5c0,4.142,3.358,7.5,7.5,7.5h23.893c4.142,0,7.5-3.358,7.5-7.5
			C141.882,128.421,138.524,125.062,134.382,125.062z"/>
	</g>
</g>
<g>
	<g>
		<path d="M421.051,76.648h-20.539c-4.143,0-7.5,3.358-7.5,7.5c0,4.142,3.357,7.5,7.5,7.5h20.539c4.143,0,7.5-3.358,7.5-7.5
			C428.551,80.007,425.194,76.648,421.051,76.648z"/>
	</g>
</g>
<g>
	<g>
		<path d="M144.016,37.887H86.955c-4.142,0-7.5,3.358-7.5,7.5c0,4.142,3.357,7.5,7.5,7.5h57.061c4.142,0,7.5-3.358,7.5-7.5
			C151.516,41.245,148.158,37.887,144.016,37.887z"/>
	</g>
</g>
<g>
	<g>
		<path d="M339.324,48.449h-46.593c-4.143,0-7.5,3.358-7.5,7.5c0,4.142,3.358,7.5,7.5,7.5h46.593c4.143,0,7.5-3.358,7.5-7.5
			C346.824,51.807,343.467,48.449,339.324,48.449z"/>
	</g>
</g>
<g>
</g>
<g>
</g>
<g>
</g>
<g>
</g>
<g>
</g>
<g>
</g>
<g>
</g>
<g>
</g>
<g>
</g>
<g>
</g>
<g>
</g>
<g>
</g>
<g>
</g>
<g>
</g>
<g>
</g>
</svg>
