<svg width="300" height="300" viewBox="0 0 300 300" fill="none" xmlns="http://www.w3.org/2000/svg">
<circle cx="150" cy="150" r="150" fill="url(#paint0_linear_3229_4730)"/>
<path d="M176.396 141.485L165.662 150.42L185.499 166.606C186.399 167.343 187.443 167.963 188.583 168.421C192.296 169.901 200.828 172.265 211.037 166.64C225.895 158.436 217.7 142.186 216.232 140.327" stroke="white" stroke-width="10" stroke-miterlimit="10" stroke-linecap="round"/>
<path d="M161.147 128.885C163.293 127.147 163.623 123.999 161.885 121.853C160.147 119.707 156.999 119.377 154.853 121.115L158 125L161.147 128.885ZM146 134.721L149.147 138.606L161.147 128.885L158 125L154.853 121.115L142.853 130.835L146 134.721Z" fill="white"/>
<path d="M234.94 121.275C242.285 132.02 243.855 144.015 241.271 156.778" stroke="white" stroke-width="10" stroke-miterlimit="10"/>
<path d="M58.5862 155.54C58.5862 155.54 60.4098 169.501 72.3313 180.348C75.1856 182.954 84.882 191.312 99.766 192.314C119.627 193.667 132.923 180.911 135.015 178.84L150.43 163.444L165.827 178.859C171.047 184.083 177.425 188.019 184.476 190.211C195.102 193.503 210.447 194.842 224.748 183.423C234.969 175.265 239.486 165.506 241.27 156.778" stroke="white" stroke-width="10" stroke-miterlimit="10"/>
<path d="M151.898 134.322L129.687 111.713C129.297 111.33 128.871 110.978 128.425 110.658C124.008 107.427 101.343 93.2791 75.407 111.823C75.407 111.823 54.5 126.794 58.5857 155.556" stroke="white" stroke-width="10" stroke-miterlimit="10"/>
<path d="M117.089 130.417C116.731 130.053 116.352 129.739 115.939 129.438C112.874 127.169 100.906 119.307 88.2083 130.178C73.8205 142.497 82.9407 157.426 82.9407 157.426C82.9407 157.426 89.8289 170.604 103.304 170.07C103.304 170.07 111.166 170.679 115.453 166.275L135.096 147.244L117.089 130.417Z" stroke="white" stroke-width="10" stroke-miterlimit="10"/>
<path d="M210.32 130.789L206.323 125.806C205.345 124.578 205.492 122.957 206.665 121.988L224.321 107.308C225.378 106.441 227.135 106.627 228.001 107.728L233.704 114.837C234.572 115.921 234.379 117.374 233.237 118.172L214.316 131.393C213.108 132.231 211.27 131.959 210.32 130.789Z" stroke="white" stroke-width="5" stroke-miterlimit="10"/>
<path d="M167.379 108.375L162.983 112.577C161.906 113.614 161.842 115.163 162.828 116.224L177.656 132.291C178.545 133.241 180.227 133.285 181.182 132.355L187.454 126.358C188.41 125.444 188.41 124.048 187.432 123.153L171.227 108.305C170.192 107.363 168.423 107.389 167.379 108.375Z" stroke="white" stroke-width="5" stroke-miterlimit="10"/>
<path d="M195.773 121.574L198.847 121.485C199.645 121.471 200.379 120.813 200.635 119.86L208.525 102.492C208.975 100.874 208.06 99.241 206.691 99.2609L187.636 99.3725C186.419 99.3749 185.607 101.005 186.17 102.289L193.91 120.231C194.266 121.079 194.976 121.588 195.773 121.574Z" stroke="white" stroke-width="5" stroke-miterlimit="10"/>
<defs>
<linearGradient id="paint0_linear_3229_4730" x1="150" y1="0" x2="150" y2="300" gradientUnits="userSpaceOnUse">
<stop stop-color="#FF07AB"/>
<stop offset="0.557292" stop-color="#FF2E76"/>
<stop offset="1" stop-color="#FF4D4D"/>
</linearGradient>
</defs>
</svg>
