<svg width="250" height="250" viewBox="0 0 250 250" fill="none" xmlns="http://www.w3.org/2000/svg">
<rect width="250" height="250" rx="66" fill="#6366F1"/>
<path d="M151.396 116.485L140.662 125.42L160.499 141.606C161.399 142.343 162.443 142.963 163.583 143.421C167.296 144.901 175.828 147.265 186.037 141.64C200.895 133.436 192.7 117.186 191.232 115.327" stroke="white" stroke-width="10" stroke-miterlimit="10" stroke-linecap="round"/>
<path d="M136.147 103.885C138.293 102.147 138.623 98.9986 136.885 96.8528C135.147 94.7071 131.999 94.3767 129.853 96.1149L133 100L136.147 103.885ZM121 109.721L124.147 113.606L136.147 103.885L133 100L129.853 96.1149L117.853 105.835L121 109.721Z" fill="white"/>
<path d="M209.94 96.2754C217.285 107.02 218.855 119.015 216.271 131.778" stroke="white" stroke-width="10" stroke-miterlimit="10"/>
<path d="M33.5862 130.54C33.5862 130.54 35.4098 144.501 47.3313 155.348C50.1856 157.954 59.882 166.312 74.766 167.314C94.6267 168.667 107.923 155.911 110.015 153.84L125.43 138.444L140.827 153.859C146.047 159.083 152.425 163.019 159.476 165.211C170.102 168.503 185.447 169.842 199.748 158.423C209.969 150.265 214.486 140.506 216.27 131.778" stroke="white" stroke-width="10" stroke-miterlimit="10"/>
<path d="M126.898 109.322L104.687 86.7126C104.297 86.3297 103.871 85.9776 103.425 85.6577C99.0075 82.4272 76.3429 68.2791 50.407 86.8233C50.407 86.8233 29.5 101.794 33.5857 130.556" stroke="white" stroke-width="10" stroke-miterlimit="10"/>
<path d="M92.0887 105.417C91.7307 105.053 91.352 104.739 90.9387 104.438C87.8737 102.169 75.9056 94.3066 63.2083 105.178C48.8205 117.497 57.9407 132.426 57.9407 132.426C57.9407 132.426 64.8289 145.604 78.3038 145.07C78.3038 145.07 86.1656 145.679 90.4528 141.275L110.096 122.244L92.0887 105.417Z" stroke="white" stroke-width="10" stroke-miterlimit="10"/>
<path d="M185.32 105.789L181.323 100.806C180.345 99.5779 180.492 97.9567 181.665 96.9881L199.321 82.3077C200.378 81.4414 202.135 81.6274 203.001 82.7284L208.704 89.8374C209.572 90.9213 209.379 92.3743 208.237 93.1717L189.316 106.393C188.108 107.231 186.27 106.959 185.32 105.789Z" stroke="white" stroke-width="5" stroke-miterlimit="10"/>
<path d="M142.379 83.3747L137.983 87.5774C136.906 88.6144 136.842 90.163 137.828 91.2243L152.656 107.291C153.545 108.241 155.227 108.285 156.182 107.355L162.454 101.358C163.41 100.444 163.41 99.0482 162.432 98.1527L146.227 83.305C145.192 82.3626 143.423 82.3893 142.379 83.3747Z" stroke="white" stroke-width="5" stroke-miterlimit="10"/>
<path d="M170.773 96.5738L173.847 96.4853C174.645 96.4707 175.379 95.8126 175.635 94.8605L183.525 77.4924C183.975 75.8738 183.06 74.241 181.691 74.2609L162.636 74.3725C161.419 74.3749 160.607 76.005 161.17 77.289L168.91 95.2313C169.266 96.0795 169.976 96.5884 170.773 96.5738Z" stroke="white" stroke-width="5" stroke-miterlimit="10"/>
</svg>
