<svg width="30" height="30" viewBox="0 0 30 30" fill="none" xmlns="http://www.w3.org/2000/svg">
<path d="M2.53177 7.59941L0.00631556 28.9857C-0.0240874 29.2435 0.0561915 29.5012 0.227428 29.6951C0.398665 29.8889 0.643522 30 0.901068 30H29.0991C29.3565 30 29.6016 29.8889 29.7727 29.6951C29.944 29.5013 30.0237 29.2423 29.9938 28.9857L27.468 7.59941C27.4146 7.14288 27.0301 6.79854 26.5739 6.79854H22.5363C22.0884 2.97591 18.8594 0 14.9489 0C11.0383 0 7.80933 2.97655 7.36133 6.79854H3.42703C2.96948 6.79854 2.58542 7.14275 2.53177 7.59941ZM14.9483 1.81576C17.8638 1.81576 20.2801 3.98105 20.7158 6.79854H9.18073C9.61617 3.98105 12.0327 1.81576 14.9483 1.81576ZM8.20331 8.61418H21.6926H25.7734L28.0841 28.1844H1.91467L4.22567 8.61418H8.20331Z" fill="#232323"/>
</svg>
