<svg width="30" height="30" viewBox="0 0 30 30" fill="none" xmlns="http://www.w3.org/2000/svg">
<path d="M27.6699 11.819C28.2131 11.2895 28.4049 10.5123 28.1705 9.79086C27.9361 9.06939 27.3242 8.55348 26.5735 8.44443L20.0092 7.49059C19.8804 7.47189 19.769 7.39098 19.7113 7.27414L16.7757 1.326C16.44 0.645723 15.7602 0.223145 15.0016 0.223145C14.243 0.223145 13.5632 0.645723 13.2275 1.326L10.2919 7.2742C10.2342 7.39098 10.1229 7.47189 9.99395 7.49064L3.42981 8.44443C2.67911 8.55348 2.06722 9.06939 1.83272 9.79086C1.59823 10.5123 1.79007 11.2895 2.33335 11.819L7.08325 16.449C7.17647 16.5399 7.21907 16.6709 7.19704 16.7993L6.07573 23.3369C5.94753 24.0846 6.24905 24.826 6.86276 25.2719C7.47647 25.7179 8.27499 25.7755 8.94635 25.4226L14.8175 22.336C14.9328 22.2753 15.0705 22.2753 15.1858 22.336L21.057 25.4226C21.3491 25.5761 21.6651 25.652 21.9795 25.652C22.3879 25.652 22.7938 25.524 23.1405 25.2719C23.7542 24.8259 24.0557 24.0844 23.9275 23.3369L22.8062 16.7992C22.7842 16.6708 22.8267 16.5399 22.92 16.4489L27.6699 11.819ZM21.2464 17.0669L22.3677 23.6046C22.4052 23.8234 22.2701 23.9482 22.2103 23.9916C22.1504 24.0349 21.99 24.125 21.7936 24.0216L15.9223 20.935C15.6341 20.7835 15.318 20.7077 15.0017 20.7077C14.6855 20.7077 14.3693 20.7835 14.0811 20.9349L8.20995 24.0215C8.01343 24.1248 7.85306 24.0349 7.79323 23.9915C7.73341 23.948 7.59829 23.8233 7.63585 23.6045L8.75716 17.0669C8.86725 16.425 8.65462 15.7704 8.18815 15.3157L3.43825 10.6857C3.27929 10.5307 3.31526 10.3504 3.33817 10.2801C3.36097 10.2097 3.4379 10.0426 3.65757 10.0108L10.2216 9.05691C10.8661 8.96328 11.4231 8.55875 11.7113 7.97463L14.6469 2.02643C14.7452 1.82738 14.9278 1.80588 15.0018 1.80588C15.0757 1.80588 15.2582 1.82732 15.3566 2.02643V2.02648L18.2922 7.97469C18.5804 8.55881 19.1373 8.96334 19.7817 9.05697L26.3459 10.0108C26.5656 10.0427 26.6425 10.2097 26.6653 10.2801C26.6882 10.3505 26.7242 10.5308 26.5652 10.6858L21.8153 15.3158C21.3489 15.7703 21.1363 16.425 21.2464 17.0669Z" fill="#484848"/>
<path d="M24.2451 1.32573C23.8914 1.06886 23.3966 1.14726 23.1397 1.50081L22.2996 2.65698C22.0428 3.01054 22.1211 3.50548 22.4747 3.76235C22.6153 3.86437 22.778 3.91353 22.9392 3.91353C23.184 3.91353 23.4253 3.80038 23.5801 3.58734L24.4201 2.43116C24.677 2.07755 24.5987 1.58261 24.2451 1.32573Z" fill="#484848"/>
<path d="M7.69746 2.65226L6.85741 1.49609C6.60059 1.14265 6.10571 1.06425 5.75203 1.32101C5.39848 1.57789 5.32008 2.07283 5.57695 2.42638L6.41701 3.58255C6.57188 3.79578 6.81317 3.90886 7.05797 3.90886C7.21928 3.90886 7.38205 3.8597 7.52244 3.75763C7.876 3.50082 7.9544 3.00587 7.69746 2.65226Z" fill="#484848"/>
<path d="M2.90343 17.9782C2.76837 17.5626 2.32194 17.335 1.90622 17.4701L0.547019 17.9118C0.131297 18.0468 -0.0961056 18.4934 0.038953 18.909C0.147586 19.2435 0.45784 19.4561 0.791414 19.4561C0.872449 19.4561 0.95489 19.4435 1.03616 19.417L2.39536 18.9754C2.81102 18.8403 3.03848 18.3939 2.90343 17.9782Z" fill="#484848"/>
<path d="M14.9984 26.7646C14.5613 26.7646 14.207 27.119 14.207 27.556V28.9852C14.207 29.4223 14.5613 29.7766 14.9984 29.7766C15.4355 29.7766 15.7898 29.4223 15.7898 28.9852V27.556C15.7898 27.1189 15.4355 26.7646 14.9984 26.7646Z" fill="#484848"/>
<path d="M29.454 17.913L28.0948 17.4713C27.6792 17.3363 27.2326 17.5637 27.0975 17.9794C26.9625 18.3951 27.1899 18.8416 27.6056 18.9766L28.9648 19.4183C29.0461 19.4447 29.1285 19.4572 29.2095 19.4572C29.5431 19.4572 29.8534 19.2446 29.962 18.9101C30.0971 18.4944 29.8696 18.048 29.454 17.913Z" fill="#484848"/>
</svg>
