<svg width="29" height="29" viewBox="0 0 29 29" fill="none" xmlns="http://www.w3.org/2000/svg">
<path d="M24.5108 6.37033H11.5706C11.2148 5.3137 10.2154 4.55029 9.04035 4.55029C7.86528 4.55029 6.86586 5.3137 6.5101 6.37033H4.49023C4.02102 6.37033 3.64062 6.75073 3.64062 7.21994C3.64062 7.68915 4.02102 8.06955 4.49023 8.06955H6.51015C6.86591 9.12618 7.86534 9.88958 9.0404 9.88958C10.2155 9.88958 11.2149 9.12618 11.5707 8.06955H24.5108C24.98 8.06955 25.3604 7.68915 25.3604 7.21994C25.3604 6.75073 24.98 6.37033 24.5108 6.37033ZM9.04035 8.19036C8.50526 8.19036 8.06992 7.75502 8.06992 7.21994C8.06992 6.68485 8.50526 6.24951 9.04035 6.24951C9.57543 6.24951 10.0108 6.68485 10.0108 7.21994C10.0108 7.75502 9.57543 8.19036 9.04035 8.19036Z" fill="#232323"/>
<path d="M24.5108 13.6504H22.4909C22.1351 12.5937 21.1356 11.8303 19.9606 11.8303C18.7856 11.8303 17.7862 12.5937 17.4304 13.6504H4.49023C4.02102 13.6504 3.64062 14.0308 3.64062 14.5C3.64062 14.9692 4.02102 15.3496 4.49023 15.3496H17.4304C17.7862 16.4062 18.7856 17.1696 19.9607 17.1696C21.1357 17.1696 22.1351 16.4062 22.4909 15.3496H24.5108C24.98 15.3496 25.3604 14.9692 25.3604 14.5C25.3604 14.0308 24.98 13.6504 24.5108 13.6504ZM19.9607 15.4704C19.4256 15.4704 18.9902 15.035 18.9902 14.5C18.9902 13.9649 19.4256 13.5295 19.9607 13.5295C20.4957 13.5295 20.9311 13.9649 20.9311 14.5C20.9311 15.035 20.4957 15.4704 19.9607 15.4704Z" fill="#232323"/>
<path d="M24.5108 20.9306H15.2107C14.855 19.874 13.8555 19.1106 12.6805 19.1106C11.5054 19.1106 10.506 19.874 10.1502 20.9306H4.49023C4.02102 20.9306 3.64062 21.311 3.64062 21.7802C3.64062 22.2495 4.02102 22.6299 4.49023 22.6299H10.1502C10.506 23.6865 11.5054 24.4499 12.6805 24.4499C13.8555 24.4499 14.855 23.6865 15.2107 22.6299H24.5108C24.98 22.6299 25.3604 22.2495 25.3604 21.7802C25.3604 21.311 24.98 20.9306 24.5108 20.9306ZM12.6805 22.7507C12.1454 22.7507 11.71 22.3154 11.71 21.7803C11.71 21.2452 12.1454 20.8099 12.6805 20.8099C13.2156 20.8099 13.6509 21.2452 13.6509 21.7802C13.6509 22.3153 13.2156 22.7507 12.6805 22.7507Z" fill="#232323"/>
</svg>
