<svg width="29" height="35" viewBox="0 0 29 35" fill="none" xmlns="http://www.w3.org/2000/svg">
<path d="M3.9209 32L2.20215 26.3994H2.1582C2.22005 27.5387 2.25098 28.2988 2.25098 28.6797V32H0.898438V24.8613H2.95898L4.64844 30.3203H4.67773L6.46973 24.8613H8.53027V32H7.11914V28.6211C7.11914 28.4616 7.12077 28.2777 7.12402 28.0693C7.13053 27.861 7.15332 27.3076 7.19238 26.4092H7.14844L5.30762 32H3.9209ZM12.4756 27.498C12.1598 27.498 11.9124 27.599 11.7334 27.8008C11.5544 27.9993 11.4518 28.2826 11.4258 28.6504H13.5156C13.5091 28.2826 13.4131 27.9993 13.2275 27.8008C13.042 27.599 12.7913 27.498 12.4756 27.498ZM12.6855 32.0977C11.8066 32.0977 11.1198 31.8551 10.625 31.3701C10.1302 30.8851 9.88281 30.1982 9.88281 29.3096C9.88281 28.3949 10.1107 27.6885 10.5664 27.1904C11.0254 26.6891 11.6585 26.4385 12.4658 26.4385C13.2373 26.4385 13.8379 26.6582 14.2676 27.0977C14.6973 27.5371 14.9121 28.1442 14.9121 28.9189V29.6416H11.3916C11.4079 30.0648 11.5332 30.3952 11.7676 30.6328C12.002 30.8704 12.3307 30.9893 12.7539 30.9893C13.0827 30.9893 13.3936 30.9551 13.6865 30.8867C13.9795 30.8184 14.2855 30.7093 14.6045 30.5596V31.7119C14.3441 31.8421 14.0658 31.9382 13.7695 32C13.4733 32.0651 13.112 32.0977 12.6855 32.0977ZM21.1621 32H19.6729V28.8115C19.6729 28.4176 19.6029 28.123 19.4629 27.9277C19.3229 27.7292 19.0999 27.6299 18.7939 27.6299C18.3773 27.6299 18.0762 27.7699 17.8906 28.0498C17.7051 28.3265 17.6123 28.7871 17.6123 29.4316V32H16.123V26.541H17.2607L17.4609 27.2393H17.5439C17.71 26.9756 17.9378 26.777 18.2275 26.6436C18.5205 26.5068 18.8525 26.4385 19.2236 26.4385C19.8584 26.4385 20.3402 26.611 20.6689 26.9561C20.9977 27.2979 21.1621 27.7926 21.1621 28.4404V32ZM26.5625 32L26.3623 31.3018H26.2842C26.1247 31.5557 25.8984 31.7526 25.6055 31.8926C25.3125 32.0293 24.9788 32.0977 24.6045 32.0977C23.9632 32.0977 23.4798 31.9268 23.1543 31.585C22.8288 31.2399 22.666 30.7451 22.666 30.1006V26.541H24.1553V29.7295C24.1553 30.1234 24.2253 30.4196 24.3652 30.6182C24.5052 30.8135 24.7282 30.9111 25.0342 30.9111C25.4508 30.9111 25.752 30.7728 25.9375 30.4961C26.123 30.2161 26.2158 29.7539 26.2158 29.1094V26.541H27.7051V32H26.5625ZM24.3457 25.9404V25.8086C24.9056 25.1576 25.2881 24.6676 25.4932 24.3389H27.1631V24.4414C26.9938 24.6107 26.7041 24.863 26.2939 25.1982C25.887 25.5303 25.568 25.7777 25.3369 25.9404H24.3457Z" fill="#484848"/>
<path d="M1 1H27" stroke="#4D4D4D"/>
<path d="M1 10H27" stroke="#4D4D4D"/>
<path d="M1 19H27" stroke="#4D4D4D"/>
</svg>
