<svg width="20" height="29" viewBox="0 0 20 29" fill="none" xmlns="http://www.w3.org/2000/svg">
<path d="M18.7742 20.6774C19.1438 20.3085 19.3475 19.8179 19.3478 19.2958C19.348 18.7736 19.1449 18.2828 18.7757 17.9135C18.5876 17.7255 18.3701 17.584 18.1377 17.489L18.9397 16.69C19.3101 16.3213 19.5145 15.8305 19.5151 15.3079C19.5157 14.7852 19.3125 14.2939 18.943 13.9244L18.9222 13.9036C18.637 13.6184 18.2845 13.4401 17.9152 13.3687C17.9376 13.2499 17.9495 13.1283 17.9496 13.0048C17.9502 12.4822 17.747 11.9909 17.3775 11.6215L17.352 11.596C16.9831 11.227 16.4926 11.0239 15.9708 11.0239C15.6186 11.0239 15.2807 11.1168 14.9847 11.2905C14.8883 11.0296 14.7362 10.7903 14.5339 10.588L14.5171 10.5711C13.7555 9.80969 12.5164 9.80957 11.7547 10.5711L6.53507 15.7909L7.18342 13.1135C7.43957 12.0556 6.86152 10.9768 5.83884 10.6042C5.26331 10.3944 4.62465 10.4422 4.08666 10.735C3.54867 11.0279 3.16192 11.5383 3.02556 12.1355L2.93666 12.5251C2.51142 14.3878 1.8085 16.2597 0.847429 18.0885C0.127266 19.4589 -0.147012 21.0615 0.0751308 22.6013C0.304956 24.1943 1.0296 25.6396 2.17076 26.7808C3.57156 28.1816 5.43336 28.9528 7.4142 28.9527H7.41924C9.40188 28.9514 11.2648 28.1776 12.6649 26.7738L14.1593 25.2754L18.7742 20.6774ZM11.815 25.9261C10.6416 27.1027 9.08015 27.7513 7.41848 27.7524H7.41424C5.75413 27.7524 4.19353 27.106 3.01952 25.932C2.06301 24.9755 1.45568 23.7645 1.26315 22.4299C1.07685 21.1386 1.3066 19.7951 1.91001 18.6469C2.91941 16.7261 3.65858 14.7563 4.10691 12.7922L4.19581 12.4027C4.25639 12.1373 4.42144 11.9195 4.66054 11.7893C4.89965 11.6592 5.17225 11.6388 5.42796 11.732C5.87585 11.8952 6.12904 12.3676 6.01685 12.831L4.86572 17.5844C4.72916 18.0744 5.36042 18.6202 5.87341 18.1501L12.6035 11.4199C12.8971 11.1263 13.3748 11.1264 13.6679 11.4194L13.6847 11.4362C13.8269 11.5785 13.9052 11.7675 13.9052 11.9686C13.9052 12.1698 13.8268 12.3588 13.6847 12.501C12.5892 13.5965 10.6243 15.5613 9.54904 16.6367C9.31466 16.871 9.31466 17.251 9.54904 17.4854C9.78343 17.7198 10.1635 17.7198 10.3978 17.4854C11.0622 16.821 14.8792 13.0041 15.4385 12.4448C15.5807 12.3025 15.7698 12.2242 15.9709 12.2242C16.172 12.2242 16.3611 12.3025 16.5033 12.4448L16.5288 12.4703C16.6713 12.6127 16.7496 12.8021 16.7494 13.0035C16.7491 13.2049 16.6704 13.3941 16.5275 13.5363C15.0227 15.0352 12.9646 17.0844 11.4749 18.5691C11.24 18.803 11.2393 19.183 11.4732 19.4179C11.5905 19.5356 11.7444 19.5945 11.8984 19.5945C12.0516 19.5945 12.2048 19.5362 12.3219 19.4196C13.3233 18.422 16.0517 15.7042 17.0099 14.7511C17.3035 14.459 17.7806 14.4596 18.0735 14.7524L18.0942 14.7731C18.2367 14.9156 18.315 15.105 18.3148 15.3064C18.3145 15.5079 18.2357 15.6971 18.0928 15.8394C16.633 17.2934 14.3212 19.5958 12.8743 21.0382C12.6395 21.2722 12.6388 21.6522 12.8727 21.887C12.99 22.0047 13.1439 22.0636 13.2979 22.0636C13.4511 22.0636 13.6044 22.0052 13.7215 21.8886L16.4736 19.1469L16.8649 18.7596C17.1584 18.469 17.6349 18.4703 17.9269 18.7623C18.0692 18.9046 18.1475 19.0938 18.1474 19.2951C18.1473 19.4963 18.0688 19.6855 17.9266 19.8274L13.3107 24.4264L11.815 25.9261Z" fill="#232323"/>
<path d="M5.28705 8.42087C5.40618 8.73023 5.75343 8.88446 6.06278 8.76534C6.72698 8.50962 7.42815 8.38464 8.14677 8.3939C8.98257 8.40466 9.784 8.5944 10.5287 8.95788C10.8266 9.10324 11.1859 8.97964 11.3313 8.68173C11.4455 8.44773 11.3937 8.17583 11.2218 7.99949C11.1749 7.95135 11.1191 7.91031 11.0552 7.87913C10.1499 7.43734 9.17659 7.20673 8.16222 7.19367C7.29024 7.18241 6.4388 7.33434 5.63148 7.64517C5.32216 7.76427 5.16795 8.11155 5.28705 8.42087V8.42087Z" fill="#FFB300"/>
<path d="M4.38448 5.7468C4.53838 6.16927 5.01043 6.37532 5.43901 6.20696C6.35919 5.84555 7.32604 5.66291 8.31265 5.66413C9.46013 5.66555 10.5548 5.91305 11.5661 6.39978C11.9706 6.59444 12.468 6.41914 12.677 6.00814C12.8412 5.68531 12.7786 5.31313 12.5481 5.07397C12.4852 5.00868 12.4097 4.95327 12.3229 4.91151C11.0936 4.3199 9.76417 4.01909 8.37153 4.01736C7.17437 4.01584 6.0003 4.23786 4.88184 4.67716C4.4533 4.84548 4.23063 5.32436 4.38448 5.7468V5.7468Z" fill="#FFB300"/>
<path d="M9.50126 23.5C8 20 5.66793 19.3333 4.00126 20C0.80126 20.8 2.66793 24.3333 4.00126 25.5C6.00126 27 11.2429 27.5604 9.50126 23.5Z" fill="#FFB300"/>
</svg>
