<svg width="150" height="40" viewBox="0 0 150 40" fill="none" xmlns="http://www.w3.org/2000/svg">
<path d="M12.4424 12.24H14.5645C15.147 12.24 15.6463 12.44 16.0624 12.88C16.4785 13.32 16.6865 13.76 16.6865 14.28V26.04C16.6865 28.88 15.8128 30.84 14.1068 31.84C12.4008 32.84 10.5284 33.36 8.53121 33.36C7.44938 33.36 6.36754 33.2 5.32732 32.84C4.2871 32.48 3.45492 31.96 2.83079 31.16C1.62413 29.68 1 27.64 1 25.08C1 22.56 1.62413 20.52 2.83079 19C4.07906 17.44 5.7018 16.64 7.65742 16.64C8.69764 16.64 9.61304 16.84 10.4036 17.24C11.2358 17.72 11.9015 18.36 12.4008 19.12L12.4424 12.24ZM5.28571 24.92C5.28571 26.52 5.61859 27.76 6.24272 28.6C6.86685 29.44 7.78225 29.88 8.9473 29.88C10.0707 29.88 10.9445 29.44 11.5687 28.6C12.1512 27.76 12.4424 26.52 12.4424 24.92C12.4424 23.48 12.1096 22.32 11.4854 21.48C10.8197 20.68 9.9043 20.28 8.78086 20.28C7.69903 20.28 6.82524 20.72 6.20111 21.56C5.61859 22.32 5.28571 23.48 5.28571 24.92Z" fill="#444444" stroke="white" stroke-width="0.3" stroke-miterlimit="10"/>
<path d="M18.0156 12.28H20.2625C20.845 12.28 21.3443 12.48 21.7604 12.88C22.1765 13.28 22.3846 13.76 22.3846 14.32V15.6H18.0156V12.28ZM18.0156 17H20.2625C20.845 17 21.3443 17.2 21.7604 17.6C22.1765 18 22.3846 18.48 22.3846 19.04V33.04H18.0156V17Z" fill="#444444" stroke="white" stroke-width="0.3" stroke-miterlimit="10"/>
<path d="M33.0391 33.08H28.587L22.7617 17H27.4219L30.7506 28.28L33.7049 18.44C34.0377 17.48 34.7035 17 35.7021 17H38.9892L33.0391 33.08Z" fill="#444444" stroke="white" stroke-width="0.3" stroke-miterlimit="10"/>
<path d="M51.5107 28.1199H54.6314C54.1737 29.7999 53.2999 31.0799 52.01 31.9999C50.7201 32.9199 49.0974 33.3999 47.1002 33.3999C44.7285 33.3999 42.8561 32.6399 41.5246 31.1599C40.1931 29.7199 39.5273 27.6399 39.5273 24.9599C39.5273 22.3999 40.1931 20.3599 41.483 18.9199C42.8144 17.4399 44.6868 16.6799 47.0585 16.6799C49.5551 16.6799 51.5107 17.3999 52.8838 18.8399C54.2153 20.3199 54.881 22.3999 54.881 25.0399C54.881 25.1999 54.881 25.3599 54.881 25.4799C54.881 25.5999 54.881 25.6799 54.881 25.7199C54.881 25.9199 54.8394 26.0799 54.7978 26.1599H43.9379C43.9795 27.3999 44.3124 28.3199 44.8949 28.9199C45.4358 29.5599 46.268 29.8799 47.3498 29.8799C48.0572 29.8799 48.6813 29.7199 49.1806 29.4399C49.3054 29.3999 49.4303 29.3199 49.5135 29.2399C49.6383 29.1199 49.7215 29.0399 49.8463 28.9199C49.888 28.7999 50.0544 28.6399 50.304 28.4399C50.5953 28.1999 51.0114 28.1199 51.5107 28.1199ZM43.9379 23.3999H50.3457C50.2624 22.3199 49.9712 21.5199 49.4719 20.9999C48.931 20.4399 48.1404 20.1599 47.1418 20.1599C46.2264 20.1599 45.4774 20.4399 44.8949 20.9999C44.3124 21.5599 43.9795 22.3599 43.9379 23.3999Z" fill="#444444" stroke="white" stroke-width="0.3" stroke-miterlimit="10"/>
<path d="M55.7578 33.08V25.28C55.7578 23.72 56.0075 22.4 56.4652 21.32C56.9645 20.24 57.5886 19.4 58.4624 18.76C59.253 18.16 60.21 17.72 61.2502 17.44C62.332 17.16 63.4139 17 64.5373 17C64.6205 17 64.7453 17 64.8702 17C64.995 17 65.1198 17 65.203 17V21.28H63.7467C62.5401 21.28 61.6247 21.56 61.0421 22.12C60.4596 22.68 60.1684 23.56 60.1684 24.76V33.04L55.7578 33.08Z" fill="#444444" stroke="white" stroke-width="0.3" stroke-miterlimit="10"/>
<path d="M65.3672 27.7601H69.6529C69.6945 28.5601 70.0274 29.1601 70.6099 29.5601C71.234 29.9601 72.0662 30.1601 73.1064 30.1601C73.8554 30.1601 74.5211 30.0001 75.0621 29.7201C75.5614 29.4401 75.811 29.0401 75.811 28.5601C75.811 27.8401 74.9372 27.2801 73.1897 26.9201C72.4407 26.8001 71.8582 26.6801 71.4837 26.5601C69.2784 26.0401 67.7805 25.4001 67.0315 24.6801C66.1994 23.9601 65.7833 23.0001 65.7833 21.8001C65.7833 20.2801 66.4074 19.0001 67.6141 18.0001C68.8623 17.0801 70.4851 16.6001 72.5239 16.6001C74.6876 16.6001 76.4351 17.0801 77.725 18.0001C78.9317 19.0001 79.5974 20.3201 79.6806 21.9201H76.9761C76.1855 21.9201 75.5614 21.5601 75.1453 20.8801C74.9788 20.7201 74.8124 20.5601 74.646 20.4001C74.1467 20.0401 73.4393 19.8401 72.5655 19.8401C71.7333 19.8401 71.1092 19.9601 70.6931 20.2001C70.3186 20.4401 70.1106 20.8001 70.1106 21.2801C70.1106 21.9201 71.1924 22.4801 73.3561 22.9201C73.6057 23.0001 73.8138 23.0801 74.0218 23.1201C74.2299 23.1601 74.3963 23.2001 74.5627 23.2001C76.6848 23.7201 78.1827 24.3201 79.0149 25.0001C79.8055 25.7201 80.2216 26.6801 80.2216 27.8801C80.2216 29.6401 79.5558 31.0001 78.2243 32.0001C76.9761 32.8801 75.1037 33.3201 72.5655 33.3201C70.1938 33.3201 68.4046 32.8401 67.2396 31.9201C66.0329 31.0001 65.4088 29.6401 65.4088 27.8801L65.3672 27.7601Z" fill="#FF4F79"/>
<path d="M95.6164 17V26.4C95.6164 29.24 94.8259 31.12 93.2863 32C91.7468 32.88 90.0408 33.32 88.2101 33.32C86.4209 33.24 84.7565 32.76 83.2586 31.88C81.7607 31 81.0117 29.16 81.0117 26.4V17H85.4223V27.28C85.4223 28.24 85.7135 28.96 86.296 29.4C86.8786 29.84 87.5443 30.08 88.2933 30.08C89.0422 30.08 89.708 29.84 90.3321 29.4C90.9562 28.96 91.2475 28.24 91.2475 27.28V19.04C91.2475 18.48 91.4555 18 91.83 17.6C92.2461 17.2 92.7454 17 93.3695 17H95.6164Z" fill="#FF4F79"/>
<path d="M107.142 32.3999C106.268 32.8399 105.311 33.1199 104.354 33.1999C103.356 33.3199 102.482 33.3599 101.733 33.3599C100.235 33.3599 98.9036 32.9599 97.7802 32.1999C96.6567 31.3999 96.0742 30.1199 96.0742 28.3199C96.0742 26.6399 96.5735 25.4399 97.6138 24.6799C98.654 23.9599 99.9438 23.4799 101.525 23.2399C101.733 23.2399 101.983 23.1999 102.274 23.1599C102.565 23.0799 102.898 23.0399 103.273 22.9999C105.103 22.7599 106.019 22.2399 106.019 21.4399C106.019 20.8399 105.686 20.4399 105.062 20.2799C104.396 20.0799 103.813 19.9999 103.273 19.9999C102.69 19.9999 102.149 20.0799 101.691 20.2399C101.234 20.3999 100.901 20.7199 100.693 21.1599H96.5319C96.6984 19.9199 97.2809 18.8799 98.2795 18.0799C99.4029 17.1599 101.026 16.6799 103.106 16.6799C105.436 16.6799 107.225 17.0799 108.39 17.8399C109.597 18.6399 110.221 19.7599 110.221 21.2399V26.7199C110.221 28.3199 109.93 29.5999 109.306 30.4799C108.723 31.3599 108.016 31.9999 107.142 32.3999ZM106.144 24.9599C105.561 25.2399 104.729 25.5199 103.689 25.7599L102.232 26.0799C101.483 26.2799 100.942 26.5599 100.61 26.8799C100.318 27.3199 100.152 27.7599 100.152 28.1999C100.152 28.7999 100.36 29.2799 100.734 29.6399C101.109 29.9599 101.65 30.1199 102.357 30.1199C103.522 30.1199 104.438 29.7999 105.103 29.1599C105.769 28.5199 106.102 27.6399 106.102 26.5199L106.144 24.9599Z" fill="#FF4F79"/>
<path d="M111.221 12.28H113.468C114.051 12.28 114.55 12.48 114.966 12.84C115.382 13.24 115.59 13.68 115.59 14.24V33H111.18L111.221 12.28Z" fill="#FF4F79"/>
</svg>
