<svg width="17" height="17" viewBox="0 0 17 17" fill="none" xmlns="http://www.w3.org/2000/svg">
<path d="M16.8531 16.133L12.7219 12.0018C13.8301 10.7277 14.501 9.06541 14.501 7.24856C14.501 3.24922 11.248 0 7.25246 0C3.25313 0 0.00390625 3.25299 0.00390625 7.24856C0.00390625 11.2441 3.2569 14.4971 7.25246 14.4971C9.06932 14.4971 10.7316 13.8262 12.0057 12.718L16.1369 16.8492C16.2349 16.9472 16.3669 17 16.495 17C16.6232 17 16.7551 16.951 16.8531 16.8492C17.0491 16.6532 17.0491 16.329 16.8531 16.133ZM1.01788 7.24856C1.01788 3.81087 3.81477 1.01774 7.24869 1.01774C10.6864 1.01774 13.4795 3.81463 13.4795 7.24856C13.4795 10.6825 10.6864 13.4831 7.24869 13.4831C3.81477 13.4831 1.01788 10.6863 1.01788 7.24856Z" fill="#484848"/>
</svg>
