<svg width="35" height="35" viewBox="0 0 35 35" fill="none" xmlns="http://www.w3.org/2000/svg">
<path d="M23.4872 19.7456L28.2863 15.0666C28.4968 14.8616 28.5725 14.5548 28.4816 14.2754C28.3907 13.996 28.1493 13.7923 27.8586 13.75L21.2263 12.7863L18.2603 6.77518C18.1303 6.51188 17.8622 6.34497 17.5683 6.34497C17.2745 6.34497 17.0063 6.51179 16.8762 6.77518L13.9102 12.7863L7.27794 13.75C6.98729 13.7923 6.74575 13.996 6.65498 14.2754C6.56421 14.5548 6.63993 14.8615 6.85022 15.0666L11.6494 19.7456L10.5164 26.3523C10.4667 26.6419 10.5858 26.9345 10.8234 27.1073C11.061 27.2799 11.3761 27.3027 11.6361 27.1659L17.5683 24.0467L23.5004 27.1659C23.6132 27.2252 23.7364 27.2547 23.8595 27.2547C24.0194 27.2547 24.1787 27.2047 24.3132 27.1073C24.5508 26.9345 24.6698 26.6419 24.6201 26.3523L23.4872 19.7456ZM17.9275 22.4915C17.8152 22.4325 17.6918 22.4028 17.5685 22.4028C17.4451 22.4028 17.3217 22.4325 17.2093 22.4915L12.3021 25.0718L13.2393 19.6066C13.2822 19.3561 13.1992 19.1007 13.0173 18.9233L9.04736 15.0528L14.5337 14.2556C14.785 14.219 15.0023 14.0612 15.1147 13.8334L17.5683 8.86092L20.0219 13.8334C20.1344 14.0612 20.3516 14.2191 20.6029 14.2556L26.0892 15.0528L22.1194 18.9233C21.9374 19.1007 21.8545 19.3561 21.8974 19.6066L22.8346 25.0718L17.9275 22.4915Z" fill="#232323"/>
<path d="M17.5725 5.00007C17.9988 5.00007 18.3442 4.65447 18.3442 4.22821V0.771853C18.3442 0.345597 17.9989 0 17.5725 0C17.1463 0 16.8008 0.345597 16.8008 0.771853V4.22821C16.8008 4.65447 17.1463 5.00007 17.5725 5.00007Z" fill="#232323"/>
<path d="M26.9319 8.93641C27.1293 8.93641 27.3268 8.86105 27.4775 8.71035L29.9211 6.26628C30.2225 5.96487 30.2225 5.47619 29.9211 5.17479C29.6196 4.87338 29.1311 4.87338 28.8297 5.17479L26.3861 7.61886C26.0848 7.92026 26.0848 8.40894 26.3861 8.71035C26.5368 8.86105 26.7342 8.93641 26.9319 8.93641Z" fill="#232323"/>
<path d="M34.2274 16.7988H30.7717C30.3455 16.7988 30 17.1444 30 17.5707C30 17.9971 30.3455 18.3426 30.7717 18.3426H34.2274C34.6536 18.3426 34.9991 17.9971 34.9991 17.5707C34.9991 17.1444 34.6536 16.7988 34.2274 16.7988Z" fill="#232323"/>
<path d="M27.38 26.389C27.0785 26.0875 26.59 26.0875 26.2886 26.389C25.9871 26.6903 25.9871 27.1791 26.2886 27.4804L28.7322 29.9244C28.8829 30.075 29.0803 30.1506 29.2778 30.1506C29.4754 30.1506 29.6729 30.0752 29.8236 29.9244C30.1248 29.6231 30.1248 29.1344 29.8236 28.833L27.38 26.389Z" fill="#232323"/>
<path d="M17.4201 30C16.994 30 16.6484 30.3456 16.6484 30.7719V34.228C16.6484 34.6543 16.994 34.9999 17.4201 34.9999C17.8464 34.9999 18.1918 34.6543 18.1918 34.228V30.7719C18.1918 30.3456 17.8464 30 17.4201 30Z" fill="#232323"/>
<path d="M7.51734 26.2881L5.07374 28.732C4.77229 29.0335 4.77229 29.5221 5.07374 29.8236C5.22442 29.9742 5.42188 30.0496 5.61943 30.0496C5.81689 30.0496 6.01445 29.9742 6.16512 29.8236L8.60873 27.3796C8.91017 27.0783 8.91017 26.5895 8.60873 26.2882C8.30738 25.9866 7.81879 25.9866 7.51734 26.2881Z" fill="#232323"/>
<path d="M4.2274 16.656H0.771706C0.345531 16.656 0 17.0016 0 17.4279C0 17.8541 0.345531 18.1997 0.771706 18.1997H4.2274C4.65358 18.1997 4.99911 17.8541 4.99911 17.4279C4.99911 17.0015 4.65367 16.656 4.2274 16.656Z" fill="#232323"/>
<path d="M7.61881 8.60953C7.76949 8.76023 7.96695 8.83558 8.16451 8.83558C8.36206 8.83558 8.55952 8.76023 8.7102 8.60953C9.01165 8.30812 9.01165 7.81944 8.7102 7.51803L6.26659 5.07396C5.96524 4.77255 5.47666 4.77255 5.1753 5.07396C4.87386 5.37537 4.87386 5.86405 5.1753 6.16545L7.61881 8.60953Z" fill="#232323"/>
</svg>
