<svg width="20" height="20" viewBox="0 0 20 20" fill="none" xmlns="http://www.w3.org/2000/svg">
<path d="M19.2284 0.770252C18.1996 -0.256751 16.4967 -0.256751 15.4679 0.770252L3.5115 12.7395L3.26386 12.4922L0 15.7503L4.2572 20L7.52106 16.7419L7.27201 16.4933L19.2283 4.52411C20.2572 3.49711 20.2572 1.79726 19.2284 0.770252ZM4.2572 19.0084L4.00887 18.7605L4.75389 18.0168C4.89579 17.8752 4.89579 17.6627 4.75389 17.521C4.61198 17.3794 4.3991 17.3794 4.2572 17.521L3.51219 18.2647L2.99669 17.7501C3.00308 17.7447 3.00955 17.7394 3.0155 17.7335L3.76051 16.9898C3.90242 16.8481 3.90242 16.6356 3.76051 16.494C3.6186 16.3523 3.40573 16.3523 3.26382 16.494L2.51881 17.2377C2.51278 17.2437 2.5074 17.25 2.50189 17.2562L1.98663 16.7419L2.73165 15.9982C2.87355 15.8565 2.87355 15.644 2.73165 15.5024C2.58974 15.3607 2.37686 15.3607 2.23496 15.5024L1.48995 16.2461L0.993257 15.7503L3.26378 13.4837L6.52764 16.7418L4.2572 19.0084ZM18.7317 4.02834L6.77605 15.9982L4.00887 13.2359L15.9645 1.26606C16.745 0.522367 17.9867 0.522367 18.7317 1.26606C19.4767 2.04514 19.4767 3.28464 18.7317 4.02834Z" fill="#232323"/>
<path d="M8.96972 5.79923C9.04069 5.87008 9.11162 5.90546 9.21804 5.90546C9.28901 5.90546 9.39543 5.87004 9.46637 5.79923L12.4819 2.78906C12.6238 2.64741 12.6238 2.43491 12.4819 2.29325C12.34 2.1516 12.1271 2.1516 11.9852 2.29325L8.96968 5.30342C8.82781 5.44508 8.82781 5.65758 8.96972 5.79923Z" fill="#232323"/>
<path d="M8.97585 4.1348C9.04683 4.1348 9.15325 4.09937 9.22418 4.02857L10.4659 2.78906C10.6078 2.64741 10.6078 2.43491 10.4659 2.29325C10.324 2.1516 10.1111 2.1516 9.9692 2.29325L8.72752 3.53276C8.58562 3.67441 8.58562 3.88691 8.72752 4.02857C8.79846 4.09937 8.86943 4.1348 8.97585 4.1348Z" fill="#232323"/>
<path d="M15.3217 10.4383C15.1798 10.2966 14.9669 10.2966 14.825 10.4383L11.8096 13.4485C11.6676 13.5901 11.6676 13.8026 11.8096 13.9443C11.8805 14.0151 11.9515 14.0505 12.0579 14.0505C12.1643 14.0505 12.2353 14.0151 12.3062 13.9443L15.3217 10.9341C15.4636 10.7924 15.4636 10.5799 15.3217 10.4383Z" fill="#232323"/>
<path d="M15.0747 12.209L13.833 13.4485C13.6911 13.5902 13.6911 13.8027 13.833 13.9443C13.904 14.0152 13.9749 14.0506 14.0813 14.0506C14.1523 14.0506 14.2587 14.0151 14.3296 13.9443L15.5713 12.7048C15.7132 12.5632 15.7132 12.3507 15.5713 12.209C15.4294 12.0674 15.2166 12.0674 15.0747 12.209Z" fill="#232323"/>
<path d="M17.2391 1.58496C16.8843 1.58496 16.5296 1.72662 16.2458 2.00992L14.2236 4.02851C14.0817 4.17016 14.0817 4.38266 14.2236 4.52432C14.2946 4.59516 14.3655 4.63055 14.4719 4.63055C14.5429 4.63055 14.6493 4.59512 14.7203 4.52432L16.7424 2.50573C16.9907 2.22243 17.4874 2.22243 17.7358 2.50573C17.8777 2.64739 18.0905 2.64739 18.2324 2.50573C18.3743 2.36408 18.3743 2.15158 18.2324 2.00992C17.9841 1.72662 17.6293 1.58496 17.2391 1.58496Z" fill="#232323"/>
<path d="M11.4269 7.05316L5.58203 12.8877L6.08374 13.3885L11.9286 7.55398L11.4269 7.05316Z" fill="#232323"/>
<path d="M6.64673 13.9501L7.14844 14.4509L12.9934 8.61639L12.4916 8.11557L6.64673 13.9501Z" fill="#232323"/>
</svg>
