<?xml version="1.0" encoding="utf-8"?>
<!-- Generator: Adobe Illustrator 24.3.0, SVG Export Plug-In . SVG Version: 6.00 Build 0)  -->
<svg version="1.1" id="Capa_1" xmlns="http://www.w3.org/2000/svg" xmlns:xlink="http://www.w3.org/1999/xlink" x="0px" y="0px"
	 viewBox="0 0 500 250" style="enable-background:new 0 0 500 250;" xml:space="preserve">
<style type="text/css">
	.st0{font-family:'GoogleSans-Bold';}
	.st1{font-size:82.2033px;}
	.st2{letter-spacing:10;}
	.st3{fill:none;}
	.st4{fill:none;stroke:#FF4576;stroke-width:7;stroke-miterlimit:10;}
	.st5{fill:none;stroke:#FF4576;stroke-width:2;stroke-miterlimit:10;}
	.st6{font-size:82.2px;}
</style>
<text transform="matrix(1 0 0 1 29.5947 158.5312)"><tspan x="0" y="0" class="st0 st1">itinera </tspan><tspan x="277.68" y="0" class="st0 st1">	</tspan><tspan x="295.93" y="0" class="st0 st1 st2">			</tspan></text>
<rect x="401.06" y="129.21" class="st3" width="1.27" height="0"/>
<path class="st4" d="M362.37,127.47l-5.98,6.88l12.56,10.32c0.57,0.47,1.22,0.85,1.92,1.11c2.28,0.84,7.47,2.04,13.29-2.48
	c8.47-6.59,2.84-17.59,1.88-18.82c-0.69-0.89-0.11-0.24-0.92-1.11"/>
<path class="st4" d="M343.5,127.35l8.22-8.22"/>
<path class="st4" d="M395.12,114.69c0.11,0.11,0.21,0.23,0.31,0.35c4.87,6.06,7.23,13.78,6.28,21.5"/>
<path class="st4" d="M292.86,144.23c0,0,1.73,8.23,9.33,14.14c1.82,1.42,7.98,5.95,16.89,5.86c11.89-0.11,19.22-8.32,20.37-9.65
	l8.47-9.88l9.88,8.47c3.35,2.87,7.33,4.92,11.63,5.9c6.48,1.47,15.68,1.56,23.67-5.9c5.71-5.33,7.95-11.35,8.61-16.63"/>
<path class="st4" d="M347.45,127.29l-14.27-12.44c-0.25-0.21-0.52-0.4-0.8-0.57c-2.78-1.72-16.93-9.1-31.52,3.14
	c0,0-11.76,9.88-8,26.82"/>
<path class="st4" d="M326.54,126.57c-0.23-0.2-0.47-0.37-0.73-0.53c-1.93-1.21-9.42-5.34-16.48,1.72c-8,8-1.88,16.47-1.88,16.47
	s4.71,7.53,12.71,6.59c0,0,4.71,0,7.06-2.82l10.82-12.24L326.54,126.57z"/>
<path class="st5" d="M354.17,116.01l2.39-2.53c0.59-0.62,1.52-0.7,2.19-0.19l10.14,7.66c0.6,0.46,0.68,1.38,0.15,1.93l-3.41,3.61
	c-0.52,0.55-1.36,0.59-1.93,0.08l-9.45-8.45C353.65,117.58,353.61,116.61,354.17,116.01z"/>
<path class="st5" d="M393.47,112.93l-9.84,9.49c-0.54,0.52-1.34,0.54-1.9,0.03l-2.81-2.56c-0.57-0.52-0.66-1.47-0.19-2.11
	l7.84-10.72c0.53-0.72,1.44-0.89,2.14-0.39l4.56,3.25C394.22,110.59,394.32,112.12,393.47,112.93z"/>
<path class="st5" d="M372.49,118.53l2.04-0.25c0.53-0.06,0.97-0.49,1.07-1.06l1.98-10.4c0.18-0.97-0.55-1.86-1.46-1.76l-10.69,1.09
	c-0.81,0.08-1.23,1.08-0.76,1.79l6.48,9.93C371.45,118.34,371.96,118.59,372.49,118.53z"/>
<text transform="matrix(1 0 0 1 410.4951 158.9326)" class="st0 st6">io</text>
</svg>
